<svg id="Icon_Artwork" data-name="Icon Artwork" xmlns="http://www.w3.org/2000/svg" viewBox="0 0 432 432"><defs><style>.cls-1{fill:#8fc31f;}.cls-2{fill:#fff;}</style></defs><title>トリミング済み</title><rect id="background" class="cls-1" width="432" height="432" rx="96"/><path id="ic_launcher" data-name="ic launcher" class="cls-2" d="M285.5,283H193.3c-3.21,0-4.54-1.31-4.54-3.72V236.61c0-2.41,1.33-3.73,4.54-3.73h60.32c13,0,24.78-3.74,24.78-19.57s-11.79-19.6-24.78-19.6H193.3c-3.21,0-4.54-1.32-4.54-3.72V152.76c0-2.41,1.33-3.73,4.54-3.73h89.76c14.52,0,26.59-4.35,26.59-20.53S297.58,108,283.06,108H169.71c-17.53,0-29,6.9-29,28.81v58.34C128.92,195.62,120,199.71,120,214s9,18.38,20.72,18.85V295.2c0,21.9,11.5,28.81,29,28.81H285.5c14.5,0,26.5-4.37,26.5-20.53S300,283,285.5,283"/></svg>