<?xml version="1.0" encoding="utf-8"?>
<!-- Generator: Adobe Illustrator 24.1.1, SVG Export Plug-In . SVG Version: 6.00 Build 0)  -->
<svg version="1.1" id="logo" xmlns="http://www.w3.org/2000/svg" xmlns:xlink="http://www.w3.org/1999/xlink" x="0px" y="0px"
	 viewBox="0 0 300 64" style="enable-background:new 0 0 300 64;" xml:space="preserve">
<style type="text/css">
	.st0{fill:#8FC31F;}
</style>
<path d="M277,27.4L290.6,11c1.4-1.3,2.1-3.1,1.9-5c-0.3-3.7-3.1-5.3-6-5.3c-2.4,0-4,1.3-5.6,3l-17.3,21V7.7
	c-0.1-3.8-3.3-6.7-7.1-6.6c-3.6,0.1-6.5,3-6.6,6.6v48.7c0.1,3.8,3.3,6.7,7.1,6.6c3.6-0.1,6.5-3,6.6-6.6v-13l5.4-6.5l18.9,23
	c2.5,3,6.8,4.7,10,1.8c2.9-2.6,2.4-5.9-0.1-9L277,27.4z"/>
<path d="M226,37.3c7.5-2.9,11.6-9.4,11.6-17.5c0-13.4-9.3-19.1-20.8-19.1h-18.1c-4.9,0-8,1.9-8,8v19.7c-2.7,0.3-4.7,1.6-4.7,5.2
	s2,4.8,4.7,5.2v16.4c-0.2,3.8,2.8,7,6.6,7.2c3.8,0.2,7-2.8,7.2-6.6c0,0,0,0,0-0.1c0-0.2,0-0.3,0-0.5V40c0-0.7,0.4-1,1.2-1h7.3
	l9.1,18c1.8,3.6,5.7,6.2,9.6,4c3.5-2,3.7-5.4,1.9-9L226,37.3z M205.6,28.4c-0.9,0-1.3-0.4-1.3-1v-15c0-0.7,0.4-1,1.3-1h7.2
	c6.8,0,11.1,2.5,11.1,8.5c0,5.2-4.1,8.5-9.6,8.5L205.6,28.4L205.6,28.4z"/>
<path d="M100.8,0.8H82.7c-4.9,0-8,1.9-8,8v19.7c-2.7,0.3-4.7,1.6-4.7,5.2s2,4.8,4.7,5.2v16.4c-0.2,3.8,2.8,7,6.6,7.2s7-2.8,7.2-6.6
	c0,0,0,0,0-0.1c0-0.2,0-0.3,0-0.5V39.3c0.3-0.3,0.6-0.4,1-0.4h11.3c13.3,0,20.9-8.1,20.9-19.1C121.7,6.4,112.4,0.7,100.8,0.8
	 M98.3,28.4h-8.9c-0.4,0-0.7-0.1-1-0.4V11.7c0.3-0.3,0.6-0.4,1-0.4h7.4c6.8,0,11.1,2.5,11.1,8.5C107.9,25,103.8,28.4,98.3,28.4"/>
<path d="M177.4,52L160.8,6.3c-1.5-4.3-4.3-5.5-7.4-5.5h-3.3c-3-0.2-5.8,1.7-6.7,4.7L125.7,52c-0.7,1.7-1.2,3.5-1.3,5.3
	c0,3.7,2.6,6,6.4,6c3.3,0,5.2-1.1,6.1-3.8l3.1-8.8c0.2-0.4,0.6-0.7,1-0.7h21c0.4,0,0.8,0.3,1,0.7l3.1,8.9c1,2.7,3.2,3.8,6.2,3.8
	c3.4,0.1,6.3-2.6,6.4-6C178.5,55.5,178.1,53.7,177.4,52 M151.1,17.6c0.3-0.7,0.9-0.5,1.1,0s5.2,15.8,6.8,20.8c0,0.1,0.1,0.2,0.1,0.4
	c0,0.6-0.5,1.1-1.1,1.1h-13c-0.6,0-1.1-0.5-1.1-1.1c0-0.1,0-0.2,0.1-0.3C145.6,33.6,150.8,18.2,151.1,17.6"/>
<path class="st0" d="M46.8,51.7H20.8c-0.9,0-1.3-0.4-1.3-1v-12c0-0.7,0.4-1,1.3-1h17.1c3.7,0,7-1.1,7-5.5s-3.3-5.5-7-5.5H20.8
	c-0.9,0-1.3-0.4-1.3-1V14.9c0-0.7,0.4-1.1,1.3-1.1h25.4c4.1,0,7.5-1.2,7.5-5.8s-3.4-5.8-7.5-5.8H14.1c-5,0-8.2,1.9-8.2,8.1v16.5
	C2.5,27,0,28.1,0,32.2s2.5,5.2,5.9,5.3v17.6c0,6.2,3.3,8.1,8.2,8.1h32.8c4.1,0,7.5-1.2,7.5-5.8S50.9,51.7,46.8,51.7"/>
</svg>
