<svg enable-background="new 0 0 300 64" viewBox="0 0 300 64" xmlns="http://www.w3.org/2000/svg"><path d="m277 27.4 13.6-16.4c1.4-1.3 2.1-3.1 1.9-5-.3-3.7-3.1-5.3-6-5.3-2.4 0-4 1.3-5.6 3l-17.3 21v-17c-.1-3.8-3.3-6.7-7.1-6.6-3.6.1-6.5 3-6.6 6.6v48.7c.1 3.8 3.3 6.7 7.1 6.6 3.6-.1 6.5-3 6.6-6.6v-13l5.4-6.5 18.9 23c2.5 3 6.8 4.7 10 1.8 2.9-2.6 2.4-5.9-.1-9z"/><path d="m226 37.3c7.5-2.9 11.6-9.4 11.6-17.5 0-13.4-9.3-19.1-20.8-19.1h-18.1c-4.9 0-8 1.9-8 8v19.7c-2.7.3-4.7 1.6-4.7 5.2s2 4.8 4.7 5.2v16.4c-.2 3.8 2.8 7 6.6 7.2s7-2.8 7.2-6.6c0 0 0 0 0-.1 0-.2 0-.3 0-.5v-15.2c0-.7.4-1 1.2-1h7.3l9.1 18c1.8 3.6 5.7 6.2 9.6 4 3.5-2 3.7-5.4 1.9-9zm-20.4-8.9c-.9 0-1.3-.4-1.3-1v-15c0-.7.4-1 1.3-1h7.2c6.8 0 11.1 2.5 11.1 8.5 0 5.2-4.1 8.5-9.6 8.5z"/><path d="m100.8.8h-18.1c-4.9 0-8 1.9-8 8v19.7c-2.7.3-4.7 1.6-4.7 5.2s2 4.8 4.7 5.2v16.4c-.2 3.8 2.8 7 6.6 7.2s7-2.8 7.2-6.6c0 0 0 0 0-.1 0-.2 0-.3 0-.5v-16c.3-.3.6-.4 1-.4h11.3c13.3 0 20.9-8.1 20.9-19.1 0-13.4-9.3-19.1-20.9-19m-2.5 27.6h-8.9c-.4 0-.7-.1-1-.4v-16.3c.3-.3.6-.4 1-.4h7.4c6.8 0 11.1 2.5 11.1 8.5 0 5.2-4.1 8.6-9.6 8.6"/><path d="m177.4 52-16.6-45.7c-1.5-4.3-4.3-5.5-7.4-5.5h-3.3c-3-.2-5.8 1.7-6.7 4.7l-17.7 46.5c-.7 1.7-1.2 3.5-1.3 5.3 0 3.7 2.6 6 6.4 6 3.3 0 5.2-1.1 6.1-3.8l3.1-8.8c.2-.4.6-.7 1-.7h21c.4 0 .8.3 1 .7l3.1 8.9c1 2.7 3.2 3.8 6.2 3.8 3.4.1 6.3-2.6 6.4-6-.2-1.9-.6-3.7-1.3-5.4m-26.3-34.4c.3-.7.9-.5 1.1 0s5.2 15.8 6.8 20.8c0 .1.1.2.1.4 0 .6-.5 1.1-1.1 1.1h-13c-.6 0-1.1-.5-1.1-1.1 0-.1 0-.2.1-.3 1.6-4.9 6.8-20.3 7.1-20.9"/><path d="m46.8 51.7h-26c-.9 0-1.3-.4-1.3-1v-12c0-.7.4-1 1.3-1h17.1c3.7 0 7-1.1 7-5.5s-3.3-5.5-7-5.5h-17.1c-.9 0-1.3-.4-1.3-1v-10.8c0-.7.4-1.1 1.3-1.1h25.4c4.1 0 7.5-1.2 7.5-5.8s-3.4-5.8-7.5-5.8h-32.1c-5 0-8.2 1.9-8.2 8.1v16.5c-3.4.2-5.9 1.3-5.9 5.4s2.5 5.2 5.9 5.3v17.6c0 6.2 3.3 8.1 8.2 8.1h32.8c4.1 0 7.5-1.2 7.5-5.8s-3.5-5.7-7.6-5.7" fill="#8fc31f"/></svg>