<?xml version="1.0" encoding="UTF-8" standalone="no"?>
<!DOCTYPE svg PUBLIC "-//W3C//DTD SVG 1.1//EN" "http://www.w3.org/Graphics/SVG/1.1/DTD/svg11.dtd">
<svg xmlns="http://www.w3.org/2000/svg" version="1.1" viewBox="0.00 0.00 435.00 195.00">
<g stroke-width="2.00" fill="none" stroke-linecap="butt">
<path stroke="#dedede" vector-effect="non-scaling-stroke" d="
  M 432.00 30.14
  A 27.14 27.14 0.0 0 0 404.86 3.00
  L 30.14 3.00
  A 27.14 27.14 0.0 0 0 3.00 30.14
  L 3.00 155.86
  A 27.14 27.14 0.0 0 0 30.14 183.00
  L 404.86 183.00
  A 27.14 27.14 0.0 0 0 432.00 155.86
  L 432.00 30.14"
/>
<path stroke="#89c7c8" vector-effect="non-scaling-stroke" d="
  M 240.19 56.95
  L 253.19 43.94
  A 0.45 0.45 0.0 0 0 253.19 43.31
  L 241.80 31.92
  A 0.62 0.62 0.0 0 0 240.91 31.93
  L 228.38 44.83
  Q 227.96 45.26 227.37 45.24
  C 222.71 45.13 216.22 46.38 215.13 51.65
  Q 214.19 56.23 217.69 58.87
  C 219.72 60.39 223.11 59.81 224.24 62.54
  C 224.97 64.32 224.92 66.17 226.36 67.65
  Q 229.33 70.71 233.24 69.84
  C 238.41 68.70 239.89 62.72 239.74 58.08
  Q 239.72 57.42 240.19 56.95"
/>
<path stroke="#89c7c8" vector-effect="non-scaling-stroke" d="
  M 211.17 86.72
  C 216.91 86.95 223.74 84.50 222.91 77.55
  C 222.61 75.01 220.80 72.71 218.26 72.07
  C 215.91 71.47 213.75 70.91 213.21 68.11
  Q 212.01 61.89 205.88 61.89
  C 199.74 61.90 198.14 69.47 198.29 74.37
  Q 198.30 74.91 197.91 75.29
  L 184.81 88.03
  A 0.47 0.47 0.0 0 0 184.81 88.70
  L 196.19 100.06
  Q 196.63 100.50 197.07 100.06
  L 209.92 87.21
  Q 210.44 86.69 211.17 86.72"
/>
<path stroke="#89c7c8" vector-effect="non-scaling-stroke" d="
  M 141.01 155.10
  Q 141.01 155.97 140.14 155.98
  L 138.32 156.02
  A 0.59 0.58 86.0 0 0 137.75 156.68
  L 138.06 159.08
  Q 138.17 159.94 139.04 160.00
  C 141.60 160.17 145.25 160.25 145.42 156.66
  Q 145.60 152.84 145.46 148.56
  Q 145.44 147.96 145.98 147.71
  Q 147.61 146.95 147.50 145.09
  Q 147.46 144.54 146.96 144.33
  Q 146.53 144.16 146.06 144.24
  Q 145.50 144.34 145.50 143.77
  L 145.50 139.71
  Q 145.50 138.94 146.26 139.02
  Q 146.74 139.07 147.19 138.91
  Q 147.75 138.72 147.75 138.12
  L 147.75 136.64
  Q 147.75 136.03 147.14 136.01
  L 146.11 135.99
  Q 145.50 135.98 145.50 135.36
  L 145.50 131.51
  Q 145.50 131.02 145.01 131.01
  L 141.51 131.00
  Q 141.01 130.99 141.01 131.49
  L 141.00 135.37
  Q 141.00 135.99 140.38 135.99
  L 138.24 136.02
  Q 137.75 136.03 137.74 136.52
  L 137.72 138.47
  Q 137.71 138.97 138.22 138.98
  L 140.26 139.01
  Q 141.00 139.02 141.00 139.76
  L 141.00 144.85
  Q 141.00 145.57 140.28 145.63
  L 138.01 145.81
  Q 137.14 145.88 137.30 146.74
  L 137.79 149.33
  A 0.65 0.65 0.0 0 0 138.61 149.84
  L 140.34 149.34
  Q 141.00 149.16 141.00 149.84
  L 141.01 155.10"
/>
<path stroke="#89c7c8" vector-effect="non-scaling-stroke" d="
  M 154.07 155.51
  Q 151.02 156.57 147.64 156.93
  Q 146.90 157.01 147.09 157.73
  L 147.57 159.47
  Q 147.71 160.00 148.26 159.97
  Q 153.94 159.66 158.90 157.36
  Q 159.38 157.13 159.86 157.34
  L 165.07 159.61
  Q 165.81 159.94 166.31 159.30
  L 167.32 158.01
  Q 167.91 157.26 167.03 156.89
  L 163.23 155.28
  Q 162.62 155.03 163.00 154.48
  Q 164.59 152.19 165.13 149.66
  A 0.83 0.82 -84.2 0 1 165.92 149.01
  L 168.01 148.99
  Q 168.51 148.98 168.51 148.49
  L 168.50 146.50
  Q 168.50 146.00 168.00 146.00
  L 157.45 146.00
  Q 156.64 146.00 156.88 145.23
  L 157.34 143.72
  Q 157.56 143.01 158.30 143.01
  L 168.00 142.99
  Q 168.50 142.99 168.50 142.50
  L 168.51 140.53
  Q 168.51 140.04 168.03 140.03
  L 165.08 139.96
  Q 164.44 139.95 164.57 139.32
  Q 165.09 136.94 167.01 136.95
  Q 167.75 136.96 167.76 136.21
  L 167.76 134.76
  Q 167.76 134.00 167.01 134.00
  L 160.99 134.00
  Q 160.22 134.00 160.24 133.24
  L 160.26 131.65
  Q 160.27 131.02 159.65 131.01
  L 156.94 130.99
  A 0.99 0.99 0.0 0 0 155.99 132.25
  Q 156.48 133.97 154.83 134.00
  Q 152.28 134.04 149.52 133.96
  Q 148.74 133.94 148.74 134.72
  L 148.75 136.18
  Q 148.76 136.88 149.46 136.87
  Q 151.43 136.86 151.66 139.28
  Q 151.72 139.97 151.03 139.98
  L 148.24 140.02
  Q 148.01 140.02 148.01 140.26
  L 148.01 142.63
  Q 148.01 143.00 148.38 143.00
  L 152.54 143.00
  Q 153.09 143.00 152.99 143.54
  L 152.68 145.34
  Q 152.57 145.99 151.90 145.99
  L 148.47 146.00
  Q 147.69 146.01 147.80 146.78
  L 148.05 148.55
  Q 148.11 149.00 148.56 149.00
  L 150.46 149.00
  A 0.52 0.52 0.0 0 1 150.94 149.71
  L 149.76 152.60
  A 1.10 1.10 0.0 0 0 150.52 154.08
  L 154.04 154.92
  Q 155.05 155.16 154.07 155.51"
/>
<path stroke="#89c7c8" vector-effect="non-scaling-stroke" d="
  M 258.91 133.90
  Q 259.15 133.54 259.17 133.11
  Q 259.19 132.41 258.49 132.33
  L 256.22 132.08
  Q 255.61 132.01 255.41 132.60
  Q 254.17 136.39 251.99 139.50
  A 0.95 0.95 0.0 0 0 251.93 140.50
  Q 252.82 142.18 254.49 141.40
  Q 255.44 140.95 255.93 141.88
  L 256.38 142.74
  Q 256.79 143.53 255.94 143.81
  L 252.73 144.87
  Q 251.87 145.16 252.07 146.05
  L 252.24 146.81
  Q 252.60 148.35 254.10 147.85
  L 259.57 146.04
  Q 260.18 145.83 260.79 146.06
  L 265.40 147.76
  Q 266.36 148.11 266.85 147.22
  L 267.58 145.91
  Q 267.90 145.34 267.28 145.13
  L 263.70 143.90
  Q 262.97 143.65 263.48 143.08
  Q 264.97 141.37 265.52 139.06
  A 1.21 1.19 86.9 0 1 266.27 138.21
  Q 268.02 137.57 267.53 135.63
  Q 267.37 135.01 266.74 135.01
  L 259.49 135.00
  Q 258.17 135.00 258.91 133.90"
/>
<path stroke="#89c7c8" vector-effect="non-scaling-stroke" d="
  M 273.75 148.79
  L 273.75 160.50
  Q 273.75 161.00 274.25 161.00
  L 277.75 161.00
  Q 278.25 161.00 278.25 160.50
  L 278.25 155.71
  Q 278.25 154.87 278.88 155.42
  L 280.22 156.60
  A 0.62 0.62 0.0 0 0 281.11 156.53
  L 282.96 154.28
  Q 283.49 153.63 283.49 154.47
  L 283.48 155.35
  Q 283.47 155.98 284.10 155.98
  L 286.77 156.01
  A 0.51 0.50 90.0 0 1 287.27 156.52
  L 287.25 160.74
  Q 287.24 160.99 287.49 160.99
  L 291.36 161.00
  Q 291.73 161.00 291.73 160.64
  L 291.76 156.50
  Q 291.76 156.01 292.25 156.00
  L 294.64 155.99
  Q 295.27 155.99 295.27 155.36
  L 295.27 154.30
  Q 295.27 153.47 295.83 154.09
  L 298.09 156.59
  Q 298.43 156.97 298.78 156.61
  L 301.09 154.27
  Q 301.39 153.97 301.08 153.69
  Q 296.20 149.24 292.60 142.65
  Q 292.24 141.99 293.00 141.99
  L 299.99 142.00
  Q 300.49 142.00 300.49 141.51
  L 300.51 138.50
  Q 300.51 138.00 300.00 138.00
  L 292.25 138.01
  A 0.51 0.50 89.4 0 1 291.74 137.50
  L 291.76 132.39
  Q 291.76 132.02 291.39 132.02
  L 287.50 132.00
  Q 287.25 132.00 287.25 132.25
  L 287.26 137.50
  Q 287.26 138.01 286.75 138.01
  L 280.05 138.02
  A 0.92 0.92 0.0 0 0 279.14 139.11
  Q 279.33 140.17 279.26 141.17
  Q 279.19 141.99 280.01 141.99
  L 285.29 141.99
  Q 286.38 141.99 285.86 142.95
  Q 282.81 148.66 279.01 153.15
  Q 278.26 154.03 278.26 152.87
  C 278.25 149.09 278.75 144.29 277.89 140.68
  Q 277.79 140.27 277.98 139.89
  Q 279.63 136.53 280.43 133.20
  A 0.49 0.49 0.0 0 0 280.03 132.60
  L 276.67 132.11
  Q 276.14 132.03 276.00 132.54
  Q 273.74 141.06 269.13 147.94
  Q 268.72 148.54 269.27 149.03
  L 271.21 150.74
  A 0.44 0.44 0.0 0 0 271.88 150.65
  L 273.15 148.62
  Q 273.75 147.68 273.75 148.79"
/>
<path stroke="#89c7c8" vector-effect="non-scaling-stroke" d="
  M 248.75 143.45
  L 250.82 142.89
  Q 251.41 142.73 251.40 142.12
  L 251.26 136.78
  Q 251.25 136.07 250.53 136.06
  L 246.66 135.99
  Q 246.33 135.99 246.33 135.66
  L 246.32 135.29
  Q 246.31 135.02 246.58 135.01
  Q 249.03 134.97 251.09 135.00
  Q 252.01 135.01 251.99 134.06
  Q 251.99 134.00 252.01 133.95
  Q 252.20 132.99 251.24 133.03
  Q 248.69 133.14 246.24 132.50
  Q 244.49 132.04 242.75 132.46
  Q 240.08 133.10 237.21 133.11
  A 0.57 0.56 1.6 0 0 236.65 133.63
  L 236.63 133.94
  Q 236.56 134.95 237.57 134.96
  L 242.21 135.03
  Q 242.47 135.03 242.47 135.29
  L 242.47 135.63
  Q 242.47 135.99 242.11 135.99
  L 238.47 136.05
  Q 237.76 136.07 237.75 136.78
  L 237.74 142.28
  Q 237.73 142.83 238.28 142.93
  L 239.85 143.21
  Q 240.91 143.39 239.91 143.80
  L 236.98 144.98
  Q 236.21 145.28 236.58 146.03
  L 237.21 147.27
  Q 237.62 148.09 238.44 147.67
  L 241.89 145.88
  Q 242.54 145.55 242.50 146.28
  L 242.47 146.85
  Q 242.44 147.58 243.14 147.76
  Q 244.53 148.11 245.81 147.76
  Q 246.36 147.60 246.31 147.03
  L 246.24 146.03
  Q 246.17 145.20 246.91 145.58
  L 249.04 146.66
  Q 249.83 147.06 250.32 146.32
  L 251.06 145.22
  Q 251.67 144.31 250.59 144.12
  L 248.77 143.80
  Q 247.99 143.66 248.75 143.45"
/>
<path stroke="#89c7c8" vector-effect="non-scaling-stroke" d="
  M 197.50 140.25
  L 197.50 133.73
  Q 197.50 132.96 196.73 132.96
  L 175.15 132.95
  Q 174.51 132.95 174.51 133.60
  L 174.50 140.37
  A 0.63 0.62 -0.5 0 1 173.88 140.99
  L 171.50 141.01
  Q 170.75 141.01 170.75 141.75
  L 170.74 146.24
  Q 170.74 146.98 171.49 147.00
  L 173.05 147.02
  Q 173.89 147.04 173.94 146.20
  L 174.04 144.70
  Q 174.09 143.99 174.80 143.99
  L 197.06 144.00
  A 0.75 0.75 0.0 0 1 197.79 144.93
  Q 197.59 145.77 197.86 146.51
  Q 198.03 146.97 198.52 146.98
  L 200.49 147.01
  Q 201.25 147.02 201.25 146.26
  L 201.25 141.51
  Q 201.25 141.02 200.76 141.02
  L 198.25 141.00
  Q 197.50 141.00 197.50 140.25"
/>
<path stroke="#89c7c8" vector-effect="non-scaling-stroke" d="
  M 218.8000 151.0200
  A 3.51 3.28 90.0 0 0 222.0800 147.5100
  A 3.51 3.28 90.0 0 0 218.8000 144.0000
  A 3.51 3.28 90.0 0 0 215.5200 147.5100
  A 3.51 3.28 90.0 0 0 218.8000 151.0200"
/>
<path stroke="#89c7c8" vector-effect="non-scaling-stroke" d="
  M 180.13 155.99
  L 192.12 156.01
  A 0.49 0.49 0.0 0 1 192.60 156.61
  L 192.49 157.10
  A 1.13 1.12 5.8 0 1 191.40 157.98
  L 188.52 158.02
  Q 188.31 158.02 188.33 158.23
  L 188.55 160.74
  Q 188.57 160.98 188.81 160.99
  C 191.15 161.05 196.79 161.81 196.77 157.99
  Q 196.74 152.23 196.75 146.53
  A 0.52 0.52 0.0 0 0 196.23 146.01
  L 175.75 146.00
  Q 175.00 146.00 175.00 146.75
  L 175.00 160.25
  Q 175.01 160.99 175.75 160.99
  L 178.75 161.00
  A 0.75 0.75 0.0 0 0 179.50 160.25
  L 179.50 156.62
  Q 179.50 155.99 180.13 155.99"
/>
<path stroke="#89c7c8" vector-effect="non-scaling-stroke" d="
  M 254.29 156.24
  Q 254.29 156.02 254.51 156.02
  L 262.76 155.97
  Q 263.74 155.97 263.75 154.99
  L 263.76 153.95
  A 0.83 0.82 -89.3 0 0 262.95 153.11
  L 254.62 153.04
  Q 254.21 153.04 254.27 152.62
  L 254.32 152.25
  Q 254.35 152.04 254.56 152.04
  L 264.51 151.96
  Q 265.48 151.96 265.52 150.99
  L 265.56 149.93
  Q 265.59 149.01 264.68 149.01
  L 238.74 149.01
  Q 237.99 149.01 237.99 149.76
  L 238.00 151.25
  Q 238.00 152.00 238.75 152.00
  L 249.25 152.00
  A 0.51 0.50 0.0 0 1 249.76 152.50
  L 249.74 156.01
  A 1.00 0.99 -0.0 0 1 248.74 157.00
  L 246.48 156.99
  A 0.75 0.75 0.0 0 1 245.73 156.23
  L 245.76 153.77
  Q 245.76 153.23 245.23 153.11
  Q 243.96 152.84 242.28 153.08
  Q 241.50 153.19 241.50 153.99
  L 241.50 156.27
  Q 241.50 156.91 240.86 156.93
  L 237.73 157.03
  Q 237.00 157.05 237.00 157.77
  L 237.00 159.25
  Q 237.00 160.00 237.75 160.00
  L 266.24 160.03
  Q 267.02 160.03 267.01 159.25
  L 267.00 157.87
  Q 266.99 157.01 266.12 157.02
  L 254.70 157.10
  Q 254.31 157.10 254.30 156.70
  L 254.29 156.24"
/>
<path stroke="#89c7c8" vector-effect="non-scaling-stroke" d="
  M 159.88 139.98
  A 0.47 0.47 0.0 0 0 160.33 139.65
  L 160.93 137.60
  A 0.47 0.47 0.0 0 0 160.48 136.99
  L 155.74 137.02
  A 0.47 0.47 0.0 0 0 155.31 137.66
  L 156.15 139.72
  A 0.47 0.47 0.0 0 0 156.59 140.02
  L 159.88 139.98"
/>
<path stroke="#89c7c8" vector-effect="non-scaling-stroke" d="
  M 160.95 149.85
  A 0.57 0.57 0.0 0 0 160.45 149.00
  L 155.68 149.00
  A 0.57 0.57 0.0 0 0 155.14 149.39
  L 154.54 151.18
  A 0.57 0.57 0.0 0 0 154.88 151.89
  L 158.51 153.26
  A 0.57 0.57 0.0 0 0 159.21 153.00
  L 160.95 149.85"
/>
<path stroke="#89c7c8" vector-effect="non-scaling-stroke" d="
  M 261.68 138.96
  A 0.62 0.62 0.0 0 0 261.16 138.00
  L 258.02 137.98
  A 0.62 0.62 0.0 0 0 257.54 139.01
  L 259.36 141.10
  A 0.62 0.62 0.0 0 0 260.35 141.03
  L 261.68 138.96"
/>
<path stroke="#89c7c8" vector-effect="non-scaling-stroke" d="
  M 287.33 148.80
  Q 287.45 148.54 287.33 148.26
  Q 287.10 147.71 286.84 148.25
  Q 286.19 149.62 285.36 150.78
  Q 284.42 152.12 286.21 152.13
  A 1.08 1.08 0.0 0 0 287.29 151.04
  Q 287.29 150.17 287.24 149.23
  Q 287.23 149.01 287.33 148.80"
/>
<path stroke="#89c7c8" vector-effect="non-scaling-stroke" d="
  M 291.64 148.67
  L 291.75 151.27
  Q 291.78 152.02 292.53 152.01
  L 293.29 151.99
  Q 294.19 151.98 293.71 151.21
  L 292.04 148.54
  Q 291.61 147.86 291.64 148.67"
/>
<path stroke="#89c7c8" vector-effect="non-scaling-stroke" d="
  M 241.06 138.04
  A 0.35 0.35 0.0 0 0 240.72 138.39
  L 240.75 140.51
  A 0.35 0.35 0.0 0 0 241.07 140.85
  L 242.14 140.93
  A 0.35 0.35 0.0 0 0 242.52 140.58
  L 242.49 138.37
  A 0.35 0.35 0.0 0 0 242.14 138.02
  L 241.06 138.04"
/>
<path stroke="#89c7c8" vector-effect="non-scaling-stroke" d="
  M 248.2646 138.6153
  A 0.60 0.60 0.0 0 0 247.6678 138.0122
  L 246.8478 138.0079
  A 0.60 0.60 0.0 0 0 246.2447 138.6047
  L 246.2354 140.3847
  A 0.60 0.60 0.0 0 0 246.8322 140.9878
  L 247.6522 140.9921
  A 0.60 0.60 0.0 0 0 248.2553 140.3953
  L 248.2646 138.6153"
/>
<path stroke="#89c7c8" vector-effect="non-scaling-stroke" d="
  M 184.26 138.19
  L 192.64 137.73
  A 0.50 0.49 -4.0 0 0 193.11 137.20
  L 193.09 136.85
  Q 193.04 136.01 192.20 136.01
  L 180.00 135.98
  A 1.03 1.03 0.0 0 0 178.97 137.00
  L 178.94 140.27
  A 0.75 0.75 0.0 0 0 179.77 141.03
  L 182.93 140.72
  A 0.66 0.65 -2.9 0 0 183.52 140.07
  L 183.51 138.99
  Q 183.50 138.23 184.26 138.19"
/>
<path stroke="#89c7c8" vector-effect="non-scaling-stroke" d="
  M 192.72 139.97
  Q 190.55 139.95 188.39 140.26
  Q 186.56 140.53 188.37 140.88
  Q 190.17 141.22 192.46 140.90
  Q 192.88 140.84 192.83 140.42
  L 192.79 140.03
  Q 192.78 139.97 192.72 139.97"
/>
<path stroke="#89c7c8" vector-effect="non-scaling-stroke" d="
  M 192.7001 148.9835
  A 0.93 0.93 0.0 0 0 191.7733 148.0503
  L 180.1534 148.0097
  A 0.93 0.93 0.0 0 0 179.2201 148.9365
  L 179.2199 148.9965
  A 0.93 0.93 0.0 0 0 180.1467 149.9297
  L 191.7666 149.9703
  A 0.93 0.93 0.0 0 0 192.6999 149.0435
  L 192.7001 148.9835"
/>
<path stroke="#89c7c8" vector-effect="non-scaling-stroke" d="
  M 192.70 152.98
  A 0.98 0.98 0.0 0 0 191.72 152.00
  L 180.28 152.00
  A 0.98 0.98 0.0 0 0 179.30 152.98
  L 179.30 153.02
  A 0.98 0.98 0.0 0 0 180.28 154.00
  L 191.72 154.00
  A 0.98 0.98 0.0 0 0 192.70 153.02
  L 192.70 152.98"
/>
</g>
<path fill="#bdbdbd" d="
  M 28.94 0.00
  L 406.24 0.00
  Q 414.65 0.56 420.89 4.61
  Q 433.85 13.01 435.00 28.87
  L 435.00 162.50
  Q 434.80 165.00 434.67 167.51
  C 434.05 179.21 425.91 189.50 415.09 193.26
  Q 411.12 194.65 408.70 194.65
  Q 204.41 194.87 28.09 194.73
  C 22.46 194.73 16.83 192.60 12.34 189.18
  Q 0.73 180.33 0.00 165.62
  L 0.00 28.51
  Q 0.62 20.28 4.61 14.10
  Q 12.97 1.16 28.94 0.00
  Z
  M 432.00 30.14
  A 27.14 27.14 0.0 0 0 404.86 3.00
  L 30.14 3.00
  A 27.14 27.14 0.0 0 0 3.00 30.14
  L 3.00 155.86
  A 27.14 27.14 0.0 0 0 30.14 183.00
  L 404.86 183.00
  A 27.14 27.14 0.0 0 0 432.00 155.86
  L 432.00 30.14
  Z"
/>
<path fill="#ffffff" d="
  M 432.00 155.86
  A 27.14 27.14 0.0 0 1 404.86 183.00
  L 30.14 183.00
  A 27.14 27.14 0.0 0 1 3.00 155.86
  L 3.00 30.14
  A 27.14 27.14 0.0 0 1 30.14 3.00
  L 404.86 3.00
  A 27.14 27.14 0.0 0 1 432.00 30.14
  L 432.00 155.86
  Z
  M 240.19 56.95
  L 253.19 43.94
  A 0.45 0.45 0.0 0 0 253.19 43.31
  L 241.80 31.92
  A 0.62 0.62 0.0 0 0 240.91 31.93
  L 228.38 44.83
  Q 227.96 45.26 227.37 45.24
  C 222.71 45.13 216.22 46.38 215.13 51.65
  Q 214.19 56.23 217.69 58.87
  C 219.72 60.39 223.11 59.81 224.24 62.54
  C 224.97 64.32 224.92 66.17 226.36 67.65
  Q 229.33 70.71 233.24 69.84
  C 238.41 68.70 239.89 62.72 239.74 58.08
  Q 239.72 57.42 240.19 56.95
  Z
  M 211.17 86.72
  C 216.91 86.95 223.74 84.50 222.91 77.55
  C 222.61 75.01 220.80 72.71 218.26 72.07
  C 215.91 71.47 213.75 70.91 213.21 68.11
  Q 212.01 61.89 205.88 61.89
  C 199.74 61.90 198.14 69.47 198.29 74.37
  Q 198.30 74.91 197.91 75.29
  L 184.81 88.03
  A 0.47 0.47 0.0 0 0 184.81 88.70
  L 196.19 100.06
  Q 196.63 100.50 197.07 100.06
  L 209.92 87.21
  Q 210.44 86.69 211.17 86.72
  Z
  M 141.01 155.10
  Q 141.01 155.97 140.14 155.98
  L 138.32 156.02
  A 0.59 0.58 86.0 0 0 137.75 156.68
  L 138.06 159.08
  Q 138.17 159.94 139.04 160.00
  C 141.60 160.17 145.25 160.25 145.42 156.66
  Q 145.60 152.84 145.46 148.56
  Q 145.44 147.96 145.98 147.71
  Q 147.61 146.95 147.50 145.09
  Q 147.46 144.54 146.96 144.33
  Q 146.53 144.16 146.06 144.24
  Q 145.50 144.34 145.50 143.77
  L 145.50 139.71
  Q 145.50 138.94 146.26 139.02
  Q 146.74 139.07 147.19 138.91
  Q 147.75 138.72 147.75 138.12
  L 147.75 136.64
  Q 147.75 136.03 147.14 136.01
  L 146.11 135.99
  Q 145.50 135.98 145.50 135.36
  L 145.50 131.51
  Q 145.50 131.02 145.01 131.01
  L 141.51 131.00
  Q 141.01 130.99 141.01 131.49
  L 141.00 135.37
  Q 141.00 135.99 140.38 135.99
  L 138.24 136.02
  Q 137.75 136.03 137.74 136.52
  L 137.72 138.47
  Q 137.71 138.97 138.22 138.98
  L 140.26 139.01
  Q 141.00 139.02 141.00 139.76
  L 141.00 144.85
  Q 141.00 145.57 140.28 145.63
  L 138.01 145.81
  Q 137.14 145.88 137.30 146.74
  L 137.79 149.33
  A 0.65 0.65 0.0 0 0 138.61 149.84
  L 140.34 149.34
  Q 141.00 149.16 141.00 149.84
  L 141.01 155.10
  Z
  M 154.07 155.51
  Q 151.02 156.57 147.64 156.93
  Q 146.90 157.01 147.09 157.73
  L 147.57 159.47
  Q 147.71 160.00 148.26 159.97
  Q 153.94 159.66 158.90 157.36
  Q 159.38 157.13 159.86 157.34
  L 165.07 159.61
  Q 165.81 159.94 166.31 159.30
  L 167.32 158.01
  Q 167.91 157.26 167.03 156.89
  L 163.23 155.28
  Q 162.62 155.03 163.00 154.48
  Q 164.59 152.19 165.13 149.66
  A 0.83 0.82 -84.2 0 1 165.92 149.01
  L 168.01 148.99
  Q 168.51 148.98 168.51 148.49
  L 168.50 146.50
  Q 168.50 146.00 168.00 146.00
  L 157.45 146.00
  Q 156.64 146.00 156.88 145.23
  L 157.34 143.72
  Q 157.56 143.01 158.30 143.01
  L 168.00 142.99
  Q 168.50 142.99 168.50 142.50
  L 168.51 140.53
  Q 168.51 140.04 168.03 140.03
  L 165.08 139.96
  Q 164.44 139.95 164.57 139.32
  Q 165.09 136.94 167.01 136.95
  Q 167.75 136.96 167.76 136.21
  L 167.76 134.76
  Q 167.76 134.00 167.01 134.00
  L 160.99 134.00
  Q 160.22 134.00 160.24 133.24
  L 160.26 131.65
  Q 160.27 131.02 159.65 131.01
  L 156.94 130.99
  A 0.99 0.99 0.0 0 0 155.99 132.25
  Q 156.48 133.97 154.83 134.00
  Q 152.28 134.04 149.52 133.96
  Q 148.74 133.94 148.74 134.72
  L 148.75 136.18
  Q 148.76 136.88 149.46 136.87
  Q 151.43 136.86 151.66 139.28
  Q 151.72 139.97 151.03 139.98
  L 148.24 140.02
  Q 148.01 140.02 148.01 140.26
  L 148.01 142.63
  Q 148.01 143.00 148.38 143.00
  L 152.54 143.00
  Q 153.09 143.00 152.99 143.54
  L 152.68 145.34
  Q 152.57 145.99 151.90 145.99
  L 148.47 146.00
  Q 147.69 146.01 147.80 146.78
  L 148.05 148.55
  Q 148.11 149.00 148.56 149.00
  L 150.46 149.00
  A 0.52 0.52 0.0 0 1 150.94 149.71
  L 149.76 152.60
  A 1.10 1.10 0.0 0 0 150.52 154.08
  L 154.04 154.92
  Q 155.05 155.16 154.07 155.51
  Z
  M 258.91 133.90
  Q 259.15 133.54 259.17 133.11
  Q 259.19 132.41 258.49 132.33
  L 256.22 132.08
  Q 255.61 132.01 255.41 132.60
  Q 254.17 136.39 251.99 139.50
  A 0.95 0.95 0.0 0 0 251.93 140.50
  Q 252.82 142.18 254.49 141.40
  Q 255.44 140.95 255.93 141.88
  L 256.38 142.74
  Q 256.79 143.53 255.94 143.81
  L 252.73 144.87
  Q 251.87 145.16 252.07 146.05
  L 252.24 146.81
  Q 252.60 148.35 254.10 147.85
  L 259.57 146.04
  Q 260.18 145.83 260.79 146.06
  L 265.40 147.76
  Q 266.36 148.11 266.85 147.22
  L 267.58 145.91
  Q 267.90 145.34 267.28 145.13
  L 263.70 143.90
  Q 262.97 143.65 263.48 143.08
  Q 264.97 141.37 265.52 139.06
  A 1.21 1.19 86.9 0 1 266.27 138.21
  Q 268.02 137.57 267.53 135.63
  Q 267.37 135.01 266.74 135.01
  L 259.49 135.00
  Q 258.17 135.00 258.91 133.90
  Z
  M 273.75 148.79
  L 273.75 160.50
  Q 273.75 161.00 274.25 161.00
  L 277.75 161.00
  Q 278.25 161.00 278.25 160.50
  L 278.25 155.71
  Q 278.25 154.87 278.88 155.42
  L 280.22 156.60
  A 0.62 0.62 0.0 0 0 281.11 156.53
  L 282.96 154.28
  Q 283.49 153.63 283.49 154.47
  L 283.48 155.35
  Q 283.47 155.98 284.10 155.98
  L 286.77 156.01
  A 0.51 0.50 90.0 0 1 287.27 156.52
  L 287.25 160.74
  Q 287.24 160.99 287.49 160.99
  L 291.36 161.00
  Q 291.73 161.00 291.73 160.64
  L 291.76 156.50
  Q 291.76 156.01 292.25 156.00
  L 294.64 155.99
  Q 295.27 155.99 295.27 155.36
  L 295.27 154.30
  Q 295.27 153.47 295.83 154.09
  L 298.09 156.59
  Q 298.43 156.97 298.78 156.61
  L 301.09 154.27
  Q 301.39 153.97 301.08 153.69
  Q 296.20 149.24 292.60 142.65
  Q 292.24 141.99 293.00 141.99
  L 299.99 142.00
  Q 300.49 142.00 300.49 141.51
  L 300.51 138.50
  Q 300.51 138.00 300.00 138.00
  L 292.25 138.01
  A 0.51 0.50 89.4 0 1 291.74 137.50
  L 291.76 132.39
  Q 291.76 132.02 291.39 132.02
  L 287.50 132.00
  Q 287.25 132.00 287.25 132.25
  L 287.26 137.50
  Q 287.26 138.01 286.75 138.01
  L 280.05 138.02
  A 0.92 0.92 0.0 0 0 279.14 139.11
  Q 279.33 140.17 279.26 141.17
  Q 279.19 141.99 280.01 141.99
  L 285.29 141.99
  Q 286.38 141.99 285.86 142.95
  Q 282.81 148.66 279.01 153.15
  Q 278.26 154.03 278.26 152.87
  C 278.25 149.09 278.75 144.29 277.89 140.68
  Q 277.79 140.27 277.98 139.89
  Q 279.63 136.53 280.43 133.20
  A 0.49 0.49 0.0 0 0 280.03 132.60
  L 276.67 132.11
  Q 276.14 132.03 276.00 132.54
  Q 273.74 141.06 269.13 147.94
  Q 268.72 148.54 269.27 149.03
  L 271.21 150.74
  A 0.44 0.44 0.0 0 0 271.88 150.65
  L 273.15 148.62
  Q 273.75 147.68 273.75 148.79
  Z
  M 248.75 143.45
  L 250.82 142.89
  Q 251.41 142.73 251.40 142.12
  L 251.26 136.78
  Q 251.25 136.07 250.53 136.06
  L 246.66 135.99
  Q 246.33 135.99 246.33 135.66
  L 246.32 135.29
  Q 246.31 135.02 246.58 135.01
  Q 249.03 134.97 251.09 135.00
  Q 252.01 135.01 251.99 134.06
  Q 251.99 134.00 252.01 133.95
  Q 252.20 132.99 251.24 133.03
  Q 248.69 133.14 246.24 132.50
  Q 244.49 132.04 242.75 132.46
  Q 240.08 133.10 237.21 133.11
  A 0.57 0.56 1.6 0 0 236.65 133.63
  L 236.63 133.94
  Q 236.56 134.95 237.57 134.96
  L 242.21 135.03
  Q 242.47 135.03 242.47 135.29
  L 242.47 135.63
  Q 242.47 135.99 242.11 135.99
  L 238.47 136.05
  Q 237.76 136.07 237.75 136.78
  L 237.74 142.28
  Q 237.73 142.83 238.28 142.93
  L 239.85 143.21
  Q 240.91 143.39 239.91 143.80
  L 236.98 144.98
  Q 236.21 145.28 236.58 146.03
  L 237.21 147.27
  Q 237.62 148.09 238.44 147.67
  L 241.89 145.88
  Q 242.54 145.55 242.50 146.28
  L 242.47 146.85
  Q 242.44 147.58 243.14 147.76
  Q 244.53 148.11 245.81 147.76
  Q 246.36 147.60 246.31 147.03
  L 246.24 146.03
  Q 246.17 145.20 246.91 145.58
  L 249.04 146.66
  Q 249.83 147.06 250.32 146.32
  L 251.06 145.22
  Q 251.67 144.31 250.59 144.12
  L 248.77 143.80
  Q 247.99 143.66 248.75 143.45
  Z
  M 197.50 140.25
  L 197.50 133.73
  Q 197.50 132.96 196.73 132.96
  L 175.15 132.95
  Q 174.51 132.95 174.51 133.60
  L 174.50 140.37
  A 0.63 0.62 -0.5 0 1 173.88 140.99
  L 171.50 141.01
  Q 170.75 141.01 170.75 141.75
  L 170.74 146.24
  Q 170.74 146.98 171.49 147.00
  L 173.05 147.02
  Q 173.89 147.04 173.94 146.20
  L 174.04 144.70
  Q 174.09 143.99 174.80 143.99
  L 197.06 144.00
  A 0.75 0.75 0.0 0 1 197.79 144.93
  Q 197.59 145.77 197.86 146.51
  Q 198.03 146.97 198.52 146.98
  L 200.49 147.01
  Q 201.25 147.02 201.25 146.26
  L 201.25 141.51
  Q 201.25 141.02 200.76 141.02
  L 198.25 141.00
  Q 197.50 141.00 197.50 140.25
  Z
  M 218.8000 151.0200
  A 3.51 3.28 90.0 0 0 222.0800 147.5100
  A 3.51 3.28 90.0 0 0 218.8000 144.0000
  A 3.51 3.28 90.0 0 0 215.5200 147.5100
  A 3.51 3.28 90.0 0 0 218.8000 151.0200
  Z
  M 180.13 155.99
  L 192.12 156.01
  A 0.49 0.49 0.0 0 1 192.60 156.61
  L 192.49 157.10
  A 1.13 1.12 5.8 0 1 191.40 157.98
  L 188.52 158.02
  Q 188.31 158.02 188.33 158.23
  L 188.55 160.74
  Q 188.57 160.98 188.81 160.99
  C 191.15 161.05 196.79 161.81 196.77 157.99
  Q 196.74 152.23 196.75 146.53
  A 0.52 0.52 0.0 0 0 196.23 146.01
  L 175.75 146.00
  Q 175.00 146.00 175.00 146.75
  L 175.00 160.25
  Q 175.01 160.99 175.75 160.99
  L 178.75 161.00
  A 0.75 0.75 0.0 0 0 179.50 160.25
  L 179.50 156.62
  Q 179.50 155.99 180.13 155.99
  Z
  M 254.29 156.24
  Q 254.29 156.02 254.51 156.02
  L 262.76 155.97
  Q 263.74 155.97 263.75 154.99
  L 263.76 153.95
  A 0.83 0.82 -89.3 0 0 262.95 153.11
  L 254.62 153.04
  Q 254.21 153.04 254.27 152.62
  L 254.32 152.25
  Q 254.35 152.04 254.56 152.04
  L 264.51 151.96
  Q 265.48 151.96 265.52 150.99
  L 265.56 149.93
  Q 265.59 149.01 264.68 149.01
  L 238.74 149.01
  Q 237.99 149.01 237.99 149.76
  L 238.00 151.25
  Q 238.00 152.00 238.75 152.00
  L 249.25 152.00
  A 0.51 0.50 0.0 0 1 249.76 152.50
  L 249.74 156.01
  A 1.00 0.99 -0.0 0 1 248.74 157.00
  L 246.48 156.99
  A 0.75 0.75 0.0 0 1 245.73 156.23
  L 245.76 153.77
  Q 245.76 153.23 245.23 153.11
  Q 243.96 152.84 242.28 153.08
  Q 241.50 153.19 241.50 153.99
  L 241.50 156.27
  Q 241.50 156.91 240.86 156.93
  L 237.73 157.03
  Q 237.00 157.05 237.00 157.77
  L 237.00 159.25
  Q 237.00 160.00 237.75 160.00
  L 266.24 160.03
  Q 267.02 160.03 267.01 159.25
  L 267.00 157.87
  Q 266.99 157.01 266.12 157.02
  L 254.70 157.10
  Q 254.31 157.10 254.30 156.70
  L 254.29 156.24
  Z"
/>
<path fill="#138e91" d="
  M 239.74 58.08
  C 239.89 62.72 238.41 68.70 233.24 69.84
  Q 229.33 70.71 226.36 67.65
  C 224.92 66.17 224.97 64.32 224.24 62.54
  C 223.11 59.81 219.72 60.39 217.69 58.87
  Q 214.19 56.23 215.13 51.65
  C 216.22 46.38 222.71 45.13 227.37 45.24
  Q 227.96 45.26 228.38 44.83
  L 240.91 31.93
  A 0.62 0.62 0.0 0 1 241.80 31.92
  L 253.19 43.31
  A 0.45 0.45 0.0 0 1 253.19 43.94
  L 240.19 56.95
  Q 239.72 57.42 239.74 58.08
  Z"
/>
<path fill="#138e91" d="
  M 209.92 87.21
  L 197.07 100.06
  Q 196.63 100.50 196.19 100.06
  L 184.81 88.70
  A 0.47 0.47 0.0 0 1 184.81 88.03
  L 197.91 75.29
  Q 198.30 74.91 198.29 74.37
  C 198.14 69.47 199.74 61.90 205.88 61.89
  Q 212.01 61.89 213.21 68.11
  C 213.75 70.91 215.91 71.47 218.26 72.07
  C 220.80 72.71 222.61 75.01 222.91 77.55
  C 223.74 84.50 216.91 86.95 211.17 86.72
  Q 210.44 86.69 209.92 87.21
  Z"
/>
<path fill="#138e91" d="
  M 140.34 149.34
  L 138.61 149.84
  A 0.65 0.65 0.0 0 1 137.79 149.33
  L 137.30 146.74
  Q 137.14 145.88 138.01 145.81
  L 140.28 145.63
  Q 141.00 145.57 141.00 144.85
  L 141.00 139.76
  Q 141.00 139.02 140.26 139.01
  L 138.22 138.98
  Q 137.71 138.97 137.72 138.47
  L 137.74 136.52
  Q 137.75 136.03 138.24 136.02
  L 140.38 135.99
  Q 141.00 135.99 141.00 135.37
  L 141.01 131.49
  Q 141.01 130.99 141.51 131.00
  L 145.01 131.01
  Q 145.50 131.02 145.50 131.51
  L 145.50 135.36
  Q 145.50 135.98 146.11 135.99
  L 147.14 136.01
  Q 147.75 136.03 147.75 136.64
  L 147.75 138.12
  Q 147.75 138.72 147.19 138.91
  Q 146.74 139.07 146.26 139.02
  Q 145.50 138.94 145.50 139.71
  L 145.50 143.77
  Q 145.50 144.34 146.06 144.24
  Q 146.53 144.16 146.96 144.33
  Q 147.46 144.54 147.50 145.09
  Q 147.61 146.95 145.98 147.71
  Q 145.44 147.96 145.46 148.56
  Q 145.60 152.84 145.42 156.66
  C 145.25 160.25 141.60 160.17 139.04 160.00
  Q 138.17 159.94 138.06 159.08
  L 137.75 156.68
  A 0.59 0.58 86.0 0 1 138.32 156.02
  L 140.14 155.98
  Q 141.01 155.97 141.01 155.10
  L 141.00 149.84
  Q 141.00 149.16 140.34 149.34
  Z"
/>
<path fill="#138e91" d="
  M 154.04 154.92
  L 150.52 154.08
  A 1.10 1.10 0.0 0 1 149.76 152.60
  L 150.94 149.71
  A 0.52 0.52 0.0 0 0 150.46 149.00
  L 148.56 149.00
  Q 148.11 149.00 148.05 148.55
  L 147.80 146.78
  Q 147.69 146.01 148.47 146.00
  L 151.90 145.99
  Q 152.57 145.99 152.68 145.34
  L 152.99 143.54
  Q 153.09 143.00 152.54 143.00
  L 148.38 143.00
  Q 148.01 143.00 148.01 142.63
  L 148.01 140.26
  Q 148.01 140.02 148.24 140.02
  L 151.03 139.98
  Q 151.72 139.97 151.66 139.28
  Q 151.43 136.86 149.46 136.87
  Q 148.76 136.88 148.75 136.18
  L 148.74 134.72
  Q 148.74 133.94 149.52 133.96
  Q 152.28 134.04 154.83 134.00
  Q 156.48 133.97 155.99 132.25
  A 0.99 0.99 0.0 0 1 156.94 130.99
  L 159.65 131.01
  Q 160.27 131.02 160.26 131.65
  L 160.24 133.24
  Q 160.22 134.00 160.99 134.00
  L 167.01 134.00
  Q 167.76 134.00 167.76 134.76
  L 167.76 136.21
  Q 167.75 136.96 167.01 136.95
  Q 165.09 136.94 164.57 139.32
  Q 164.44 139.95 165.08 139.96
  L 168.03 140.03
  Q 168.51 140.04 168.51 140.53
  L 168.50 142.50
  Q 168.50 142.99 168.00 142.99
  L 158.30 143.01
  Q 157.56 143.01 157.34 143.72
  L 156.88 145.23
  Q 156.64 146.00 157.45 146.00
  L 168.00 146.00
  Q 168.50 146.00 168.50 146.50
  L 168.51 148.49
  Q 168.51 148.98 168.01 148.99
  L 165.92 149.01
  A 0.83 0.82 -84.2 0 0 165.13 149.66
  Q 164.59 152.19 163.00 154.48
  Q 162.62 155.03 163.23 155.28
  L 167.03 156.89
  Q 167.91 157.26 167.32 158.01
  L 166.31 159.30
  Q 165.81 159.94 165.07 159.61
  L 159.86 157.34
  Q 159.38 157.13 158.90 157.36
  Q 153.94 159.66 148.26 159.97
  Q 147.71 160.00 147.57 159.47
  L 147.09 157.73
  Q 146.90 157.01 147.64 156.93
  Q 151.02 156.57 154.07 155.51
  Q 155.05 155.16 154.04 154.92
  Z
  M 159.88 139.98
  A 0.47 0.47 0.0 0 0 160.33 139.65
  L 160.93 137.60
  A 0.47 0.47 0.0 0 0 160.48 136.99
  L 155.74 137.02
  A 0.47 0.47 0.0 0 0 155.31 137.66
  L 156.15 139.72
  A 0.47 0.47 0.0 0 0 156.59 140.02
  L 159.88 139.98
  Z
  M 160.95 149.85
  A 0.57 0.57 0.0 0 0 160.45 149.00
  L 155.68 149.00
  A 0.57 0.57 0.0 0 0 155.14 149.39
  L 154.54 151.18
  A 0.57 0.57 0.0 0 0 154.88 151.89
  L 158.51 153.26
  A 0.57 0.57 0.0 0 0 159.21 153.00
  L 160.95 149.85
  Z"
/>
<path fill="#138e91" d="
  M 258.91 133.90
  Q 258.17 135.00 259.49 135.00
  L 266.74 135.01
  Q 267.37 135.01 267.53 135.63
  Q 268.02 137.57 266.27 138.21
  A 1.21 1.19 86.9 0 0 265.52 139.06
  Q 264.97 141.37 263.48 143.08
  Q 262.97 143.65 263.70 143.90
  L 267.28 145.13
  Q 267.90 145.34 267.58 145.91
  L 266.85 147.22
  Q 266.36 148.11 265.40 147.76
  L 260.79 146.06
  Q 260.18 145.83 259.57 146.04
  L 254.10 147.85
  Q 252.60 148.35 252.24 146.81
  L 252.07 146.05
  Q 251.87 145.16 252.73 144.87
  L 255.94 143.81
  Q 256.79 143.53 256.38 142.74
  L 255.93 141.88
  Q 255.44 140.95 254.49 141.40
  Q 252.82 142.18 251.93 140.50
  A 0.95 0.95 0.0 0 1 251.99 139.50
  Q 254.17 136.39 255.41 132.60
  Q 255.61 132.01 256.22 132.08
  L 258.49 132.33
  Q 259.19 132.41 259.17 133.11
  Q 259.15 133.54 258.91 133.90
  Z
  M 261.68 138.96
  A 0.62 0.62 0.0 0 0 261.16 138.00
  L 258.02 137.98
  A 0.62 0.62 0.0 0 0 257.54 139.01
  L 259.36 141.10
  A 0.62 0.62 0.0 0 0 260.35 141.03
  L 261.68 138.96
  Z"
/>
<path fill="#138e91" d="
  M 273.15 148.62
  L 271.88 150.65
  A 0.44 0.44 0.0 0 1 271.21 150.74
  L 269.27 149.03
  Q 268.72 148.54 269.13 147.94
  Q 273.74 141.06 276.00 132.54
  Q 276.14 132.03 276.67 132.11
  L 280.03 132.60
  A 0.49 0.49 0.0 0 1 280.43 133.20
  Q 279.63 136.53 277.98 139.89
  Q 277.79 140.27 277.89 140.68
  C 278.75 144.29 278.25 149.09 278.26 152.87
  Q 278.26 154.03 279.01 153.15
  Q 282.81 148.66 285.86 142.95
  Q 286.38 141.99 285.29 141.99
  L 280.01 141.99
  Q 279.19 141.99 279.26 141.17
  Q 279.33 140.17 279.14 139.11
  A 0.92 0.92 0.0 0 1 280.05 138.02
  L 286.75 138.01
  Q 287.26 138.01 287.26 137.50
  L 287.25 132.25
  Q 287.25 132.00 287.50 132.00
  L 291.39 132.02
  Q 291.76 132.02 291.76 132.39
  L 291.74 137.50
  A 0.51 0.50 89.4 0 0 292.25 138.01
  L 300.00 138.00
  Q 300.51 138.00 300.51 138.50
  L 300.49 141.51
  Q 300.49 142.00 299.99 142.00
  L 293.00 141.99
  Q 292.24 141.99 292.60 142.65
  Q 296.20 149.24 301.08 153.69
  Q 301.39 153.97 301.09 154.27
  L 298.78 156.61
  Q 298.43 156.97 298.09 156.59
  L 295.83 154.09
  Q 295.27 153.47 295.27 154.30
  L 295.27 155.36
  Q 295.27 155.99 294.64 155.99
  L 292.25 156.00
  Q 291.76 156.01 291.76 156.50
  L 291.73 160.64
  Q 291.73 161.00 291.36 161.00
  L 287.49 160.99
  Q 287.24 160.99 287.25 160.74
  L 287.27 156.52
  A 0.51 0.50 90.0 0 0 286.77 156.01
  L 284.10 155.98
  Q 283.47 155.98 283.48 155.35
  L 283.49 154.47
  Q 283.49 153.63 282.96 154.28
  L 281.11 156.53
  A 0.62 0.62 0.0 0 1 280.22 156.60
  L 278.88 155.42
  Q 278.25 154.87 278.25 155.71
  L 278.25 160.50
  Q 278.25 161.00 277.75 161.00
  L 274.25 161.00
  Q 273.75 161.00 273.75 160.50
  L 273.75 148.79
  Q 273.75 147.68 273.15 148.62
  Z
  M 287.33 148.80
  Q 287.45 148.54 287.33 148.26
  Q 287.10 147.71 286.84 148.25
  Q 286.19 149.62 285.36 150.78
  Q 284.42 152.12 286.21 152.13
  A 1.08 1.08 0.0 0 0 287.29 151.04
  Q 287.29 150.17 287.24 149.23
  Q 287.23 149.01 287.33 148.80
  Z
  M 291.64 148.67
  L 291.75 151.27
  Q 291.78 152.02 292.53 152.01
  L 293.29 151.99
  Q 294.19 151.98 293.71 151.21
  L 292.04 148.54
  Q 291.61 147.86 291.64 148.67
  Z"
/>
<path fill="#138e91" d="
  M 248.77 143.80
  L 250.59 144.12
  Q 251.67 144.31 251.06 145.22
  L 250.32 146.32
  Q 249.83 147.06 249.04 146.66
  L 246.91 145.58
  Q 246.17 145.20 246.24 146.03
  L 246.31 147.03
  Q 246.36 147.60 245.81 147.76
  Q 244.53 148.11 243.14 147.76
  Q 242.44 147.58 242.47 146.85
  L 242.50 146.28
  Q 242.54 145.55 241.89 145.88
  L 238.44 147.67
  Q 237.62 148.09 237.21 147.27
  L 236.58 146.03
  Q 236.21 145.28 236.98 144.98
  L 239.91 143.80
  Q 240.91 143.39 239.85 143.21
  L 238.28 142.93
  Q 237.73 142.83 237.74 142.28
  L 237.75 136.78
  Q 237.76 136.07 238.47 136.05
  L 242.11 135.99
  Q 242.47 135.99 242.47 135.63
  L 242.47 135.29
  Q 242.47 135.03 242.21 135.03
  L 237.57 134.96
  Q 236.56 134.95 236.63 133.94
  L 236.65 133.63
  A 0.57 0.56 1.6 0 1 237.21 133.11
  Q 240.08 133.10 242.75 132.46
  Q 244.49 132.04 246.24 132.50
  Q 248.69 133.14 251.24 133.03
  Q 252.20 132.99 252.01 133.95
  Q 251.99 134.00 251.99 134.06
  Q 252.01 135.01 251.09 135.00
  Q 249.03 134.97 246.58 135.01
  Q 246.31 135.02 246.32 135.29
  L 246.33 135.66
  Q 246.33 135.99 246.66 135.99
  L 250.53 136.06
  Q 251.25 136.07 251.26 136.78
  L 251.40 142.12
  Q 251.41 142.73 250.82 142.89
  L 248.75 143.45
  Q 247.99 143.66 248.77 143.80
  Z
  M 241.06 138.04
  A 0.35 0.35 0.0 0 0 240.72 138.39
  L 240.75 140.51
  A 0.35 0.35 0.0 0 0 241.07 140.85
  L 242.14 140.93
  A 0.35 0.35 0.0 0 0 242.52 140.58
  L 242.49 138.37
  A 0.35 0.35 0.0 0 0 242.14 138.02
  L 241.06 138.04
  Z
  M 248.2646 138.6153
  A 0.60 0.60 0.0 0 0 247.6678 138.0122
  L 246.8478 138.0079
  A 0.60 0.60 0.0 0 0 246.2447 138.6047
  L 246.2354 140.3847
  A 0.60 0.60 0.0 0 0 246.8322 140.9878
  L 247.6522 140.9921
  A 0.60 0.60 0.0 0 0 248.2553 140.3953
  L 248.2646 138.6153
  Z"
/>
<path fill="#138e91" d="
  M 198.25 141.00
  L 200.76 141.02
  Q 201.25 141.02 201.25 141.51
  L 201.25 146.26
  Q 201.25 147.02 200.49 147.01
  L 198.52 146.98
  Q 198.03 146.97 197.86 146.51
  Q 197.59 145.77 197.79 144.93
  A 0.75 0.75 0.0 0 0 197.06 144.00
  L 174.80 143.99
  Q 174.09 143.99 174.04 144.70
  L 173.94 146.20
  Q 173.89 147.04 173.05 147.02
  L 171.49 147.00
  Q 170.74 146.98 170.74 146.24
  L 170.75 141.75
  Q 170.75 141.01 171.50 141.01
  L 173.88 140.99
  A 0.63 0.62 -0.5 0 0 174.50 140.37
  L 174.51 133.60
  Q 174.51 132.95 175.15 132.95
  L 196.73 132.96
  Q 197.50 132.96 197.50 133.73
  L 197.50 140.25
  Q 197.50 141.00 198.25 141.00
  Z
  M 184.26 138.19
  L 192.64 137.73
  A 0.50 0.49 -4.0 0 0 193.11 137.20
  L 193.09 136.85
  Q 193.04 136.01 192.20 136.01
  L 180.00 135.98
  A 1.03 1.03 0.0 0 0 178.97 137.00
  L 178.94 140.27
  A 0.75 0.75 0.0 0 0 179.77 141.03
  L 182.93 140.72
  A 0.66 0.65 -2.9 0 0 183.52 140.07
  L 183.51 138.99
  Q 183.50 138.23 184.26 138.19
  Z
  M 192.72 139.97
  Q 190.55 139.95 188.39 140.26
  Q 186.56 140.53 188.37 140.88
  Q 190.17 141.22 192.46 140.90
  Q 192.88 140.84 192.83 140.42
  L 192.79 140.03
  Q 192.78 139.97 192.72 139.97
  Z"
/>
<path fill="#ffffff" d="
  M 183.51 138.99
  L 183.52 140.07
  A 0.66 0.65 -2.9 0 1 182.93 140.72
  L 179.77 141.03
  A 0.75 0.75 0.0 0 1 178.94 140.27
  L 178.97 137.00
  A 1.03 1.03 0.0 0 1 180.00 135.98
  L 192.20 136.01
  Q 193.04 136.01 193.09 136.85
  L 193.11 137.20
  A 0.50 0.49 -4.0 0 1 192.64 137.73
  L 184.26 138.19
  Q 183.50 138.23 183.51 138.99
  Z"
/>
<path fill="#ffffff" d="
  M 159.88 139.98
  L 156.59 140.02
  A 0.47 0.47 0.0 0 1 156.15 139.72
  L 155.31 137.66
  A 0.47 0.47 0.0 0 1 155.74 137.02
  L 160.48 136.99
  A 0.47 0.47 0.0 0 1 160.93 137.60
  L 160.33 139.65
  A 0.47 0.47 0.0 0 1 159.88 139.98
  Z"
/>
<path fill="#ffffff" d="
  M 241.06 138.04
  L 242.14 138.02
  A 0.35 0.35 0.0 0 1 242.49 138.37
  L 242.52 140.58
  A 0.35 0.35 0.0 0 1 242.14 140.93
  L 241.07 140.85
  A 0.35 0.35 0.0 0 1 240.75 140.51
  L 240.72 138.39
  A 0.35 0.35 0.0 0 1 241.06 138.04
  Z"
/>
<rect fill="#ffffff" x="-1.01" y="-1.49" transform="translate(247.25,139.50) rotate(0.3)" width="2.02" height="2.98" rx="0.60"/>
<path fill="#ffffff" d="
  M 261.68 138.96
  L 260.35 141.03
  A 0.62 0.62 0.0 0 1 259.36 141.10
  L 257.54 139.01
  A 0.62 0.62 0.0 0 1 258.02 137.98
  L 261.16 138.00
  A 0.62 0.62 0.0 0 1 261.68 138.96
  Z"
/>
<path fill="#ffffff" d="
  M 192.72 139.97
  Q 192.78 139.97 192.79 140.03
  L 192.83 140.42
  Q 192.88 140.84 192.46 140.90
  Q 190.17 141.22 188.37 140.88
  Q 186.56 140.53 188.39 140.26
  Q 190.55 139.95 192.72 139.97
  Z"
/>
<ellipse fill="#138e91" cx="0.00" cy="0.00" transform="translate(218.80,147.51) rotate(90.0)" rx="3.51" ry="3.28"/>
<path fill="#138e91" d="
  M 179.50 156.62
  L 179.50 160.25
  A 0.75 0.75 0.0 0 1 178.75 161.00
  L 175.75 160.99
  Q 175.01 160.99 175.00 160.25
  L 175.00 146.75
  Q 175.00 146.00 175.75 146.00
  L 196.23 146.01
  A 0.52 0.52 0.0 0 1 196.75 146.53
  Q 196.74 152.23 196.77 157.99
  C 196.79 161.81 191.15 161.05 188.81 160.99
  Q 188.57 160.98 188.55 160.74
  L 188.33 158.23
  Q 188.31 158.02 188.52 158.02
  L 191.40 157.98
  A 1.13 1.12 5.8 0 0 192.49 157.10
  L 192.60 156.61
  A 0.49 0.49 0.0 0 0 192.12 156.01
  L 180.13 155.99
  Q 179.50 155.99 179.50 156.62
  Z
  M 192.7001 148.9835
  A 0.93 0.93 0.0 0 0 191.7733 148.0503
  L 180.1534 148.0097
  A 0.93 0.93 0.0 0 0 179.2201 148.9365
  L 179.2199 148.9965
  A 0.93 0.93 0.0 0 0 180.1467 149.9297
  L 191.7666 149.9703
  A 0.93 0.93 0.0 0 0 192.6999 149.0435
  L 192.7001 148.9835
  Z
  M 192.70 152.98
  A 0.98 0.98 0.0 0 0 191.72 152.00
  L 180.28 152.00
  A 0.98 0.98 0.0 0 0 179.30 152.98
  L 179.30 153.02
  A 0.98 0.98 0.0 0 0 180.28 154.00
  L 191.72 154.00
  A 0.98 0.98 0.0 0 0 192.70 153.02
  L 192.70 152.98
  Z"
/>
<rect fill="#ffffff" x="-6.74" y="-0.96" transform="translate(185.96,148.99) rotate(0.2)" width="13.48" height="1.92" rx="0.93"/>
<path fill="#ffffff" d="
  M 287.24 149.23
  Q 287.29 150.17 287.29 151.04
  A 1.08 1.08 0.0 0 1 286.21 152.13
  Q 284.42 152.12 285.36 150.78
  Q 286.19 149.62 286.84 148.25
  Q 287.10 147.71 287.33 148.26
  Q 287.45 148.54 287.33 148.80
  Q 287.23 149.01 287.24 149.23
  Z"
/>
<path fill="#ffffff" d="
  M 292.04 148.54
  L 293.71 151.21
  Q 294.19 151.98 293.29 151.99
  L 292.53 152.01
  Q 291.78 152.02 291.75 151.27
  L 291.64 148.67
  Q 291.61 147.86 292.04 148.54
  Z"
/>
<path fill="#ffffff" d="
  M 160.95 149.85
  L 159.21 153.00
  A 0.57 0.57 0.0 0 1 158.51 153.26
  L 154.88 151.89
  A 0.57 0.57 0.0 0 1 154.54 151.18
  L 155.14 149.39
  A 0.57 0.57 0.0 0 1 155.68 149.00
  L 160.45 149.00
  A 0.57 0.57 0.0 0 1 160.95 149.85
  Z"
/>
<path fill="#138e91" d="
  M 254.70 157.10
  L 266.12 157.02
  Q 266.99 157.01 267.00 157.87
  L 267.01 159.25
  Q 267.02 160.03 266.24 160.03
  L 237.75 160.00
  Q 237.00 160.00 237.00 159.25
  L 237.00 157.77
  Q 237.00 157.05 237.73 157.03
  L 240.86 156.93
  Q 241.50 156.91 241.50 156.27
  L 241.50 153.99
  Q 241.50 153.19 242.28 153.08
  Q 243.96 152.84 245.23 153.11
  Q 245.76 153.23 245.76 153.77
  L 245.73 156.23
  A 0.75 0.75 0.0 0 0 246.48 156.99
  L 248.74 157.00
  A 1.00 0.99 0.0 0 0 249.74 156.01
  L 249.76 152.50
  A 0.51 0.50 0.0 0 0 249.25 152.00
  L 238.75 152.00
  Q 238.00 152.00 238.00 151.25
  L 237.99 149.76
  Q 237.99 149.01 238.74 149.01
  L 264.68 149.01
  Q 265.59 149.01 265.56 149.93
  L 265.52 150.99
  Q 265.48 151.96 264.51 151.96
  L 254.56 152.04
  Q 254.35 152.04 254.32 152.25
  L 254.27 152.62
  Q 254.21 153.04 254.62 153.04
  L 262.95 153.11
  A 0.83 0.82 -89.3 0 1 263.76 153.95
  L 263.75 154.99
  Q 263.74 155.97 262.76 155.97
  L 254.51 156.02
  Q 254.29 156.02 254.29 156.24
  L 254.30 156.70
  Q 254.31 157.10 254.70 157.10
  Z"
/>
<rect fill="#ffffff" x="179.30" y="152.00" width="13.40" height="2.00" rx="0.98"/>
</svg>
