<?xml version="1.0" encoding="UTF-8" standalone="no"?>
<!DOCTYPE svg PUBLIC "-//W3C//DTD SVG 1.1//EN" "http://www.w3.org/Graphics/SVG/1.1/DTD/svg11.dtd">
<svg xmlns="http://www.w3.org/2000/svg" version="1.1" viewBox="0.00 0.00 435.00 195.00">
<g stroke-width="2.00" fill="none" stroke-linecap="butt">
<path stroke="#dedede" vector-effect="non-scaling-stroke" d="
  M 430.50 31.03
  A 26.03 26.03 0.0 0 0 404.47 5.00
  L 30.53 5.00
  A 26.03 26.03 0.0 0 0 4.50 31.03
  L 4.50 155.97
  A 26.03 26.03 0.0 0 0 30.53 182.00
  L 404.47 182.00
  A 26.03 26.03 0.0 0 0 430.50 155.97
  L 430.50 31.03"
/>
<path stroke="#949fb4" vector-effect="non-scaling-stroke" d="
  M 217.14 46.84
  Q 214.05 38.76 207.25 35.14
  C 201.65 32.16 193.59 31.70 188.06 34.78
  Q 178.20 40.25 177.49 51.66
  Q 176.91 60.93 181.12 69.42
  A 0.58 0.57 76.4 0 0 181.63 69.74
  Q 188.33 69.78 194.64 69.72
  C 196.48 69.71 197.81 70.75 198.58 72.36
  Q 199.09 73.44 199.38 72.27
  Q 201.54 63.49 203.70 54.72
  C 204.28 52.37 207.31 52.31 207.90 54.53
  Q 210.74 65.20 213.41 76.22
  Q 213.81 77.88 214.25 76.23
  L 218.02 62.12
  A 1.67 1.66 -80.1 0 1 219.77 60.89
  Q 221.53 61.04 222.11 62.58
  Q 223.42 66.10 224.57 69.29
  Q 224.74 69.75 225.23 69.75
  L 228.82 69.75
  A 1.20 1.17 -70.4 0 0 229.75 69.29
  C 235.22 62.16 244.92 70.05 240.01 76.53
  C 237.17 80.29 232.17 79.96 229.54 76.11
  Q 229.30 75.76 228.88 75.75
  C 225.49 75.64 223.04 76.72 220.97 73.15
  Q 220.53 72.37 220.31 73.24
  L 215.83 91.22
  A 1.98 1.97 0.5 0 1 214.35 92.67
  C 212.73 93.05 211.85 91.73 211.50 90.37
  Q 208.95 80.47 206.26 69.54
  Q 205.84 67.82 205.39 69.53
  L 201.75 83.26
  A 1.95 1.95 0.0 0 1 199.45 84.67
  Q 197.97 84.35 197.46 82.75
  Q 196.33 79.20 195.07 75.96
  A 0.29 0.29 0.0 0 0 194.82 75.78
  Q 189.99 75.64 185.09 75.86
  A 0.10 0.09 70.4 0 0 185.02 76.01
  Q 190.36 83.70 196.36 90.41
  Q 206.57 101.84 217.01 112.58
  A 0.69 0.69 0.0 0 0 218.00 112.58
  Q 230.15 100.12 241.61 86.96
  C 249.48 77.92 256.86 67.52 257.55 54.95
  C 258.96 29.55 226.14 24.50 217.87 46.84
  Q 217.51 47.81 217.14 46.84"
/>
<path stroke="#949fb4" vector-effect="non-scaling-stroke" d="
  M 291.58 140.41
  C 289.48 150.31 282.73 154.89 273.30 157.02
  Q 273.03 157.08 273.13 157.34
  L 274.44 160.99
  Q 274.53 161.24 274.79 161.18
  C 288.11 158.21 296.94 151.20 297.18 136.14
  Q 297.19 135.50 296.54 135.50
  L 284.02 135.50
  Q 283.27 135.50 283.57 134.81
  L 284.43 132.87
  A 0.41 0.41 0.0 0 0 284.10 132.30
  L 280.03 131.80
  Q 279.53 131.74 279.37 132.22
  Q 276.23 141.42 268.01 146.63
  Q 267.77 146.79 267.94 147.02
  L 270.24 150.02
  Q 270.41 150.25 270.66 150.11
  Q 276.96 146.40 280.96 140.27
  Q 281.30 139.75 281.92 139.75
  L 291.05 139.75
  Q 291.72 139.75 291.58 140.41"
/>
<path stroke="#949fb4" vector-effect="non-scaling-stroke" d="
  M 215.78 145.66
  Q 222.77 148.30 229.11 152.40
  Q 229.26 152.50 229.38 152.35
  L 232.09 148.90
  Q 232.17 148.80 232.06 148.73
  Q 224.31 143.93 215.45 140.82
  Q 215.00 140.67 215.00 140.20
  L 215.00 132.75
  Q 215.00 132.24 214.49 132.24
  L 210.50 132.25
  Q 210.00 132.25 210.00 132.75
  L 210.00 161.00
  Q 210.00 161.25 210.25 161.25
  L 214.75 161.25
  A 0.25 0.25 0.0 0 0 215.00 161.00
  L 215.00 146.20
  Q 215.00 145.36 215.78 145.66"
/>
<path stroke="#949fb4" vector-effect="non-scaling-stroke" d="
  M 174.25 144.61
  A 0.36 0.36 0.0 0 1 174.61 144.25
  L 182.64 144.25
  A 0.36 0.36 0.0 0 0 183.00 143.89
  L 182.99 133.11
  A 0.36 0.36 0.0 0 0 182.63 132.75
  L 170.36 132.75
  A 0.36 0.36 0.0 0 0 170.00 133.11
  L 170.00 161.13
  A 0.36 0.36 0.0 0 0 170.36 161.49
  L 173.90 161.50
  A 0.36 0.36 0.0 0 0 174.26 161.14
  L 174.25 144.61"
/>
<path stroke="#949fb4" vector-effect="non-scaling-stroke" d="
  M 194.50 144.75
  L 194.50 156.75
  Q 194.50 157.51 193.75 157.50
  L 192.53 157.49
  Q 191.86 157.49 191.86 158.16
  L 191.85 160.49
  Q 191.84 161.28 192.64 161.28
  C 194.69 161.27 198.76 161.61 198.75 158.33
  Q 198.75 145.66 198.75 133.30
  Q 198.75 132.75 198.20 132.75
  L 186.00 132.74
  Q 185.50 132.74 185.50 133.25
  L 185.50 143.75
  A 0.50 0.50 0.0 0 0 186.00 144.25
  L 194.00 144.25
  Q 194.50 144.25 194.50 144.75"
/>
<path stroke="#949fb4" vector-effect="non-scaling-stroke" d="
  M 151.64 149.93
  A 0.22 0.22 0.0 0 1 152.03 149.91
  Q 156.16 157.43 163.78 160.86
  A 0.36 0.36 0.0 0 0 164.22 160.74
  L 166.79 157.29
  A 0.22 0.22 0.0 0 0 166.71 156.96
  Q 159.61 153.82 155.96 148.00
  C 152.89 143.10 153.55 138.63 153.49 133.27
  A 0.27 0.27 0.0 0 0 153.22 133.00
  L 149.02 133.00
  A 0.25 0.24 -88.8 0 0 148.78 133.24
  C 148.65 137.68 149.34 142.77 147.87 146.99
  Q 145.24 154.48 136.40 157.47
  A 0.11 0.11 0.0 0 0 136.33 157.62
  Q 137.10 159.36 138.04 160.96
  A 0.37 0.37 0.0 0 0 138.47 161.12
  Q 148.13 157.79 151.64 149.93"
/>
<path stroke="#949fb4" vector-effect="non-scaling-stroke" d="
  M 228.2325 133.9689
  A 0.67 0.67 0.0 0 0 227.3415 133.6464
  L 226.3454 134.1130
  A 0.67 0.67 0.0 0 0 226.0229 135.0039
  L 227.7875 138.7711
  A 0.67 0.67 0.0 0 0 228.6785 139.0936
  L 229.6746 138.6270
  A 0.67 0.67 0.0 0 0 229.9971 137.7361
  L 228.2325 133.9689"
/>
<path stroke="#949fb4" vector-effect="non-scaling-stroke" d="
  M 223.4605 134.7912
  A 0.46 0.46 0.0 0 0 222.8524 134.5602
  L 221.4295 135.1997
  A 0.46 0.46 0.0 0 0 221.1984 135.8078
  L 223.0595 139.9488
  A 0.46 0.46 0.0 0 0 223.6676 140.1798
  L 225.0905 139.5403
  A 0.46 0.46 0.0 0 0 225.3216 138.9322
  L 223.4605 134.7912"
/>
<path stroke="#949fb4" vector-effect="non-scaling-stroke" d="
  M 248.2040 137.5386
  A 0.26 0.26 0.0 0 0 247.8616 137.4045
  L 244.6543 138.8057
  A 0.26 0.26 0.0 0 0 244.5202 139.1481
  L 248.9560 149.3014
  A 0.26 0.26 0.0 0 0 249.2984 149.4355
  L 252.5057 148.0343
  A 0.26 0.26 0.0 0 0 252.6398 147.6919
  L 248.2040 137.5386"
/>
<path stroke="#949fb4" vector-effect="non-scaling-stroke" d="
  M 257.20 138.97
  C 256.38 149.19 251.64 156.23 240.50 157.67
  Q 240.23 157.71 240.31 157.97
  L 241.27 160.99
  Q 241.35 161.24 241.60 161.20
  C 254.63 159.40 259.90 151.46 261.24 139.39
  A 0.49 0.49 0.0 0 0 260.80 138.85
  L 257.71 138.55
  Q 257.24 138.50 257.20 138.97"
/>
<path stroke="#949fb4" vector-effect="non-scaling-stroke" d="
  M 240.7452 139.1400
  A 0.26 0.26 0.0 0 0 240.4062 138.9975
  L 237.1286 140.3350
  A 0.26 0.26 0.0 0 0 236.9861 140.6740
  L 241.1348 150.8400
  A 0.26 0.26 0.0 0 0 241.4738 150.9825
  L 244.7514 149.6450
  A 0.26 0.26 0.0 0 0 244.8939 149.3060
  L 240.7452 139.1400"
/>
<path stroke="#949fb4" vector-effect="non-scaling-stroke" d="
  M 177.60 146.00
  A 0.35 0.35 0.0 0 0 177.25 146.35
  L 177.25 159.54
  A 0.35 0.35 0.0 0 0 177.63 159.89
  L 190.69 158.93
  A 0.35 0.35 0.0 0 0 191.02 158.58
  L 190.99 146.35
  A 0.35 0.35 0.0 0 0 190.64 146.00
  L 177.60 146.00"
/>
<path stroke="#949fb4" vector-effect="non-scaling-stroke" d="
  M 179.00 135.95
  A 0.45 0.45 0.0 0 0 178.55 135.50
  L 174.67 135.50
  A 0.45 0.45 0.0 0 0 174.22 135.95
  L 174.22 137.05
  A 0.45 0.45 0.0 0 0 174.67 137.50
  L 178.55 137.50
  A 0.45 0.45 0.0 0 0 179.00 137.05
  L 179.00 135.95"
/>
<path stroke="#949fb4" vector-effect="non-scaling-stroke" d="
  M 178.9882 140.2317
  A 0.49 0.49 0.0 0 0 178.4965 139.7434
  L 174.7165 139.7566
  A 0.49 0.49 0.0 0 0 174.2282 140.2483
  L 174.2318 141.2683
  A 0.49 0.49 0.0 0 0 174.7235 141.7566
  L 178.5035 141.7434
  A 0.49 0.49 0.0 0 0 178.9918 141.2517
  L 178.9882 140.2317"
/>
<path stroke="#949fb4" vector-effect="non-scaling-stroke" d="
  M 194.6007 136.1145
  A 0.62 0.62 0.0 0 0 193.9818 135.4934
  L 190.0618 135.4866
  A 0.62 0.62 0.0 0 0 189.4407 136.1055
  L 189.4393 136.8855
  A 0.62 0.62 0.0 0 0 190.0582 137.5066
  L 193.9782 137.5134
  A 0.62 0.62 0.0 0 0 194.5993 136.8945
  L 194.6007 136.1145"
/>
<path stroke="#949fb4" vector-effect="non-scaling-stroke" d="
  M 194.5208 140.2844
  A 0.53 0.53 0.0 0 0 193.9917 139.7535
  L 190.0117 139.7465
  A 0.53 0.53 0.0 0 0 189.4808 140.2756
  L 189.4792 141.2156
  A 0.53 0.53 0.0 0 0 190.0083 141.7465
  L 193.9883 141.7535
  A 0.53 0.53 0.0 0 0 194.5192 141.2244
  L 194.5208 140.2844"
/>
<path stroke="#949fb4" vector-effect="non-scaling-stroke" d="
  M 186.8428 149.4897
  A 0.72 0.72 0.0 0 0 186.1278 148.7647
  L 181.9279 148.7354
  A 0.72 0.72 0.0 0 0 181.2029 149.4503
  L 181.1972 150.2703
  A 0.72 0.72 0.0 0 0 181.9122 150.9953
  L 186.1121 151.0246
  A 0.72 0.72 0.0 0 0 186.8371 150.3097
  L 186.8428 149.4897"
/>
<path stroke="#949fb4" vector-effect="non-scaling-stroke" d="
  M 186.8082 154.3602
  A 0.62 0.62 0.0 0 0 186.1861 153.7424
  L 181.8261 153.7576
  A 0.62 0.62 0.0 0 0 181.2083 154.3798
  L 181.2118 155.3798
  A 0.62 0.62 0.0 0 0 181.8339 155.9976
  L 186.1939 155.9824
  A 0.62 0.62 0.0 0 0 186.8117 155.3602
  L 186.8082 154.3602"
/>
</g>
<path fill="#bdbdbd" d="
  M 29.58 2.00
  L 405.42 2.00
  A 28.08 28.08 0.0 0 1 433.50 30.08
  L 433.50 165.92
  A 28.08 28.08 0.0 0 1 405.42 194.00
  L 29.58 194.00
  A 28.08 28.08 0.0 0 1 1.50 165.92
  L 1.50 30.08
  A 28.08 28.08 0.0 0 1 29.58 2.00
  Z
  M 430.50 31.03
  A 26.03 26.03 0.0 0 0 404.47 5.00
  L 30.53 5.00
  A 26.03 26.03 0.0 0 0 4.50 31.03
  L 4.50 155.97
  A 26.03 26.03 0.0 0 0 30.53 182.00
  L 404.47 182.00
  A 26.03 26.03 0.0 0 0 430.50 155.97
  L 430.50 31.03
  Z"
/>
<path fill="#ffffff" d="
  M 430.50 155.97
  A 26.03 26.03 0.0 0 1 404.47 182.00
  L 30.53 182.00
  A 26.03 26.03 0.0 0 1 4.50 155.97
  L 4.50 31.03
  A 26.03 26.03 0.0 0 1 30.53 5.00
  L 404.47 5.00
  A 26.03 26.03 0.0 0 1 430.50 31.03
  L 430.50 155.97
  Z
  M 217.14 46.84
  Q 214.05 38.76 207.25 35.14
  C 201.65 32.16 193.59 31.70 188.06 34.78
  Q 178.20 40.25 177.49 51.66
  Q 176.91 60.93 181.12 69.42
  A 0.58 0.57 76.4 0 0 181.63 69.74
  Q 188.33 69.78 194.64 69.72
  C 196.48 69.71 197.81 70.75 198.58 72.36
  Q 199.09 73.44 199.38 72.27
  Q 201.54 63.49 203.70 54.72
  C 204.28 52.37 207.31 52.31 207.90 54.53
  Q 210.74 65.20 213.41 76.22
  Q 213.81 77.88 214.25 76.23
  L 218.02 62.12
  A 1.67 1.66 -80.1 0 1 219.77 60.89
  Q 221.53 61.04 222.11 62.58
  Q 223.42 66.10 224.57 69.29
  Q 224.74 69.75 225.23 69.75
  L 228.82 69.75
  A 1.20 1.17 -70.4 0 0 229.75 69.29
  C 235.22 62.16 244.92 70.05 240.01 76.53
  C 237.17 80.29 232.17 79.96 229.54 76.11
  Q 229.30 75.76 228.88 75.75
  C 225.49 75.64 223.04 76.72 220.97 73.15
  Q 220.53 72.37 220.31 73.24
  L 215.83 91.22
  A 1.98 1.97 0.5 0 1 214.35 92.67
  C 212.73 93.05 211.85 91.73 211.50 90.37
  Q 208.95 80.47 206.26 69.54
  Q 205.84 67.82 205.39 69.53
  L 201.75 83.26
  A 1.95 1.95 0.0 0 1 199.45 84.67
  Q 197.97 84.35 197.46 82.75
  Q 196.33 79.20 195.07 75.96
  A 0.29 0.29 0.0 0 0 194.82 75.78
  Q 189.99 75.64 185.09 75.86
  A 0.10 0.09 70.4 0 0 185.02 76.01
  Q 190.36 83.70 196.36 90.41
  Q 206.57 101.84 217.01 112.58
  A 0.69 0.69 0.0 0 0 218.00 112.58
  Q 230.15 100.12 241.61 86.96
  C 249.48 77.92 256.86 67.52 257.55 54.95
  C 258.96 29.55 226.14 24.50 217.87 46.84
  Q 217.51 47.81 217.14 46.84
  Z
  M 291.58 140.41
  C 289.48 150.31 282.73 154.89 273.30 157.02
  Q 273.03 157.08 273.13 157.34
  L 274.44 160.99
  Q 274.53 161.24 274.79 161.18
  C 288.11 158.21 296.94 151.20 297.18 136.14
  Q 297.19 135.50 296.54 135.50
  L 284.02 135.50
  Q 283.27 135.50 283.57 134.81
  L 284.43 132.87
  A 0.41 0.41 0.0 0 0 284.10 132.30
  L 280.03 131.80
  Q 279.53 131.74 279.37 132.22
  Q 276.23 141.42 268.01 146.63
  Q 267.77 146.79 267.94 147.02
  L 270.24 150.02
  Q 270.41 150.25 270.66 150.11
  Q 276.96 146.40 280.96 140.27
  Q 281.30 139.75 281.92 139.75
  L 291.05 139.75
  Q 291.72 139.75 291.58 140.41
  Z
  M 215.78 145.66
  Q 222.77 148.30 229.11 152.40
  Q 229.26 152.50 229.38 152.35
  L 232.09 148.90
  Q 232.17 148.80 232.06 148.73
  Q 224.31 143.93 215.45 140.82
  Q 215.00 140.67 215.00 140.20
  L 215.00 132.75
  Q 215.00 132.24 214.49 132.24
  L 210.50 132.25
  Q 210.00 132.25 210.00 132.75
  L 210.00 161.00
  Q 210.00 161.25 210.25 161.25
  L 214.75 161.25
  A 0.25 0.25 0.0 0 0 215.00 161.00
  L 215.00 146.20
  Q 215.00 145.36 215.78 145.66
  Z
  M 174.25 144.61
  A 0.36 0.36 0.0 0 1 174.61 144.25
  L 182.64 144.25
  A 0.36 0.36 0.0 0 0 183.00 143.89
  L 182.99 133.11
  A 0.36 0.36 0.0 0 0 182.63 132.75
  L 170.36 132.75
  A 0.36 0.36 0.0 0 0 170.00 133.11
  L 170.00 161.13
  A 0.36 0.36 0.0 0 0 170.36 161.49
  L 173.90 161.50
  A 0.36 0.36 0.0 0 0 174.26 161.14
  L 174.25 144.61
  Z
  M 194.50 144.75
  L 194.50 156.75
  Q 194.50 157.51 193.75 157.50
  L 192.53 157.49
  Q 191.86 157.49 191.86 158.16
  L 191.85 160.49
  Q 191.84 161.28 192.64 161.28
  C 194.69 161.27 198.76 161.61 198.75 158.33
  Q 198.75 145.66 198.75 133.30
  Q 198.75 132.75 198.20 132.75
  L 186.00 132.74
  Q 185.50 132.74 185.50 133.25
  L 185.50 143.75
  A 0.50 0.50 0.0 0 0 186.00 144.25
  L 194.00 144.25
  Q 194.50 144.25 194.50 144.75
  Z
  M 151.64 149.93
  A 0.22 0.22 0.0 0 1 152.03 149.91
  Q 156.16 157.43 163.78 160.86
  A 0.36 0.36 0.0 0 0 164.22 160.74
  L 166.79 157.29
  A 0.22 0.22 0.0 0 0 166.71 156.96
  Q 159.61 153.82 155.96 148.00
  C 152.89 143.10 153.55 138.63 153.49 133.27
  A 0.27 0.27 0.0 0 0 153.22 133.00
  L 149.02 133.00
  A 0.25 0.24 -88.8 0 0 148.78 133.24
  C 148.65 137.68 149.34 142.77 147.87 146.99
  Q 145.24 154.48 136.40 157.47
  A 0.11 0.11 0.0 0 0 136.33 157.62
  Q 137.10 159.36 138.04 160.96
  A 0.37 0.37 0.0 0 0 138.47 161.12
  Q 148.13 157.79 151.64 149.93
  Z
  M 228.2325 133.9689
  A 0.67 0.67 0.0 0 0 227.3415 133.6464
  L 226.3454 134.1130
  A 0.67 0.67 0.0 0 0 226.0229 135.0039
  L 227.7875 138.7711
  A 0.67 0.67 0.0 0 0 228.6785 139.0936
  L 229.6746 138.6270
  A 0.67 0.67 0.0 0 0 229.9971 137.7361
  L 228.2325 133.9689
  Z
  M 223.4605 134.7912
  A 0.46 0.46 0.0 0 0 222.8524 134.5602
  L 221.4295 135.1997
  A 0.46 0.46 0.0 0 0 221.1984 135.8078
  L 223.0595 139.9488
  A 0.46 0.46 0.0 0 0 223.6676 140.1798
  L 225.0905 139.5403
  A 0.46 0.46 0.0 0 0 225.3216 138.9322
  L 223.4605 134.7912
  Z
  M 248.2040 137.5386
  A 0.26 0.26 0.0 0 0 247.8616 137.4045
  L 244.6543 138.8057
  A 0.26 0.26 0.0 0 0 244.5202 139.1481
  L 248.9560 149.3014
  A 0.26 0.26 0.0 0 0 249.2984 149.4355
  L 252.5057 148.0343
  A 0.26 0.26 0.0 0 0 252.6398 147.6919
  L 248.2040 137.5386
  Z
  M 257.20 138.97
  C 256.38 149.19 251.64 156.23 240.50 157.67
  Q 240.23 157.71 240.31 157.97
  L 241.27 160.99
  Q 241.35 161.24 241.60 161.20
  C 254.63 159.40 259.90 151.46 261.24 139.39
  A 0.49 0.49 0.0 0 0 260.80 138.85
  L 257.71 138.55
  Q 257.24 138.50 257.20 138.97
  Z
  M 240.7452 139.1400
  A 0.26 0.26 0.0 0 0 240.4062 138.9975
  L 237.1286 140.3350
  A 0.26 0.26 0.0 0 0 236.9861 140.6740
  L 241.1348 150.8400
  A 0.26 0.26 0.0 0 0 241.4738 150.9825
  L 244.7514 149.6450
  A 0.26 0.26 0.0 0 0 244.8939 149.3060
  L 240.7452 139.1400
  Z
  M 177.60 146.00
  A 0.35 0.35 0.0 0 0 177.25 146.35
  L 177.25 159.54
  A 0.35 0.35 0.0 0 0 177.63 159.89
  L 190.69 158.93
  A 0.35 0.35 0.0 0 0 191.02 158.58
  L 190.99 146.35
  A 0.35 0.35 0.0 0 0 190.64 146.00
  L 177.60 146.00
  Z"
/>
<path fill="#283f68" d="
  M 217.87 46.84
  C 226.14 24.50 258.96 29.55 257.55 54.95
  C 256.86 67.52 249.48 77.92 241.61 86.96
  Q 230.15 100.12 218.00 112.58
  A 0.69 0.69 0.0 0 1 217.01 112.58
  Q 206.57 101.84 196.36 90.41
  Q 190.36 83.70 185.02 76.01
  A 0.10 0.09 70.4 0 1 185.09 75.86
  Q 189.99 75.64 194.82 75.78
  A 0.29 0.29 0.0 0 1 195.07 75.96
  Q 196.33 79.20 197.46 82.75
  Q 197.97 84.35 199.45 84.67
  A 1.95 1.95 0.0 0 0 201.75 83.26
  L 205.39 69.53
  Q 205.84 67.82 206.26 69.54
  Q 208.95 80.47 211.50 90.37
  C 211.85 91.73 212.73 93.05 214.35 92.67
  A 1.98 1.97 0.5 0 0 215.83 91.22
  L 220.31 73.24
  Q 220.53 72.37 220.97 73.15
  C 223.04 76.72 225.49 75.64 228.88 75.75
  Q 229.30 75.76 229.54 76.11
  C 232.17 79.96 237.17 80.29 240.01 76.53
  C 244.92 70.05 235.22 62.16 229.75 69.29
  A 1.20 1.17 -70.4 0 1 228.82 69.75
  L 225.23 69.75
  Q 224.74 69.75 224.57 69.29
  Q 223.42 66.10 222.11 62.58
  Q 221.53 61.04 219.77 60.89
  A 1.67 1.66 -80.1 0 0 218.02 62.12
  L 214.25 76.23
  Q 213.81 77.88 213.41 76.22
  Q 210.74 65.20 207.90 54.53
  C 207.31 52.31 204.28 52.37 203.70 54.72
  Q 201.54 63.49 199.38 72.27
  Q 199.09 73.44 198.58 72.36
  C 197.81 70.75 196.48 69.71 194.64 69.72
  Q 188.33 69.78 181.63 69.74
  A 0.58 0.57 76.4 0 1 181.12 69.42
  Q 176.91 60.93 177.49 51.66
  Q 178.20 40.25 188.06 34.78
  C 193.59 31.70 201.65 32.16 207.25 35.14
  Q 214.05 38.76 217.14 46.84
  Q 217.51 47.81 217.87 46.84
  Z"
/>
<path fill="#283f68" d="
  M 291.05 139.75
  L 281.92 139.75
  Q 281.30 139.75 280.96 140.27
  Q 276.96 146.40 270.66 150.11
  Q 270.41 150.25 270.24 150.02
  L 267.94 147.02
  Q 267.77 146.79 268.01 146.63
  Q 276.23 141.42 279.37 132.22
  Q 279.53 131.74 280.03 131.80
  L 284.10 132.30
  A 0.41 0.41 0.0 0 1 284.43 132.87
  L 283.57 134.81
  Q 283.27 135.50 284.02 135.50
  L 296.54 135.50
  Q 297.19 135.50 297.18 136.14
  C 296.94 151.20 288.11 158.21 274.79 161.18
  Q 274.53 161.24 274.44 160.99
  L 273.13 157.34
  Q 273.03 157.08 273.30 157.02
  C 282.73 154.89 289.48 150.31 291.58 140.41
  Q 291.72 139.75 291.05 139.75
  Z"
/>
<path fill="#283f68" d="
  M 215.00 146.20
  L 215.00 161.00
  A 0.25 0.25 0.0 0 1 214.75 161.25
  L 210.25 161.25
  Q 210.00 161.25 210.00 161.00
  L 210.00 132.75
  Q 210.00 132.25 210.50 132.25
  L 214.49 132.24
  Q 215.00 132.24 215.00 132.75
  L 215.00 140.20
  Q 215.00 140.67 215.45 140.82
  Q 224.31 143.93 232.06 148.73
  Q 232.17 148.80 232.09 148.90
  L 229.38 152.35
  Q 229.26 152.50 229.11 152.40
  Q 222.77 148.30 215.78 145.66
  Q 215.00 145.36 215.00 146.20
  Z"
/>
<path fill="#283f68" d="
  M 174.25 144.61
  L 174.26 161.14
  A 0.36 0.36 0.0 0 1 173.90 161.50
  L 170.36 161.49
  A 0.36 0.36 0.0 0 1 170.00 161.13
  L 170.00 133.11
  A 0.36 0.36 0.0 0 1 170.36 132.75
  L 182.63 132.75
  A 0.36 0.36 0.0 0 1 182.99 133.11
  L 183.00 143.89
  A 0.36 0.36 0.0 0 1 182.64 144.25
  L 174.61 144.25
  A 0.36 0.36 0.0 0 0 174.25 144.61
  Z
  M 179.00 135.95
  A 0.45 0.45 0.0 0 0 178.55 135.50
  L 174.67 135.50
  A 0.45 0.45 0.0 0 0 174.22 135.95
  L 174.22 137.05
  A 0.45 0.45 0.0 0 0 174.67 137.50
  L 178.55 137.50
  A 0.45 0.45 0.0 0 0 179.00 137.05
  L 179.00 135.95
  Z
  M 178.9882 140.2317
  A 0.49 0.49 0.0 0 0 178.4965 139.7434
  L 174.7165 139.7566
  A 0.49 0.49 0.0 0 0 174.2282 140.2483
  L 174.2318 141.2683
  A 0.49 0.49 0.0 0 0 174.7235 141.7566
  L 178.5035 141.7434
  A 0.49 0.49 0.0 0 0 178.9918 141.2517
  L 178.9882 140.2317
  Z"
/>
<path fill="#283f68" d="
  M 194.00 144.25
  L 186.00 144.25
  A 0.50 0.50 0.0 0 1 185.50 143.75
  L 185.50 133.25
  Q 185.50 132.74 186.00 132.74
  L 198.20 132.75
  Q 198.75 132.75 198.75 133.30
  Q 198.75 145.66 198.75 158.33
  C 198.76 161.61 194.69 161.27 192.64 161.28
  Q 191.84 161.28 191.85 160.49
  L 191.86 158.16
  Q 191.86 157.49 192.53 157.49
  L 193.75 157.50
  Q 194.50 157.51 194.50 156.75
  L 194.50 144.75
  Q 194.50 144.25 194.00 144.25
  Z
  M 194.6007 136.1145
  A 0.62 0.62 0.0 0 0 193.9818 135.4934
  L 190.0618 135.4866
  A 0.62 0.62 0.0 0 0 189.4407 136.1055
  L 189.4393 136.8855
  A 0.62 0.62 0.0 0 0 190.0582 137.5066
  L 193.9782 137.5134
  A 0.62 0.62 0.0 0 0 194.5993 136.8945
  L 194.6007 136.1145
  Z
  M 194.5208 140.2844
  A 0.53 0.53 0.0 0 0 193.9917 139.7535
  L 190.0117 139.7465
  A 0.53 0.53 0.0 0 0 189.4808 140.2756
  L 189.4792 141.2156
  A 0.53 0.53 0.0 0 0 190.0083 141.7465
  L 193.9883 141.7535
  A 0.53 0.53 0.0 0 0 194.5192 141.2244
  L 194.5208 140.2844
  Z"
/>
<path fill="#283f68" d="
  M 151.64 149.93
  Q 148.13 157.79 138.47 161.12
  A 0.37 0.37 0.0 0 1 138.04 160.96
  Q 137.10 159.36 136.33 157.62
  A 0.11 0.11 0.0 0 1 136.40 157.47
  Q 145.24 154.48 147.87 146.99
  C 149.34 142.77 148.65 137.68 148.78 133.24
  A 0.25 0.24 -88.8 0 1 149.02 133.00
  L 153.22 133.00
  A 0.27 0.27 0.0 0 1 153.49 133.27
  C 153.55 138.63 152.89 143.10 155.96 148.00
  Q 159.61 153.82 166.71 156.96
  A 0.22 0.22 0.0 0 1 166.79 157.29
  L 164.22 160.74
  A 0.36 0.36 0.0 0 1 163.78 160.86
  Q 156.16 157.43 152.03 149.91
  A 0.22 0.22 0.0 0 0 151.64 149.93
  Z"
/>
<rect fill="#283f68" x="-1.22" y="-2.75" transform="translate(228.01,136.37) rotate(-25.1)" width="2.44" height="5.50" rx="0.67"/>
<rect fill="#283f68" x="-1.24" y="-2.73" transform="translate(223.26,137.37) rotate(-24.2)" width="2.48" height="5.46" rx="0.46"/>
<rect fill="#ffffff" x="174.22" y="135.50" width="4.78" height="2.00" rx="0.45"/>
<rect fill="#ffffff" x="-2.58" y="-1.01" transform="translate(192.02,136.50) rotate(0.1)" width="5.16" height="2.02" rx="0.62"/>
<rect fill="#283f68" x="-2.01" y="-5.80" transform="translate(248.58,143.42) rotate(-23.6)" width="4.02" height="11.60" rx="0.26"/>
<path fill="#283f68" d="
  M 240.50 157.67
  C 251.64 156.23 256.38 149.19 257.20 138.97
  Q 257.24 138.50 257.71 138.55
  L 260.80 138.85
  A 0.49 0.49 0.0 0 1 261.24 139.39
  C 259.90 151.46 254.63 159.40 241.60 161.20
  Q 241.35 161.24 241.27 160.99
  L 240.31 157.97
  Q 240.23 157.71 240.50 157.67
  Z"
/>
<rect fill="#283f68" x="-2.03" y="-5.75" transform="translate(240.94,144.99) rotate(-22.2)" width="4.06" height="11.50" rx="0.26"/>
<rect fill="#ffffff" x="-2.38" y="-1.00" transform="translate(176.61,140.75) rotate(-0.2)" width="4.76" height="2.00" rx="0.49"/>
<rect fill="#ffffff" x="-2.52" y="-1.00" transform="translate(192.00,140.75) rotate(0.1)" width="5.04" height="2.00" rx="0.53"/>
<path fill="#283f68" d="
  M 177.60 146.00
  L 190.64 146.00
  A 0.35 0.35 0.0 0 1 190.99 146.35
  L 191.02 158.58
  A 0.35 0.35 0.0 0 1 190.69 158.93
  L 177.63 159.89
  A 0.35 0.35 0.0 0 1 177.25 159.54
  L 177.25 146.35
  A 0.35 0.35 0.0 0 1 177.60 146.00
  Z
  M 186.8428 149.4897
  A 0.72 0.72 0.0 0 0 186.1278 148.7647
  L 181.9279 148.7354
  A 0.72 0.72 0.0 0 0 181.2029 149.4503
  L 181.1972 150.2703
  A 0.72 0.72 0.0 0 0 181.9122 150.9953
  L 186.1121 151.0246
  A 0.72 0.72 0.0 0 0 186.8371 150.3097
  L 186.8428 149.4897
  Z
  M 186.8082 154.3602
  A 0.62 0.62 0.0 0 0 186.1861 153.7424
  L 181.8261 153.7576
  A 0.62 0.62 0.0 0 0 181.2083 154.3798
  L 181.2118 155.3798
  A 0.62 0.62 0.0 0 0 181.8339 155.9976
  L 186.1939 155.9824
  A 0.62 0.62 0.0 0 0 186.8117 155.3602
  L 186.8082 154.3602
  Z"
/>
<rect fill="#ffffff" x="-2.82" y="-1.13" transform="translate(184.02,149.88) rotate(0.4)" width="5.64" height="2.26" rx="0.72"/>
<rect fill="#ffffff" x="-2.80" y="-1.12" transform="translate(184.01,154.87) rotate(-0.2)" width="5.60" height="2.24" rx="0.62"/>
</svg>
