<?xml version="1.0" encoding="UTF-8" standalone="no"?>
<!DOCTYPE svg PUBLIC "-//W3C//DTD SVG 1.1//EN" "http://www.w3.org/Graphics/SVG/1.1/DTD/svg11.dtd">
<svg xmlns="http://www.w3.org/2000/svg" version="1.1" viewBox="0.00 0.00 435.00 195.00">
<g stroke-width="2.00" fill="none" stroke-linecap="butt">
<path stroke="#dedede" vector-effect="non-scaling-stroke" d="
  M 430.50 31.01
  A 26.01 26.01 0.0 0 0 404.49 5.00
  L 30.51 5.00
  A 26.01 26.01 0.0 0 0 4.50 31.01
  L 4.50 155.99
  A 26.01 26.01 0.0 0 0 30.51 182.00
  L 404.49 182.00
  A 26.01 26.01 0.0 0 0 430.50 155.99
  L 430.50 31.01"
/>
<path stroke="#b0d598" vector-effect="non-scaling-stroke" d="
  M 214.08 91.92
  C 215.12 88.07 220.23 88.65 221.07 92.26
  Q 222.24 97.31 223.41 102.07
  C 224.44 106.24 228.65 106.42 232.16 105.87
  Q 235.20 105.40 235.79 102.62
  C 236.71 98.28 236.88 93.94 238.52 89.71
  C 242.11 80.42 245.51 71.27 248.01 61.78
  C 249.54 55.95 249.90 49.99 249.28 44.08
  C 248.38 35.52 243.34 27.13 234.00 26.12
  C 228.68 25.54 223.81 26.40 218.74 28.19
  A 3.36 3.27 43.2 0 1 216.67 28.23
  C 211.40 26.64 206.75 25.48 201.04 26.14
  C 183.70 28.16 183.82 50.82 187.27 62.85
  Q 190.86 75.33 196.19 88.45
  C 197.91 92.68 198.33 97.06 198.93 101.51
  C 199.60 106.54 204.59 106.67 208.31 105.64
  Q 211.04 104.88 211.65 102.01
  Q 212.70 97.01 214.08 91.92"
/>
<path stroke="#b0d598" vector-effect="non-scaling-stroke" d="
  M 186.97 137.09
  A 0.34 0.34 0.0 0 1 187.31 136.74
  L 196.67 136.75
  A 0.34 0.34 0.0 0 0 197.01 136.40
  L 196.98 134.33
  A 0.34 0.34 0.0 0 0 196.64 134.00
  L 187.43 134.00
  A 0.34 0.34 0.0 0 1 187.10 133.72
  L 186.84 132.28
  A 0.34 0.34 0.0 0 0 186.51 132.00
  L 182.83 132.00
  A 0.34 0.34 0.0 0 0 182.49 132.34
  L 182.51 138.16
  A 0.34 0.34 0.0 0 1 182.17 138.50
  L 178.83 138.49
  A 0.34 0.34 0.0 0 1 178.49 138.15
  L 178.50 133.58
  A 0.34 0.34 0.0 0 0 178.16 133.24
  L 174.36 133.27
  A 0.34 0.34 0.0 0 0 174.02 133.61
  L 173.99 138.17
  A 0.34 0.34 0.0 0 1 173.65 138.51
  L 169.36 138.49
  A 0.34 0.34 0.0 0 0 169.02 138.83
  L 169.00 141.16
  A 0.34 0.34 0.0 0 0 169.34 141.50
  L 199.41 141.50
  A 0.34 0.34 0.0 0 0 199.75 141.16
  L 199.74 138.84
  A 0.34 0.34 0.0 0 0 199.40 138.50
  L 187.32 138.50
  A 0.34 0.34 0.0 0 1 186.98 138.17
  L 186.97 137.09"
/>
<path stroke="#b0d598" vector-effect="non-scaling-stroke" d="
  M 245.80 143.94
  Q 240.59 146.60 234.66 148.58
  Q 234.30 148.69 234.44 149.04
  L 235.53 151.80
  Q 235.73 152.31 236.24 152.12
  L 240.01 150.74
  Q 240.75 150.47 240.75 151.26
  L 240.75 160.34
  Q 240.75 160.82 241.22 160.93
  Q 243.90 161.50 245.62 160.08
  A 1.45 1.41 -64.2 0 1 246.53 159.75
  L 256.95 159.75
  Q 257.45 159.75 257.85 160.02
  Q 259.96 161.44 262.67 160.97
  Q 263.25 160.87 263.25 160.28
  L 263.25 146.25
  Q 263.25 145.75 262.75 145.75
  L 251.04 145.75
  Q 250.50 145.75 250.88 145.37
  Q 252.69 143.55 254.99 143.52
  Q 259.96 143.47 265.21 143.51
  A 0.53 0.53 0.0 0 0 265.75 142.97
  L 265.74 140.50
  Q 265.73 140.01 265.25 140.01
  L 260.53 140.00
  Q 259.45 140.00 260.25 139.28
  L 264.31 135.65
  A 0.63 0.62 39.6 0 0 264.21 134.65
  L 261.72 133.16
  Q 261.03 132.74 260.48 133.34
  L 258.09 135.94
  Q 257.61 136.47 257.37 135.79
  L 257.15 135.13
  A 0.92 0.92 0.0 0 0 256.28 134.50
  L 250.75 134.50
  Q 250.25 134.50 250.25 134.00
  L 250.25 132.50
  Q 250.25 132.00 249.75 132.00
  L 246.25 132.02
  Q 245.76 132.02 245.76 132.50
  L 245.75 134.00
  Q 245.75 134.49 245.25 134.49
  L 238.01 134.50
  Q 237.52 134.51 237.50 135.00
  L 237.45 137.45
  A 0.51 0.51 0.0 0 0 237.95 137.97
  L 245.37 138.03
  A 0.60 0.60 0.0 0 1 245.96 138.67
  L 245.94 139.06
  Q 245.88 140.00 244.95 140.00
  L 236.75 140.00
  Q 236.01 140.01 236.01 140.75
  L 236.00 143.00
  A 0.50 0.49 0.6 0 0 236.50 143.50
  L 245.69 143.50
  Q 246.68 143.50 245.80 143.94"
/>
<path stroke="#b0d598" vector-effect="non-scaling-stroke" d="
  M 215.28 136.45
  L 231.48 136.53
  Q 232.00 136.53 232.00 136.02
  L 232.00 134.00
  Q 231.99 133.25 231.25 133.25
  L 204.25 133.25
  Q 203.75 133.25 203.75 133.75
  L 203.75 160.46
  Q 203.75 160.91 204.19 160.98
  C 206.59 161.34 208.40 160.26 210.75 160.26
  Q 221.45 160.24 231.98 160.25
  A 0.27 0.26 -0.0 0 0 232.25 159.99
  L 232.25 157.26
  Q 232.26 156.99 231.99 156.99
  Q 221.81 157.01 211.40 157.00
  Q 211.09 157.00 210.88 156.77
  Q 210.58 156.46 211.00 156.38
  Q 216.35 155.42 219.73 151.37
  A 0.57 0.56 -44.1 0 1 220.61 151.38
  Q 223.76 155.40 228.71 156.24
  A 0.99 0.98 18.5 0 0 229.75 155.73
  L 230.79 153.75
  Q 231.15 153.06 230.39 152.91
  Q 227.01 152.21 224.08 149.94
  Q 223.21 149.26 224.31 149.26
  L 230.50 149.25
  Q 231.01 149.25 231.00 148.75
  L 230.99 146.24
  Q 230.98 145.74 230.49 145.74
  L 222.48 145.75
  Q 221.96 145.75 221.98 145.23
  L 222.05 143.12
  Q 222.06 142.74 222.44 142.74
  L 228.99 142.76
  Q 229.49 142.76 229.49 142.26
  L 229.50 139.75
  Q 229.50 139.25 229.00 139.25
  L 218.20 139.24
  A 0.62 0.62 0.0 0 1 217.61 138.45
  Q 217.75 137.98 217.55 137.54
  Q 217.35 137.10 216.87 137.09
  Q 216.01 137.07 215.22 136.81
  Q 214.13 136.45 215.28 136.45"
/>
<path stroke="#b0d598" vector-effect="non-scaling-stroke" d="
  M 182.50 152.94
  L 182.49 155.31
  Q 182.49 156.46 183.63 156.30
  Q 184.46 156.19 185.14 156.36
  Q 186.26 156.64 186.26 155.49
  L 186.25 152.73
  Q 186.25 151.95 186.86 152.44
  Q 189.20 154.33 191.84 155.71
  A 0.79 0.78 -59.6 0 0 192.86 155.44
  L 193.80 153.98
  Q 194.30 153.20 193.47 152.82
  Q 191.24 151.78 189.20 150.33
  Q 188.00 149.47 189.47 149.49
  L 192.98 149.53
  Q 193.49 149.54 193.49 149.02
  L 193.51 147.50
  Q 193.52 146.72 192.75 146.73
  L 191.72 146.73
  Q 191.04 146.74 191.41 146.17
  L 192.33 144.72
  Q 192.81 143.97 191.94 143.75
  L 190.02 143.26
  Q 189.20 143.05 188.89 143.84
  Q 188.52 144.80 188.00 145.68
  Q 186.23 148.66 186.25 145.19
  L 186.26 143.14
  Q 186.26 142.51 185.64 142.51
  L 182.99 142.52
  Q 182.49 142.52 182.49 143.01
  L 182.49 145.71
  Q 182.50 147.97 181.24 146.09
  Q 180.53 145.02 180.04 143.80
  Q 179.80 143.21 179.19 143.40
  L 177.14 144.05
  A 0.56 0.55 64.4 0 0 176.85 144.89
  L 177.63 146.05
  Q 178.04 146.67 177.29 146.70
  L 176.23 146.74
  Q 175.48 146.77 175.48 147.52
  L 175.50 149.01
  A 0.51 0.50 0.0 0 0 176.01 149.51
  L 179.79 149.50
  Q 180.80 149.50 179.98 150.08
  Q 177.78 151.64 175.50 152.61
  Q 174.51 153.04 175.14 153.92
  L 176.02 155.14
  Q 176.47 155.77 177.17 155.44
  Q 179.79 154.23 181.83 152.62
  Q 182.50 152.08 182.50 152.94"
/>
<path stroke="#b0d598" vector-effect="non-scaling-stroke" d="
  M 174.50 156.23
  L 174.50 143.00
  Q 174.50 142.75 174.25 142.75
  L 170.75 142.74
  Q 170.49 142.74 170.50 143.00
  L 170.50 160.57
  Q 170.50 161.16 171.09 161.25
  Q 173.17 161.57 174.56 160.51
  A 2.45 2.40 25.8 0 1 176.04 160.01
  L 193.01 160.00
  Q 193.63 160.00 194.12 160.38
  Q 195.67 161.57 197.99 161.27
  Q 198.50 161.21 198.50 160.69
  L 198.50 143.25
  Q 198.50 142.74 198.00 142.74
  L 194.74 142.75
  Q 194.49 142.75 194.49 143.01
  L 194.50 156.36
  Q 194.50 156.96 193.89 156.96
  L 175.23 156.96
  Q 174.50 156.96 174.50 156.23"
/>
<path stroke="#b0d598" vector-effect="non-scaling-stroke" d="
  M 254.59 138.91
  Q 255.91 138.01 254.31 138.01
  L 251.05 138.00
  Q 250.49 138.00 250.19 138.47
  Q 249.88 138.95 250.15 139.47
  Q 250.40 139.93 250.91 139.99
  Q 252.75 140.17 254.59 138.91"
/>
<path stroke="#b0d598" vector-effect="non-scaling-stroke" d="
  M 258.57 149.67
  A 0.66 0.66 0.0 0 0 257.91 149.01
  L 245.81 149.01
  A 0.66 0.66 0.0 0 0 245.15 149.67
  L 245.15 150.59
  A 0.66 0.66 0.0 0 0 245.81 151.25
  L 257.91 151.25
  A 0.66 0.66 0.0 0 0 258.57 150.59
  L 258.57 149.67"
/>
<path stroke="#b0d598" vector-effect="non-scaling-stroke" d="
  M 258.52 154.69
  A 0.43 0.43 0.0 0 0 258.09 154.26
  L 245.65 154.26
  A 0.43 0.43 0.0 0 0 245.22 154.69
  L 245.22 156.07
  A 0.43 0.43 0.0 0 0 245.65 156.50
  L 258.09 156.50
  A 0.43 0.43 0.0 0 0 258.52 156.07
  L 258.52 154.69"
/>
<path stroke="#b0d598" vector-effect="non-scaling-stroke" d="
  M 209.26 146.27
  A 0.62 0.62 0.0 0 1 210.02 145.66
  Q 210.73 145.82 211.48 145.76
  Q 212.28 145.69 211.63 145.22
  L 210.45 144.37
  Q 209.86 143.95 210.30 143.38
  Q 212.64 140.41 214.10 137.04
  Q 214.33 136.51 213.76 136.51
  L 208.51 136.48
  A 0.51 0.51 0.0 0 0 208.00 136.99
  L 207.99 156.52
  Q 207.99 157.04 208.52 157.01
  L 209.95 156.95
  Q 210.53 156.92 210.13 156.50
  Q 209.06 155.36 209.05 153.77
  Q 209.05 153.18 209.64 153.07
  Q 213.40 152.37 216.00 149.84
  Q 216.61 149.25 215.76 149.25
  L 209.76 149.26
  Q 209.26 149.26 209.26 148.76
  L 209.26 146.27"
/>
<path stroke="#b0d598" vector-effect="non-scaling-stroke" d="
  M 213.68 145.00
  Q 213.48 145.05 213.37 145.24
  Q 213.09 145.75 213.67 145.75
  L 217.26 145.74
  A 0.50 0.50 0.0 0 0 217.76 145.24
  L 217.75 143.40
  Q 217.75 142.74 217.09 142.68
  Q 215.01 142.50 214.10 144.64
  Q 213.98 144.92 213.68 145.00"
/>
</g>
<path fill="#bdbdbd" d="
  M 29.58 2.00
  L 405.42 2.00
  A 28.08 28.08 0.0 0 1 433.50 30.08
  L 433.50 165.92
  A 28.08 28.08 0.0 0 1 405.42 194.00
  L 29.58 194.00
  A 28.08 28.08 0.0 0 1 1.50 165.92
  L 1.50 30.08
  A 28.08 28.08 0.0 0 1 29.58 2.00
  Z
  M 430.50 31.01
  A 26.01 26.01 0.0 0 0 404.49 5.00
  L 30.51 5.00
  A 26.01 26.01 0.0 0 0 4.50 31.01
  L 4.50 155.99
  A 26.01 26.01 0.0 0 0 30.51 182.00
  L 404.49 182.00
  A 26.01 26.01 0.0 0 0 430.50 155.99
  L 430.50 31.01
  Z"
/>
<path fill="#ffffff" d="
  M 430.50 155.99
  A 26.01 26.01 0.0 0 1 404.49 182.00
  L 30.51 182.00
  A 26.01 26.01 0.0 0 1 4.50 155.99
  L 4.50 31.01
  A 26.01 26.01 0.0 0 1 30.51 5.00
  L 404.49 5.00
  A 26.01 26.01 0.0 0 1 430.50 31.01
  L 430.50 155.99
  Z
  M 214.08 91.92
  C 215.12 88.07 220.23 88.65 221.07 92.26
  Q 222.24 97.31 223.41 102.07
  C 224.44 106.24 228.65 106.42 232.16 105.87
  Q 235.20 105.40 235.79 102.62
  C 236.71 98.28 236.88 93.94 238.52 89.71
  C 242.11 80.42 245.51 71.27 248.01 61.78
  C 249.54 55.95 249.90 49.99 249.28 44.08
  C 248.38 35.52 243.34 27.13 234.00 26.12
  C 228.68 25.54 223.81 26.40 218.74 28.19
  A 3.36 3.27 43.2 0 1 216.67 28.23
  C 211.40 26.64 206.75 25.48 201.04 26.14
  C 183.70 28.16 183.82 50.82 187.27 62.85
  Q 190.86 75.33 196.19 88.45
  C 197.91 92.68 198.33 97.06 198.93 101.51
  C 199.60 106.54 204.59 106.67 208.31 105.64
  Q 211.04 104.88 211.65 102.01
  Q 212.70 97.01 214.08 91.92
  Z
  M 186.97 137.09
  A 0.34 0.34 0.0 0 1 187.31 136.74
  L 196.67 136.75
  A 0.34 0.34 0.0 0 0 197.01 136.40
  L 196.98 134.33
  A 0.34 0.34 0.0 0 0 196.64 134.00
  L 187.43 134.00
  A 0.34 0.34 0.0 0 1 187.10 133.72
  L 186.84 132.28
  A 0.34 0.34 0.0 0 0 186.51 132.00
  L 182.83 132.00
  A 0.34 0.34 0.0 0 0 182.49 132.34
  L 182.51 138.16
  A 0.34 0.34 0.0 0 1 182.17 138.50
  L 178.83 138.49
  A 0.34 0.34 0.0 0 1 178.49 138.15
  L 178.50 133.58
  A 0.34 0.34 0.0 0 0 178.16 133.24
  L 174.36 133.27
  A 0.34 0.34 0.0 0 0 174.02 133.61
  L 173.99 138.17
  A 0.34 0.34 0.0 0 1 173.65 138.51
  L 169.36 138.49
  A 0.34 0.34 0.0 0 0 169.02 138.83
  L 169.00 141.16
  A 0.34 0.34 0.0 0 0 169.34 141.50
  L 199.41 141.50
  A 0.34 0.34 0.0 0 0 199.75 141.16
  L 199.74 138.84
  A 0.34 0.34 0.0 0 0 199.40 138.50
  L 187.32 138.50
  A 0.34 0.34 0.0 0 1 186.98 138.17
  L 186.97 137.09
  Z
  M 245.80 143.94
  Q 240.59 146.60 234.66 148.58
  Q 234.30 148.69 234.44 149.04
  L 235.53 151.80
  Q 235.73 152.31 236.24 152.12
  L 240.01 150.74
  Q 240.75 150.47 240.75 151.26
  L 240.75 160.34
  Q 240.75 160.82 241.22 160.93
  Q 243.90 161.50 245.62 160.08
  A 1.45 1.41 -64.2 0 1 246.53 159.75
  L 256.95 159.75
  Q 257.45 159.75 257.85 160.02
  Q 259.96 161.44 262.67 160.97
  Q 263.25 160.87 263.25 160.28
  L 263.25 146.25
  Q 263.25 145.75 262.75 145.75
  L 251.04 145.75
  Q 250.50 145.75 250.88 145.37
  Q 252.69 143.55 254.99 143.52
  Q 259.96 143.47 265.21 143.51
  A 0.53 0.53 0.0 0 0 265.75 142.97
  L 265.74 140.50
  Q 265.73 140.01 265.25 140.01
  L 260.53 140.00
  Q 259.45 140.00 260.25 139.28
  L 264.31 135.65
  A 0.63 0.62 39.6 0 0 264.21 134.65
  L 261.72 133.16
  Q 261.03 132.74 260.48 133.34
  L 258.09 135.94
  Q 257.61 136.47 257.37 135.79
  L 257.15 135.13
  A 0.92 0.92 0.0 0 0 256.28 134.50
  L 250.75 134.50
  Q 250.25 134.50 250.25 134.00
  L 250.25 132.50
  Q 250.25 132.00 249.75 132.00
  L 246.25 132.02
  Q 245.76 132.02 245.76 132.50
  L 245.75 134.00
  Q 245.75 134.49 245.25 134.49
  L 238.01 134.50
  Q 237.52 134.51 237.50 135.00
  L 237.45 137.45
  A 0.51 0.51 0.0 0 0 237.95 137.97
  L 245.37 138.03
  A 0.60 0.60 0.0 0 1 245.96 138.67
  L 245.94 139.06
  Q 245.88 140.00 244.95 140.00
  L 236.75 140.00
  Q 236.01 140.01 236.01 140.75
  L 236.00 143.00
  A 0.50 0.49 0.6 0 0 236.50 143.50
  L 245.69 143.50
  Q 246.68 143.50 245.80 143.94
  Z
  M 215.28 136.45
  L 231.48 136.53
  Q 232.00 136.53 232.00 136.02
  L 232.00 134.00
  Q 231.99 133.25 231.25 133.25
  L 204.25 133.25
  Q 203.75 133.25 203.75 133.75
  L 203.75 160.46
  Q 203.75 160.91 204.19 160.98
  C 206.59 161.34 208.40 160.26 210.75 160.26
  Q 221.45 160.24 231.98 160.25
  A 0.27 0.26 -0.0 0 0 232.25 159.99
  L 232.25 157.26
  Q 232.26 156.99 231.99 156.99
  Q 221.81 157.01 211.40 157.00
  Q 211.09 157.00 210.88 156.77
  Q 210.58 156.46 211.00 156.38
  Q 216.35 155.42 219.73 151.37
  A 0.57 0.56 -44.1 0 1 220.61 151.38
  Q 223.76 155.40 228.71 156.24
  A 0.99 0.98 18.5 0 0 229.75 155.73
  L 230.79 153.75
  Q 231.15 153.06 230.39 152.91
  Q 227.01 152.21 224.08 149.94
  Q 223.21 149.26 224.31 149.26
  L 230.50 149.25
  Q 231.01 149.25 231.00 148.75
  L 230.99 146.24
  Q 230.98 145.74 230.49 145.74
  L 222.48 145.75
  Q 221.96 145.75 221.98 145.23
  L 222.05 143.12
  Q 222.06 142.74 222.44 142.74
  L 228.99 142.76
  Q 229.49 142.76 229.49 142.26
  L 229.50 139.75
  Q 229.50 139.25 229.00 139.25
  L 218.20 139.24
  A 0.62 0.62 0.0 0 1 217.61 138.45
  Q 217.75 137.98 217.55 137.54
  Q 217.35 137.10 216.87 137.09
  Q 216.01 137.07 215.22 136.81
  Q 214.13 136.45 215.28 136.45
  Z
  M 182.50 152.94
  L 182.49 155.31
  Q 182.49 156.46 183.63 156.30
  Q 184.46 156.19 185.14 156.36
  Q 186.26 156.64 186.26 155.49
  L 186.25 152.73
  Q 186.25 151.95 186.86 152.44
  Q 189.20 154.33 191.84 155.71
  A 0.79 0.78 -59.6 0 0 192.86 155.44
  L 193.80 153.98
  Q 194.30 153.20 193.47 152.82
  Q 191.24 151.78 189.20 150.33
  Q 188.00 149.47 189.47 149.49
  L 192.98 149.53
  Q 193.49 149.54 193.49 149.02
  L 193.51 147.50
  Q 193.52 146.72 192.75 146.73
  L 191.72 146.73
  Q 191.04 146.74 191.41 146.17
  L 192.33 144.72
  Q 192.81 143.97 191.94 143.75
  L 190.02 143.26
  Q 189.20 143.05 188.89 143.84
  Q 188.52 144.80 188.00 145.68
  Q 186.23 148.66 186.25 145.19
  L 186.26 143.14
  Q 186.26 142.51 185.64 142.51
  L 182.99 142.52
  Q 182.49 142.52 182.49 143.01
  L 182.49 145.71
  Q 182.50 147.97 181.24 146.09
  Q 180.53 145.02 180.04 143.80
  Q 179.80 143.21 179.19 143.40
  L 177.14 144.05
  A 0.56 0.55 64.4 0 0 176.85 144.89
  L 177.63 146.05
  Q 178.04 146.67 177.29 146.70
  L 176.23 146.74
  Q 175.48 146.77 175.48 147.52
  L 175.50 149.01
  A 0.51 0.50 0.0 0 0 176.01 149.51
  L 179.79 149.50
  Q 180.80 149.50 179.98 150.08
  Q 177.78 151.64 175.50 152.61
  Q 174.51 153.04 175.14 153.92
  L 176.02 155.14
  Q 176.47 155.77 177.17 155.44
  Q 179.79 154.23 181.83 152.62
  Q 182.50 152.08 182.50 152.94
  Z
  M 174.50 156.23
  L 174.50 143.00
  Q 174.50 142.75 174.25 142.75
  L 170.75 142.74
  Q 170.49 142.74 170.50 143.00
  L 170.50 160.57
  Q 170.50 161.16 171.09 161.25
  Q 173.17 161.57 174.56 160.51
  A 2.45 2.40 25.8 0 1 176.04 160.01
  L 193.01 160.00
  Q 193.63 160.00 194.12 160.38
  Q 195.67 161.57 197.99 161.27
  Q 198.50 161.21 198.50 160.69
  L 198.50 143.25
  Q 198.50 142.74 198.00 142.74
  L 194.74 142.75
  Q 194.49 142.75 194.49 143.01
  L 194.50 156.36
  Q 194.50 156.96 193.89 156.96
  L 175.23 156.96
  Q 174.50 156.96 174.50 156.23
  Z"
/>
<path fill="#61aa31" d="
  M 221.07 92.26
  C 220.23 88.65 215.12 88.07 214.08 91.92
  Q 212.70 97.01 211.65 102.01
  Q 211.04 104.88 208.31 105.64
  C 204.59 106.67 199.60 106.54 198.93 101.51
  C 198.33 97.06 197.91 92.68 196.19 88.45
  Q 190.86 75.33 187.27 62.85
  C 183.82 50.82 183.70 28.16 201.04 26.14
  C 206.75 25.48 211.40 26.64 216.67 28.23
  A 3.36 3.27 43.2 0 0 218.74 28.19
  C 223.81 26.40 228.68 25.54 234.00 26.12
  C 243.34 27.13 248.38 35.52 249.28 44.08
  C 249.90 49.99 249.54 55.95 248.01 61.78
  C 245.51 71.27 242.11 80.42 238.52 89.71
  C 236.88 93.94 236.71 98.28 235.79 102.62
  Q 235.20 105.40 232.16 105.87
  C 228.65 106.42 224.44 106.24 223.41 102.07
  Q 222.24 97.31 221.07 92.26
  Z"
/>
<path fill="#61aa31" d="
  M 186.97 137.09
  L 186.98 138.17
  A 0.34 0.34 0.0 0 0 187.32 138.50
  L 199.40 138.50
  A 0.34 0.34 0.0 0 1 199.74 138.84
  L 199.75 141.16
  A 0.34 0.34 0.0 0 1 199.41 141.50
  L 169.34 141.50
  A 0.34 0.34 0.0 0 1 169.00 141.16
  L 169.02 138.83
  A 0.34 0.34 0.0 0 1 169.36 138.49
  L 173.65 138.51
  A 0.34 0.34 0.0 0 0 173.99 138.17
  L 174.02 133.61
  A 0.34 0.34 0.0 0 1 174.36 133.27
  L 178.16 133.24
  A 0.34 0.34 0.0 0 1 178.50 133.58
  L 178.49 138.15
  A 0.34 0.34 0.0 0 0 178.83 138.49
  L 182.17 138.50
  A 0.34 0.34 0.0 0 0 182.51 138.16
  L 182.49 132.34
  A 0.34 0.34 0.0 0 1 182.83 132.00
  L 186.51 132.00
  A 0.34 0.34 0.0 0 1 186.84 132.28
  L 187.10 133.72
  A 0.34 0.34 0.0 0 0 187.43 134.00
  L 196.64 134.00
  A 0.34 0.34 0.0 0 1 196.98 134.33
  L 197.01 136.40
  A 0.34 0.34 0.0 0 1 196.67 136.75
  L 187.31 136.74
  A 0.34 0.34 0.0 0 0 186.97 137.09
  Z"
/>
<path fill="#61aa31" d="
  M 245.69 143.50
  L 236.50 143.50
  A 0.50 0.49 0.6 0 1 236.00 143.00
  L 236.01 140.75
  Q 236.01 140.01 236.75 140.00
  L 244.95 140.00
  Q 245.88 140.00 245.94 139.06
  L 245.96 138.67
  A 0.60 0.60 0.0 0 0 245.37 138.03
  L 237.95 137.97
  A 0.51 0.51 0.0 0 1 237.45 137.45
  L 237.50 135.00
  Q 237.52 134.51 238.01 134.50
  L 245.25 134.49
  Q 245.75 134.49 245.75 134.00
  L 245.76 132.50
  Q 245.76 132.02 246.25 132.02
  L 249.75 132.00
  Q 250.25 132.00 250.25 132.50
  L 250.25 134.00
  Q 250.25 134.50 250.75 134.50
  L 256.28 134.50
  A 0.92 0.92 0.0 0 1 257.15 135.13
  L 257.37 135.79
  Q 257.61 136.47 258.09 135.94
  L 260.48 133.34
  Q 261.03 132.74 261.72 133.16
  L 264.21 134.65
  A 0.63 0.62 39.6 0 1 264.31 135.65
  L 260.25 139.28
  Q 259.45 140.00 260.53 140.00
  L 265.25 140.01
  Q 265.73 140.01 265.74 140.50
  L 265.75 142.97
  A 0.53 0.53 0.0 0 1 265.21 143.51
  Q 259.96 143.47 254.99 143.52
  Q 252.69 143.55 250.88 145.37
  Q 250.50 145.75 251.04 145.75
  L 262.75 145.75
  Q 263.25 145.75 263.25 146.25
  L 263.25 160.28
  Q 263.25 160.87 262.67 160.97
  Q 259.96 161.44 257.85 160.02
  Q 257.45 159.75 256.95 159.75
  L 246.53 159.75
  A 1.45 1.41 -64.2 0 0 245.62 160.08
  Q 243.90 161.50 241.22 160.93
  Q 240.75 160.82 240.75 160.34
  L 240.75 151.26
  Q 240.75 150.47 240.01 150.74
  L 236.24 152.12
  Q 235.73 152.31 235.53 151.80
  L 234.44 149.04
  Q 234.30 148.69 234.66 148.58
  Q 240.59 146.60 245.80 143.94
  Q 246.68 143.50 245.69 143.50
  Z
  M 254.59 138.91
  Q 255.91 138.01 254.31 138.01
  L 251.05 138.00
  Q 250.49 138.00 250.19 138.47
  Q 249.88 138.95 250.15 139.47
  Q 250.40 139.93 250.91 139.99
  Q 252.75 140.17 254.59 138.91
  Z
  M 258.57 149.67
  A 0.66 0.66 0.0 0 0 257.91 149.01
  L 245.81 149.01
  A 0.66 0.66 0.0 0 0 245.15 149.67
  L 245.15 150.59
  A 0.66 0.66 0.0 0 0 245.81 151.25
  L 257.91 151.25
  A 0.66 0.66 0.0 0 0 258.57 150.59
  L 258.57 149.67
  Z
  M 258.52 154.69
  A 0.43 0.43 0.0 0 0 258.09 154.26
  L 245.65 154.26
  A 0.43 0.43 0.0 0 0 245.22 154.69
  L 245.22 156.07
  A 0.43 0.43 0.0 0 0 245.65 156.50
  L 258.09 156.50
  A 0.43 0.43 0.0 0 0 258.52 156.07
  L 258.52 154.69
  Z"
/>
<path fill="#61aa31" d="
  M 215.22 136.81
  Q 216.01 137.07 216.87 137.09
  Q 217.35 137.10 217.55 137.54
  Q 217.75 137.98 217.61 138.45
  A 0.62 0.62 0.0 0 0 218.20 139.24
  L 229.00 139.25
  Q 229.50 139.25 229.50 139.75
  L 229.49 142.26
  Q 229.49 142.76 228.99 142.76
  L 222.44 142.74
  Q 222.06 142.74 222.05 143.12
  L 221.98 145.23
  Q 221.96 145.75 222.48 145.75
  L 230.49 145.74
  Q 230.98 145.74 230.99 146.24
  L 231.00 148.75
  Q 231.01 149.25 230.50 149.25
  L 224.31 149.26
  Q 223.21 149.26 224.08 149.94
  Q 227.01 152.21 230.39 152.91
  Q 231.15 153.06 230.79 153.75
  L 229.75 155.73
  A 0.99 0.98 18.5 0 1 228.71 156.24
  Q 223.76 155.40 220.61 151.38
  A 0.57 0.56 -44.1 0 0 219.73 151.37
  Q 216.35 155.42 211.00 156.38
  Q 210.58 156.46 210.88 156.77
  Q 211.09 157.00 211.40 157.00
  Q 221.81 157.01 231.99 156.99
  Q 232.26 156.99 232.25 157.26
  L 232.25 159.99
  A 0.27 0.26 -0.0 0 1 231.98 160.25
  Q 221.45 160.24 210.75 160.26
  C 208.40 160.26 206.59 161.34 204.19 160.98
  Q 203.75 160.91 203.75 160.46
  L 203.75 133.75
  Q 203.75 133.25 204.25 133.25
  L 231.25 133.25
  Q 231.99 133.25 232.00 134.00
  L 232.00 136.02
  Q 232.00 136.53 231.48 136.53
  L 215.28 136.45
  Q 214.13 136.45 215.22 136.81
  Z
  M 209.26 146.27
  A 0.62 0.62 0.0 0 1 210.02 145.66
  Q 210.73 145.82 211.48 145.76
  Q 212.28 145.69 211.63 145.22
  L 210.45 144.37
  Q 209.86 143.95 210.30 143.38
  Q 212.64 140.41 214.10 137.04
  Q 214.33 136.51 213.76 136.51
  L 208.51 136.48
  A 0.51 0.51 0.0 0 0 208.00 136.99
  L 207.99 156.52
  Q 207.99 157.04 208.52 157.01
  L 209.95 156.95
  Q 210.53 156.92 210.13 156.50
  Q 209.06 155.36 209.05 153.77
  Q 209.05 153.18 209.64 153.07
  Q 213.40 152.37 216.00 149.84
  Q 216.61 149.25 215.76 149.25
  L 209.76 149.26
  Q 209.26 149.26 209.26 148.76
  L 209.26 146.27
  Z
  M 213.68 145.00
  Q 213.48 145.05 213.37 145.24
  Q 213.09 145.75 213.67 145.75
  L 217.26 145.74
  A 0.50 0.50 0.0 0 0 217.76 145.24
  L 217.75 143.40
  Q 217.75 142.74 217.09 142.68
  Q 215.01 142.50 214.10 144.64
  Q 213.98 144.92 213.68 145.00
  Z"
/>
<path fill="#ffffff" d="
  M 209.76 149.26
  L 215.76 149.25
  Q 216.61 149.25 216.00 149.84
  Q 213.40 152.37 209.64 153.07
  Q 209.05 153.18 209.05 153.77
  Q 209.06 155.36 210.13 156.50
  Q 210.53 156.92 209.95 156.95
  L 208.52 157.01
  Q 207.99 157.04 207.99 156.52
  L 208.00 136.99
  A 0.51 0.51 0.0 0 1 208.51 136.48
  L 213.76 136.51
  Q 214.33 136.51 214.10 137.04
  Q 212.64 140.41 210.30 143.38
  Q 209.86 143.95 210.45 144.37
  L 211.63 145.22
  Q 212.28 145.69 211.48 145.76
  Q 210.73 145.82 210.02 145.66
  A 0.62 0.62 0.0 0 0 209.26 146.27
  L 209.26 148.76
  Q 209.26 149.26 209.76 149.26
  Z"
/>
<path fill="#ffffff" d="
  M 254.59 138.91
  Q 252.75 140.17 250.91 139.99
  Q 250.40 139.93 250.15 139.47
  Q 249.88 138.95 250.19 138.47
  Q 250.49 138.00 251.05 138.00
  L 254.31 138.01
  Q 255.91 138.01 254.59 138.91
  Z"
/>
<path fill="#61aa31" d="
  M 181.83 152.62
  Q 179.79 154.23 177.17 155.44
  Q 176.47 155.77 176.02 155.14
  L 175.14 153.92
  Q 174.51 153.04 175.50 152.61
  Q 177.78 151.64 179.98 150.08
  Q 180.80 149.50 179.79 149.50
  L 176.01 149.51
  A 0.51 0.50 0.0 0 1 175.50 149.01
  L 175.48 147.52
  Q 175.48 146.77 176.23 146.74
  L 177.29 146.70
  Q 178.04 146.67 177.63 146.05
  L 176.85 144.89
  A 0.56 0.55 64.4 0 1 177.14 144.05
  L 179.19 143.40
  Q 179.80 143.21 180.04 143.80
  Q 180.53 145.02 181.24 146.09
  Q 182.50 147.97 182.49 145.71
  L 182.49 143.01
  Q 182.49 142.52 182.99 142.52
  L 185.64 142.51
  Q 186.26 142.51 186.26 143.14
  L 186.25 145.19
  Q 186.23 148.66 188.00 145.68
  Q 188.52 144.80 188.89 143.84
  Q 189.20 143.05 190.02 143.26
  L 191.94 143.75
  Q 192.81 143.97 192.33 144.72
  L 191.41 146.17
  Q 191.04 146.74 191.72 146.73
  L 192.75 146.73
  Q 193.52 146.72 193.51 147.50
  L 193.49 149.02
  Q 193.49 149.54 192.98 149.53
  L 189.47 149.49
  Q 188.00 149.47 189.20 150.33
  Q 191.24 151.78 193.47 152.82
  Q 194.30 153.20 193.80 153.98
  L 192.86 155.44
  A 0.79 0.78 -59.6 0 1 191.84 155.71
  Q 189.20 154.33 186.86 152.44
  Q 186.25 151.95 186.25 152.73
  L 186.26 155.49
  Q 186.26 156.64 185.14 156.36
  Q 184.46 156.19 183.63 156.30
  Q 182.49 156.46 182.49 155.31
  L 182.50 152.94
  Q 182.50 152.08 181.83 152.62
  Z"
/>
<path fill="#61aa31" d="
  M 175.23 156.96
  L 193.89 156.96
  Q 194.50 156.96 194.50 156.36
  L 194.49 143.01
  Q 194.49 142.75 194.74 142.75
  L 198.00 142.74
  Q 198.50 142.74 198.50 143.25
  L 198.50 160.69
  Q 198.50 161.21 197.99 161.27
  Q 195.67 161.57 194.12 160.38
  Q 193.63 160.00 193.01 160.00
  L 176.04 160.01
  A 2.45 2.40 25.8 0 0 174.56 160.51
  Q 173.17 161.57 171.09 161.25
  Q 170.50 161.16 170.50 160.57
  L 170.50 143.00
  Q 170.49 142.74 170.75 142.74
  L 174.25 142.75
  Q 174.50 142.75 174.50 143.00
  L 174.50 156.23
  Q 174.50 156.96 175.23 156.96
  Z"
/>
<path fill="#ffffff" d="
  M 214.10 144.64
  Q 215.01 142.50 217.09 142.68
  Q 217.75 142.74 217.75 143.40
  L 217.76 145.24
  A 0.50 0.50 0.0 0 1 217.26 145.74
  L 213.67 145.75
  Q 213.09 145.75 213.37 145.24
  Q 213.48 145.05 213.68 145.00
  Q 213.98 144.92 214.10 144.64
  Z"
/>
<rect fill="#ffffff" x="245.15" y="149.01" width="13.42" height="2.24" rx="0.66"/>
<rect fill="#ffffff" x="245.22" y="154.26" width="13.30" height="2.24" rx="0.43"/>
</svg>
