<?xml version="1.0" encoding="UTF-8" standalone="no"?>
<!DOCTYPE svg PUBLIC "-//W3C//DTD SVG 1.1//EN" "http://www.w3.org/Graphics/SVG/1.1/DTD/svg11.dtd">
<svg xmlns="http://www.w3.org/2000/svg" version="1.1" viewBox="0.00 0.00 435.00 195.00">
<g stroke-width="2.00" fill="none" stroke-linecap="butt">
<path stroke="#dedede" vector-effect="non-scaling-stroke" d="
  M 430.50 31.01
  A 26.01 26.01 0.0 0 0 404.49 5.00
  L 30.51 5.00
  A 26.01 26.01 0.0 0 0 4.50 31.01
  L 4.50 155.99
  A 26.01 26.01 0.0 0 0 30.51 182.00
  L 404.49 182.00
  A 26.01 26.01 0.0 0 0 430.50 155.99
  L 430.50 31.01"
/>
<path stroke="#f8ccd5" vector-effect="non-scaling-stroke" d="
  M 206.49 77.75
  L 206.50 98.63
  A 3.38 3.37 0.0 0 0 209.88 102.00
  L 225.00 102.00
  A 3.50 3.50 0.0 0 0 228.50 98.50
  L 228.50 77.50
  Q 228.50 77.00 229.00 77.00
  L 250.00 77.00
  A 3.50 3.50 0.0 0 0 253.50 73.50
  L 253.50 58.50
  A 3.50 3.50 0.0 0 0 250.00 55.00
  L 228.75 55.00
  A 0.25 0.24 90.0 0 1 228.51 54.75
  L 228.50 33.50
  A 3.50 3.50 0.0 0 0 225.00 30.00
  L 210.40 30.00
  Q 206.54 30.00 206.53 33.85
  L 206.46 54.77
  A 0.23 0.22 -0.0 0 1 206.23 54.99
  L 185.62 55.00
  Q 181.24 55.00 181.25 59.38
  L 181.26 73.13
  A 3.87 3.87 0.0 0 0 185.13 77.00
  L 205.75 77.00
  Q 206.49 77.00 206.49 77.75"
/>
<path stroke="#f8ccd5" vector-effect="non-scaling-stroke" d="
  M 231.29 141.50
  L 231.23 143.10
  Q 231.20 143.75 231.85 143.75
  L 246.35 143.75
  A 0.62 0.62 0.0 0 0 246.97 143.16
  L 247.06 141.28
  Q 247.08 140.64 247.72 140.69
  L 248.23 140.73
  Q 249.00 140.79 249.00 140.02
  L 249.00 135.50
  Q 249.00 134.75 248.25 134.75
  L 242.02 134.75
  Q 241.28 134.75 241.26 134.01
  L 241.23 132.48
  A 0.75 0.75 0.0 0 0 240.48 131.75
  L 237.51 131.75
  Q 236.76 131.75 236.76 132.49
  L 236.75 134.12
  Q 236.75 134.75 236.13 134.75
  L 230.80 134.75
  A 1.22 1.22 0.0 0 0 229.58 135.94
  L 229.47 139.90
  Q 229.46 140.44 229.94 140.67
  Q 230.19 140.79 230.45 140.75
  Q 231.32 140.61 231.29 141.50"
/>
<path stroke="#f8ccd5" vector-effect="non-scaling-stroke" d="
  M 189.45 142.75
  Q 188.99 140.03 188.76 137.32
  A 0.77 0.75 -5.6 0 0 187.92 136.64
  L 186.20 136.83
  A 0.84 0.83 -7.7 0 0 185.46 137.80
  L 186.45 143.71
  Q 186.54 144.26 187.09 144.15
  L 189.47 143.66
  Q 190.00 143.55 190.00 144.09
  L 190.00 146.60
  Q 190.00 147.48 189.17 147.80
  L 185.45 149.23
  Q 184.88 149.45 184.99 150.06
  L 185.40 152.25
  A 0.46 0.45 72.5 0 0 186.03 152.58
  L 188.65 151.41
  A 0.32 0.32 0.0 0 1 189.09 151.80
  Q 187.82 156.06 185.44 158.72
  Q 184.97 159.25 185.50 159.73
  L 187.01 161.09
  A 0.73 0.72 41.4 0 0 188.04 161.03
  C 194.06 154.21 193.97 146.71 193.71 138.09
  Q 193.69 137.50 194.28 137.50
  L 215.49 137.50
  Q 215.98 137.50 215.99 137.01
  L 216.00 135.00
  Q 216.01 134.25 215.25 134.25
  L 205.90 134.25
  A 0.61 0.61 0.0 0 1 205.29 133.65
  L 205.26 132.50
  Q 205.24 132.01 204.75 132.01
  L 201.25 132.00
  A 0.51 0.51 0.0 0 0 200.74 132.51
  L 200.76 133.49
  Q 200.77 134.25 200.01 134.25
  L 190.71 134.25
  Q 189.89 134.25 189.94 135.07
  Q 190.18 139.07 189.79 142.74
  Q 189.66 143.95 189.45 142.75"
/>
<path stroke="#f8ccd5" vector-effect="non-scaling-stroke" d="
  M 223.83 155.87
  Q 225.22 156.70 226.74 155.73
  C 230.63 153.27 228.94 146.32 227.11 143.23
  Q 226.82 142.74 226.99 142.19
  L 229.27 134.73
  Q 229.79 133.01 227.99 133.01
  L 220.00 133.00
  A 0.50 0.50 0.0 0 0 219.50 133.50
  L 219.50 161.00
  A 0.25 0.25 0.0 0 0 219.75 161.25
  L 223.00 161.25
  Q 223.26 161.25 223.26 161.00
  L 223.25 156.20
  Q 223.25 155.53 223.83 155.87"
/>
<path stroke="#f8ccd5" vector-effect="non-scaling-stroke" d="
  M 198.72 155.00
  Q 198.72 153.82 199.25 154.93
  Q 199.82 156.12 200.93 155.47
  Q 203.30 154.07 204.50 152.08
  Q 204.82 151.56 205.18 152.05
  Q 206.65 154.07 208.84 155.41
  Q 209.75 155.97 209.97 154.92
  Q 210.04 154.55 210.30 154.28
  Q 210.88 153.67 210.98 154.51
  Q 211.11 155.73 210.87 156.72
  A 0.67 0.67 0.0 0 1 210.22 157.24
  L 207.48 157.26
  Q 207.21 157.26 207.24 157.53
  L 207.57 160.55
  Q 207.61 160.90 207.96 160.94
  Q 210.34 161.19 212.43 160.80
  A 2.83 2.82 84.9 0 0 214.75 158.02
  L 214.75 145.25
  A 0.50 0.49 0.0 0 0 214.25 144.76
  L 206.96 144.74
  Q 206.42 144.74 206.44 144.21
  L 206.51 142.74
  Q 206.52 142.50 206.76 142.50
  L 215.00 142.50
  Q 215.49 142.50 215.49 142.00
  L 215.50 139.75
  A 0.50 0.50 0.0 0 0 215.00 139.25
  L 195.49 139.25
  Q 194.73 139.25 194.74 140.01
  L 194.76 142.01
  Q 194.77 142.51 195.26 142.51
  L 202.22 142.49
  A 0.52 0.51 -1.8 0 1 202.74 142.97
  L 202.80 144.21
  A 0.51 0.51 0.0 0 1 202.29 144.75
  L 195.50 144.75
  A 0.50 0.50 0.0 0 0 195.00 145.25
  L 195.00 161.00
  A 0.25 0.25 0.0 0 0 195.25 161.25
  L 198.50 161.26
  Q 198.75 161.26 198.75 161.00
  L 198.72 155.00"
/>
<path stroke="#f8ccd5" vector-effect="non-scaling-stroke" d="
  M 243.75 149.75
  L 249.00 149.74
  Q 249.25 149.74 249.25 149.49
  L 249.26 146.76
  Q 249.26 146.50 249.01 146.50
  L 230.49 146.50
  Q 229.98 146.50 229.99 147.01
  L 230.02 149.01
  A 0.75 0.75 0.0 0 0 230.77 149.75
  L 233.00 149.75
  A 0.51 0.51 0.0 0 1 233.50 150.38
  Q 232.23 156.07 226.53 157.98
  Q 226.12 158.12 226.32 158.51
  L 227.60 160.96
  A 0.37 0.36 67.8 0 0 228.02 161.14
  Q 236.59 158.60 237.53 150.27
  Q 237.60 149.63 238.25 149.70
  L 238.50 149.73
  Q 238.97 149.78 238.98 150.26
  C 239.05 156.58 237.16 162.36 246.71 160.85
  C 250.67 160.22 249.84 156.45 249.74 153.54
  Q 249.72 153.02 249.21 152.94
  L 246.76 152.58
  Q 246.29 152.51 246.25 152.98
  L 245.92 156.55
  Q 245.86 157.21 245.20 157.23
  L 244.01 157.26
  A 0.75 0.74 89.3 0 1 243.25 156.51
  L 243.25 150.25
  A 0.50 0.50 0.0 0 1 243.75 149.75"
/>
<path stroke="#f8ccd5" vector-effect="non-scaling-stroke" d="
  M 245.51 138.47
  A 0.47 0.47 0.0 0 0 245.04 138.00
  L 233.48 138.00
  A 0.47 0.47 0.0 0 0 233.01 138.47
  L 233.01 140.03
  A 0.47 0.47 0.0 0 0 233.48 140.50
  L 245.04 140.50
  A 0.47 0.47 0.0 0 0 245.51 140.03
  L 245.51 138.47"
/>
<path stroke="#f8ccd5" vector-effect="non-scaling-stroke" d="
  M 223.54 142.84
  Q 223.51 142.95 223.43 143.05
  Q 223.29 143.22 223.28 143.44
  Q 223.12 147.71 223.36 152.15
  A 0.57 0.57 0.0 0 0 224.13 152.66
  Q 224.52 152.50 224.80 152.21
  A 3.06 2.82 67.5 0 0 225.54 150.20
  Q 225.51 146.73 223.79 143.43
  A 1.24 1.22 38.7 0 1 223.69 142.60
  L 225.05 136.85
  A 0.55 0.55 0.0 0 0 224.58 136.17
  L 224.05 136.11
  A 0.78 0.77 -83.6 0 0 223.20 136.79
  Q 222.85 139.58 223.54 142.66
  Q 223.56 142.75 223.54 142.84"
/>
<path stroke="#f8ccd5" vector-effect="non-scaling-stroke" d="
  M 198.75 152.13
  A 0.49 0.49 0.0 0 0 199.62 152.45
  L 202.58 148.85
  A 0.49 0.49 0.0 0 0 202.21 148.05
  L 199.25 147.97
  A 0.49 0.49 0.0 0 0 198.75 148.46
  L 198.75 152.13"
/>
<path stroke="#f8ccd5" vector-effect="non-scaling-stroke" d="
  M 207.60 148.00
  A 0.59 0.59 0.0 0 0 207.16 148.97
  L 209.97 152.25
  A 0.59 0.59 0.0 0 0 211.00 151.86
  L 211.01 148.59
  A 0.59 0.59 0.0 0 0 210.42 148.00
  L 207.60 148.00"
/>
</g>
<path fill="#bdbdbd" d="
  M 29.58 2.00
  L 405.42 2.00
  A 28.08 28.08 0.0 0 1 433.50 30.08
  L 433.50 165.92
  A 28.08 28.08 0.0 0 1 405.42 194.00
  L 29.58 194.00
  A 28.08 28.08 0.0 0 1 1.50 165.92
  L 1.50 30.08
  A 28.08 28.08 0.0 0 1 29.58 2.00
  Z
  M 430.50 31.01
  A 26.01 26.01 0.0 0 0 404.49 5.00
  L 30.51 5.00
  A 26.01 26.01 0.0 0 0 4.50 31.01
  L 4.50 155.99
  A 26.01 26.01 0.0 0 0 30.51 182.00
  L 404.49 182.00
  A 26.01 26.01 0.0 0 0 430.50 155.99
  L 430.50 31.01
  Z"
/>
<path fill="#ffffff" d="
  M 430.50 155.99
  A 26.01 26.01 0.0 0 1 404.49 182.00
  L 30.51 182.00
  A 26.01 26.01 0.0 0 1 4.50 155.99
  L 4.50 31.01
  A 26.01 26.01 0.0 0 1 30.51 5.00
  L 404.49 5.00
  A 26.01 26.01 0.0 0 1 430.50 31.01
  L 430.50 155.99
  Z
  M 206.49 77.75
  L 206.50 98.63
  A 3.38 3.37 0.0 0 0 209.88 102.00
  L 225.00 102.00
  A 3.50 3.50 0.0 0 0 228.50 98.50
  L 228.50 77.50
  Q 228.50 77.00 229.00 77.00
  L 250.00 77.00
  A 3.50 3.50 0.0 0 0 253.50 73.50
  L 253.50 58.50
  A 3.50 3.50 0.0 0 0 250.00 55.00
  L 228.75 55.00
  A 0.25 0.24 90.0 0 1 228.51 54.75
  L 228.50 33.50
  A 3.50 3.50 0.0 0 0 225.00 30.00
  L 210.40 30.00
  Q 206.54 30.00 206.53 33.85
  L 206.46 54.77
  A 0.23 0.22 -0.0 0 1 206.23 54.99
  L 185.62 55.00
  Q 181.24 55.00 181.25 59.38
  L 181.26 73.13
  A 3.87 3.87 0.0 0 0 185.13 77.00
  L 205.75 77.00
  Q 206.49 77.00 206.49 77.75
  Z
  M 231.29 141.50
  L 231.23 143.10
  Q 231.20 143.75 231.85 143.75
  L 246.35 143.75
  A 0.62 0.62 0.0 0 0 246.97 143.16
  L 247.06 141.28
  Q 247.08 140.64 247.72 140.69
  L 248.23 140.73
  Q 249.00 140.79 249.00 140.02
  L 249.00 135.50
  Q 249.00 134.75 248.25 134.75
  L 242.02 134.75
  Q 241.28 134.75 241.26 134.01
  L 241.23 132.48
  A 0.75 0.75 0.0 0 0 240.48 131.75
  L 237.51 131.75
  Q 236.76 131.75 236.76 132.49
  L 236.75 134.12
  Q 236.75 134.75 236.13 134.75
  L 230.80 134.75
  A 1.22 1.22 0.0 0 0 229.58 135.94
  L 229.47 139.90
  Q 229.46 140.44 229.94 140.67
  Q 230.19 140.79 230.45 140.75
  Q 231.32 140.61 231.29 141.50
  Z
  M 189.45 142.75
  Q 188.99 140.03 188.76 137.32
  A 0.77 0.75 -5.6 0 0 187.92 136.64
  L 186.20 136.83
  A 0.84 0.83 -7.7 0 0 185.46 137.80
  L 186.45 143.71
  Q 186.54 144.26 187.09 144.15
  L 189.47 143.66
  Q 190.00 143.55 190.00 144.09
  L 190.00 146.60
  Q 190.00 147.48 189.17 147.80
  L 185.45 149.23
  Q 184.88 149.45 184.99 150.06
  L 185.40 152.25
  A 0.46 0.45 72.5 0 0 186.03 152.58
  L 188.65 151.41
  A 0.32 0.32 0.0 0 1 189.09 151.80
  Q 187.82 156.06 185.44 158.72
  Q 184.97 159.25 185.50 159.73
  L 187.01 161.09
  A 0.73 0.72 41.4 0 0 188.04 161.03
  C 194.06 154.21 193.97 146.71 193.71 138.09
  Q 193.69 137.50 194.28 137.50
  L 215.49 137.50
  Q 215.98 137.50 215.99 137.01
  L 216.00 135.00
  Q 216.01 134.25 215.25 134.25
  L 205.90 134.25
  A 0.61 0.61 0.0 0 1 205.29 133.65
  L 205.26 132.50
  Q 205.24 132.01 204.75 132.01
  L 201.25 132.00
  A 0.51 0.51 0.0 0 0 200.74 132.51
  L 200.76 133.49
  Q 200.77 134.25 200.01 134.25
  L 190.71 134.25
  Q 189.89 134.25 189.94 135.07
  Q 190.18 139.07 189.79 142.74
  Q 189.66 143.95 189.45 142.75
  Z
  M 223.83 155.87
  Q 225.22 156.70 226.74 155.73
  C 230.63 153.27 228.94 146.32 227.11 143.23
  Q 226.82 142.74 226.99 142.19
  L 229.27 134.73
  Q 229.79 133.01 227.99 133.01
  L 220.00 133.00
  A 0.50 0.50 0.0 0 0 219.50 133.50
  L 219.50 161.00
  A 0.25 0.25 0.0 0 0 219.75 161.25
  L 223.00 161.25
  Q 223.26 161.25 223.26 161.00
  L 223.25 156.20
  Q 223.25 155.53 223.83 155.87
  Z
  M 198.72 155.00
  Q 198.72 153.82 199.25 154.93
  Q 199.82 156.12 200.93 155.47
  Q 203.30 154.07 204.50 152.08
  Q 204.82 151.56 205.18 152.05
  Q 206.65 154.07 208.84 155.41
  Q 209.75 155.97 209.97 154.92
  Q 210.04 154.55 210.30 154.28
  Q 210.88 153.67 210.98 154.51
  Q 211.11 155.73 210.87 156.72
  A 0.67 0.67 0.0 0 1 210.22 157.24
  L 207.48 157.26
  Q 207.21 157.26 207.24 157.53
  L 207.57 160.55
  Q 207.61 160.90 207.96 160.94
  Q 210.34 161.19 212.43 160.80
  A 2.83 2.82 84.9 0 0 214.75 158.02
  L 214.75 145.25
  A 0.50 0.49 0.0 0 0 214.25 144.76
  L 206.96 144.74
  Q 206.42 144.74 206.44 144.21
  L 206.51 142.74
  Q 206.52 142.50 206.76 142.50
  L 215.00 142.50
  Q 215.49 142.50 215.49 142.00
  L 215.50 139.75
  A 0.50 0.50 0.0 0 0 215.00 139.25
  L 195.49 139.25
  Q 194.73 139.25 194.74 140.01
  L 194.76 142.01
  Q 194.77 142.51 195.26 142.51
  L 202.22 142.49
  A 0.52 0.51 -1.8 0 1 202.74 142.97
  L 202.80 144.21
  A 0.51 0.51 0.0 0 1 202.29 144.75
  L 195.50 144.75
  A 0.50 0.50 0.0 0 0 195.00 145.25
  L 195.00 161.00
  A 0.25 0.25 0.0 0 0 195.25 161.25
  L 198.50 161.26
  Q 198.75 161.26 198.75 161.00
  L 198.72 155.00
  Z
  M 243.75 149.75
  L 249.00 149.74
  Q 249.25 149.74 249.25 149.49
  L 249.26 146.76
  Q 249.26 146.50 249.01 146.50
  L 230.49 146.50
  Q 229.98 146.50 229.99 147.01
  L 230.02 149.01
  A 0.75 0.75 0.0 0 0 230.77 149.75
  L 233.00 149.75
  A 0.51 0.51 0.0 0 1 233.50 150.38
  Q 232.23 156.07 226.53 157.98
  Q 226.12 158.12 226.32 158.51
  L 227.60 160.96
  A 0.37 0.36 67.8 0 0 228.02 161.14
  Q 236.59 158.60 237.53 150.27
  Q 237.60 149.63 238.25 149.70
  L 238.50 149.73
  Q 238.97 149.78 238.98 150.26
  C 239.05 156.58 237.16 162.36 246.71 160.85
  C 250.67 160.22 249.84 156.45 249.74 153.54
  Q 249.72 153.02 249.21 152.94
  L 246.76 152.58
  Q 246.29 152.51 246.25 152.98
  L 245.92 156.55
  Q 245.86 157.21 245.20 157.23
  L 244.01 157.26
  A 0.75 0.74 89.3 0 1 243.25 156.51
  L 243.25 150.25
  A 0.50 0.50 0.0 0 1 243.75 149.75
  Z"
/>
<path fill="#f198ab" d="
  M 205.75 77.00
  L 185.13 77.00
  A 3.87 3.87 0.0 0 1 181.26 73.13
  L 181.25 59.38
  Q 181.24 55.00 185.62 55.00
  L 206.23 54.99
  A 0.23 0.22 0.0 0 0 206.46 54.77
  L 206.53 33.85
  Q 206.54 30.00 210.40 30.00
  L 225.00 30.00
  A 3.50 3.50 0.0 0 1 228.50 33.50
  L 228.51 54.75
  A 0.25 0.24 90.0 0 0 228.75 55.00
  L 250.00 55.00
  A 3.50 3.50 0.0 0 1 253.50 58.50
  L 253.50 73.50
  A 3.50 3.50 0.0 0 1 250.00 77.00
  L 229.00 77.00
  Q 228.50 77.00 228.50 77.50
  L 228.50 98.50
  A 3.50 3.50 0.0 0 1 225.00 102.00
  L 209.88 102.00
  A 3.38 3.37 0.0 0 1 206.50 98.63
  L 206.49 77.75
  Q 206.49 77.00 205.75 77.00
  Z"
/>
<path fill="#f198ab" d="
  M 230.45 140.75
  Q 230.19 140.79 229.94 140.67
  Q 229.46 140.44 229.47 139.90
  L 229.58 135.94
  A 1.22 1.22 0.0 0 1 230.80 134.75
  L 236.13 134.75
  Q 236.75 134.75 236.75 134.12
  L 236.76 132.49
  Q 236.76 131.75 237.51 131.75
  L 240.48 131.75
  A 0.75 0.75 0.0 0 1 241.23 132.48
  L 241.26 134.01
  Q 241.28 134.75 242.02 134.75
  L 248.25 134.75
  Q 249.00 134.75 249.00 135.50
  L 249.00 140.02
  Q 249.00 140.79 248.23 140.73
  L 247.72 140.69
  Q 247.08 140.64 247.06 141.28
  L 246.97 143.16
  A 0.62 0.62 0.0 0 1 246.35 143.75
  L 231.85 143.75
  Q 231.20 143.75 231.23 143.10
  L 231.29 141.50
  Q 231.32 140.61 230.45 140.75
  Z
  M 245.51 138.47
  A 0.47 0.47 0.0 0 0 245.04 138.00
  L 233.48 138.00
  A 0.47 0.47 0.0 0 0 233.01 138.47
  L 233.01 140.03
  A 0.47 0.47 0.0 0 0 233.48 140.50
  L 245.04 140.50
  A 0.47 0.47 0.0 0 0 245.51 140.03
  L 245.51 138.47
  Z"
/>
<path fill="#f198ab" d="
  M 189.79 142.74
  Q 190.18 139.07 189.94 135.07
  Q 189.89 134.25 190.71 134.25
  L 200.01 134.25
  Q 200.77 134.25 200.76 133.49
  L 200.74 132.51
  A 0.51 0.51 0.0 0 1 201.25 132.00
  L 204.75 132.01
  Q 205.24 132.01 205.26 132.50
  L 205.29 133.65
  A 0.61 0.61 0.0 0 0 205.90 134.25
  L 215.25 134.25
  Q 216.01 134.25 216.00 135.00
  L 215.99 137.01
  Q 215.98 137.50 215.49 137.50
  L 194.28 137.50
  Q 193.69 137.50 193.71 138.09
  C 193.97 146.71 194.06 154.21 188.04 161.03
  A 0.73 0.72 41.4 0 1 187.01 161.09
  L 185.50 159.73
  Q 184.97 159.25 185.44 158.72
  Q 187.82 156.06 189.09 151.80
  A 0.32 0.32 0.0 0 0 188.65 151.41
  L 186.03 152.58
  A 0.46 0.45 72.5 0 1 185.40 152.25
  L 184.99 150.06
  Q 184.88 149.45 185.45 149.23
  L 189.17 147.80
  Q 190.00 147.48 190.00 146.60
  L 190.00 144.09
  Q 190.00 143.55 189.47 143.66
  L 187.09 144.15
  Q 186.54 144.26 186.45 143.71
  L 185.46 137.80
  A 0.84 0.83 -7.7 0 1 186.20 136.83
  L 187.92 136.64
  A 0.77 0.75 -5.6 0 1 188.76 137.32
  Q 188.99 140.03 189.45 142.75
  Q 189.66 143.95 189.79 142.74
  Z"
/>
<path fill="#f198ab" d="
  M 223.25 156.20
  L 223.26 161.00
  Q 223.26 161.25 223.00 161.25
  L 219.75 161.25
  A 0.25 0.25 0.0 0 1 219.50 161.00
  L 219.50 133.50
  A 0.50 0.50 0.0 0 1 220.00 133.00
  L 227.99 133.01
  Q 229.79 133.01 229.27 134.73
  L 226.99 142.19
  Q 226.82 142.74 227.11 143.23
  C 228.94 146.32 230.63 153.27 226.74 155.73
  Q 225.22 156.70 223.83 155.87
  Q 223.25 155.53 223.25 156.20
  Z
  M 223.54 142.84
  Q 223.51 142.95 223.43 143.05
  Q 223.29 143.22 223.28 143.44
  Q 223.12 147.71 223.36 152.15
  A 0.57 0.57 0.0 0 0 224.13 152.66
  Q 224.52 152.50 224.80 152.21
  A 3.06 2.82 67.5 0 0 225.54 150.20
  Q 225.51 146.73 223.79 143.43
  A 1.24 1.22 38.7 0 1 223.69 142.60
  L 225.05 136.85
  A 0.55 0.55 0.0 0 0 224.58 136.17
  L 224.05 136.11
  A 0.78 0.77 -83.6 0 0 223.20 136.79
  Q 222.85 139.58 223.54 142.66
  Q 223.56 142.75 223.54 142.84
  Z"
/>
<path fill="#ffffff" d="
  M 223.54 142.66
  Q 222.85 139.58 223.20 136.79
  A 0.78 0.77 -83.6 0 1 224.05 136.11
  L 224.58 136.17
  A 0.55 0.55 0.0 0 1 225.05 136.85
  L 223.69 142.60
  A 1.24 1.22 38.7 0 0 223.79 143.43
  Q 225.51 146.73 225.54 150.20
  A 3.06 2.82 67.5 0 1 224.80 152.21
  Q 224.52 152.50 224.13 152.66
  A 0.57 0.57 0.0 0 1 223.36 152.15
  Q 223.12 147.71 223.28 143.44
  Q 223.29 143.22 223.43 143.05
  Q 223.51 142.95 223.54 142.84
  Q 223.56 142.75 223.54 142.66
  Z"
/>
<rect fill="#ffffff" x="233.01" y="138.00" width="12.50" height="2.50" rx="0.47"/>
<path fill="#f198ab" d="
  M 198.72 155.00
  L 198.75 161.00
  Q 198.75 161.26 198.50 161.26
  L 195.25 161.25
  A 0.25 0.25 0.0 0 1 195.00 161.00
  L 195.00 145.25
  A 0.50 0.50 0.0 0 1 195.50 144.75
  L 202.29 144.75
  A 0.51 0.51 0.0 0 0 202.80 144.21
  L 202.74 142.97
  A 0.52 0.51 -1.8 0 0 202.22 142.49
  L 195.26 142.51
  Q 194.77 142.51 194.76 142.01
  L 194.74 140.01
  Q 194.73 139.25 195.49 139.25
  L 215.00 139.25
  A 0.50 0.50 0.0 0 1 215.50 139.75
  L 215.49 142.00
  Q 215.49 142.50 215.00 142.50
  L 206.76 142.50
  Q 206.52 142.50 206.51 142.74
  L 206.44 144.21
  Q 206.42 144.74 206.96 144.74
  L 214.25 144.76
  A 0.50 0.49 0.0 0 1 214.75 145.25
  L 214.75 158.02
  A 2.83 2.82 84.9 0 1 212.43 160.80
  Q 210.34 161.19 207.96 160.94
  Q 207.61 160.90 207.57 160.55
  L 207.24 157.53
  Q 207.21 157.26 207.48 157.26
  L 210.22 157.24
  A 0.67 0.67 0.0 0 0 210.87 156.72
  Q 211.11 155.73 210.98 154.51
  Q 210.88 153.67 210.30 154.28
  Q 210.04 154.55 209.97 154.92
  Q 209.75 155.97 208.84 155.41
  Q 206.65 154.07 205.18 152.05
  Q 204.82 151.56 204.50 152.08
  Q 203.30 154.07 200.93 155.47
  Q 199.82 156.12 199.25 154.93
  Q 198.72 153.82 198.72 155.00
  Z
  M 198.75 152.13
  A 0.49 0.49 0.0 0 0 199.62 152.45
  L 202.58 148.85
  A 0.49 0.49 0.0 0 0 202.21 148.05
  L 199.25 147.97
  A 0.49 0.49 0.0 0 0 198.75 148.46
  L 198.75 152.13
  Z
  M 207.60 148.00
  A 0.59 0.59 0.0 0 0 207.16 148.97
  L 209.97 152.25
  A 0.59 0.59 0.0 0 0 211.00 151.86
  L 211.01 148.59
  A 0.59 0.59 0.0 0 0 210.42 148.00
  L 207.60 148.00
  Z"
/>
<path fill="#f198ab" d="
  M 243.25 150.25
  L 243.25 156.51
  A 0.75 0.74 89.3 0 0 244.01 157.26
  L 245.20 157.23
  Q 245.86 157.21 245.92 156.55
  L 246.25 152.98
  Q 246.29 152.51 246.76 152.58
  L 249.21 152.94
  Q 249.72 153.02 249.74 153.54
  C 249.84 156.45 250.67 160.22 246.71 160.85
  C 237.16 162.36 239.05 156.58 238.98 150.26
  Q 238.97 149.78 238.50 149.73
  L 238.25 149.70
  Q 237.60 149.63 237.53 150.27
  Q 236.59 158.60 228.02 161.14
  A 0.37 0.36 67.8 0 1 227.60 160.96
  L 226.32 158.51
  Q 226.12 158.12 226.53 157.98
  Q 232.23 156.07 233.50 150.38
  A 0.51 0.51 0.0 0 0 233.00 149.75
  L 230.77 149.75
  A 0.75 0.75 0.0 0 1 230.02 149.01
  L 229.99 147.01
  Q 229.98 146.50 230.49 146.50
  L 249.01 146.50
  Q 249.26 146.50 249.26 146.76
  L 249.25 149.49
  Q 249.25 149.74 249.00 149.74
  L 243.75 149.75
  A 0.50 0.50 0.0 0 0 243.25 150.25
  Z"
/>
<path fill="#ffffff" d="
  M 198.75 152.13
  L 198.75 148.46
  A 0.49 0.49 0.0 0 1 199.25 147.97
  L 202.21 148.05
  A 0.49 0.49 0.0 0 1 202.58 148.85
  L 199.62 152.45
  A 0.49 0.49 0.0 0 1 198.75 152.13
  Z"
/>
<path fill="#ffffff" d="
  M 207.60 148.00
  L 210.42 148.00
  A 0.59 0.59 0.0 0 1 211.01 148.59
  L 211.00 151.86
  A 0.59 0.59 0.0 0 1 209.97 152.25
  L 207.16 148.97
  A 0.59 0.59 0.0 0 1 207.60 148.00
  Z"
/>
</svg>
