<?xml version="1.0" encoding="UTF-8" standalone="no"?>
<!DOCTYPE svg PUBLIC "-//W3C//DTD SVG 1.1//EN" "http://www.w3.org/Graphics/SVG/1.1/DTD/svg11.dtd">
<svg xmlns="http://www.w3.org/2000/svg" version="1.1" viewBox="0.00 0.00 435.00 195.00">
<g stroke-width="2.00" fill="none" stroke-linecap="butt">
<path stroke="#dedede" vector-effect="non-scaling-stroke" d="
  M 430.50 31.02
  A 26.02 26.02 0.0 0 0 404.48 5.00
  L 30.52 5.00
  A 26.02 26.02 0.0 0 0 4.50 31.02
  L 4.50 155.98
  A 26.02 26.02 0.0 0 0 30.52 182.00
  L 404.48 182.00
  A 26.02 26.02 0.0 0 0 430.50 155.98
  L 430.50 31.02"
/>
<path stroke="#ffcc80" vector-effect="non-scaling-stroke" d="
  M 245.27 44.29
  Q 246.03 43.47 246.79 44.32
  Q 248.41 46.13 250.10 47.65
  C 254.74 51.80 260.16 45.75 256.34 41.82
  Q 249.89 35.18 242.59 27.93
  C 240.28 25.62 236.94 24.87 235.03 27.96
  Q 232.74 31.67 239.39 36.87
  A 0.70 0.69 41.9 0 1 239.45 37.91
  L 234.92 42.46
  Q 234.39 42.99 233.86 42.46
  Q 228.68 37.34 223.42 32.01
  C 218.12 26.64 212.09 34.71 217.45 38.23
  A 0.70 0.70 0.0 0 1 217.56 39.31
  L 184.58 72.29
  A 4.68 4.65 65.5 0 0 183.22 75.97
  L 184.53 92.22
  Q 184.57 92.72 184.23 93.08
  Q 181.92 95.58 179.08 98.20
  C 176.68 100.42 176.74 104.58 179.98 105.80
  C 181.67 106.43 183.73 106.01 185.02 104.65
  Q 187.66 101.89 190.31 99.33
  Q 190.70 98.95 191.25 98.99
  Q 199.33 99.61 207.41 100.28
  Q 209.67 100.46 211.30 98.84
  Q 227.94 82.21 244.25 65.87
  Q 244.65 65.46 245.04 65.88
  C 245.84 66.75 246.48 67.53 247.67 67.86
  C 252.21 69.12 255.09 63.89 251.98 60.67
  Q 247.22 55.75 241.21 49.90
  Q 240.37 49.08 241.24 48.29
  Q 243.36 46.37 245.27 44.29"
/>
<path stroke="#ffcc80" vector-effect="non-scaling-stroke" d="
  M 197.27 138.75
  Q 196.92 137.44 195.69 137.76
  Q 195.01 137.93 195.00 137.23
  L 194.99 132.49
  Q 194.99 131.99 194.49 131.99
  L 191.47 132.01
  Q 190.95 132.02 190.95 132.53
  L 190.97 137.36
  Q 190.97 137.71 190.62 137.74
  L 190.27 137.76
  Q 190.01 137.78 190.01 137.52
  L 190.06 133.91
  A 0.65 0.65 0.0 0 0 189.41 133.25
  L 187.16 133.24
  Q 186.50 133.24 186.48 133.90
  Q 186.34 139.42 184.91 144.43
  Q 184.77 144.91 185.26 145.07
  L 187.67 145.86
  Q 188.04 145.98 188.19 145.63
  Q 189.01 143.75 189.36 141.75
  Q 189.44 141.31 189.90 141.12
  A 0.77 0.77 0.0 0 1 190.97 141.82
  L 191.01 146.96
  Q 191.02 147.44 190.55 147.55
  L 185.40 148.70
  A 0.37 0.37 0.0 0 0 185.12 149.12
  L 185.74 152.54
  Q 185.79 152.80 186.04 152.73
  L 190.32 151.55
  Q 190.99 151.37 190.99 152.06
  L 191.00 160.75
  Q 191.01 161.25 191.50 161.25
  L 194.49 161.26
  Q 194.99 161.26 194.99 160.76
  L 195.01 155.34
  Q 195.01 154.16 195.84 155.01
  L 197.24 156.45
  Q 197.97 157.18 198.60 156.37
  Q 204.62 148.68 206.12 138.57
  Q 206.15 138.31 206.42 138.33
  L 206.70 138.36
  Q 207.00 138.39 206.98 138.70
  Q 205.94 150.26 199.52 158.25
  Q 199.14 158.72 199.56 159.16
  L 201.10 160.77
  Q 201.58 161.28 202.09 160.79
  C 207.57 155.34 210.36 146.04 210.82 138.62
  Q 210.83 138.41 211.04 138.41
  L 211.05 138.41
  Q 211.26 138.41 211.26 138.62
  Q 211.47 147.11 210.56 155.40
  A 2.08 2.07 3.1 0 1 208.49 157.25
  L 206.35 157.25
  A 0.71 0.71 0.0 0 0 205.65 158.04
  L 205.94 160.49
  Q 206.01 161.05 206.57 161.02
  C 208.24 160.92 210.68 161.38 212.13 160.52
  Q 214.30 159.23 214.54 156.54
  Q 215.45 146.38 215.24 135.53
  Q 215.23 135.00 214.70 135.00
  L 203.45 135.00
  Q 202.87 135.00 203.01 134.44
  L 203.39 132.94
  Q 203.64 131.96 202.63 132.03
  Q 201.41 132.11 200.13 131.76
  Q 199.42 131.56 199.26 132.27
  L 197.75 138.74
  Q 197.52 139.70 197.27 138.75"
/>
<path stroke="#ffcc80" vector-effect="non-scaling-stroke" d="
  M 274.22 134.10
  L 274.25 132.50
  Q 274.26 131.75 273.50 131.75
  L 270.52 131.75
  Q 269.78 131.75 269.77 132.48
  L 269.75 134.00
  A 0.76 0.76 0.0 0 1 268.99 134.74
  L 263.64 134.74
  A 1.13 1.12 -89.7 0 0 262.52 135.86
  L 262.48 139.99
  Q 262.47 140.56 263.04 140.65
  Q 264.75 140.91 264.20 142.74
  A 0.78 0.78 0.0 0 0 264.95 143.75
  L 279.20 143.75
  Q 279.91 143.75 279.95 143.05
  L 280.07 141.32
  A 0.69 0.69 0.0 0 1 280.92 140.70
  Q 282.17 141.01 281.95 139.67
  C 281.74 138.45 282.05 136.66 281.93 135.34
  Q 281.88 134.75 281.29 134.75
  L 274.85 134.73
  A 0.63 0.62 0.4 0 1 274.22 134.10"
/>
<path stroke="#ffcc80" vector-effect="non-scaling-stroke" d="
  M 222.36 142.71
  L 221.75 137.31
  A 0.78 0.78 0.0 0 0 220.89 136.63
  L 219.20 136.82
  A 0.85 0.85 0.0 0 0 218.47 137.80
  L 219.43 143.71
  Q 219.52 144.28 220.08 144.16
  L 222.30 143.70
  Q 223.03 143.56 223.01 144.30
  L 222.95 146.74
  A 1.12 1.12 0.0 0 1 222.23 147.77
  L 218.45 149.22
  Q 217.88 149.44 217.98 150.04
  L 218.39 152.28
  Q 218.49 152.82 218.99 152.60
  L 221.54 151.46
  A 0.37 0.37 0.0 0 1 222.04 151.90
  Q 220.94 155.81 218.44 158.73
  A 0.69 0.69 0.0 0 0 218.49 159.68
  L 219.97 161.07
  Q 220.49 161.57 220.99 161.04
  C 227.07 154.65 227.02 146.29 226.71 138.12
  Q 226.69 137.50 227.30 137.50
  L 248.49 137.51
  Q 248.99 137.51 248.99 137.01
  L 249.00 134.75
  A 0.50 0.50 0.0 0 0 248.50 134.25
  L 238.90 134.25
  Q 238.29 134.25 238.27 133.65
  L 238.23 132.49
  Q 238.22 132.01 237.74 132.01
  L 234.25 132.01
  Q 233.75 132.01 233.75 132.50
  L 233.74 133.51
  Q 233.73 134.25 232.99 134.25
  L 223.55 134.25
  A 0.61 0.60 -1.8 0 0 222.94 134.89
  Q 223.19 138.75 222.66 142.71
  Q 222.49 143.95 222.36 142.71"
/>
<path stroke="#ffcc80" vector-effect="non-scaling-stroke" d="
  M 173.68 157.41
  L 173.99 160.37
  Q 174.05 160.92 174.60 160.98
  C 178.00 161.33 181.21 160.97 181.70 156.78
  Q 182.61 149.00 182.17 139.32
  Q 182.15 138.74 181.56 138.74
  L 177.50 138.74
  Q 176.76 138.74 176.76 138.00
  L 176.74 132.61
  Q 176.74 132.24 176.36 132.24
  L 172.75 132.25
  Q 172.51 132.25 172.51 132.50
  L 172.50 138.05
  Q 172.49 138.77 171.77 138.75
  Q 171.00 138.73 170.34 139.09
  Q 169.80 139.39 169.78 138.77
  L 169.74 137.86
  Q 169.72 137.25 169.11 137.25
  L 163.69 137.22
  A 0.34 0.34 0.0 0 1 163.35 136.84
  L 163.39 136.47
  Q 163.44 135.86 164.05 135.77
  L 167.78 135.21
  Q 168.70 135.07 168.33 134.21
  L 167.71 132.78
  Q 167.40 132.05 166.62 132.19
  Q 160.65 133.23 154.24 133.49
  Q 153.79 133.51 153.84 133.95
  L 154.05 135.60
  A 0.78 0.77 84.8 0 0 154.86 136.28
  L 159.01 136.07
  Q 159.52 136.04 159.56 136.55
  L 159.59 136.84
  Q 159.62 137.24 159.21 137.24
  L 153.52 137.24
  Q 153.03 137.24 153.02 137.73
  L 153.00 139.49
  Q 152.99 139.99 153.49 139.99
  L 159.08 140.02
  A 0.56 0.56 0.0 0 1 159.62 140.70
  L 159.56 141.00
  Q 159.50 141.24 159.25 141.24
  L 154.37 141.26
  Q 153.75 141.27 153.75 141.88
  L 153.75 150.99
  A 0.49 0.49 0.0 0 0 154.24 151.48
  L 159.35 151.54
  A 0.30 0.30 0.0 0 1 159.65 151.83
  L 159.67 152.13
  A 0.58 0.57 -1.4 0 1 159.09 152.73
  L 153.76 152.73
  Q 153.00 152.73 153.00 153.49
  L 153.00 155.00
  Q 153.00 155.49 153.50 155.49
  L 159.27 155.51
  A 0.35 0.34 -86.3 0 1 159.61 155.90
  L 159.47 156.89
  Q 159.42 157.20 159.11 157.21
  L 152.96 157.56
  Q 152.49 157.58 152.56 158.05
  L 152.95 160.56
  Q 153.03 161.09 153.56 161.04
  L 168.40 159.75
  Q 168.95 159.70 169.41 160.01
  L 170.65 160.85
  Q 171.30 161.28 171.71 160.62
  L 173.68 157.41"
/>
<path stroke="#ffcc80" vector-effect="non-scaling-stroke" d="
  M 173.68 157.41
  L 176.01 157.20
  A 1.76 1.74 -88.1 0 0 177.58 155.72
  Q 178.58 149.23 178.17 142.66
  Q 178.15 142.28 177.77 142.26
  L 176.99 142.21
  Q 176.54 142.19 176.53 142.65
  C 176.39 148.94 175.15 152.35 173.68 157.41"
/>
<path stroke="#ffcc80" vector-effect="non-scaling-stroke" d="
  M 256.63 155.65
  Q 256.78 155.72 256.88 155.85
  Q 257.23 156.32 257.81 156.26
  C 263.29 155.78 262.54 148.41 260.94 144.98
  Q 260.49 144.00 260.11 143.04
  Q 259.91 142.52 260.07 141.99
  L 262.21 134.98
  Q 262.81 133.00 260.75 133.00
  L 253.00 133.01
  Q 252.50 133.01 252.50 133.50
  L 252.50 160.75
  Q 252.50 161.25 253.00 161.25
  L 255.74 161.26
  Q 256.24 161.26 256.25 160.76
  L 256.26 155.89
  Q 256.26 155.49 256.63 155.65"
/>
<path stroke="#ffcc80" vector-effect="non-scaling-stroke" d="
  M 231.72 154.93
  Q 231.72 153.77 232.19 154.83
  Q 232.78 156.15 233.94 155.45
  Q 236.16 154.12 237.54 152.04
  A 0.39 0.39 0.0 0 1 238.19 152.03
  Q 239.63 154.10 241.90 155.44
  A 0.67 0.66 -67.3 0 0 242.89 155.03
  Q 242.98 154.68 243.19 154.39
  Q 243.80 153.56 243.97 154.57
  Q 244.17 155.76 243.83 156.77
  Q 243.68 157.23 243.19 157.24
  L 240.49 157.25
  Q 240.23 157.26 240.26 157.51
  L 240.58 160.66
  Q 240.60 160.91 240.85 160.93
  Q 243.30 161.18 245.38 160.82
  A 2.86 2.85 -4.9 0 0 247.75 158.01
  L 247.75 145.50
  Q 247.75 144.75 247.00 144.75
  L 239.94 144.74
  Q 239.40 144.73 239.44 144.19
  L 239.53 142.97
  Q 239.56 142.49 240.04 142.50
  L 247.99 142.51
  A 0.51 0.50 -0.0 0 0 248.50 142.01
  L 248.50 139.75
  Q 248.50 139.25 248.00 139.25
  L 228.47 139.24
  Q 227.68 139.24 227.70 140.03
  L 227.75 141.89
  Q 227.77 142.51 228.39 142.51
  L 235.23 142.48
  Q 235.72 142.48 235.74 142.98
  L 235.79 144.22
  Q 235.81 144.74 235.28 144.74
  L 228.50 144.74
  Q 227.99 144.74 227.99 145.25
  L 228.00 160.76
  Q 228.00 161.26 228.51 161.26
  L 231.25 161.25
  Q 231.76 161.25 231.76 160.75
  L 231.72 154.93"
/>
<path stroke="#ffcc80" vector-effect="non-scaling-stroke" d="
  M 266.49 150.35
  Q 265.25 156.15 259.37 158.01
  Q 259.14 158.08 259.24 158.30
  L 260.64 161.07
  Q 260.72 161.23 260.90 161.18
  Q 269.53 158.66 270.54 150.29
  Q 270.62 149.61 271.30 149.70
  L 271.56 149.73
  A 0.38 0.37 -89.1 0 1 271.88 150.07
  Q 272.12 153.21 271.95 156.61
  C 271.84 158.92 272.99 160.81 275.49 160.96
  C 277.99 161.12 282.89 161.53 282.74 157.56
  C 282.70 156.23 282.78 154.88 282.74 153.54
  Q 282.73 153.01 282.21 152.94
  L 279.77 152.57
  A 0.45 0.44 -82.7 0 0 279.26 152.97
  L 278.92 156.45
  A 0.88 0.87 -87.1 0 1 278.05 157.24
  L 276.99 157.24
  Q 276.24 157.25 276.24 156.49
  L 276.25 150.37
  Q 276.26 149.75 276.88 149.75
  L 281.99 149.75
  Q 282.24 149.75 282.24 149.51
  L 282.26 147.00
  Q 282.26 146.50 281.75 146.50
  L 263.73 146.49
  Q 262.96 146.49 262.98 147.27
  L 263.02 148.89
  Q 263.04 149.86 264.01 149.82
  L 265.98 149.74
  Q 266.63 149.71 266.49 150.35"
/>
<path stroke="#ffcc80" vector-effect="non-scaling-stroke" d="
  M 217.32 63.30
  Q 221.19 56.93 229.63 67.76
  Q 229.84 68.02 230.07 67.78
  L 238.34 59.53
  Q 238.50 59.38 238.34 59.23
  L 224.45 45.30
  A 0.45 0.45 0.0 0 0 223.82 45.30
  Q 208.76 60.36 192.97 76.15
  C 191.49 77.63 192.03 78.84 192.17 80.72
  Q 192.53 85.22 192.88 89.80
  A 0.91 0.90 0.0 0 0 193.72 90.63
  L 205.73 91.55
  Q 206.28 91.59 206.68 91.20
  L 213.40 84.47
  A 0.29 0.29 0.0 0 0 213.41 84.06
  Q 210.87 81.45 208.05 78.70
  C 204.75 75.48 207.69 70.12 212.16 71.48
  C 214.79 72.29 217.34 75.93 219.52 77.82
  Q 219.79 78.06 220.05 77.80
  L 223.57 74.32
  Q 223.87 74.02 223.57 73.71
  Q 221.32 71.39 218.20 68.38
  C 216.94 67.17 216.51 64.64 217.32 63.30"
/>
<path stroke="#ffcc80" vector-effect="non-scaling-stroke" d="
  M 197.55 145.99
  L 197.86 148.20
  Q 197.95 148.83 197.36 149.08
  L 195.58 149.83
  Q 195.00 150.07 195.00 150.70
  L 195.00 153.75
  A 0.51 0.51 0.0 0 0 195.92 154.05
  Q 200.75 147.39 201.94 140.26
  Q 202.61 136.23 201.11 140.03
  Q 200.14 142.48 199.15 144.27
  Q 198.79 144.94 198.05 144.73
  Q 195.20 143.92 196.21 141.71
  Q 196.49 141.08 195.80 141.09
  Q 195.57 141.09 195.40 141.25
  Q 195.06 141.58 195.04 142.05
  Q 194.99 143.73 195.01 145.47
  Q 195.02 146.23 195.72 145.94
  L 196.74 145.53
  Q 197.45 145.24 197.55 145.99"
/>
<path stroke="#ffcc80" vector-effect="non-scaling-stroke" d="
  M 278.55 138.52
  A 0.52 0.52 0.0 0 0 278.03 138.00
  L 266.51 138.00
  A 0.52 0.52 0.0 0 0 265.99 138.52
  L 265.99 139.98
  A 0.52 0.52 0.0 0 0 266.51 140.50
  L 278.03 140.50
  A 0.52 0.52 0.0 0 0 278.55 139.98
  L 278.55 138.52"
/>
<path stroke="#ffcc80" vector-effect="non-scaling-stroke" d="
  M 168.95 156.87
  Q 168.96 157.02 168.88 157.14
  Q 168.67 157.41 169.00 157.49
  Q 169.28 157.55 169.38 157.32
  Q 172.43 150.31 172.51 142.83
  A 0.62 0.62 0.0 0 0 171.73 142.22
  Q 171.11 142.39 170.63 142.11
  Q 170.18 141.85 170.21 141.33
  L 170.24 140.59
  Q 170.27 139.93 169.62 139.94
  L 164.02 140.04
  A 0.64 0.63 9.5 0 0 163.44 140.45
  L 163.31 140.81
  Q 163.16 141.23 163.60 141.23
  L 168.75 141.26
  Q 169.49 141.26 169.49 142.00
  L 169.50 150.99
  Q 169.50 151.48 169.00 151.49
  L 163.67 151.54
  Q 163.28 151.55 163.33 151.93
  L 163.38 152.28
  Q 163.43 152.72 163.87 152.72
  L 168.79 152.72
  A 0.76 0.76 0.0 0 1 169.55 153.54
  L 169.46 154.91
  Q 169.42 155.50 168.84 155.50
  L 163.74 155.53
  A 0.41 0.40 -2.1 0 0 163.34 155.95
  L 163.35 156.25
  Q 163.37 156.99 164.11 156.93
  L 168.55 156.55
  Q 168.90 156.52 168.95 156.87"
/>
<path stroke="#ffcc80" vector-effect="non-scaling-stroke" d="
  M 157.41 144.73
  Q 157.34 145.34 157.93 145.50
  Q 158.56 145.67 159.11 145.41
  A 0.89 0.89 0.0 0 0 159.00 143.75
  Q 157.59 143.30 157.41 144.73"
/>
<path stroke="#ffcc80" vector-effect="non-scaling-stroke" d="
  M 163.80 145.46
  L 165.19 145.50
  A 0.61 0.61 0.0 0 0 165.80 144.75
  Q 165.75 144.53 165.77 144.30
  A 0.50 0.49 -86.9 0 0 165.28 143.75
  L 164.28 143.75
  Q 163.56 143.76 163.49 144.47
  L 163.44 145.05
  A 0.37 0.37 0.0 0 0 163.80 145.46"
/>
<path stroke="#ffcc80" vector-effect="non-scaling-stroke" d="
  M 159.62 148.21
  A 0.75 0.74 16.0 0 0 159.14 147.35
  Q 157.96 146.92 157.48 147.76
  A 0.83 0.83 0.0 0 0 157.99 148.97
  Q 159.36 149.32 159.62 148.21"
/>
<path stroke="#ffcc80" vector-effect="non-scaling-stroke" d="
  M 165.9898 148.1437
  A 1.36 0.88 1.0 0 0 164.6454 147.2401
  A 1.36 0.88 1.0 0 0 163.2702 148.0963
  A 1.36 0.88 1.0 0 0 164.6146 148.9999
  A 1.36 0.88 1.0 0 0 165.9898 148.1437"
/>
<path stroke="#ffcc80" vector-effect="non-scaling-stroke" d="
  M 256.75 141.72
  Q 257.75 138.99 257.74 136.52
  A 0.44 0.44 0.0 0 0 257.25 136.08
  L 256.95 136.12
  Q 256.37 136.18 256.32 136.77
  Q 256.15 139.26 256.31 141.66
  Q 256.38 142.71 256.75 141.72"
/>
<path stroke="#ffcc80" vector-effect="non-scaling-stroke" d="
  M 258.50 150.41
  C 258.56 147.56 257.78 146.03 256.91 143.63
  Q 256.26 141.81 256.26 143.74
  L 256.25 151.93
  A 0.71 0.71 0.0 0 0 257.02 152.64
  Q 257.44 152.61 257.71 152.33
  Q 258.48 151.55 258.50 150.41"
/>
<path stroke="#ffcc80" vector-effect="non-scaling-stroke" d="
  M 231.76 152.12
  A 0.49 0.49 0.0 0 0 232.63 152.43
  L 235.56 148.82
  A 0.49 0.49 0.0 0 0 235.18 148.02
  L 232.25 147.99
  A 0.49 0.49 0.0 0 0 231.75 148.49
  L 231.76 152.12"
/>
<path stroke="#ffcc80" vector-effect="non-scaling-stroke" d="
  M 240.61 148.00
  A 0.59 0.59 0.0 0 0 240.17 148.97
  L 242.95 152.22
  A 0.59 0.59 0.0 0 0 243.99 151.84
  L 244.01 148.59
  A 0.59 0.59 0.0 0 0 243.42 148.00
  L 240.61 148.00"
/>
</g>
<path fill="#bdbdbd" d="
  M 29.58 2.00
  L 405.42 2.00
  A 28.08 28.08 0.0 0 1 433.50 30.08
  L 433.50 165.92
  A 28.08 28.08 0.0 0 1 405.42 194.00
  L 29.58 194.00
  A 28.08 28.08 0.0 0 1 1.50 165.92
  L 1.50 30.08
  A 28.08 28.08 0.0 0 1 29.58 2.00
  Z
  M 430.50 31.02
  A 26.02 26.02 0.0 0 0 404.48 5.00
  L 30.52 5.00
  A 26.02 26.02 0.0 0 0 4.50 31.02
  L 4.50 155.98
  A 26.02 26.02 0.0 0 0 30.52 182.00
  L 404.48 182.00
  A 26.02 26.02 0.0 0 0 430.50 155.98
  L 430.50 31.02
  Z"
/>
<path fill="#ffffff" d="
  M 430.50 155.98
  A 26.02 26.02 0.0 0 1 404.48 182.00
  L 30.52 182.00
  A 26.02 26.02 0.0 0 1 4.50 155.98
  L 4.50 31.02
  A 26.02 26.02 0.0 0 1 30.52 5.00
  L 404.48 5.00
  A 26.02 26.02 0.0 0 1 430.50 31.02
  L 430.50 155.98
  Z
  M 245.27 44.29
  Q 246.03 43.47 246.79 44.32
  Q 248.41 46.13 250.10 47.65
  C 254.74 51.80 260.16 45.75 256.34 41.82
  Q 249.89 35.18 242.59 27.93
  C 240.28 25.62 236.94 24.87 235.03 27.96
  Q 232.74 31.67 239.39 36.87
  A 0.70 0.69 41.9 0 1 239.45 37.91
  L 234.92 42.46
  Q 234.39 42.99 233.86 42.46
  Q 228.68 37.34 223.42 32.01
  C 218.12 26.64 212.09 34.71 217.45 38.23
  A 0.70 0.70 0.0 0 1 217.56 39.31
  L 184.58 72.29
  A 4.68 4.65 65.5 0 0 183.22 75.97
  L 184.53 92.22
  Q 184.57 92.72 184.23 93.08
  Q 181.92 95.58 179.08 98.20
  C 176.68 100.42 176.74 104.58 179.98 105.80
  C 181.67 106.43 183.73 106.01 185.02 104.65
  Q 187.66 101.89 190.31 99.33
  Q 190.70 98.95 191.25 98.99
  Q 199.33 99.61 207.41 100.28
  Q 209.67 100.46 211.30 98.84
  Q 227.94 82.21 244.25 65.87
  Q 244.65 65.46 245.04 65.88
  C 245.84 66.75 246.48 67.53 247.67 67.86
  C 252.21 69.12 255.09 63.89 251.98 60.67
  Q 247.22 55.75 241.21 49.90
  Q 240.37 49.08 241.24 48.29
  Q 243.36 46.37 245.27 44.29
  Z
  M 197.27 138.75
  Q 196.92 137.44 195.69 137.76
  Q 195.01 137.93 195.00 137.23
  L 194.99 132.49
  Q 194.99 131.99 194.49 131.99
  L 191.47 132.01
  Q 190.95 132.02 190.95 132.53
  L 190.97 137.36
  Q 190.97 137.71 190.62 137.74
  L 190.27 137.76
  Q 190.01 137.78 190.01 137.52
  L 190.06 133.91
  A 0.65 0.65 0.0 0 0 189.41 133.25
  L 187.16 133.24
  Q 186.50 133.24 186.48 133.90
  Q 186.34 139.42 184.91 144.43
  Q 184.77 144.91 185.26 145.07
  L 187.67 145.86
  Q 188.04 145.98 188.19 145.63
  Q 189.01 143.75 189.36 141.75
  Q 189.44 141.31 189.90 141.12
  A 0.77 0.77 0.0 0 1 190.97 141.82
  L 191.01 146.96
  Q 191.02 147.44 190.55 147.55
  L 185.40 148.70
  A 0.37 0.37 0.0 0 0 185.12 149.12
  L 185.74 152.54
  Q 185.79 152.80 186.04 152.73
  L 190.32 151.55
  Q 190.99 151.37 190.99 152.06
  L 191.00 160.75
  Q 191.01 161.25 191.50 161.25
  L 194.49 161.26
  Q 194.99 161.26 194.99 160.76
  L 195.01 155.34
  Q 195.01 154.16 195.84 155.01
  L 197.24 156.45
  Q 197.97 157.18 198.60 156.37
  Q 204.62 148.68 206.12 138.57
  Q 206.15 138.31 206.42 138.33
  L 206.70 138.36
  Q 207.00 138.39 206.98 138.70
  Q 205.94 150.26 199.52 158.25
  Q 199.14 158.72 199.56 159.16
  L 201.10 160.77
  Q 201.58 161.28 202.09 160.79
  C 207.57 155.34 210.36 146.04 210.82 138.62
  Q 210.83 138.41 211.04 138.41
  L 211.05 138.41
  Q 211.26 138.41 211.26 138.62
  Q 211.47 147.11 210.56 155.40
  A 2.08 2.07 3.1 0 1 208.49 157.25
  L 206.35 157.25
  A 0.71 0.71 0.0 0 0 205.65 158.04
  L 205.94 160.49
  Q 206.01 161.05 206.57 161.02
  C 208.24 160.92 210.68 161.38 212.13 160.52
  Q 214.30 159.23 214.54 156.54
  Q 215.45 146.38 215.24 135.53
  Q 215.23 135.00 214.70 135.00
  L 203.45 135.00
  Q 202.87 135.00 203.01 134.44
  L 203.39 132.94
  Q 203.64 131.96 202.63 132.03
  Q 201.41 132.11 200.13 131.76
  Q 199.42 131.56 199.26 132.27
  L 197.75 138.74
  Q 197.52 139.70 197.27 138.75
  Z
  M 274.22 134.10
  L 274.25 132.50
  Q 274.26 131.75 273.50 131.75
  L 270.52 131.75
  Q 269.78 131.75 269.77 132.48
  L 269.75 134.00
  A 0.76 0.76 0.0 0 1 268.99 134.74
  L 263.64 134.74
  A 1.13 1.12 -89.7 0 0 262.52 135.86
  L 262.48 139.99
  Q 262.47 140.56 263.04 140.65
  Q 264.75 140.91 264.20 142.74
  A 0.78 0.78 0.0 0 0 264.95 143.75
  L 279.20 143.75
  Q 279.91 143.75 279.95 143.05
  L 280.07 141.32
  A 0.69 0.69 0.0 0 1 280.92 140.70
  Q 282.17 141.01 281.95 139.67
  C 281.74 138.45 282.05 136.66 281.93 135.34
  Q 281.88 134.75 281.29 134.75
  L 274.85 134.73
  A 0.63 0.62 0.4 0 1 274.22 134.10
  Z
  M 222.36 142.71
  L 221.75 137.31
  A 0.78 0.78 0.0 0 0 220.89 136.63
  L 219.20 136.82
  A 0.85 0.85 0.0 0 0 218.47 137.80
  L 219.43 143.71
  Q 219.52 144.28 220.08 144.16
  L 222.30 143.70
  Q 223.03 143.56 223.01 144.30
  L 222.95 146.74
  A 1.12 1.12 0.0 0 1 222.23 147.77
  L 218.45 149.22
  Q 217.88 149.44 217.98 150.04
  L 218.39 152.28
  Q 218.49 152.82 218.99 152.60
  L 221.54 151.46
  A 0.37 0.37 0.0 0 1 222.04 151.90
  Q 220.94 155.81 218.44 158.73
  A 0.69 0.69 0.0 0 0 218.49 159.68
  L 219.97 161.07
  Q 220.49 161.57 220.99 161.04
  C 227.07 154.65 227.02 146.29 226.71 138.12
  Q 226.69 137.50 227.30 137.50
  L 248.49 137.51
  Q 248.99 137.51 248.99 137.01
  L 249.00 134.75
  A 0.50 0.50 0.0 0 0 248.50 134.25
  L 238.90 134.25
  Q 238.29 134.25 238.27 133.65
  L 238.23 132.49
  Q 238.22 132.01 237.74 132.01
  L 234.25 132.01
  Q 233.75 132.01 233.75 132.50
  L 233.74 133.51
  Q 233.73 134.25 232.99 134.25
  L 223.55 134.25
  A 0.61 0.60 -1.8 0 0 222.94 134.89
  Q 223.19 138.75 222.66 142.71
  Q 222.49 143.95 222.36 142.71
  Z
  M 173.68 157.41
  L 173.99 160.37
  Q 174.05 160.92 174.60 160.98
  C 178.00 161.33 181.21 160.97 181.70 156.78
  Q 182.61 149.00 182.17 139.32
  Q 182.15 138.74 181.56 138.74
  L 177.50 138.74
  Q 176.76 138.74 176.76 138.00
  L 176.74 132.61
  Q 176.74 132.24 176.36 132.24
  L 172.75 132.25
  Q 172.51 132.25 172.51 132.50
  L 172.50 138.05
  Q 172.49 138.77 171.77 138.75
  Q 171.00 138.73 170.34 139.09
  Q 169.80 139.39 169.78 138.77
  L 169.74 137.86
  Q 169.72 137.25 169.11 137.25
  L 163.69 137.22
  A 0.34 0.34 0.0 0 1 163.35 136.84
  L 163.39 136.47
  Q 163.44 135.86 164.05 135.77
  L 167.78 135.21
  Q 168.70 135.07 168.33 134.21
  L 167.71 132.78
  Q 167.40 132.05 166.62 132.19
  Q 160.65 133.23 154.24 133.49
  Q 153.79 133.51 153.84 133.95
  L 154.05 135.60
  A 0.78 0.77 84.8 0 0 154.86 136.28
  L 159.01 136.07
  Q 159.52 136.04 159.56 136.55
  L 159.59 136.84
  Q 159.62 137.24 159.21 137.24
  L 153.52 137.24
  Q 153.03 137.24 153.02 137.73
  L 153.00 139.49
  Q 152.99 139.99 153.49 139.99
  L 159.08 140.02
  A 0.56 0.56 0.0 0 1 159.62 140.70
  L 159.56 141.00
  Q 159.50 141.24 159.25 141.24
  L 154.37 141.26
  Q 153.75 141.27 153.75 141.88
  L 153.75 150.99
  A 0.49 0.49 0.0 0 0 154.24 151.48
  L 159.35 151.54
  A 0.30 0.30 0.0 0 1 159.65 151.83
  L 159.67 152.13
  A 0.58 0.57 -1.4 0 1 159.09 152.73
  L 153.76 152.73
  Q 153.00 152.73 153.00 153.49
  L 153.00 155.00
  Q 153.00 155.49 153.50 155.49
  L 159.27 155.51
  A 0.35 0.34 -86.3 0 1 159.61 155.90
  L 159.47 156.89
  Q 159.42 157.20 159.11 157.21
  L 152.96 157.56
  Q 152.49 157.58 152.56 158.05
  L 152.95 160.56
  Q 153.03 161.09 153.56 161.04
  L 168.40 159.75
  Q 168.95 159.70 169.41 160.01
  L 170.65 160.85
  Q 171.30 161.28 171.71 160.62
  L 173.68 157.41
  Z
  M 256.63 155.65
  Q 256.78 155.72 256.88 155.85
  Q 257.23 156.32 257.81 156.26
  C 263.29 155.78 262.54 148.41 260.94 144.98
  Q 260.49 144.00 260.11 143.04
  Q 259.91 142.52 260.07 141.99
  L 262.21 134.98
  Q 262.81 133.00 260.75 133.00
  L 253.00 133.01
  Q 252.50 133.01 252.50 133.50
  L 252.50 160.75
  Q 252.50 161.25 253.00 161.25
  L 255.74 161.26
  Q 256.24 161.26 256.25 160.76
  L 256.26 155.89
  Q 256.26 155.49 256.63 155.65
  Z
  M 231.72 154.93
  Q 231.72 153.77 232.19 154.83
  Q 232.78 156.15 233.94 155.45
  Q 236.16 154.12 237.54 152.04
  A 0.39 0.39 0.0 0 1 238.19 152.03
  Q 239.63 154.10 241.90 155.44
  A 0.67 0.66 -67.3 0 0 242.89 155.03
  Q 242.98 154.68 243.19 154.39
  Q 243.80 153.56 243.97 154.57
  Q 244.17 155.76 243.83 156.77
  Q 243.68 157.23 243.19 157.24
  L 240.49 157.25
  Q 240.23 157.26 240.26 157.51
  L 240.58 160.66
  Q 240.60 160.91 240.85 160.93
  Q 243.30 161.18 245.38 160.82
  A 2.86 2.85 -4.9 0 0 247.75 158.01
  L 247.75 145.50
  Q 247.75 144.75 247.00 144.75
  L 239.94 144.74
  Q 239.40 144.73 239.44 144.19
  L 239.53 142.97
  Q 239.56 142.49 240.04 142.50
  L 247.99 142.51
  A 0.51 0.50 -0.0 0 0 248.50 142.01
  L 248.50 139.75
  Q 248.50 139.25 248.00 139.25
  L 228.47 139.24
  Q 227.68 139.24 227.70 140.03
  L 227.75 141.89
  Q 227.77 142.51 228.39 142.51
  L 235.23 142.48
  Q 235.72 142.48 235.74 142.98
  L 235.79 144.22
  Q 235.81 144.74 235.28 144.74
  L 228.50 144.74
  Q 227.99 144.74 227.99 145.25
  L 228.00 160.76
  Q 228.00 161.26 228.51 161.26
  L 231.25 161.25
  Q 231.76 161.25 231.76 160.75
  L 231.72 154.93
  Z
  M 266.49 150.35
  Q 265.25 156.15 259.37 158.01
  Q 259.14 158.08 259.24 158.30
  L 260.64 161.07
  Q 260.72 161.23 260.90 161.18
  Q 269.53 158.66 270.54 150.29
  Q 270.62 149.61 271.30 149.70
  L 271.56 149.73
  A 0.38 0.37 -89.1 0 1 271.88 150.07
  Q 272.12 153.21 271.95 156.61
  C 271.84 158.92 272.99 160.81 275.49 160.96
  C 277.99 161.12 282.89 161.53 282.74 157.56
  C 282.70 156.23 282.78 154.88 282.74 153.54
  Q 282.73 153.01 282.21 152.94
  L 279.77 152.57
  A 0.45 0.44 -82.7 0 0 279.26 152.97
  L 278.92 156.45
  A 0.88 0.87 -87.1 0 1 278.05 157.24
  L 276.99 157.24
  Q 276.24 157.25 276.24 156.49
  L 276.25 150.37
  Q 276.26 149.75 276.88 149.75
  L 281.99 149.75
  Q 282.24 149.75 282.24 149.51
  L 282.26 147.00
  Q 282.26 146.50 281.75 146.50
  L 263.73 146.49
  Q 262.96 146.49 262.98 147.27
  L 263.02 148.89
  Q 263.04 149.86 264.01 149.82
  L 265.98 149.74
  Q 266.63 149.71 266.49 150.35
  Z"
/>
<path fill="#ff9900" d="
  M 241.21 49.90
  Q 247.22 55.75 251.98 60.67
  C 255.09 63.89 252.21 69.12 247.67 67.86
  C 246.48 67.53 245.84 66.75 245.04 65.88
  Q 244.65 65.46 244.25 65.87
  Q 227.94 82.21 211.30 98.84
  Q 209.67 100.46 207.41 100.28
  Q 199.33 99.61 191.25 98.99
  Q 190.70 98.95 190.31 99.33
  Q 187.66 101.89 185.02 104.65
  C 183.73 106.01 181.67 106.43 179.98 105.80
  C 176.74 104.58 176.68 100.42 179.08 98.20
  Q 181.92 95.58 184.23 93.08
  Q 184.57 92.72 184.53 92.22
  L 183.22 75.97
  A 4.68 4.65 65.5 0 1 184.58 72.29
  L 217.56 39.31
  A 0.70 0.70 0.0 0 0 217.45 38.23
  C 212.09 34.71 218.12 26.64 223.42 32.01
  Q 228.68 37.34 233.86 42.46
  Q 234.39 42.99 234.92 42.46
  L 239.45 37.91
  A 0.70 0.69 41.9 0 0 239.39 36.87
  Q 232.74 31.67 235.03 27.96
  C 236.94 24.87 240.28 25.62 242.59 27.93
  Q 249.89 35.18 256.34 41.82
  C 260.16 45.75 254.74 51.80 250.10 47.65
  Q 248.41 46.13 246.79 44.32
  Q 246.03 43.47 245.27 44.29
  Q 243.36 46.37 241.24 48.29
  Q 240.37 49.08 241.21 49.90
  Z
  M 217.32 63.30
  Q 221.19 56.93 229.63 67.76
  Q 229.84 68.02 230.07 67.78
  L 238.34 59.53
  Q 238.50 59.38 238.34 59.23
  L 224.45 45.30
  A 0.45 0.45 0.0 0 0 223.82 45.30
  Q 208.76 60.36 192.97 76.15
  C 191.49 77.63 192.03 78.84 192.17 80.72
  Q 192.53 85.22 192.88 89.80
  A 0.91 0.90 0.0 0 0 193.72 90.63
  L 205.73 91.55
  Q 206.28 91.59 206.68 91.20
  L 213.40 84.47
  A 0.29 0.29 0.0 0 0 213.41 84.06
  Q 210.87 81.45 208.05 78.70
  C 204.75 75.48 207.69 70.12 212.16 71.48
  C 214.79 72.29 217.34 75.93 219.52 77.82
  Q 219.79 78.06 220.05 77.80
  L 223.57 74.32
  Q 223.87 74.02 223.57 73.71
  Q 221.32 71.39 218.20 68.38
  C 216.94 67.17 216.51 64.64 217.32 63.30
  Z"
/>
<path fill="#ffffff" d="
  M 217.32 63.30
  C 216.51 64.64 216.94 67.17 218.20 68.38
  Q 221.32 71.39 223.57 73.71
  Q 223.87 74.02 223.57 74.32
  L 220.05 77.80
  Q 219.79 78.06 219.52 77.82
  C 217.34 75.93 214.79 72.29 212.16 71.48
  C 207.69 70.12 204.75 75.48 208.05 78.70
  Q 210.87 81.45 213.41 84.06
  A 0.29 0.29 0.0 0 1 213.40 84.47
  L 206.68 91.20
  Q 206.28 91.59 205.73 91.55
  L 193.72 90.63
  A 0.91 0.90 0.0 0 1 192.88 89.80
  Q 192.53 85.22 192.17 80.72
  C 192.03 78.84 191.49 77.63 192.97 76.15
  Q 208.76 60.36 223.82 45.30
  A 0.45 0.45 0.0 0 1 224.45 45.30
  L 238.34 59.23
  Q 238.50 59.38 238.34 59.53
  L 230.07 67.78
  Q 229.84 68.02 229.63 67.76
  Q 221.19 56.93 217.32 63.30
  Z"
/>
<path fill="#ff9900" d="
  M 197.75 138.74
  L 199.26 132.27
  Q 199.42 131.56 200.13 131.76
  Q 201.41 132.11 202.63 132.03
  Q 203.64 131.96 203.39 132.94
  L 203.01 134.44
  Q 202.87 135.00 203.45 135.00
  L 214.70 135.00
  Q 215.23 135.00 215.24 135.53
  Q 215.45 146.38 214.54 156.54
  Q 214.30 159.23 212.13 160.52
  C 210.68 161.38 208.24 160.92 206.57 161.02
  Q 206.01 161.05 205.94 160.49
  L 205.65 158.04
  A 0.71 0.71 0.0 0 1 206.35 157.25
  L 208.49 157.25
  A 2.08 2.07 3.1 0 0 210.56 155.40
  Q 211.47 147.11 211.26 138.62
  Q 211.26 138.41 211.05 138.41
  L 211.04 138.41
  Q 210.83 138.41 210.82 138.62
  C 210.36 146.04 207.57 155.34 202.09 160.79
  Q 201.58 161.28 201.10 160.77
  L 199.56 159.16
  Q 199.14 158.72 199.52 158.25
  Q 205.94 150.26 206.98 138.70
  Q 207.00 138.39 206.70 138.36
  L 206.42 138.33
  Q 206.15 138.31 206.12 138.57
  Q 204.62 148.68 198.60 156.37
  Q 197.97 157.18 197.24 156.45
  L 195.84 155.01
  Q 195.01 154.16 195.01 155.34
  L 194.99 160.76
  Q 194.99 161.26 194.49 161.26
  L 191.50 161.25
  Q 191.01 161.25 191.00 160.75
  L 190.99 152.06
  Q 190.99 151.37 190.32 151.55
  L 186.04 152.73
  Q 185.79 152.80 185.74 152.54
  L 185.12 149.12
  A 0.37 0.37 0.0 0 1 185.40 148.70
  L 190.55 147.55
  Q 191.02 147.44 191.01 146.96
  L 190.97 141.82
  A 0.77 0.77 0.0 0 0 189.90 141.12
  Q 189.44 141.31 189.36 141.75
  Q 189.01 143.75 188.19 145.63
  Q 188.04 145.98 187.67 145.86
  L 185.26 145.07
  Q 184.77 144.91 184.91 144.43
  Q 186.34 139.42 186.48 133.90
  Q 186.50 133.24 187.16 133.24
  L 189.41 133.25
  A 0.65 0.65 0.0 0 1 190.06 133.91
  L 190.01 137.52
  Q 190.01 137.78 190.27 137.76
  L 190.62 137.74
  Q 190.97 137.71 190.97 137.36
  L 190.95 132.53
  Q 190.95 132.02 191.47 132.01
  L 194.49 131.99
  Q 194.99 131.99 194.99 132.49
  L 195.00 137.23
  Q 195.01 137.93 195.69 137.76
  Q 196.92 137.44 197.27 138.75
  Q 197.52 139.70 197.75 138.74
  Z
  M 197.55 145.99
  L 197.86 148.20
  Q 197.95 148.83 197.36 149.08
  L 195.58 149.83
  Q 195.00 150.07 195.00 150.70
  L 195.00 153.75
  A 0.51 0.51 0.0 0 0 195.92 154.05
  Q 200.75 147.39 201.94 140.26
  Q 202.61 136.23 201.11 140.03
  Q 200.14 142.48 199.15 144.27
  Q 198.79 144.94 198.05 144.73
  Q 195.20 143.92 196.21 141.71
  Q 196.49 141.08 195.80 141.09
  Q 195.57 141.09 195.40 141.25
  Q 195.06 141.58 195.04 142.05
  Q 194.99 143.73 195.01 145.47
  Q 195.02 146.23 195.72 145.94
  L 196.74 145.53
  Q 197.45 145.24 197.55 145.99
  Z"
/>
<path fill="#ff9900" d="
  M 274.85 134.73
  L 281.29 134.75
  Q 281.88 134.75 281.93 135.34
  C 282.05 136.66 281.74 138.45 281.95 139.67
  Q 282.17 141.01 280.92 140.70
  A 0.69 0.69 0.0 0 0 280.07 141.32
  L 279.95 143.05
  Q 279.91 143.75 279.20 143.75
  L 264.95 143.75
  A 0.78 0.78 0.0 0 1 264.20 142.74
  Q 264.75 140.91 263.04 140.65
  Q 262.47 140.56 262.48 139.99
  L 262.52 135.86
  A 1.13 1.12 -89.7 0 1 263.64 134.74
  L 268.99 134.74
  A 0.76 0.76 0.0 0 0 269.75 134.00
  L 269.77 132.48
  Q 269.78 131.75 270.52 131.75
  L 273.50 131.75
  Q 274.26 131.75 274.25 132.50
  L 274.22 134.10
  A 0.63 0.62 0.4 0 0 274.85 134.73
  Z
  M 278.55 138.52
  A 0.52 0.52 0.0 0 0 278.03 138.00
  L 266.51 138.00
  A 0.52 0.52 0.0 0 0 265.99 138.52
  L 265.99 139.98
  A 0.52 0.52 0.0 0 0 266.51 140.50
  L 278.03 140.50
  A 0.52 0.52 0.0 0 0 278.55 139.98
  L 278.55 138.52
  Z"
/>
<path fill="#ff9900" d="
  M 222.66 142.71
  Q 223.19 138.75 222.94 134.89
  A 0.61 0.60 -1.8 0 1 223.55 134.25
  L 232.99 134.25
  Q 233.73 134.25 233.74 133.51
  L 233.75 132.50
  Q 233.75 132.01 234.25 132.01
  L 237.74 132.01
  Q 238.22 132.01 238.23 132.49
  L 238.27 133.65
  Q 238.29 134.25 238.90 134.25
  L 248.50 134.25
  A 0.50 0.50 0.0 0 1 249.00 134.75
  L 248.99 137.01
  Q 248.99 137.51 248.49 137.51
  L 227.30 137.50
  Q 226.69 137.50 226.71 138.12
  C 227.02 146.29 227.07 154.65 220.99 161.04
  Q 220.49 161.57 219.97 161.07
  L 218.49 159.68
  A 0.69 0.69 0.0 0 1 218.44 158.73
  Q 220.94 155.81 222.04 151.90
  A 0.37 0.37 0.0 0 0 221.54 151.46
  L 218.99 152.60
  Q 218.49 152.82 218.39 152.28
  L 217.98 150.04
  Q 217.88 149.44 218.45 149.22
  L 222.23 147.77
  A 1.12 1.12 0.0 0 0 222.95 146.74
  L 223.01 144.30
  Q 223.03 143.56 222.30 143.70
  L 220.08 144.16
  Q 219.52 144.28 219.43 143.71
  L 218.47 137.80
  A 0.85 0.85 0.0 0 1 219.20 136.82
  L 220.89 136.63
  A 0.78 0.78 0.0 0 1 221.75 137.31
  L 222.36 142.71
  Q 222.49 143.95 222.66 142.71
  Z"
/>
<path fill="#ff9900" d="
  M 173.68 157.41
  L 176.01 157.20
  A 1.76 1.74 -88.1 0 0 177.58 155.72
  Q 178.58 149.23 178.17 142.66
  Q 178.15 142.28 177.77 142.26
  L 176.99 142.21
  Q 176.54 142.19 176.53 142.65
  C 176.39 148.94 175.15 152.35 173.68 157.41
  L 171.71 160.62
  Q 171.30 161.28 170.65 160.85
  L 169.41 160.01
  Q 168.95 159.70 168.40 159.75
  L 153.56 161.04
  Q 153.03 161.09 152.95 160.56
  L 152.56 158.05
  Q 152.49 157.58 152.96 157.56
  L 159.11 157.21
  Q 159.42 157.20 159.47 156.89
  L 159.61 155.90
  A 0.35 0.34 -86.3 0 0 159.27 155.51
  L 153.50 155.49
  Q 153.00 155.49 153.00 155.00
  L 153.00 153.49
  Q 153.00 152.73 153.76 152.73
  L 159.09 152.73
  A 0.58 0.57 -1.4 0 0 159.67 152.13
  L 159.65 151.83
  A 0.30 0.30 0.0 0 0 159.35 151.54
  L 154.24 151.48
  A 0.49 0.49 0.0 0 1 153.75 150.99
  L 153.75 141.88
  Q 153.75 141.27 154.37 141.26
  L 159.25 141.24
  Q 159.50 141.24 159.56 141.00
  L 159.62 140.70
  A 0.56 0.56 0.0 0 0 159.08 140.02
  L 153.49 139.99
  Q 152.99 139.99 153.00 139.49
  L 153.02 137.73
  Q 153.03 137.24 153.52 137.24
  L 159.21 137.24
  Q 159.62 137.24 159.59 136.84
  L 159.56 136.55
  Q 159.52 136.04 159.01 136.07
  L 154.86 136.28
  A 0.78 0.77 84.8 0 1 154.05 135.60
  L 153.84 133.95
  Q 153.79 133.51 154.24 133.49
  Q 160.65 133.23 166.62 132.19
  Q 167.40 132.05 167.71 132.78
  L 168.33 134.21
  Q 168.70 135.07 167.78 135.21
  L 164.05 135.77
  Q 163.44 135.86 163.39 136.47
  L 163.35 136.84
  A 0.34 0.34 0.0 0 0 163.69 137.22
  L 169.11 137.25
  Q 169.72 137.25 169.74 137.86
  L 169.78 138.77
  Q 169.80 139.39 170.34 139.09
  Q 171.00 138.73 171.77 138.75
  Q 172.49 138.77 172.50 138.05
  L 172.51 132.50
  Q 172.51 132.25 172.75 132.25
  L 176.36 132.24
  Q 176.74 132.24 176.74 132.61
  L 176.76 138.00
  Q 176.76 138.74 177.50 138.74
  L 181.56 138.74
  Q 182.15 138.74 182.17 139.32
  Q 182.61 149.00 181.70 156.78
  C 181.21 160.97 178.00 161.33 174.60 160.98
  Q 174.05 160.92 173.99 160.37
  L 173.68 157.41
  Z
  M 168.95 156.87
  Q 168.96 157.02 168.88 157.14
  Q 168.67 157.41 169.00 157.49
  Q 169.28 157.55 169.38 157.32
  Q 172.43 150.31 172.51 142.83
  A 0.62 0.62 0.0 0 0 171.73 142.22
  Q 171.11 142.39 170.63 142.11
  Q 170.18 141.85 170.21 141.33
  L 170.24 140.59
  Q 170.27 139.93 169.62 139.94
  L 164.02 140.04
  A 0.64 0.63 9.5 0 0 163.44 140.45
  L 163.31 140.81
  Q 163.16 141.23 163.60 141.23
  L 168.75 141.26
  Q 169.49 141.26 169.49 142.00
  L 169.50 150.99
  Q 169.50 151.48 169.00 151.49
  L 163.67 151.54
  Q 163.28 151.55 163.33 151.93
  L 163.38 152.28
  Q 163.43 152.72 163.87 152.72
  L 168.79 152.72
  A 0.76 0.76 0.0 0 1 169.55 153.54
  L 169.46 154.91
  Q 169.42 155.50 168.84 155.50
  L 163.74 155.53
  A 0.41 0.40 -2.1 0 0 163.34 155.95
  L 163.35 156.25
  Q 163.37 156.99 164.11 156.93
  L 168.55 156.55
  Q 168.90 156.52 168.95 156.87
  Z
  M 157.41 144.73
  Q 157.34 145.34 157.93 145.50
  Q 158.56 145.67 159.11 145.41
  A 0.89 0.89 0.0 0 0 159.00 143.75
  Q 157.59 143.30 157.41 144.73
  Z
  M 163.80 145.46
  L 165.19 145.50
  A 0.61 0.61 0.0 0 0 165.80 144.75
  Q 165.75 144.53 165.77 144.30
  A 0.50 0.49 -86.9 0 0 165.28 143.75
  L 164.28 143.75
  Q 163.56 143.76 163.49 144.47
  L 163.44 145.05
  A 0.37 0.37 0.0 0 0 163.80 145.46
  Z
  M 159.62 148.21
  A 0.75 0.74 16.0 0 0 159.14 147.35
  Q 157.96 146.92 157.48 147.76
  A 0.83 0.83 0.0 0 0 157.99 148.97
  Q 159.36 149.32 159.62 148.21
  Z
  M 165.9898 148.1437
  A 1.36 0.88 1.0 0 0 164.6454 147.2401
  A 1.36 0.88 1.0 0 0 163.2702 148.0963
  A 1.36 0.88 1.0 0 0 164.6146 148.9999
  A 1.36 0.88 1.0 0 0 165.9898 148.1437
  Z"
/>
<path fill="#ff9900" d="
  M 256.26 155.89
  L 256.25 160.76
  Q 256.24 161.26 255.74 161.26
  L 253.00 161.25
  Q 252.50 161.25 252.50 160.75
  L 252.50 133.50
  Q 252.50 133.01 253.00 133.01
  L 260.75 133.00
  Q 262.81 133.00 262.21 134.98
  L 260.07 141.99
  Q 259.91 142.52 260.11 143.04
  Q 260.49 144.00 260.94 144.98
  C 262.54 148.41 263.29 155.78 257.81 156.26
  Q 257.23 156.32 256.88 155.85
  Q 256.78 155.72 256.63 155.65
  Q 256.26 155.49 256.26 155.89
  Z
  M 256.75 141.72
  Q 257.75 138.99 257.74 136.52
  A 0.44 0.44 0.0 0 0 257.25 136.08
  L 256.95 136.12
  Q 256.37 136.18 256.32 136.77
  Q 256.15 139.26 256.31 141.66
  Q 256.38 142.71 256.75 141.72
  Z
  M 258.50 150.41
  C 258.56 147.56 257.78 146.03 256.91 143.63
  Q 256.26 141.81 256.26 143.74
  L 256.25 151.93
  A 0.71 0.71 0.0 0 0 257.02 152.64
  Q 257.44 152.61 257.71 152.33
  Q 258.48 151.55 258.50 150.41
  Z"
/>
<path fill="#ffffff" d="
  M 256.75 141.72
  Q 256.38 142.71 256.31 141.66
  Q 256.15 139.26 256.32 136.77
  Q 256.37 136.18 256.95 136.12
  L 257.25 136.08
  A 0.44 0.44 0.0 0 1 257.74 136.52
  Q 257.75 138.99 256.75 141.72
  Z"
/>
<rect fill="#ffffff" x="265.99" y="138.00" width="12.56" height="2.50" rx="0.52"/>
<path fill="#ffffff" d="
  M 196.74 145.53
  L 195.72 145.94
  Q 195.02 146.23 195.01 145.47
  Q 194.99 143.73 195.04 142.05
  Q 195.06 141.58 195.40 141.25
  Q 195.57 141.09 195.80 141.09
  Q 196.49 141.08 196.21 141.71
  Q 195.20 143.92 198.05 144.73
  Q 198.79 144.94 199.15 144.27
  Q 200.14 142.48 201.11 140.03
  Q 202.61 136.23 201.94 140.26
  Q 200.75 147.39 195.92 154.05
  A 0.51 0.51 0.0 0 1 195.00 153.75
  L 195.00 150.70
  Q 195.00 150.07 195.58 149.83
  L 197.36 149.08
  Q 197.95 148.83 197.86 148.20
  L 197.55 145.99
  Q 197.45 145.24 196.74 145.53
  Z"
/>
<path fill="#ff9900" d="
  M 231.72 154.93
  L 231.76 160.75
  Q 231.76 161.25 231.25 161.25
  L 228.51 161.26
  Q 228.00 161.26 228.00 160.76
  L 227.99 145.25
  Q 227.99 144.74 228.50 144.74
  L 235.28 144.74
  Q 235.81 144.74 235.79 144.22
  L 235.74 142.98
  Q 235.72 142.48 235.23 142.48
  L 228.39 142.51
  Q 227.77 142.51 227.75 141.89
  L 227.70 140.03
  Q 227.68 139.24 228.47 139.24
  L 248.00 139.25
  Q 248.50 139.25 248.50 139.75
  L 248.50 142.01
  A 0.51 0.50 -0.0 0 1 247.99 142.51
  L 240.04 142.50
  Q 239.56 142.49 239.53 142.97
  L 239.44 144.19
  Q 239.40 144.73 239.94 144.74
  L 247.00 144.75
  Q 247.75 144.75 247.75 145.50
  L 247.75 158.01
  A 2.86 2.85 -4.9 0 1 245.38 160.82
  Q 243.30 161.18 240.85 160.93
  Q 240.60 160.91 240.58 160.66
  L 240.26 157.51
  Q 240.23 157.26 240.49 157.25
  L 243.19 157.24
  Q 243.68 157.23 243.83 156.77
  Q 244.17 155.76 243.97 154.57
  Q 243.80 153.56 243.19 154.39
  Q 242.98 154.68 242.89 155.03
  A 0.67 0.66 -67.3 0 1 241.90 155.44
  Q 239.63 154.10 238.19 152.03
  A 0.39 0.39 0.0 0 0 237.54 152.04
  Q 236.16 154.12 233.94 155.45
  Q 232.78 156.15 232.19 154.83
  Q 231.72 153.77 231.72 154.93
  Z
  M 231.76 152.12
  A 0.49 0.49 0.0 0 0 232.63 152.43
  L 235.56 148.82
  A 0.49 0.49 0.0 0 0 235.18 148.02
  L 232.25 147.99
  A 0.49 0.49 0.0 0 0 231.75 148.49
  L 231.76 152.12
  Z
  M 240.61 148.00
  A 0.59 0.59 0.0 0 0 240.17 148.97
  L 242.95 152.22
  A 0.59 0.59 0.0 0 0 243.99 151.84
  L 244.01 148.59
  A 0.59 0.59 0.0 0 0 243.42 148.00
  L 240.61 148.00
  Z"
/>
<path fill="#ffffff" d="
  M 168.55 156.55
  L 164.11 156.93
  Q 163.37 156.99 163.35 156.25
  L 163.34 155.95
  A 0.41 0.40 -2.1 0 1 163.74 155.53
  L 168.84 155.50
  Q 169.42 155.50 169.46 154.91
  L 169.55 153.54
  A 0.76 0.76 0.0 0 0 168.79 152.72
  L 163.87 152.72
  Q 163.43 152.72 163.38 152.28
  L 163.33 151.93
  Q 163.28 151.55 163.67 151.54
  L 169.00 151.49
  Q 169.50 151.48 169.50 150.99
  L 169.49 142.00
  Q 169.49 141.26 168.75 141.26
  L 163.60 141.23
  Q 163.16 141.23 163.31 140.81
  L 163.44 140.45
  A 0.64 0.63 9.5 0 1 164.02 140.04
  L 169.62 139.94
  Q 170.27 139.93 170.24 140.59
  L 170.21 141.33
  Q 170.18 141.85 170.63 142.11
  Q 171.11 142.39 171.73 142.22
  A 0.62 0.62 0.0 0 1 172.51 142.83
  Q 172.43 150.31 169.38 157.32
  Q 169.28 157.55 169.00 157.49
  Q 168.67 157.41 168.88 157.14
  Q 168.96 157.02 168.95 156.87
  Q 168.90 156.52 168.55 156.55
  Z"
/>
<path fill="#ffffff" d="
  M 173.68 157.41
  C 175.15 152.35 176.39 148.94 176.53 142.65
  Q 176.54 142.19 176.99 142.21
  L 177.77 142.26
  Q 178.15 142.28 178.17 142.66
  Q 178.58 149.23 177.58 155.72
  A 1.76 1.74 -88.1 0 1 176.01 157.20
  L 173.68 157.41
  Z"
/>
<path fill="#ffffff" d="
  M 256.91 143.63
  C 257.78 146.03 258.56 147.56 258.50 150.41
  Q 258.48 151.55 257.71 152.33
  Q 257.44 152.61 257.02 152.64
  A 0.71 0.71 0.0 0 1 256.25 151.93
  L 256.26 143.74
  Q 256.26 141.81 256.91 143.63
  Z"
/>
<path fill="#ffffff" d="
  M 157.41 144.73
  Q 157.59 143.30 159.00 143.75
  A 0.89 0.89 0.0 0 1 159.11 145.41
  Q 158.56 145.67 157.93 145.50
  Q 157.34 145.34 157.41 144.73
  Z"
/>
<path fill="#ffffff" d="
  M 163.80 145.46
  A 0.37 0.37 0.0 0 1 163.44 145.05
  L 163.49 144.47
  Q 163.56 143.76 164.28 143.75
  L 165.28 143.75
  A 0.50 0.49 -86.9 0 1 165.77 144.30
  Q 165.75 144.53 165.80 144.75
  A 0.61 0.61 0.0 0 1 165.19 145.50
  L 163.80 145.46
  Z"
/>
<path fill="#ff9900" d="
  M 265.98 149.74
  L 264.01 149.82
  Q 263.04 149.86 263.02 148.89
  L 262.98 147.27
  Q 262.96 146.49 263.73 146.49
  L 281.75 146.50
  Q 282.26 146.50 282.26 147.00
  L 282.24 149.51
  Q 282.24 149.75 281.99 149.75
  L 276.88 149.75
  Q 276.26 149.75 276.25 150.37
  L 276.24 156.49
  Q 276.24 157.25 276.99 157.24
  L 278.05 157.24
  A 0.88 0.87 -87.1 0 0 278.92 156.45
  L 279.26 152.97
  A 0.45 0.44 -82.7 0 1 279.77 152.57
  L 282.21 152.94
  Q 282.73 153.01 282.74 153.54
  C 282.78 154.88 282.70 156.23 282.74 157.56
  C 282.89 161.53 277.99 161.12 275.49 160.96
  C 272.99 160.81 271.84 158.92 271.95 156.61
  Q 272.12 153.21 271.88 150.07
  A 0.38 0.37 -89.1 0 0 271.56 149.73
  L 271.30 149.70
  Q 270.62 149.61 270.54 150.29
  Q 269.53 158.66 260.90 161.18
  Q 260.72 161.23 260.64 161.07
  L 259.24 158.30
  Q 259.14 158.08 259.37 158.01
  Q 265.25 156.15 266.49 150.35
  Q 266.63 149.71 265.98 149.74
  Z"
/>
<path fill="#ffffff" d="
  M 159.62 148.21
  Q 159.36 149.32 157.99 148.97
  A 0.83 0.83 0.0 0 1 157.48 147.76
  Q 157.96 146.92 159.14 147.35
  A 0.75 0.74 16.0 0 1 159.62 148.21
  Z"
/>
<ellipse fill="#ffffff" cx="0.00" cy="0.00" transform="translate(164.63,148.12) rotate(1.0)" rx="1.36" ry="0.88"/>
<path fill="#ffffff" d="
  M 231.76 152.12
  L 231.75 148.49
  A 0.49 0.49 0.0 0 1 232.25 147.99
  L 235.18 148.02
  A 0.49 0.49 0.0 0 1 235.56 148.82
  L 232.63 152.43
  A 0.49 0.49 0.0 0 1 231.76 152.12
  Z"
/>
<path fill="#ffffff" d="
  M 240.61 148.00
  L 243.42 148.00
  A 0.59 0.59 0.0 0 1 244.01 148.59
  L 243.99 151.84
  A 0.59 0.59 0.0 0 1 242.95 152.22
  L 240.17 148.97
  A 0.59 0.59 0.0 0 1 240.61 148.00
  Z"
/>
</svg>
