<?xml version="1.0" encoding="UTF-8" standalone="no"?>
<!DOCTYPE svg PUBLIC "-//W3C//DTD SVG 1.1//EN" "http://www.w3.org/Graphics/SVG/1.1/DTD/svg11.dtd">
<svg xmlns="http://www.w3.org/2000/svg" version="1.1" viewBox="0.00 0.00 435.00 195.00">
<g stroke-width="2.00" fill="none" stroke-linecap="butt">
<path stroke="#dedede" vector-effect="non-scaling-stroke" d="
  M 430.50 31.02
  A 26.02 26.02 0.0 0 0 404.48 5.00
  L 30.52 5.00
  A 26.02 26.02 0.0 0 0 4.50 31.02
  L 4.50 155.98
  A 26.02 26.02 0.0 0 0 30.52 182.00
  L 404.48 182.00
  A 26.02 26.02 0.0 0 0 430.50 155.98
  L 430.50 31.02"
/>
<path stroke="#eeaa8c" vector-effect="non-scaling-stroke" d="
  M 225.27 45.81
  A 1.07 1.03 53.9 0 1 225.15 46.68
  C 216.87 59.50 214.08 75.22 214.23 90.43
  Q 214.24 90.97 214.77 90.91
  C 230.36 89.12 243.49 77.32 245.41 61.70
  Q 246.00 56.96 244.55 48.08
  Q 243.31 40.50 242.76 29.77
  C 242.66 27.90 241.66 25.90 239.49 25.92
  Q 233.72 25.97 228.32 27.29
  C 215.49 30.43 202.80 36.23 195.16 47.02
  Q 184.12 62.58 194.12 79.19
  Q 195.36 81.25 196.85 83.01
  A 2.99 2.97 35.0 0 1 197.38 85.97
  Q 195.06 92.29 193.98 98.75
  Q 193.62 100.90 195.47 101.94
  Q 200.43 104.71 206.80 105.97
  Q 207.59 106.13 207.39 105.35
  Q 206.30 101.23 206.08 96.85
  Q 205.37 82.16 209.90 67.56
  Q 213.60 55.64 222.64 45.18
  A 1.36 1.34 20.8 0 1 223.68 44.72
  Q 224.94 44.76 225.27 45.81"
/>
<path stroke="#eeaa8c" vector-effect="non-scaling-stroke" d="
  M 214.6043 130.3713
  A 0.26 0.26 0.0 0 0 214.2597 130.2431
  L 212.4958 131.0507
  A 0.26 0.26 0.0 0 0 212.3676 131.3953
  L 214.4157 135.8687
  A 0.26 0.26 0.0 0 0 214.7603 135.9969
  L 216.5242 135.1893
  A 0.26 0.26 0.0 0 0 216.6524 134.8447
  L 214.6043 130.3713"
/>
<path stroke="#eeaa8c" vector-effect="non-scaling-stroke" d="
  M 209.7047 131.0055
  A 0.46 0.46 0.0 0 0 209.0958 130.7766
  L 207.6569 131.4293
  A 0.46 0.46 0.0 0 0 207.4280 132.0382
  L 209.2953 136.1545
  A 0.46 0.46 0.0 0 0 209.9042 136.3834
  L 211.3431 135.7307
  A 0.46 0.46 0.0 0 0 211.5720 135.1218
  L 209.7047 131.0055"
/>
<path stroke="#eeaa8c" vector-effect="non-scaling-stroke" d="
  M 176.08 140.41
  C 173.99 150.23 167.31 154.90 157.85 156.97
  Q 157.46 157.05 157.61 157.42
  L 158.91 160.77
  Q 159.09 161.25 159.59 161.13
  Q 164.81 159.92 169.23 157.69
  Q 181.54 151.49 181.65 136.11
  Q 181.66 135.50 181.04 135.50
  L 168.55 135.50
  Q 167.88 135.50 168.11 134.88
  L 168.96 132.52
  Q 169.02 132.37 168.86 132.35
  L 164.27 131.78
  Q 164.02 131.75 163.94 131.99
  Q 160.88 141.31 152.53 146.62
  A 0.28 0.28 0.0 0 0 152.46 147.03
  L 154.75 150.03
  Q 154.93 150.27 155.18 150.12
  Q 161.44 146.39 165.47 140.27
  Q 165.81 139.75 166.43 139.75
  L 175.55 139.75
  Q 176.22 139.75 176.08 140.41"
/>
<path stroke="#eeaa8c" vector-effect="non-scaling-stroke" d="
  M 207.93 142.21
  Q 205.47 145.54 202.33 148.04
  Q 201.81 148.45 202.28 148.92
  L 204.43 151.02
  A 0.91 0.91 0.0 0 0 205.64 151.08
  Q 211.54 146.24 214.96 139.72
  Q 215.27 139.14 214.80 138.66
  L 213.28 137.13
  Q 212.90 136.75 212.37 136.82
  L 197.21 138.83
  Q 196.48 138.93 196.49 138.20
  L 196.50 132.50
  A 0.25 0.24 1.1 0 0 196.25 132.25
  L 192.00 132.25
  A 0.25 0.25 0.0 0 0 191.75 132.50
  L 191.75 139.06
  A 0.63 0.62 -3.1 0 1 191.19 139.68
  L 185.61 140.36
  Q 185.08 140.43 185.14 140.96
  L 185.54 144.31
  Q 185.60 144.77 186.06 144.70
  L 190.95 143.99
  Q 191.48 143.91 191.49 144.44
  Q 191.57 148.23 191.45 152.09
  C 191.32 156.37 192.84 160.26 197.64 160.40
  Q 204.82 160.61 214.01 160.47
  A 0.25 0.25 0.0 0 0 214.26 160.22
  L 214.25 156.50
  A 0.25 0.25 0.0 0 0 214.00 156.25
  L 199.00 156.25
  A 2.75 2.74 0.1 0 1 196.25 153.50
  L 196.25 143.74
  A 0.61 0.60 86.2 0 1 196.77 143.14
  L 207.57 141.62
  Q 208.46 141.49 207.93 142.21"
/>
<path stroke="#eeaa8c" vector-effect="non-scaling-stroke" d="
  M 108.79 145.51
  C 108.94 154.59 101.25 156.28 93.93 157.00
  Q 93.49 157.04 93.60 157.47
  L 94.45 160.83
  Q 94.56 161.25 95.00 161.23
  C 101.54 160.84 109.26 159.02 112.42 152.79
  Q 113.97 149.75 113.80 143.95
  Q 113.64 138.41 113.78 133.54
  Q 113.79 133.00 113.25 133.00
  L 109.23 133.01
  Q 108.77 133.01 108.77 133.47
  Q 108.70 139.56 108.79 145.51"
/>
<path stroke="#eeaa8c" vector-effect="non-scaling-stroke" d="
  M 257.72 132.83
  A 0.33 0.33 0.0 0 0 257.31 133.01
  L 255.79 136.26
  A 0.33 0.33 0.0 0 0 255.98 136.71
  L 268.79 141.16
  A 0.33 0.33 0.0 0 0 269.18 141.02
  L 271.18 137.78
  A 0.33 0.33 0.0 0 0 271.01 137.30
  L 257.72 132.83"
/>
<path stroke="#eeaa8c" vector-effect="non-scaling-stroke" d="
  M 95.9754 133.9857
  A 0.49 0.49 0.0 0 0 95.4845 133.4965
  L 91.4845 133.5035
  A 0.49 0.49 0.0 0 0 90.9954 133.9944
  L 91.0246 150.7743
  A 0.49 0.49 0.0 0 0 91.5155 151.2635
  L 95.5155 151.2565
  A 0.49 0.49 0.0 0 0 96.0046 150.7656
  L 95.9754 133.9857"
/>
<path stroke="#eeaa8c" vector-effect="non-scaling-stroke" d="
  M 322.64 133.71
  A 0.33 0.33 0.0 0 0 322.21 133.82
  L 320.04 137.07
  A 0.33 0.33 0.0 0 0 320.15 137.54
  L 332.18 144.17
  A 0.33 0.33 0.0 0 0 332.60 144.08
  L 335.15 140.75
  A 0.33 0.33 0.0 0 0 335.04 140.26
  L 322.64 133.71"
/>
<path stroke="#eeaa8c" vector-effect="non-scaling-stroke" d="
  M 147.00 134.56
  A 0.31 0.31 0.0 0 0 146.69 134.25
  L 122.81 134.25
  A 0.31 0.31 0.0 0 0 122.50 134.56
  L 122.50 137.94
  A 0.31 0.31 0.0 0 0 122.81 138.25
  L 146.69 138.25
  A 0.31 0.31 0.0 0 0 147.00 137.94
  L 147.00 134.56"
/>
<path stroke="#eeaa8c" vector-effect="non-scaling-stroke" d="
  M 305.43 150.75
  A 0.32 0.32 0.0 0 1 305.75 151.07
  L 305.75 156.68
  A 0.32 0.32 0.0 0 1 305.43 157.00
  L 288.07 157.00
  A 0.32 0.32 0.0 0 0 287.75 157.32
  L 287.74 160.18
  A 0.32 0.32 0.0 0 0 288.06 160.50
  L 309.68 160.50
  A 0.32 0.32 0.0 0 0 310.00 160.18
  L 309.99 139.07
  A 0.32 0.32 0.0 0 0 309.67 138.75
  L 288.58 138.75
  A 0.32 0.32 0.0 0 0 288.26 139.07
  L 288.24 141.93
  A 0.32 0.32 0.0 0 0 288.56 142.25
  L 305.43 142.25
  A 0.32 0.32 0.0 0 1 305.75 142.57
  L 305.75 146.92
  A 0.32 0.32 0.0 0 1 305.43 147.24
  L 288.58 147.25
  A 0.32 0.32 0.0 0 0 288.26 147.57
  L 288.25 150.43
  A 0.32 0.32 0.0 0 0 288.57 150.75
  L 305.43 150.75"
/>
<path stroke="#eeaa8c" vector-effect="non-scaling-stroke" d="
  M 265.66 149.17
  A 0.34 0.34 0.0 0 0 266.07 149.02
  L 267.94 145.75
  A 0.34 0.34 0.0 0 0 267.75 145.26
  L 254.58 140.78
  A 0.34 0.34 0.0 0 0 254.17 140.95
  L 252.52 144.21
  A 0.34 0.34 0.0 0 0 252.71 144.69
  L 265.66 149.17"
/>
<path stroke="#eeaa8c" vector-effect="non-scaling-stroke" d="
  M 142.95 146.38
  C 140.66 154.97 133.13 156.61 125.03 156.95
  Q 124.45 156.98 124.58 157.55
  L 125.33 160.75
  Q 125.45 161.24 125.95 161.22
  C 138.16 160.84 147.65 156.40 148.26 142.33
  Q 148.28 141.75 147.70 141.75
  L 121.75 141.75
  A 0.25 0.25 0.0 0 0 121.50 142.00
  L 121.49 145.74
  A 0.25 0.25 0.0 0 0 121.74 145.99
  L 142.67 146.01
  A 0.29 0.29 0.0 0 1 142.95 146.38"
/>
<path stroke="#eeaa8c" vector-effect="non-scaling-stroke" d="
  M 321.26 160.69
  C 332.57 159.94 342.90 154.88 348.33 144.58
  Q 348.47 144.31 348.22 144.15
  L 344.84 141.90
  A 0.24 0.24 0.0 0 0 344.49 141.98
  Q 336.86 155.50 320.30 156.39
  Q 320.07 156.40 320.12 156.63
  L 320.98 160.47
  Q 321.03 160.70 321.26 160.69"
/>
<path stroke="#eeaa8c" vector-effect="non-scaling-stroke" d="
  M 255.49 160.95
  C 266.92 159.89 276.86 154.90 282.36 144.52
  Q 282.49 144.26 282.23 144.12
  L 278.75 142.37
  Q 278.51 142.25 278.37 142.47
  C 275.51 146.96 272.13 150.74 267.51 153.06
  Q 261.75 155.94 254.59 156.64
  A 0.51 0.51 0.0 0 0 254.14 157.26
  L 254.93 160.55
  Q 255.04 160.99 255.49 160.95"
/>
<path stroke="#eeaa8c" vector-effect="non-scaling-stroke" d="
  M 248.75 145.55
  A 0.31 0.31 0.0 0 0 248.44 145.24
  L 219.56 145.24
  A 0.31 0.31 0.0 0 0 219.25 145.55
  L 219.25 149.19
  A 0.31 0.31 0.0 0 0 219.56 149.50
  L 248.44 149.50
  A 0.31 0.31 0.0 0 0 248.75 149.19
  L 248.75 145.55"
/>
</g>
<path fill="#bdbdbd" d="
  M 29.58 2.00
  L 405.42 2.00
  A 28.08 28.08 0.0 0 1 433.50 30.08
  L 433.50 165.92
  A 28.08 28.08 0.0 0 1 405.42 194.00
  L 29.58 194.00
  A 28.08 28.08 0.0 0 1 1.50 165.92
  L 1.50 30.08
  A 28.08 28.08 0.0 0 1 29.58 2.00
  Z
  M 430.50 31.02
  A 26.02 26.02 0.0 0 0 404.48 5.00
  L 30.52 5.00
  A 26.02 26.02 0.0 0 0 4.50 31.02
  L 4.50 155.98
  A 26.02 26.02 0.0 0 0 30.52 182.00
  L 404.48 182.00
  A 26.02 26.02 0.0 0 0 430.50 155.98
  L 430.50 31.02
  Z"
/>
<path fill="#ffffff" d="
  M 430.50 155.98
  A 26.02 26.02 0.0 0 1 404.48 182.00
  L 30.52 182.00
  A 26.02 26.02 0.0 0 1 4.50 155.98
  L 4.50 31.02
  A 26.02 26.02 0.0 0 1 30.52 5.00
  L 404.48 5.00
  A 26.02 26.02 0.0 0 1 430.50 31.02
  L 430.50 155.98
  Z
  M 225.27 45.81
  A 1.07 1.03 53.9 0 1 225.15 46.68
  C 216.87 59.50 214.08 75.22 214.23 90.43
  Q 214.24 90.97 214.77 90.91
  C 230.36 89.12 243.49 77.32 245.41 61.70
  Q 246.00 56.96 244.55 48.08
  Q 243.31 40.50 242.76 29.77
  C 242.66 27.90 241.66 25.90 239.49 25.92
  Q 233.72 25.97 228.32 27.29
  C 215.49 30.43 202.80 36.23 195.16 47.02
  Q 184.12 62.58 194.12 79.19
  Q 195.36 81.25 196.85 83.01
  A 2.99 2.97 35.0 0 1 197.38 85.97
  Q 195.06 92.29 193.98 98.75
  Q 193.62 100.90 195.47 101.94
  Q 200.43 104.71 206.80 105.97
  Q 207.59 106.13 207.39 105.35
  Q 206.30 101.23 206.08 96.85
  Q 205.37 82.16 209.90 67.56
  Q 213.60 55.64 222.64 45.18
  A 1.36 1.34 20.8 0 1 223.68 44.72
  Q 224.94 44.76 225.27 45.81
  Z
  M 214.6043 130.3713
  A 0.26 0.26 0.0 0 0 214.2597 130.2431
  L 212.4958 131.0507
  A 0.26 0.26 0.0 0 0 212.3676 131.3953
  L 214.4157 135.8687
  A 0.26 0.26 0.0 0 0 214.7603 135.9969
  L 216.5242 135.1893
  A 0.26 0.26 0.0 0 0 216.6524 134.8447
  L 214.6043 130.3713
  Z
  M 209.7047 131.0055
  A 0.46 0.46 0.0 0 0 209.0958 130.7766
  L 207.6569 131.4293
  A 0.46 0.46 0.0 0 0 207.4280 132.0382
  L 209.2953 136.1545
  A 0.46 0.46 0.0 0 0 209.9042 136.3834
  L 211.3431 135.7307
  A 0.46 0.46 0.0 0 0 211.5720 135.1218
  L 209.7047 131.0055
  Z
  M 176.08 140.41
  C 173.99 150.23 167.31 154.90 157.85 156.97
  Q 157.46 157.05 157.61 157.42
  L 158.91 160.77
  Q 159.09 161.25 159.59 161.13
  Q 164.81 159.92 169.23 157.69
  Q 181.54 151.49 181.65 136.11
  Q 181.66 135.50 181.04 135.50
  L 168.55 135.50
  Q 167.88 135.50 168.11 134.88
  L 168.96 132.52
  Q 169.02 132.37 168.86 132.35
  L 164.27 131.78
  Q 164.02 131.75 163.94 131.99
  Q 160.88 141.31 152.53 146.62
  A 0.28 0.28 0.0 0 0 152.46 147.03
  L 154.75 150.03
  Q 154.93 150.27 155.18 150.12
  Q 161.44 146.39 165.47 140.27
  Q 165.81 139.75 166.43 139.75
  L 175.55 139.75
  Q 176.22 139.75 176.08 140.41
  Z
  M 207.93 142.21
  Q 205.47 145.54 202.33 148.04
  Q 201.81 148.45 202.28 148.92
  L 204.43 151.02
  A 0.91 0.91 0.0 0 0 205.64 151.08
  Q 211.54 146.24 214.96 139.72
  Q 215.27 139.14 214.80 138.66
  L 213.28 137.13
  Q 212.90 136.75 212.37 136.82
  L 197.21 138.83
  Q 196.48 138.93 196.49 138.20
  L 196.50 132.50
  A 0.25 0.24 1.1 0 0 196.25 132.25
  L 192.00 132.25
  A 0.25 0.25 0.0 0 0 191.75 132.50
  L 191.75 139.06
  A 0.63 0.62 -3.1 0 1 191.19 139.68
  L 185.61 140.36
  Q 185.08 140.43 185.14 140.96
  L 185.54 144.31
  Q 185.60 144.77 186.06 144.70
  L 190.95 143.99
  Q 191.48 143.91 191.49 144.44
  Q 191.57 148.23 191.45 152.09
  C 191.32 156.37 192.84 160.26 197.64 160.40
  Q 204.82 160.61 214.01 160.47
  A 0.25 0.25 0.0 0 0 214.26 160.22
  L 214.25 156.50
  A 0.25 0.25 0.0 0 0 214.00 156.25
  L 199.00 156.25
  A 2.75 2.74 0.1 0 1 196.25 153.50
  L 196.25 143.74
  A 0.61 0.60 86.2 0 1 196.77 143.14
  L 207.57 141.62
  Q 208.46 141.49 207.93 142.21
  Z
  M 108.79 145.51
  C 108.94 154.59 101.25 156.28 93.93 157.00
  Q 93.49 157.04 93.60 157.47
  L 94.45 160.83
  Q 94.56 161.25 95.00 161.23
  C 101.54 160.84 109.26 159.02 112.42 152.79
  Q 113.97 149.75 113.80 143.95
  Q 113.64 138.41 113.78 133.54
  Q 113.79 133.00 113.25 133.00
  L 109.23 133.01
  Q 108.77 133.01 108.77 133.47
  Q 108.70 139.56 108.79 145.51
  Z
  M 257.72 132.83
  A 0.33 0.33 0.0 0 0 257.31 133.01
  L 255.79 136.26
  A 0.33 0.33 0.0 0 0 255.98 136.71
  L 268.79 141.16
  A 0.33 0.33 0.0 0 0 269.18 141.02
  L 271.18 137.78
  A 0.33 0.33 0.0 0 0 271.01 137.30
  L 257.72 132.83
  Z
  M 95.9754 133.9857
  A 0.49 0.49 0.0 0 0 95.4845 133.4965
  L 91.4845 133.5035
  A 0.49 0.49 0.0 0 0 90.9954 133.9944
  L 91.0246 150.7743
  A 0.49 0.49 0.0 0 0 91.5155 151.2635
  L 95.5155 151.2565
  A 0.49 0.49 0.0 0 0 96.0046 150.7656
  L 95.9754 133.9857
  Z
  M 322.64 133.71
  A 0.33 0.33 0.0 0 0 322.21 133.82
  L 320.04 137.07
  A 0.33 0.33 0.0 0 0 320.15 137.54
  L 332.18 144.17
  A 0.33 0.33 0.0 0 0 332.60 144.08
  L 335.15 140.75
  A 0.33 0.33 0.0 0 0 335.04 140.26
  L 322.64 133.71
  Z
  M 147.00 134.56
  A 0.31 0.31 0.0 0 0 146.69 134.25
  L 122.81 134.25
  A 0.31 0.31 0.0 0 0 122.50 134.56
  L 122.50 137.94
  A 0.31 0.31 0.0 0 0 122.81 138.25
  L 146.69 138.25
  A 0.31 0.31 0.0 0 0 147.00 137.94
  L 147.00 134.56
  Z
  M 305.43 150.75
  A 0.32 0.32 0.0 0 1 305.75 151.07
  L 305.75 156.68
  A 0.32 0.32 0.0 0 1 305.43 157.00
  L 288.07 157.00
  A 0.32 0.32 0.0 0 0 287.75 157.32
  L 287.74 160.18
  A 0.32 0.32 0.0 0 0 288.06 160.50
  L 309.68 160.50
  A 0.32 0.32 0.0 0 0 310.00 160.18
  L 309.99 139.07
  A 0.32 0.32 0.0 0 0 309.67 138.75
  L 288.58 138.75
  A 0.32 0.32 0.0 0 0 288.26 139.07
  L 288.24 141.93
  A 0.32 0.32 0.0 0 0 288.56 142.25
  L 305.43 142.25
  A 0.32 0.32 0.0 0 1 305.75 142.57
  L 305.75 146.92
  A 0.32 0.32 0.0 0 1 305.43 147.24
  L 288.58 147.25
  A 0.32 0.32 0.0 0 0 288.26 147.57
  L 288.25 150.43
  A 0.32 0.32 0.0 0 0 288.57 150.75
  L 305.43 150.75
  Z
  M 265.66 149.17
  A 0.34 0.34 0.0 0 0 266.07 149.02
  L 267.94 145.75
  A 0.34 0.34 0.0 0 0 267.75 145.26
  L 254.58 140.78
  A 0.34 0.34 0.0 0 0 254.17 140.95
  L 252.52 144.21
  A 0.34 0.34 0.0 0 0 252.71 144.69
  L 265.66 149.17
  Z
  M 142.95 146.38
  C 140.66 154.97 133.13 156.61 125.03 156.95
  Q 124.45 156.98 124.58 157.55
  L 125.33 160.75
  Q 125.45 161.24 125.95 161.22
  C 138.16 160.84 147.65 156.40 148.26 142.33
  Q 148.28 141.75 147.70 141.75
  L 121.75 141.75
  A 0.25 0.25 0.0 0 0 121.50 142.00
  L 121.49 145.74
  A 0.25 0.25 0.0 0 0 121.74 145.99
  L 142.67 146.01
  A 0.29 0.29 0.0 0 1 142.95 146.38
  Z
  M 321.26 160.69
  C 332.57 159.94 342.90 154.88 348.33 144.58
  Q 348.47 144.31 348.22 144.15
  L 344.84 141.90
  A 0.24 0.24 0.0 0 0 344.49 141.98
  Q 336.86 155.50 320.30 156.39
  Q 320.07 156.40 320.12 156.63
  L 320.98 160.47
  Q 321.03 160.70 321.26 160.69
  Z
  M 255.49 160.95
  C 266.92 159.89 276.86 154.90 282.36 144.52
  Q 282.49 144.26 282.23 144.12
  L 278.75 142.37
  Q 278.51 142.25 278.37 142.47
  C 275.51 146.96 272.13 150.74 267.51 153.06
  Q 261.75 155.94 254.59 156.64
  A 0.51 0.51 0.0 0 0 254.14 157.26
  L 254.93 160.55
  Q 255.04 160.99 255.49 160.95
  Z
  M 248.75 145.55
  A 0.31 0.31 0.0 0 0 248.44 145.24
  L 219.56 145.24
  A 0.31 0.31 0.0 0 0 219.25 145.55
  L 219.25 149.19
  A 0.31 0.31 0.0 0 0 219.56 149.50
  L 248.44 149.50
  A 0.31 0.31 0.0 0 0 248.75 149.19
  L 248.75 145.55
  Z"
/>
<path fill="#dc5519" d="
  M 225.27 45.81
  Q 224.94 44.76 223.68 44.72
  A 1.36 1.34 20.8 0 0 222.64 45.18
  Q 213.60 55.64 209.90 67.56
  Q 205.37 82.16 206.08 96.85
  Q 206.30 101.23 207.39 105.35
  Q 207.59 106.13 206.80 105.97
  Q 200.43 104.71 195.47 101.94
  Q 193.62 100.90 193.98 98.75
  Q 195.06 92.29 197.38 85.97
  A 2.99 2.97 35.0 0 0 196.85 83.01
  Q 195.36 81.25 194.12 79.19
  Q 184.12 62.58 195.16 47.02
  C 202.80 36.23 215.49 30.43 228.32 27.29
  Q 233.72 25.97 239.49 25.92
  C 241.66 25.90 242.66 27.90 242.76 29.77
  Q 243.31 40.50 244.55 48.08
  Q 246.00 56.96 245.41 61.70
  C 243.49 77.32 230.36 89.12 214.77 90.91
  Q 214.24 90.97 214.23 90.43
  C 214.08 75.22 216.87 59.50 225.15 46.68
  A 1.07 1.03 53.9 0 0 225.27 45.81
  Z"
/>
<rect fill="#dc5519" x="-1.23" y="-2.72" transform="translate(214.51,133.12) rotate(-24.6)" width="2.46" height="5.44" rx="0.26"/>
<rect fill="#dc5519" x="-1.25" y="-2.72" transform="translate(209.50,133.58) rotate(-24.4)" width="2.50" height="5.44" rx="0.46"/>
<path fill="#dc5519" d="
  M 175.55 139.75
  L 166.43 139.75
  Q 165.81 139.75 165.47 140.27
  Q 161.44 146.39 155.18 150.12
  Q 154.93 150.27 154.75 150.03
  L 152.46 147.03
  A 0.28 0.28 0.0 0 1 152.53 146.62
  Q 160.88 141.31 163.94 131.99
  Q 164.02 131.75 164.27 131.78
  L 168.86 132.35
  Q 169.02 132.37 168.96 132.52
  L 168.11 134.88
  Q 167.88 135.50 168.55 135.50
  L 181.04 135.50
  Q 181.66 135.50 181.65 136.11
  Q 181.54 151.49 169.23 157.69
  Q 164.81 159.92 159.59 161.13
  Q 159.09 161.25 158.91 160.77
  L 157.61 157.42
  Q 157.46 157.05 157.85 156.97
  C 167.31 154.90 173.99 150.23 176.08 140.41
  Q 176.22 139.75 175.55 139.75
  Z"
/>
<path fill="#dc5519" d="
  M 207.57 141.62
  L 196.77 143.14
  A 0.61 0.60 86.2 0 0 196.25 143.74
  L 196.25 153.50
  A 2.75 2.74 0.1 0 0 199.00 156.25
  L 214.00 156.25
  A 0.25 0.25 0.0 0 1 214.25 156.50
  L 214.26 160.22
  A 0.25 0.25 0.0 0 1 214.01 160.47
  Q 204.82 160.61 197.64 160.40
  C 192.84 160.26 191.32 156.37 191.45 152.09
  Q 191.57 148.23 191.49 144.44
  Q 191.48 143.91 190.95 143.99
  L 186.06 144.70
  Q 185.60 144.77 185.54 144.31
  L 185.14 140.96
  Q 185.08 140.43 185.61 140.36
  L 191.19 139.68
  A 0.63 0.62 -3.1 0 0 191.75 139.06
  L 191.75 132.50
  A 0.25 0.25 0.0 0 1 192.00 132.25
  L 196.25 132.25
  A 0.25 0.24 1.1 0 1 196.50 132.50
  L 196.49 138.20
  Q 196.48 138.93 197.21 138.83
  L 212.37 136.82
  Q 212.90 136.75 213.28 137.13
  L 214.80 138.66
  Q 215.27 139.14 214.96 139.72
  Q 211.54 146.24 205.64 151.08
  A 0.91 0.91 0.0 0 1 204.43 151.02
  L 202.28 148.92
  Q 201.81 148.45 202.33 148.04
  Q 205.47 145.54 207.93 142.21
  Q 208.46 141.49 207.57 141.62
  Z"
/>
<path fill="#dc5519" d="
  M 93.93 157.00
  C 101.25 156.28 108.94 154.59 108.79 145.51
  Q 108.70 139.56 108.77 133.47
  Q 108.77 133.01 109.23 133.01
  L 113.25 133.00
  Q 113.79 133.00 113.78 133.54
  Q 113.64 138.41 113.80 143.95
  Q 113.97 149.75 112.42 152.79
  C 109.26 159.02 101.54 160.84 95.00 161.23
  Q 94.56 161.25 94.45 160.83
  L 93.60 157.47
  Q 93.49 157.04 93.93 157.00
  Z"
/>
<path fill="#dc5519" d="
  M 257.72 132.83
  L 271.01 137.30
  A 0.33 0.33 0.0 0 1 271.18 137.78
  L 269.18 141.02
  A 0.33 0.33 0.0 0 1 268.79 141.16
  L 255.98 136.71
  A 0.33 0.33 0.0 0 1 255.79 136.26
  L 257.31 133.01
  A 0.33 0.33 0.0 0 1 257.72 132.83
  Z"
/>
<rect fill="#dc5519" x="-2.49" y="-8.88" transform="translate(93.50,142.38) rotate(-0.1)" width="4.98" height="17.76" rx="0.49"/>
<path fill="#dc5519" d="
  M 322.64 133.71
  L 335.04 140.26
  A 0.33 0.33 0.0 0 1 335.15 140.75
  L 332.60 144.08
  A 0.33 0.33 0.0 0 1 332.18 144.17
  L 320.15 137.54
  A 0.33 0.33 0.0 0 1 320.04 137.07
  L 322.21 133.82
  A 0.33 0.33 0.0 0 1 322.64 133.71
  Z"
/>
<rect fill="#dc5519" x="122.50" y="134.25" width="24.50" height="4.00" rx="0.31"/>
<path fill="#dc5519" d="
  M 305.43 150.75
  L 288.57 150.75
  A 0.32 0.32 0.0 0 1 288.25 150.43
  L 288.26 147.57
  A 0.32 0.32 0.0 0 1 288.58 147.25
  L 305.43 147.24
  A 0.32 0.32 0.0 0 0 305.75 146.92
  L 305.75 142.57
  A 0.32 0.32 0.0 0 0 305.43 142.25
  L 288.56 142.25
  A 0.32 0.32 0.0 0 1 288.24 141.93
  L 288.26 139.07
  A 0.32 0.32 0.0 0 1 288.58 138.75
  L 309.67 138.75
  A 0.32 0.32 0.0 0 1 309.99 139.07
  L 310.00 160.18
  A 0.32 0.32 0.0 0 1 309.68 160.50
  L 288.06 160.50
  A 0.32 0.32 0.0 0 1 287.74 160.18
  L 287.75 157.32
  A 0.32 0.32 0.0 0 1 288.07 157.00
  L 305.43 157.00
  A 0.32 0.32 0.0 0 0 305.75 156.68
  L 305.75 151.07
  A 0.32 0.32 0.0 0 0 305.43 150.75
  Z"
/>
<path fill="#dc5519" d="
  M 265.66 149.17
  L 252.71 144.69
  A 0.34 0.34 0.0 0 1 252.52 144.21
  L 254.17 140.95
  A 0.34 0.34 0.0 0 1 254.58 140.78
  L 267.75 145.26
  A 0.34 0.34 0.0 0 1 267.94 145.75
  L 266.07 149.02
  A 0.34 0.34 0.0 0 1 265.66 149.17
  Z"
/>
<path fill="#dc5519" d="
  M 142.95 146.38
  A 0.29 0.29 0.0 0 0 142.67 146.01
  L 121.74 145.99
  A 0.25 0.25 0.0 0 1 121.49 145.74
  L 121.50 142.00
  A 0.25 0.25 0.0 0 1 121.75 141.75
  L 147.70 141.75
  Q 148.28 141.75 148.26 142.33
  C 147.65 156.40 138.16 160.84 125.95 161.22
  Q 125.45 161.24 125.33 160.75
  L 124.58 157.55
  Q 124.45 156.98 125.03 156.95
  C 133.13 156.61 140.66 154.97 142.95 146.38
  Z"
/>
<path fill="#dc5519" d="
  M 348.33 144.58
  C 342.90 154.88 332.57 159.94 321.26 160.69
  Q 321.03 160.70 320.98 160.47
  L 320.12 156.63
  Q 320.07 156.40 320.30 156.39
  Q 336.86 155.50 344.49 141.98
  A 0.24 0.24 0.0 0 1 344.84 141.90
  L 348.22 144.15
  Q 348.47 144.31 348.33 144.58
  Z"
/>
<path fill="#dc5519" d="
  M 282.36 144.52
  C 276.86 154.90 266.92 159.89 255.49 160.95
  Q 255.04 160.99 254.93 160.55
  L 254.14 157.26
  A 0.51 0.51 0.0 0 1 254.59 156.64
  Q 261.75 155.94 267.51 153.06
  C 272.13 150.74 275.51 146.96 278.37 142.47
  Q 278.51 142.25 278.75 142.37
  L 282.23 144.12
  Q 282.49 144.26 282.36 144.52
  Z"
/>
<rect fill="#dc5519" x="219.25" y="145.24" width="29.50" height="4.26" rx="0.31"/>
</svg>
