<svg preserveAspectRatio="xMinYMid" width="90" height="142" id="レイヤー_1" data-name="レイヤー 1" xmlns="http://www.w3.org/2000/svg" viewBox="0 0 90 142"><defs><style>.cls-1{fill:#84d8d8;}</style></defs><path id="パス_2455" data-name="パス 2455" class="cls-1" d="M83.24,20.1c.15,1-2,5.46-5.3,7.1a19.67,19.67,0,0,0-5.16,3.64A88.65,88.65,0,0,1,69,46.67c1.69-2.58,3.84-5.34,5.83-6.54,8-4.84,14.85-2.51,15.12,1.35s-6.42,5.31-11.44,5.71c-4.59.37-9.15,3.17-11.29,4.47a135.31,135.31,0,0,1-10.79,21.9,12.19,12.19,0,0,1,2.68-1.62c9.27-3.75,16-.14,15.62,4s-7.64,4.53-13,4.1c-4-.31-8.21,1.09-11,2.16-.62.88-1.23,1.75-1.87,2.62a135.82,135.82,0,0,1-12.7,14.73c2.78-1.61,6-3.12,8.37-3.31,9.92-.79,15.17,4.71,13.53,8.55s-8.62,2-13.53,0c-4.42-1.82-10-1.36-12.65-1.14a104.54,104.54,0,0,1-11.23,9c-1.79,1.25-3.65,2.43-5.52,3.55a20.23,20.23,0,0,1,7.93-1.62c6.41.16,16.27,4.92,15.47,9.09s-8.35,2.24-13.93-1c-4.83-2.77-11.57-3.94-13.31-4.21a29.54,29.54,0,0,0-6.52,5.37,15.22,15.22,0,0,0-2.55,3.91,11.45,11.45,0,0,0-.69,2.2,10.37,10.37,0,0,0-.19,2.29A9.36,9.36,0,0,0,1.68,134c1.57,2.13,4.52,5.07,7.91,3.06,3.77-2.24,5.12-.6,5.16.51s-3,5.28-7.92,4.31a5.55,5.55,0,0,1-1.59-.6.64.64,0,0,1-.31-.11A12.4,12.4,0,0,1,0,132.3a12.19,12.19,0,0,1,.14-2.63,14,14,0,0,1,.73-2.52,17,17,0,0,1,2.71-4.39,27.55,27.55,0,0,1,4-3.76c.28-1.33,1-5.8-1.44-8-2.62-2.41-4.14-5-3.72-6.13s5-2.39,7.72,1.77c3.12,4.81,0,9.66-1.7,11.74,1-.71,2-1.38,3-2,2.85-1.69,5.58-3.39,8.23-5.3q2.74-2,5.37-4.1c-1.07-2.54-3.94-9.17-5.74-11.77-3.15-4.56-4-8.89-1.67-10.62S24,85.84,26.46,92c1.8,4.52.39,11-.48,14.14A124.7,124.7,0,0,0,40.75,91.56c-.47-2.59-2.11-11.42-3.53-15C34.87,70.8,35,65.77,38,64.42s6.91,2.57,8.17,11.7c.64,4.61-1.53,9.7-3.28,12.92q2.24-2.72,4.32-5.55a144.4,144.4,0,0,0,12.49-20c-1-2.67-3.07-7.78-4.45-10.33-2.68-5-2.83-11.06-.26-12.55s5.38,1.27,7.42,9.3a19.63,19.63,0,0,1,0,8q2-4.24,3.61-8.6a103.28,103.28,0,0,0,3.32-10.46C66,31.16,58.62,26.47,61.84,23.48c3-2.77,7.51,5.44,8,13.33.49-2.1.91-4.23,1.22-6.36a52.41,52.41,0,0,0,.59-9.69q-.06-1.46-.24-2.88c-2.13-4.46-5.14-7.52-9.33-8.29-5-.91-8.39-2.21-8.84-4.31S55.27.45,59.39,0c6.23-.63,11,6.55,12.62,13.65a33.71,33.71,0,0,1,1.16,7,49.78,49.78,0,0,1-.06,6.69,16.46,16.46,0,0,1,2.08-4C79.33,18,83.08,19.14,83.24,20.1Z"/></svg>