<svg preserveAspectRatio="xMinYMid" xmlns="http://www.w3.org/2000/svg" width="90" height="142">
  <path id="パス_2455" data-name="パス 2455" d="M768.539,173.768a16.308,16.308,0,0,1,2.082,3.964,48.729,48.729,0,0,1-.059-6.689,33.079,33.079,0,0,1,1.159-6.989c1.641-7.1,6.387-14.274,12.624-13.647,4.113.412,6.584,3.152,6.129,5.245s-3.874,3.394-8.848,4.31c-4.186.769-7.2,3.822-9.33,8.283q-.171,1.433-.232,2.879a51.994,51.994,0,0,0,.589,9.69c.312,2.138.728,4.261,1.217,6.369.509-7.89,5.053-16.1,8.025-13.337,3.217,2.994-4.145,7.681-7.529,15.357a102.047,102.047,0,0,0,3.327,10.453q1.647,4.365,3.608,8.6a19.63,19.63,0,0,1,.035-7.967c2.047-8.029,4.851-10.789,7.423-9.3s2.419,7.593-.263,12.552c-1.379,2.547-3.415,7.66-4.449,10.328A145.2,145.2,0,0,0,796.54,233.86q2.09,2.827,4.322,5.549c-1.748-3.217-3.919-8.313-3.281-12.917,1.263-9.137,5.154-13.045,8.17-11.7s3.108,6.376.763,12.189c-1.424,3.524-3.065,12.359-3.529,14.951A124.572,124.572,0,0,0,817.752,256.5c-.872-3.13-2.279-9.625-.483-14.143,2.442-6.148,6.519-9.157,8.879-7.433s1.48,6.06-1.669,10.617c-1.8,2.6-4.668,9.229-5.741,11.769q2.623,2.129,5.368,4.1c2.656,1.91,5.384,3.605,8.236,5.3,1.013.622,2.011,1.285,2.977,2-1.707-2.08-4.82-6.928-1.7-11.744,2.7-4.16,7.3-2.92,7.72-1.771s-1.1,3.724-3.72,6.135c-2.438,2.243-1.719,6.71-1.437,8.042a26.968,26.968,0,0,1,3.948,3.759,16.8,16.8,0,0,1,2.708,4.391,13.164,13.164,0,0,1,.729,2.518,12.059,12.059,0,0,1,.148,2.63,12.423,12.423,0,0,1-4.913,8.847.583.583,0,0,1-.307.109,5.3,5.3,0,0,1-1.59.6c-4.883.974-7.97-3.2-7.929-4.311s1.394-2.751,5.162-.509c3.389,2.013,6.347-.927,7.914-3.053a9.358,9.358,0,0,0,.255-1.755,10.544,10.544,0,0,0-.183-2.285,11.707,11.707,0,0,0-.693-2.2,15.235,15.235,0,0,0-2.549-3.912,29.607,29.607,0,0,0-6.519-5.374c-1.746.269-8.487,1.446-13.311,4.215-5.58,3.209-13.133,5.132-13.931.963s9.057-8.927,15.466-9.087a20.065,20.065,0,0,1,7.935,1.623c-1.872-1.125-3.736-2.3-5.524-3.549A105.394,105.394,0,0,1,811.767,254c-2.7-.217-8.228-.678-12.648,1.143-4.912,2.023-11.894,3.841-13.531,0s3.616-9.347,13.537-8.554c2.366.19,5.581,1.7,8.362,3.31a136.69,136.69,0,0,1-12.7-14.734c-.635-.862-1.248-1.741-1.866-2.617-2.766-1.071-7-2.471-10.983-2.156-5.335.423-12.594.023-12.98-4.1s6.35-7.737,15.622-3.979a12.122,12.122,0,0,1,2.683,1.618,134.838,134.838,0,0,1-10.79-21.905c-2.144-1.292-6.7-4.094-11.291-4.463-5.021-.4-11.708-1.857-11.441-5.715s7.072-6.193,15.121-1.345c1.989,1.2,4.139,3.954,5.827,6.539a88.845,88.845,0,0,1-3.734-15.837,20.123,20.123,0,0,0-5.16-3.635c-3.317-1.642-5.452-6.138-5.3-7.1S764.4,168.315,768.539,173.768Z" transform="translate(-753.735 -150.369)" fill="#84d8d8"/>
</svg>
