<?xml version="1.0" encoding="utf-8"?>
<!-- Generator: Adobe Illustrator 25.2.1, SVG Export Plug-In . SVG Version: 6.00 Build 0)  -->
<svg version="1.1" id="装飾" xmlns="http://www.w3.org/2000/svg" xmlns:xlink="http://www.w3.org/1999/xlink" x="0px" y="0px"
	 viewBox="0 0 209 32" style="enable-background:new 0 0 209 32;" xml:space="preserve">
<style type="text/css">
	.st0{fill:#E3CFB0;}
	.st1{fill:#F2B0B0;}
</style>
<g>
	<path class="st0" d="M208.9,13.4c-0.2-1.4-1-2.7-2.1-3.6c-1.1-0.9-2.4-1.5-3.7-1.7c-1.5-0.2-3-0.2-4.5,0.1c-0.3,0-0.7-0.1-1-0.1
		c-1.4-0.1-2.9,0-4.3,0.3c-1.4,0.3-2.8,0.7-4.1,1.2c-2.6,1-5.1,2.3-7.5,3.8c-1.2,0.7-2.3,1.6-3.4,2.3c-1.1,0.7-2.2,1.4-3.4,1.9
		c-2.3,1.1-4.9,1.3-7.4,0.7c-2.5-0.8-4.4-2.6-5.3-5.1c-0.5-1.2-0.5-2.5,0-3.8c0.6-1.2,1.7-2.1,3-2.4c-0.7,0.1-1.4,0.3-2,0.6
		c-0.6,0.4-1.2,0.9-1.5,1.5c-0.7,1.3-0.9,2.9-0.5,4.3c0.4,1.6,1.2,3,2.3,4.1c1,2.3,2.8,4.3,5,5.5c1.2,0.6,2.6,0.9,4,0.9
		c1.4,0,2.7-0.2,4-0.7c2.5-0.9,4.9-2.1,7-3.6c2.1-1.5,4.2-3.1,6.1-4.8c1.9-1.6,4-3,6.2-4c1-0.5,2.1-0.9,3.2-1.1
		c2,0.3,3.8,1.2,5.2,2.8c1.7,2.1,2.2,5,1.3,7.6c1.3-2.6,1.1-5.7-0.5-8.2c-0.7-1-1.5-1.8-2.5-2.4c0.1,0,0.2,0,0.2,0
		c1.2,0.1,2.3,0.5,3.2,1.2c1,0.7,1.7,1.7,2,2.8c0.3,1.2,0.2,2.5-0.3,3.6c-0.5,1.2-1.2,2.3-2.2,3.1c1.1-0.8,2-1.8,2.6-2.9
		C208.9,16.2,209.1,14.8,208.9,13.4z M188.4,13.3l-3,2.4c-1,0.8-2,1.5-3,2.3c-2,1.5-4.2,2.7-6.5,3.6c-2.2,1-4.6,1.1-6.9,0.4
		c-2.1-0.9-3.8-2.3-5.2-4.1c0.9,0.8,1.9,1.5,3.1,1.9c2.8,0.9,5.9,0.8,8.7-0.4c1.3-0.5,2.6-1.2,3.8-2c1.2-0.8,2.2-1.5,3.4-2.2
		c2.3-1.4,4.6-2.7,7.1-3.7c0.8-0.4,1.6-0.6,2.5-0.9C191,11.4,189.7,12.2,188.4,13.3z"/>
	<path class="st0" d="M47.3,9.1c-0.4-0.6-0.9-1.2-1.5-1.5c-0.6-0.3-1.3-0.5-2-0.6c1.3,0.3,2.4,1.2,3,2.4c0.5,1.2,0.5,2.5,0,3.8
		c-0.9,2.4-2.8,4.3-5.3,5.1c-2.5,0.7-5.1,0.4-7.4-0.7c-1.2-0.5-2.3-1.2-3.4-1.9c-1.1-0.7-2.3-1.6-3.4-2.3c-2.4-1.5-4.9-2.8-7.5-3.8
		c-1.3-0.5-2.7-0.9-4.1-1.2c-1.4-0.3-2.8-0.4-4.3-0.3c-0.3,0-0.7,0-1,0.1c-1.5-0.3-3-0.3-4.5-0.1C4.5,8.3,3.3,8.9,2.2,9.8
		c-1.1,0.9-1.8,2.2-2.1,3.6c-0.2,1.4,0,2.8,0.7,4c0.6,1.2,1.5,2.2,2.6,2.9c-0.9-0.9-1.7-2-2.2-3.1c-0.5-1.1-0.6-2.4-0.3-3.6
		c0.3-1.1,1-2.1,2-2.8c1-0.7,2.1-1.1,3.2-1.2c0.1,0,0.2,0,0.2,0c-1,0.6-1.9,1.4-2.5,2.4c-1.6,2.4-1.8,5.6-0.5,8.2
		c-0.9-2.6-0.4-5.4,1.3-7.6C6,11,7.9,10,9.9,9.8c1.1,0.2,2.2,0.6,3.2,1.1c2.2,1,4.3,2.4,6.2,4c1.9,1.7,4,3.3,6.1,4.8
		c2.2,1.5,4.5,2.8,7,3.6c1.3,0.4,2.6,0.7,4,0.7c1.4,0,2.7-0.3,4-0.9c2.2-1.2,4-3.2,5-5.5c1.1-1.1,1.9-2.5,2.3-4.1
		C48.2,12,48,10.5,47.3,9.1z M40,22c-2.3,0.7-4.7,0.6-6.9-0.4c-2.3-0.9-4.5-2.2-6.5-3.6c-1-0.7-2-1.5-3-2.3l-3-2.4
		c-1.2-1-2.6-1.9-3.9-2.7c0.8,0.2,1.6,0.5,2.4,0.9c2.5,1,4.8,2.3,7.1,3.7c1.2,0.7,2.2,1.5,3.4,2.2c1.2,0.8,2.5,1.5,3.8,2
		c2.7,1.2,5.8,1.3,8.7,0.4c1.2-0.4,2.2-1.1,3.1-1.9C43.8,19.7,42,21.1,40,22z"/>
	<g>
		<path class="st1" d="M83.6,2.1c-3.5,3.3-2.3,13.3,4.7,13.3c6,0,13-3.2,13-3.2V9.7c0,0-6.6,3.6-13.4,2.3c-5-0.9-5.2-6.2-1.9-8
			c3.3-1.8,15.3,4.7,15.3,4.7V5.9C90.4-1.9,86.6-0.7,83.6,2.1z"/>
		<path class="st1" d="M72,26.2c3.8,0.8,7.5,2.5,6.2,5.8c10.5-1.7,19.3-8.9,23-18.9c-1.2,0.7-2.5,1.1-3.9,1.4
			C92.5,22.9,77.1,26.3,72,26.2z"/>
		<path class="st1" d="M125.4,2.1c-3-2.8-6.8-4-17.7,3.8v2.9c0,0,11.9-6.5,15.3-4.7s3.1,7.1-1.9,8c-6.8,1.2-13.4-2.3-13.4-2.3v2.5
			c0,0,7,3.2,13,3.2C127.7,15.4,128.9,5.4,125.4,2.1z"/>
		<path class="st1" d="M137,26.2c-5.1,0.1-20.5-3.3-25.4-11.7c-1.4-0.3-2.7-0.7-3.9-1.4c3.8,10,12.5,17.2,23,18.9
			C129.5,28.7,133.2,27.1,137,26.2z"/>
		<rect x="102.1" y="5.6" class="st1" width="4.9" height="7.7"/>
	</g>
</g>
</svg>
