<?xml version="1.0" encoding="UTF-8" standalone="no"?>
<!DOCTYPE svg PUBLIC "-//W3C//DTD SVG 1.1//EN" "http://www.w3.org/Graphics/SVG/1.1/DTD/svg11.dtd">
<svg xmlns="http://www.w3.org/2000/svg" version="1.1" viewBox="0.00 0.00 435.00 195.00">
<g stroke-width="2.00" fill="none" stroke-linecap="butt">
<path stroke="#dedede" vector-effect="non-scaling-stroke" d="
  M 430.50 31.02
  A 26.02 26.02 0.0 0 0 404.48 5.00
  L 30.52 5.00
  A 26.02 26.02 0.0 0 0 4.50 31.02
  L 4.50 155.98
  A 26.02 26.02 0.0 0 0 30.52 182.00
  L 404.48 182.00
  A 26.02 26.02 0.0 0 0 430.50 155.98
  L 430.50 31.02"
/>
<path stroke="#ffcc80" vector-effect="non-scaling-stroke" d="
  M 217.89 57.25
  A 0.29 0.28 -46.0 0 1 217.42 57.26
  L 200.43 32.06
  Q 197.86 28.24 196.18 32.52
  Q 195.86 33.34 195.35 34.64
  Q 193.60 39.08 196.18 43.09
  L 210.96 66.08
  Q 211.33 66.66 210.95 67.23
  Q 209.15 69.99 207.43 72.37
  C 205.68 74.81 201.91 74.61 199.29 74.49
  C 192.95 74.17 187.14 78.64 185.82 84.77
  C 184.27 91.99 187.88 100.34 195.58 101.81
  C 204.38 103.48 211.71 97.31 211.97 88.39
  C 212.10 83.91 214.43 80.23 217.14 76.62
  Q 217.56 76.06 217.95 76.64
  C 220.29 80.13 222.99 83.67 222.97 88.09
  C 222.94 95.17 227.76 101.97 235.36 102.05
  Q 242.23 102.13 246.52 97.16
  C 253.72 88.81 247.41 73.81 236.20 74.47
  C 233.01 74.66 229.26 74.72 227.26 71.76
  Q 225.64 69.35 224.05 66.96
  Q 223.76 66.53 224.04 66.09
  Q 230.90 55.30 238.12 44.22
  Q 240.46 40.63 240.53 38.23
  Q 240.68 33.15 236.62 30.13
  A 0.60 0.59 -54.8 0 0 235.77 30.28
  L 217.89 57.25"
/>
<path stroke="#ffcc80" vector-effect="non-scaling-stroke" d="
  M 248.2624 130.7341
  A 0.63 0.63 0.0 0 0 247.4099 130.4751
  L 246.3866 131.0214
  A 0.63 0.63 0.0 0 0 246.1276 131.8739
  L 248.0776 135.5259
  A 0.63 0.63 0.0 0 0 248.9301 135.7849
  L 249.9534 135.2386
  A 0.63 0.63 0.0 0 0 250.2124 134.3861
  L 248.2624 130.7341"
/>
<path stroke="#ffcc80" vector-effect="non-scaling-stroke" d="
  M 242.51 135.75
  L 234.03 135.74
  Q 233.30 135.74 233.57 135.06
  L 234.32 133.18
  Q 234.56 132.58 233.92 132.51
  L 230.36 132.13
  Q 229.46 132.04 229.16 132.90
  Q 226.28 141.39 217.95 146.64
  Q 217.79 146.74 217.90 146.90
  L 220.22 150.04
  Q 220.38 150.26 220.61 150.12
  Q 226.91 146.45 230.96 140.43
  Q 231.25 139.99 231.78 139.99
  L 241.28 140.01
  A 0.45 0.45 0.0 0 1 241.72 140.56
  Q 238.45 154.37 223.21 156.91
  Q 223.02 156.94 223.08 157.12
  L 224.37 160.87
  Q 224.50 161.22 224.86 161.14
  Q 235.05 158.73 239.91 153.87
  Q 246.15 147.62 247.28 136.98
  Q 247.34 136.43 246.92 136.09
  Q 246.54 135.79 246.09 135.61
  Q 245.68 135.45 245.48 135.05
  L 243.70 131.48
  Q 243.30 130.66 242.48 131.08
  L 241.68 131.48
  A 0.70 0.69 -28.0 0 0 241.38 132.44
  L 242.87 135.14
  Q 243.21 135.75 242.51 135.75"
/>
<path stroke="#ffcc80" vector-effect="non-scaling-stroke" d="
  M 100.11 145.61
  Q 106.88 148.09 113.24 152.19
  Q 113.73 152.51 114.10 152.05
  L 116.32 149.30
  Q 116.73 148.79 116.18 148.46
  Q 108.08 143.65 100.09 140.89
  Q 99.50 140.68 99.50 140.06
  L 99.49 132.75
  Q 99.49 132.26 99.00 132.26
  L 95.00 132.25
  Q 94.50 132.25 94.50 132.75
  L 94.50 161.00
  Q 94.50 161.25 94.75 161.25
  L 99.25 161.26
  Q 99.50 161.26 99.50 161.00
  L 99.50 146.03
  Q 99.50 145.38 100.11 145.61"
/>
<path stroke="#ffcc80" vector-effect="non-scaling-stroke" d="
  M 277.66 144.00
  L 282.26 144.00
  A 0.51 0.50 -90.0 0 0 282.76 143.49
  L 282.74 139.99
  Q 282.74 139.75 282.49 139.75
  L 277.50 139.74
  A 0.49 0.49 0.0 0 1 277.01 139.25
  L 276.98 133.11
  Q 276.98 132.74 276.61 132.74
  L 272.70 132.74
  Q 272.26 132.74 272.24 133.18
  Q 272.12 136.31 272.37 138.25
  Q 272.56 139.75 271.04 139.75
  L 263.24 139.74
  Q 262.25 139.74 262.25 138.74
  L 262.25 133.50
  A 0.25 0.25 0.0 0 0 262.00 133.25
  L 257.75 133.25
  Q 257.51 133.25 257.51 133.50
  L 257.50 139.12
  Q 257.50 139.74 256.88 139.74
  L 252.00 139.75
  A 0.25 0.25 0.0 0 0 251.75 140.00
  L 251.74 143.74
  Q 251.73 143.99 251.99 143.99
  L 257.01 144.01
  A 0.50 0.50 0.0 0 1 257.51 144.51
  L 257.50 151.25
  Q 257.49 151.75 258.00 151.75
  L 262.00 151.75
  Q 262.25 151.75 262.25 151.50
  L 262.25 144.50
  Q 262.25 144.00 262.75 144.00
  L 271.55 144.00
  Q 272.16 144.00 272.22 144.60
  C 273.17 154.60 265.72 156.74 257.68 156.99
  Q 257.22 157.01 257.30 157.45
  L 257.90 160.87
  Q 257.97 161.28 258.39 161.26
  C 268.90 160.92 277.92 157.06 276.96 144.75
  Q 276.90 144.00 277.66 144.00"
/>
<path stroke="#ffcc80" vector-effect="non-scaling-stroke" d="
  M 145.63 152.28
  Q 146.63 150.07 146.68 147.89
  Q 146.83 141.68 146.73 133.47
  Q 146.72 133.00 146.25 133.00
  L 142.24 133.01
  Q 141.76 133.01 141.76 133.50
  Q 141.73 139.22 141.79 145.30
  C 141.89 154.77 134.41 156.09 126.88 157.04
  Q 126.49 157.08 126.59 157.46
  L 127.45 160.81
  Q 127.56 161.25 128.01 161.22
  C 134.72 160.83 142.62 158.95 145.63 152.28"
/>
<path stroke="#ffcc80" vector-effect="non-scaling-stroke" d="
  M 128.9853 133.9656
  A 0.47 0.47 0.0 0 0 128.5145 133.4965
  L 124.4545 133.5036
  A 0.47 0.47 0.0 0 0 123.9853 133.9744
  L 124.0147 150.7944
  A 0.47 0.47 0.0 0 0 124.4855 151.2635
  L 128.5455 151.2564
  A 0.47 0.47 0.0 0 0 129.0147 150.7856
  L 128.9853 133.9656"
/>
<path stroke="#ffcc80" vector-effect="non-scaling-stroke" d="
  M 180.06 140.48
  L 180.53 137.64
  A 0.81 0.81 0.0 0 0 179.86 136.71
  L 179.72 136.68
  A 22.43 0.44 9.4 0 0 157.52 133.46
  L 156.93 137.03
  A 22.43 0.44 9.4 0 0 178.99 141.12
  L 179.13 141.15
  A 0.81 0.81 0.0 0 0 180.06 140.48"
/>
<path stroke="#ffcc80" vector-effect="non-scaling-stroke" d="
  M 190.63 133.70
  A 0.34 0.34 0.0 0 0 190.19 133.82
  L 188.05 137.07
  A 0.34 0.34 0.0 0 0 188.17 137.56
  L 200.18 144.18
  A 0.34 0.34 0.0 0 0 200.62 144.09
  L 203.14 140.76
  A 0.34 0.34 0.0 0 0 203.03 140.25
  L 190.63 133.70"
/>
<path stroke="#ffcc80" vector-effect="non-scaling-stroke" d="
  M 322.75 133.77
  A 0.48 0.48 0.0 0 0 322.13 133.93
  L 320.11 136.93
  A 0.48 0.48 0.0 0 0 320.28 137.62
  L 332.09 144.12
  A 0.48 0.48 0.0 0 0 332.70 143.99
  L 335.04 140.88
  A 0.48 0.48 0.0 0 0 334.88 140.17
  L 322.75 133.77"
/>
<path stroke="#ffcc80" vector-effect="non-scaling-stroke" d="
  M 312.99 136.11
  A 0.36 0.36 0.0 0 0 312.63 135.75
  L 287.11 135.75
  A 0.36 0.36 0.0 0 0 286.75 136.11
  L 286.75 159.89
  A 0.36 0.36 0.0 0 0 287.11 160.25
  L 312.63 160.25
  A 0.36 0.36 0.0 0 0 312.99 159.89
  L 312.99 136.11"
/>
<path stroke="#ffcc80" vector-effect="non-scaling-stroke" d="
  M 189.28 160.70
  C 200.64 159.88 210.74 154.97 216.34 144.58
  Q 216.49 144.30 216.23 144.13
  L 212.84 141.91
  Q 212.62 141.77 212.50 141.99
  Q 204.77 155.56 188.29 156.38
  Q 188.08 156.39 188.12 156.59
  L 188.97 160.47
  Q 189.03 160.72 189.28 160.70"
/>
<path stroke="#ffcc80" vector-effect="non-scaling-stroke" d="
  M 321.52 160.69
  C 332.87 159.75 342.93 154.85 348.37 144.48
  Q 348.47 144.29 348.30 144.18
  L 344.84 141.90
  Q 344.62 141.76 344.49 141.99
  Q 336.81 155.49 320.51 156.36
  A 0.39 0.38 -8.2 0 0 320.15 156.83
  L 320.93 160.25
  Q 321.04 160.73 321.52 160.69"
/>
<path stroke="#ffcc80" vector-effect="non-scaling-stroke" d="
  M 177.49 149.19
  L 177.94 146.50
  A 0.77 0.77 0.0 0 0 177.30 145.62
  L 158.72 142.51
  A 0.69 0.28 9.5 0 0 157.99 142.67
  L 157.38 146.32
  A 0.69 0.28 9.5 0 0 158.02 146.71
  L 176.60 149.82
  A 0.77 0.77 0.0 0 0 177.49 149.19"
/>
<path stroke="#ffcc80" vector-effect="non-scaling-stroke" d="
  M 181.57 157.88
  Q 181.73 157.52 181.35 157.40
  Q 168.34 153.53 155.41 152.74
  Q 154.89 152.71 154.79 153.21
  L 154.08 156.50
  A 0.47 0.46 -82.4 0 0 154.50 157.06
  Q 167.72 157.99 179.33 161.61
  Q 179.77 161.75 179.97 161.33
  L 181.57 157.88"
/>
<path stroke="#ffcc80" vector-effect="non-scaling-stroke" d="
  M 220.78 65.55
  A 3.13 3.13 0.0 0 0 217.65 62.42
  A 3.13 3.13 0.0 0 0 214.52 65.55
  A 3.13 3.13 0.0 0 0 217.65 68.68
  A 3.13 3.13 0.0 0 0 220.78 65.55"
/>
<path stroke="#ffcc80" vector-effect="non-scaling-stroke" d="
  M 205.10 88.38
  A 6.21 6.21 0.0 0 0 198.89 82.17
  A 6.21 6.21 0.0 0 0 192.68 88.38
  A 6.21 6.21 0.0 0 0 198.89 94.59
  A 6.21 6.21 0.0 0 0 205.10 88.38"
/>
<path stroke="#ffcc80" vector-effect="non-scaling-stroke" d="
  M 242.47 88.69
  A 6.22 6.22 0.0 0 0 236.25 82.47
  A 6.22 6.22 0.0 0 0 230.03 88.69
  A 6.22 6.22 0.0 0 0 236.25 94.91
  A 6.22 6.22 0.0 0 0 242.47 88.69"
/>
<path stroke="#ffcc80" vector-effect="non-scaling-stroke" d="
  M 307.9862 140.0958
  A 0.36 0.36 0.0 0 0 307.6256 139.7365
  L 292.1056 139.7636
  A 0.36 0.36 0.0 0 0 291.7462 140.1242
  L 291.7738 155.9042
  A 0.36 0.36 0.0 0 0 292.1344 156.2635
  L 307.6544 156.2364
  A 0.36 0.36 0.0 0 0 308.0138 155.8758
  L 307.9862 140.0958"
/>
</g>
<path fill="#bdbdbd" d="
  M 29.58 2.00
  L 405.42 2.00
  A 28.08 28.08 0.0 0 1 433.50 30.08
  L 433.50 165.92
  A 28.08 28.08 0.0 0 1 405.42 194.00
  L 29.58 194.00
  A 28.08 28.08 0.0 0 1 1.50 165.92
  L 1.50 30.08
  A 28.08 28.08 0.0 0 1 29.58 2.00
  Z
  M 430.50 31.02
  A 26.02 26.02 0.0 0 0 404.48 5.00
  L 30.52 5.00
  A 26.02 26.02 0.0 0 0 4.50 31.02
  L 4.50 155.98
  A 26.02 26.02 0.0 0 0 30.52 182.00
  L 404.48 182.00
  A 26.02 26.02 0.0 0 0 430.50 155.98
  L 430.50 31.02
  Z"
/>
<path fill="#ffffff" d="
  M 430.50 155.98
  A 26.02 26.02 0.0 0 1 404.48 182.00
  L 30.52 182.00
  A 26.02 26.02 0.0 0 1 4.50 155.98
  L 4.50 31.02
  A 26.02 26.02 0.0 0 1 30.52 5.00
  L 404.48 5.00
  A 26.02 26.02 0.0 0 1 430.50 31.02
  L 430.50 155.98
  Z
  M 217.89 57.25
  A 0.29 0.28 -46.0 0 1 217.42 57.26
  L 200.43 32.06
  Q 197.86 28.24 196.18 32.52
  Q 195.86 33.34 195.35 34.64
  Q 193.60 39.08 196.18 43.09
  L 210.96 66.08
  Q 211.33 66.66 210.95 67.23
  Q 209.15 69.99 207.43 72.37
  C 205.68 74.81 201.91 74.61 199.29 74.49
  C 192.95 74.17 187.14 78.64 185.82 84.77
  C 184.27 91.99 187.88 100.34 195.58 101.81
  C 204.38 103.48 211.71 97.31 211.97 88.39
  C 212.10 83.91 214.43 80.23 217.14 76.62
  Q 217.56 76.06 217.95 76.64
  C 220.29 80.13 222.99 83.67 222.97 88.09
  C 222.94 95.17 227.76 101.97 235.36 102.05
  Q 242.23 102.13 246.52 97.16
  C 253.72 88.81 247.41 73.81 236.20 74.47
  C 233.01 74.66 229.26 74.72 227.26 71.76
  Q 225.64 69.35 224.05 66.96
  Q 223.76 66.53 224.04 66.09
  Q 230.90 55.30 238.12 44.22
  Q 240.46 40.63 240.53 38.23
  Q 240.68 33.15 236.62 30.13
  A 0.60 0.59 -54.8 0 0 235.77 30.28
  L 217.89 57.25
  Z
  M 248.2624 130.7341
  A 0.63 0.63 0.0 0 0 247.4099 130.4751
  L 246.3866 131.0214
  A 0.63 0.63 0.0 0 0 246.1276 131.8739
  L 248.0776 135.5259
  A 0.63 0.63 0.0 0 0 248.9301 135.7849
  L 249.9534 135.2386
  A 0.63 0.63 0.0 0 0 250.2124 134.3861
  L 248.2624 130.7341
  Z
  M 242.51 135.75
  L 234.03 135.74
  Q 233.30 135.74 233.57 135.06
  L 234.32 133.18
  Q 234.56 132.58 233.92 132.51
  L 230.36 132.13
  Q 229.46 132.04 229.16 132.90
  Q 226.28 141.39 217.95 146.64
  Q 217.79 146.74 217.90 146.90
  L 220.22 150.04
  Q 220.38 150.26 220.61 150.12
  Q 226.91 146.45 230.96 140.43
  Q 231.25 139.99 231.78 139.99
  L 241.28 140.01
  A 0.45 0.45 0.0 0 1 241.72 140.56
  Q 238.45 154.37 223.21 156.91
  Q 223.02 156.94 223.08 157.12
  L 224.37 160.87
  Q 224.50 161.22 224.86 161.14
  Q 235.05 158.73 239.91 153.87
  Q 246.15 147.62 247.28 136.98
  Q 247.34 136.43 246.92 136.09
  Q 246.54 135.79 246.09 135.61
  Q 245.68 135.45 245.48 135.05
  L 243.70 131.48
  Q 243.30 130.66 242.48 131.08
  L 241.68 131.48
  A 0.70 0.69 -28.0 0 0 241.38 132.44
  L 242.87 135.14
  Q 243.21 135.75 242.51 135.75
  Z
  M 100.11 145.61
  Q 106.88 148.09 113.24 152.19
  Q 113.73 152.51 114.10 152.05
  L 116.32 149.30
  Q 116.73 148.79 116.18 148.46
  Q 108.08 143.65 100.09 140.89
  Q 99.50 140.68 99.50 140.06
  L 99.49 132.75
  Q 99.49 132.26 99.00 132.26
  L 95.00 132.25
  Q 94.50 132.25 94.50 132.75
  L 94.50 161.00
  Q 94.50 161.25 94.75 161.25
  L 99.25 161.26
  Q 99.50 161.26 99.50 161.00
  L 99.50 146.03
  Q 99.50 145.38 100.11 145.61
  Z
  M 277.66 144.00
  L 282.26 144.00
  A 0.51 0.50 -90.0 0 0 282.76 143.49
  L 282.74 139.99
  Q 282.74 139.75 282.49 139.75
  L 277.50 139.74
  A 0.49 0.49 0.0 0 1 277.01 139.25
  L 276.98 133.11
  Q 276.98 132.74 276.61 132.74
  L 272.70 132.74
  Q 272.26 132.74 272.24 133.18
  Q 272.12 136.31 272.37 138.25
  Q 272.56 139.75 271.04 139.75
  L 263.24 139.74
  Q 262.25 139.74 262.25 138.74
  L 262.25 133.50
  A 0.25 0.25 0.0 0 0 262.00 133.25
  L 257.75 133.25
  Q 257.51 133.25 257.51 133.50
  L 257.50 139.12
  Q 257.50 139.74 256.88 139.74
  L 252.00 139.75
  A 0.25 0.25 0.0 0 0 251.75 140.00
  L 251.74 143.74
  Q 251.73 143.99 251.99 143.99
  L 257.01 144.01
  A 0.50 0.50 0.0 0 1 257.51 144.51
  L 257.50 151.25
  Q 257.49 151.75 258.00 151.75
  L 262.00 151.75
  Q 262.25 151.75 262.25 151.50
  L 262.25 144.50
  Q 262.25 144.00 262.75 144.00
  L 271.55 144.00
  Q 272.16 144.00 272.22 144.60
  C 273.17 154.60 265.72 156.74 257.68 156.99
  Q 257.22 157.01 257.30 157.45
  L 257.90 160.87
  Q 257.97 161.28 258.39 161.26
  C 268.90 160.92 277.92 157.06 276.96 144.75
  Q 276.90 144.00 277.66 144.00
  Z
  M 145.63 152.28
  Q 146.63 150.07 146.68 147.89
  Q 146.83 141.68 146.73 133.47
  Q 146.72 133.00 146.25 133.00
  L 142.24 133.01
  Q 141.76 133.01 141.76 133.50
  Q 141.73 139.22 141.79 145.30
  C 141.89 154.77 134.41 156.09 126.88 157.04
  Q 126.49 157.08 126.59 157.46
  L 127.45 160.81
  Q 127.56 161.25 128.01 161.22
  C 134.72 160.83 142.62 158.95 145.63 152.28
  Z
  M 128.9853 133.9656
  A 0.47 0.47 0.0 0 0 128.5145 133.4965
  L 124.4545 133.5036
  A 0.47 0.47 0.0 0 0 123.9853 133.9744
  L 124.0147 150.7944
  A 0.47 0.47 0.0 0 0 124.4855 151.2635
  L 128.5455 151.2564
  A 0.47 0.47 0.0 0 0 129.0147 150.7856
  L 128.9853 133.9656
  Z
  M 180.06 140.48
  L 180.53 137.64
  A 0.81 0.81 0.0 0 0 179.86 136.71
  L 179.72 136.68
  A 22.43 0.44 9.4 0 0 157.52 133.46
  L 156.93 137.03
  A 22.43 0.44 9.4 0 0 178.99 141.12
  L 179.13 141.15
  A 0.81 0.81 0.0 0 0 180.06 140.48
  Z
  M 190.63 133.70
  A 0.34 0.34 0.0 0 0 190.19 133.82
  L 188.05 137.07
  A 0.34 0.34 0.0 0 0 188.17 137.56
  L 200.18 144.18
  A 0.34 0.34 0.0 0 0 200.62 144.09
  L 203.14 140.76
  A 0.34 0.34 0.0 0 0 203.03 140.25
  L 190.63 133.70
  Z
  M 322.75 133.77
  A 0.48 0.48 0.0 0 0 322.13 133.93
  L 320.11 136.93
  A 0.48 0.48 0.0 0 0 320.28 137.62
  L 332.09 144.12
  A 0.48 0.48 0.0 0 0 332.70 143.99
  L 335.04 140.88
  A 0.48 0.48 0.0 0 0 334.88 140.17
  L 322.75 133.77
  Z
  M 312.99 136.11
  A 0.36 0.36 0.0 0 0 312.63 135.75
  L 287.11 135.75
  A 0.36 0.36 0.0 0 0 286.75 136.11
  L 286.75 159.89
  A 0.36 0.36 0.0 0 0 287.11 160.25
  L 312.63 160.25
  A 0.36 0.36 0.0 0 0 312.99 159.89
  L 312.99 136.11
  Z
  M 189.28 160.70
  C 200.64 159.88 210.74 154.97 216.34 144.58
  Q 216.49 144.30 216.23 144.13
  L 212.84 141.91
  Q 212.62 141.77 212.50 141.99
  Q 204.77 155.56 188.29 156.38
  Q 188.08 156.39 188.12 156.59
  L 188.97 160.47
  Q 189.03 160.72 189.28 160.70
  Z
  M 321.52 160.69
  C 332.87 159.75 342.93 154.85 348.37 144.48
  Q 348.47 144.29 348.30 144.18
  L 344.84 141.90
  Q 344.62 141.76 344.49 141.99
  Q 336.81 155.49 320.51 156.36
  A 0.39 0.38 -8.2 0 0 320.15 156.83
  L 320.93 160.25
  Q 321.04 160.73 321.52 160.69
  Z
  M 177.49 149.19
  L 177.94 146.50
  A 0.77 0.77 0.0 0 0 177.30 145.62
  L 158.72 142.51
  A 0.69 0.28 9.5 0 0 157.99 142.67
  L 157.38 146.32
  A 0.69 0.28 9.5 0 0 158.02 146.71
  L 176.60 149.82
  A 0.77 0.77 0.0 0 0 177.49 149.19
  Z
  M 181.57 157.88
  Q 181.73 157.52 181.35 157.40
  Q 168.34 153.53 155.41 152.74
  Q 154.89 152.71 154.79 153.21
  L 154.08 156.50
  A 0.47 0.46 -82.4 0 0 154.50 157.06
  Q 167.72 157.99 179.33 161.61
  Q 179.77 161.75 179.97 161.33
  L 181.57 157.88
  Z"
/>
<path fill="#ff9900" d="
  M 217.89 57.25
  L 235.77 30.28
  A 0.60 0.59 -54.8 0 1 236.62 30.13
  Q 240.68 33.15 240.53 38.23
  Q 240.46 40.63 238.12 44.22
  Q 230.90 55.30 224.04 66.09
  Q 223.76 66.53 224.05 66.96
  Q 225.64 69.35 227.26 71.76
  C 229.26 74.72 233.01 74.66 236.20 74.47
  C 247.41 73.81 253.72 88.81 246.52 97.16
  Q 242.23 102.13 235.36 102.05
  C 227.76 101.97 222.94 95.17 222.97 88.09
  C 222.99 83.67 220.29 80.13 217.95 76.64
  Q 217.56 76.06 217.14 76.62
  C 214.43 80.23 212.10 83.91 211.97 88.39
  C 211.71 97.31 204.38 103.48 195.58 101.81
  C 187.88 100.34 184.27 91.99 185.82 84.77
  C 187.14 78.64 192.95 74.17 199.29 74.49
  C 201.91 74.61 205.68 74.81 207.43 72.37
  Q 209.15 69.99 210.95 67.23
  Q 211.33 66.66 210.96 66.08
  L 196.18 43.09
  Q 193.60 39.08 195.35 34.64
  Q 195.86 33.34 196.18 32.52
  Q 197.86 28.24 200.43 32.06
  L 217.42 57.26
  A 0.29 0.28 -46.0 0 0 217.89 57.25
  Z
  M 220.78 65.55
  A 3.13 3.13 0.0 0 0 217.65 62.42
  A 3.13 3.13 0.0 0 0 214.52 65.55
  A 3.13 3.13 0.0 0 0 217.65 68.68
  A 3.13 3.13 0.0 0 0 220.78 65.55
  Z
  M 205.10 88.38
  A 6.21 6.21 0.0 0 0 198.89 82.17
  A 6.21 6.21 0.0 0 0 192.68 88.38
  A 6.21 6.21 0.0 0 0 198.89 94.59
  A 6.21 6.21 0.0 0 0 205.10 88.38
  Z
  M 242.47 88.69
  A 6.22 6.22 0.0 0 0 236.25 82.47
  A 6.22 6.22 0.0 0 0 230.03 88.69
  A 6.22 6.22 0.0 0 0 236.25 94.91
  A 6.22 6.22 0.0 0 0 242.47 88.69
  Z"
/>
<circle fill="#ffffff" cx="217.65" cy="65.55" r="3.13"/>
<circle fill="#ffffff" cx="198.89" cy="88.38" r="6.21"/>
<circle fill="#ffffff" cx="236.25" cy="88.69" r="6.22"/>
<rect fill="#ff9900" x="-1.21" y="-2.70" transform="translate(248.17,133.13) rotate(-28.1)" width="2.42" height="5.40" rx="0.63"/>
<path fill="#ff9900" d="
  M 242.87 135.14
  L 241.38 132.44
  A 0.70 0.69 -28.0 0 1 241.68 131.48
  L 242.48 131.08
  Q 243.30 130.66 243.70 131.48
  L 245.48 135.05
  Q 245.68 135.45 246.09 135.61
  Q 246.54 135.79 246.92 136.09
  Q 247.34 136.43 247.28 136.98
  Q 246.15 147.62 239.91 153.87
  Q 235.05 158.73 224.86 161.14
  Q 224.50 161.22 224.37 160.87
  L 223.08 157.12
  Q 223.02 156.94 223.21 156.91
  Q 238.45 154.37 241.72 140.56
  A 0.45 0.45 0.0 0 0 241.28 140.01
  L 231.78 139.99
  Q 231.25 139.99 230.96 140.43
  Q 226.91 146.45 220.61 150.12
  Q 220.38 150.26 220.22 150.04
  L 217.90 146.90
  Q 217.79 146.74 217.95 146.64
  Q 226.28 141.39 229.16 132.90
  Q 229.46 132.04 230.36 132.13
  L 233.92 132.51
  Q 234.56 132.58 234.32 133.18
  L 233.57 135.06
  Q 233.30 135.74 234.03 135.74
  L 242.51 135.75
  Q 243.21 135.75 242.87 135.14
  Z"
/>
<path fill="#ff9900" d="
  M 99.50 146.03
  L 99.50 161.00
  Q 99.50 161.26 99.25 161.26
  L 94.75 161.25
  Q 94.50 161.25 94.50 161.00
  L 94.50 132.75
  Q 94.50 132.25 95.00 132.25
  L 99.00 132.26
  Q 99.49 132.26 99.49 132.75
  L 99.50 140.06
  Q 99.50 140.68 100.09 140.89
  Q 108.08 143.65 116.18 148.46
  Q 116.73 148.79 116.32 149.30
  L 114.10 152.05
  Q 113.73 152.51 113.24 152.19
  Q 106.88 148.09 100.11 145.61
  Q 99.50 145.38 99.50 146.03
  Z"
/>
<path fill="#ff9900" d="
  M 276.96 144.75
  C 277.92 157.06 268.90 160.92 258.39 161.26
  Q 257.97 161.28 257.90 160.87
  L 257.30 157.45
  Q 257.22 157.01 257.68 156.99
  C 265.72 156.74 273.17 154.60 272.22 144.60
  Q 272.16 144.00 271.55 144.00
  L 262.75 144.00
  Q 262.25 144.00 262.25 144.50
  L 262.25 151.50
  Q 262.25 151.75 262.00 151.75
  L 258.00 151.75
  Q 257.49 151.75 257.50 151.25
  L 257.51 144.51
  A 0.50 0.50 0.0 0 0 257.01 144.01
  L 251.99 143.99
  Q 251.73 143.99 251.74 143.74
  L 251.75 140.00
  A 0.25 0.25 0.0 0 1 252.00 139.75
  L 256.88 139.74
  Q 257.50 139.74 257.50 139.12
  L 257.51 133.50
  Q 257.51 133.25 257.75 133.25
  L 262.00 133.25
  A 0.25 0.25 0.0 0 1 262.25 133.50
  L 262.25 138.74
  Q 262.25 139.74 263.24 139.74
  L 271.04 139.75
  Q 272.56 139.75 272.37 138.25
  Q 272.12 136.31 272.24 133.18
  Q 272.26 132.74 272.70 132.74
  L 276.61 132.74
  Q 276.98 132.74 276.98 133.11
  L 277.01 139.25
  A 0.49 0.49 0.0 0 0 277.50 139.74
  L 282.49 139.75
  Q 282.74 139.75 282.74 139.99
  L 282.76 143.49
  A 0.51 0.50 -90.0 0 1 282.26 144.00
  L 277.66 144.00
  Q 276.90 144.00 276.96 144.75
  Z"
/>
<path fill="#ff9900" d="
  M 145.63 152.28
  C 142.62 158.95 134.72 160.83 128.01 161.22
  Q 127.56 161.25 127.45 160.81
  L 126.59 157.46
  Q 126.49 157.08 126.88 157.04
  C 134.41 156.09 141.89 154.77 141.79 145.30
  Q 141.73 139.22 141.76 133.50
  Q 141.76 133.01 142.24 133.01
  L 146.25 133.00
  Q 146.72 133.00 146.73 133.47
  Q 146.83 141.68 146.68 147.89
  Q 146.63 150.07 145.63 152.28
  Z"
/>
<rect fill="#ff9900" x="-2.50" y="-8.88" transform="translate(126.50,142.38) rotate(-0.1)" width="5.00" height="17.76" rx="0.47"/>
<path fill="#ff9900" d="
  M 180.06 140.48
  A 0.81 0.81 0.0 0 1 179.13 141.15
  L 178.99 141.12
  A 22.43 0.44 9.4 0 1 156.93 137.03
  L 157.52 133.46
  A 22.43 0.44 9.4 0 1 179.72 136.68
  L 179.86 136.71
  A 0.81 0.81 0.0 0 1 180.53 137.64
  L 180.06 140.48
  Z"
/>
<path fill="#ff9900" d="
  M 190.63 133.70
  L 203.03 140.25
  A 0.34 0.34 0.0 0 1 203.14 140.76
  L 200.62 144.09
  A 0.34 0.34 0.0 0 1 200.18 144.18
  L 188.17 137.56
  A 0.34 0.34 0.0 0 1 188.05 137.07
  L 190.19 133.82
  A 0.34 0.34 0.0 0 1 190.63 133.70
  Z"
/>
<path fill="#ff9900" d="
  M 322.75 133.77
  L 334.88 140.17
  A 0.48 0.48 0.0 0 1 335.04 140.88
  L 332.70 143.99
  A 0.48 0.48 0.0 0 1 332.09 144.12
  L 320.28 137.62
  A 0.48 0.48 0.0 0 1 320.11 136.93
  L 322.13 133.93
  A 0.48 0.48 0.0 0 1 322.75 133.77
  Z"
/>
<path fill="#ff9900" d="
  M 312.99 159.89
  A 0.36 0.36 0.0 0 1 312.63 160.25
  L 287.11 160.25
  A 0.36 0.36 0.0 0 1 286.75 159.89
  L 286.75 136.11
  A 0.36 0.36 0.0 0 1 287.11 135.75
  L 312.63 135.75
  A 0.36 0.36 0.0 0 1 312.99 136.11
  L 312.99 159.89
  Z
  M 307.9862 140.0958
  A 0.36 0.36 0.0 0 0 307.6256 139.7365
  L 292.1056 139.7636
  A 0.36 0.36 0.0 0 0 291.7462 140.1242
  L 291.7738 155.9042
  A 0.36 0.36 0.0 0 0 292.1344 156.2635
  L 307.6544 156.2364
  A 0.36 0.36 0.0 0 0 308.0138 155.8758
  L 307.9862 140.0958
  Z"
/>
<rect fill="#ffffff" x="-8.12" y="-8.25" transform="translate(299.88,148.00) rotate(-0.1)" width="16.24" height="16.50" rx="0.36"/>
<path fill="#ff9900" d="
  M 216.34 144.58
  C 210.74 154.97 200.64 159.88 189.28 160.70
  Q 189.03 160.72 188.97 160.47
  L 188.12 156.59
  Q 188.08 156.39 188.29 156.38
  Q 204.77 155.56 212.50 141.99
  Q 212.62 141.77 212.84 141.91
  L 216.23 144.13
  Q 216.49 144.30 216.34 144.58
  Z"
/>
<path fill="#ff9900" d="
  M 348.37 144.48
  C 342.93 154.85 332.87 159.75 321.52 160.69
  Q 321.04 160.73 320.93 160.25
  L 320.15 156.83
  A 0.39 0.38 -8.2 0 1 320.51 156.36
  Q 336.81 155.49 344.49 141.99
  Q 344.62 141.76 344.84 141.90
  L 348.30 144.18
  Q 348.47 144.29 348.37 144.48
  Z"
/>
<path fill="#ff9900" d="
  M 177.49 149.19
  A 0.77 0.77 0.0 0 1 176.60 149.82
  L 158.02 146.71
  A 0.69 0.28 9.5 0 1 157.38 146.32
  L 157.99 142.67
  A 0.69 0.28 9.5 0 1 158.72 142.51
  L 177.30 145.62
  A 0.77 0.77 0.0 0 1 177.94 146.50
  L 177.49 149.19
  Z"
/>
<path fill="#ff9900" d="
  M 181.57 157.88
  L 179.97 161.33
  Q 179.77 161.75 179.33 161.61
  Q 167.72 157.99 154.50 157.06
  A 0.47 0.46 -82.4 0 1 154.08 156.50
  L 154.79 153.21
  Q 154.89 152.71 155.41 152.74
  Q 168.34 153.53 181.35 157.40
  Q 181.73 157.52 181.57 157.88
  Z"
/>
</svg>
