<svg id="svg_icon" xmlns="http://www.w3.org/2000/svg" viewBox="0 0 24 24">
  <defs>
    <style>
      .cls-1 {
        fill: none;
      }
    </style>
  </defs>
  <title>024</title>
  <g id="_024" data-name="024">
    <rect class="cls-1" width="24" height="24"/>
    <path id="医科" d="M21,10.2v3.6a.91.91,0,0,1-.9.9H14.7v5.4a.91.91,0,0,1-.9.9H10.2a.9.9,0,0,1-.9-.9V14.7H3.9a.9.9,0,0,1-.9-.9V10.2a.9.9,0,0,1,.9-.9H9.3V3.9a.9.9,0,0,1,.9-.9h3.6a.91.91,0,0,1,.9.9V9.3h5.4A.91.91,0,0,1,21,10.2Z"/>
  </g>
</svg>
