<svg id="svg_icon" xmlns="http://www.w3.org/2000/svg" viewBox="0 0 24 24">
  <defs>
    <style>
      .cls-1 {
        fill: none;
      }
    </style>
  </defs>
  <title>026</title>
  <g id="_026" data-name="026">
    <rect class="cls-1" width="24" height="24"/>
    <path id="薬局" d="M7.81,14.66,4.72,11.57C2.6,9.45,2.41,6.18,4.3,4.3h0c1.88-1.89,5.15-1.7,7.27.42l3.09,3.09Zm8.38-2.49-4,4,1.67,1.67A3.75,3.75,0,0,0,16.46,19a2.53,2.53,0,0,0,1.83-.71c1.09-1.09.89-3.13-.43-4.45l-1.67-1.67m0-2.83,3.09,3.09c2.12,2.12,2.31,5.39.42,7.27A4.52,4.52,0,0,1,16.46,21a5.74,5.74,0,0,1-4-1.72L9.34,16.19l6.85-6.85Z"/>
  </g>
</svg>
