<svg id="svg_icon" xmlns="http://www.w3.org/2000/svg" viewBox="0 0 24 24">
  <defs>
    <style>
      .cls-1 {
        fill: none;
      }
    </style>
  </defs>
  <title>027</title>
  <g id="_027" data-name="027">
    <rect class="cls-1" width="24" height="24"/>
    <path id="リラク" d="M18.83,8.28c-.7-4.22-.28-5.63-.93-6.16s-6.9.61-10,3.57c-4.84,4.59-2.38,8.83-1,10.55a.74.74,0,0,1,.13.67,25.59,25.59,0,0,0-.87,3.24.72.72,0,0,0,.28.74,10,10,0,0,0,3,1.11,13.3,13.3,0,0,1-.4-3.54c.26-6.36,2.23-9.37,4.12-11.62a.43.43,0,0,1,.09-.1.44.44,0,0,1,.62,0h0l0,0A.38.38,0,0,1,14,7a.49.49,0,0,1,0,.12h0v0c-.05.19-2.88,3.57-2.74,11a8.35,8.35,0,0,0,1.59-.32A8.29,8.29,0,0,0,18.83,8.28Z"/>
  </g>
</svg>
