<?xml version="1.0" standalone="no"?>
<!DOCTYPE svg PUBLIC "-//W3C//DTD SVG 1.1//EN" "http://www.w3.org/Graphics/SVG/1.1/DTD/svg11.dtd" >
<svg xmlns="http://www.w3.org/2000/svg">
<metadata>Generated by IcoMoon</metadata>
<defs>
<font id="icomoon" horiz-adv-x="1024">
<font-face units-per-em="1024" ascent="960" descent="-64" />
<missing-glyph horiz-adv-x="1024" />
<glyph unicode="&#x20;" horiz-adv-x="512" d="" />
<glyph unicode="&#xe900;" glyph-name="icon_out_icon_cart" d="M955.733 649.387c-3.413 6.827-13.653 10.24-20.48 10.24h-692.907l-44.373 105.813c-3.413 10.24-13.653 17.067-23.893 17.067h-92.16c-13.653 0-23.893-13.653-23.893-27.307s10.24-23.893 23.893-23.893h75.093l194.56-447.147c-23.893-17.067-40.96-44.373-40.96-78.507 0-51.2 40.96-95.573 95.573-95.573 44.373 0 78.507 30.72 88.747 68.267h170.667c10.24-40.96 47.787-68.267 88.747-68.267 51.2 0 95.573 40.96 95.573 95.573s-40.96 95.573-95.573 95.573c-44.373 0-78.507-30.72-88.747-68.267h-170.667c-10.24 40.96-47.787 68.267-88.747 68.267 0 0-3.413 0-3.413 0l-27.307 61.44h453.973c10.24 0 20.48 6.827 23.893 13.653l109.227 245.76c0 10.24 0 20.48-6.827 27.307zM757.76 246.613c23.893 0 44.373-20.48 44.373-44.373s-20.48-44.373-44.373-44.373-44.373 20.48-44.373 44.373 20.48 44.373 44.373 44.373zM447.147 205.653c0-23.893-20.48-44.373-44.373-44.373s-44.373 20.48-44.373 44.373 20.48 44.373 44.373 44.373 44.373-23.893 44.373-44.373zM808.96 413.867h-457.387l-85.333 194.56h631.467l-88.747-194.56z" />
<glyph unicode="&#xe901;" glyph-name="icon_out_icon_category" d="M238.933 721.067h136.533v-136.533h-136.533v136.533zM443.733 721.067h136.533v-136.533h-136.533v136.533zM648.533 721.067h136.533v-136.533h-136.533v136.533zM238.933 516.267h136.533v-136.533h-136.533v136.533zM443.733 516.267h136.533v-136.533h-136.533v136.533zM648.533 516.267h136.533v-136.533h-136.533v136.533zM238.933 311.467h136.533v-136.533h-136.533v136.533zM443.733 311.467h136.533v-136.533h-136.533v136.533zM648.533 311.467h136.533v-136.533h-136.533v136.533z" />
<glyph unicode="&#xe902;" glyph-name="icon_out_icon_contact" d="M904.533 700.587h-788.48c-13.653 0-23.893-13.653-23.893-27.307v-512c0-13.653 10.24-27.307 27.307-27.307h788.48c13.653 0 27.307 10.24 27.307 27.307v512c-6.827 13.653-17.067 27.307-30.72 27.307zM877.227 188.587h-733.867v460.8h737.28v-460.8zM215.040 523.093l279.893-184.32c3.413-3.413 10.24-3.413 13.653-3.413s10.24 0 13.653 3.413l279.893 184.32c10.24 6.827 13.653 23.893 6.827 34.133s-23.893 13.653-34.133 6.827l-266.24-174.080-266.24 174.080c-10.24 6.827-27.307 3.413-34.133-6.827s-3.413-27.307 6.827-34.133z" />
<glyph unicode="&#xe903;" glyph-name="icon_out_icon_login" d="M808.96 546.987h-81.92v54.613c0 122.88-98.987 221.867-221.867 221.867s-221.867-98.987-221.867-221.867v-54.613h-85.333c-13.653 0-27.307-10.24-27.307-27.307v-447.147c0-13.653 10.24-27.307 27.307-27.307h607.573c13.653 0 27.307 10.24 27.307 27.307v450.56c0 13.653-10.24 23.893-23.893 23.893zM334.507 601.6c0 92.16 75.093 170.667 170.667 170.667s170.667-75.093 170.667-170.667v-54.613h-341.333v54.613zM781.653 103.253h-556.373v392.533h556.373v-392.533zM477.867 267.093v-92.16c0-13.653 10.24-27.307 27.307-27.307s27.307 10.24 27.307 27.307v92.16c30.72 10.24 54.613 40.96 54.613 75.093 0 44.373-37.547 81.92-81.92 81.92s-81.92-37.547-81.92-81.92c0-34.133 23.893-64.853 54.613-75.093z" />
<glyph unicode="&#xe904;" glyph-name="icon_out_icon_logout" d="M764.587 823.467c-122.88 0-221.867-98.987-221.867-221.867v-54.613h-471.040c-13.653 0-27.307-10.24-27.307-27.307v-447.147c0-13.653 10.24-27.307 27.307-27.307h607.573c13.653 0 27.307 10.24 27.307 27.307v450.56c0 13.653-10.24 27.307-27.307 27.307h-81.92v54.613c0 92.16 75.093 170.667 170.667 170.667s170.667-75.093 170.667-170.667v-75.093c0-13.653 10.24-27.307 27.307-27.307s27.307 10.24 27.307 27.307v75.093c-6.827 119.467-105.813 218.453-228.693 218.453zM651.947 103.253h-556.373v392.533h556.373v-392.533zM348.16 267.093v-92.16c0-13.653 10.24-27.307 27.307-27.307s27.307 10.24 27.307 27.307v92.16c30.72 10.24 54.613 40.96 54.613 75.093 0 44.373-37.547 81.92-81.92 81.92s-81.92-37.547-81.92-81.92c0-34.133 23.893-64.853 54.613-75.093z" />
<glyph unicode="&#xe905;" glyph-name="icon_out_icon_mypage" d="M580.267 437.76c71.68 27.307 119.467 95.573 119.467 177.493 0 105.813-85.333 191.147-191.147 191.147s-191.147-85.333-191.147-191.147c0-78.507 51.2-150.187 119.467-177.493-88.747-58.027-245.76-177.493-245.76-320.853 0-13.653 10.24-27.307 27.307-27.307h583.68c13.653 0 27.307 10.24 27.307 27.307-3.413 143.36-160.427 262.827-249.173 320.853zM368.64 615.253c0 78.507 61.44 139.947 139.947 139.947s139.947-61.44 139.947-139.947-61.44-139.947-139.947-139.947c-78.507 0-139.947 61.44-139.947 139.947zM245.76 140.8c23.893 133.12 215.040 249.173 262.827 279.893 51.2-27.307 242.347-143.36 262.827-279.893h-525.653z" />
<glyph unicode="&#xe906;" glyph-name="icon_out_icon_registration" d="M515.413 813.227c-201.387 0-365.227-167.253-365.227-368.64s163.84-365.227 365.227-365.227 365.227 163.84 365.227 365.227c0 201.387-163.84 368.64-365.227 368.64zM515.413 130.56c-174.080 0-314.027 139.947-314.027 314.027s139.947 314.027 314.027 314.027 314.027-139.947 314.027-314.027c0-170.667-139.947-314.027-314.027-314.027zM631.467 471.893h-92.16v92.16c0 13.653-10.24 27.307-27.307 27.307s-27.307-10.24-27.307-27.307v-92.16h-92.16c-13.653 0-27.307-10.24-27.307-27.307s10.24-27.307 27.307-27.307h92.16v-92.16c0-13.653 10.24-27.307 27.307-27.307s27.307 10.24 27.307 27.307v92.16h92.16c13.653 0 27.307 10.24 27.307 27.307s-13.653 27.307-27.307 27.307z" />
<glyph unicode="&#xe907;" glyph-name="icon_out_icon_search" d="M791.893 731.307c-122.88 122.88-317.44 119.467-440.32 0-112.64-112.64-119.467-296.96-13.653-419.84l-191.147-191.147c-10.24-10.24-10.24-27.307 0-37.547 3.413-3.413 10.24-6.827 17.067-6.827s13.653 3.413 17.067 6.827l191.147 191.147c54.613-47.787 126.293-75.093 201.387-75.093 81.92 0 160.427 30.72 218.453 92.16 58.027 58.027 92.16 136.533 92.16 218.453 0 85.333-30.72 163.84-92.16 221.867zM757.76 328.533c-47.787-47.787-112.64-75.093-184.32-75.093-68.267 0-133.12 27.307-184.32 75.093-102.4 102.4-102.4 266.24 0 368.64 51.2 51.2 116.053 75.093 184.32 75.093 64.853 0 133.12-23.893 184.32-75.093 47.787-47.787 75.093-112.64 75.093-184.32s-27.307-133.12-75.093-184.32z" />
<glyph unicode="&#xe908;" glyph-name="arrow_down" d="M967.68 652.8l-42.721 42.721-412.959-412.959-412.959 412.959-42.721-42.721 455.68-455.68z" />
<glyph unicode="&#xe909;" glyph-name="arrow_left" d="M678.482-43.52l42.721 42.721-412.959 412.959 412.959 412.959-42.721 42.721-455.68-455.68z" />
<glyph unicode="&#xe90a;" glyph-name="arrow_right" d="M345.539 898.56l-42.742-42.721 412.959-412.959-412.959-412.959 42.721-42.721 455.68 455.68z" />
<glyph unicode="&#xe90b;" glyph-name="arrow_up" d="M56.32 239.841l42.721-42.721 412.959 412.959 412.959-412.959 42.721 42.721-455.68 455.68z" />
<glyph unicode="&#xe90c;" glyph-name="twitter" d="M1024 733.6c-37.6-16.8-78.2-28-120.6-33 43.4 26 76.6 67.2 92.4 116.2-40.6-24-85.6-41.6-133.4-51-38.4 40.8-93 66.2-153.4 66.2-116 0-210-94-210-210 0-16.4 1.8-32.4 5.4-47.8-174.6 8.8-329.4 92.4-433 219.6-18-31-28.4-67.2-28.4-105.6 0-72.8 37-137.2 93.4-174.8-34.4 1-66.8 10.6-95.2 26.2 0-0.8 0-1.8 0-2.6 0-101.8 72.4-186.8 168.6-206-17.6-4.8-36.2-7.4-55.4-7.4-13.6 0-26.6 1.4-39.6 3.8 26.8-83.4 104.4-144.2 196.2-146-72-56.4-162.4-90-261-90-17 0-33.6 1-50.2 3 93.2-59.8 203.6-94.4 322.2-94.4 386.4 0 597.8 320.2 597.8 597.8 0 9.2-0.2 18.2-0.6 27.2 41 29.4 76.6 66.4 104.8 108.6z" />
<glyph unicode="&#xe90d;" glyph-name="facebook" d="M608 768h160v192h-160c-123.514 0-224-100.486-224-224v-96h-128v-192h128v-512h192v512h160l32 192h-192v96c0 17.346 14.654 32 32 32z" />
<glyph unicode="&#xe90e;" glyph-name="google-plus" d="M325.8 502.6v-111.8h184.8c-7.4-48-55.8-140.6-184.8-140.6-111.2 0-202 92.2-202 205.8s90.8 205.8 202 205.8c63.4 0 105.6-27 129.8-50.2l88.4 85.2c-56.8 53-130.4 85.2-218.2 85.2-180.2-0.2-325.8-145.8-325.8-326s145.6-325.8 325.8-325.8c188 0 312.8 132.2 312.8 318.4 0 21.4-2.4 37.8-5.2 54h-307.6zM1024 512h-96v96h-96v-96h-96v-96h96v-96h96v96h96z" />
<glyph unicode="&#xe90f;" glyph-name="cross" d="M1014.662 137.34c-0.004 0.004-0.008 0.008-0.012 0.010l-310.644 310.65 310.644 310.65c0.004 0.004 0.008 0.006 0.012 0.010 3.344 3.346 5.762 7.254 7.312 11.416 4.246 11.376 1.824 24.682-7.324 33.83l-146.746 146.746c-9.148 9.146-22.45 11.566-33.828 7.32-4.16-1.55-8.070-3.968-11.418-7.31 0-0.004-0.004-0.006-0.008-0.010l-310.648-310.652-310.648 310.65c-0.004 0.004-0.006 0.006-0.010 0.010-3.346 3.342-7.254 5.76-11.414 7.31-11.38 4.248-24.682 1.826-33.83-7.32l-146.748-146.748c-9.148-9.148-11.568-22.452-7.322-33.828 1.552-4.16 3.97-8.072 7.312-11.416 0.004-0.002 0.006-0.006 0.010-0.010l310.65-310.648-310.65-310.652c-0.002-0.004-0.006-0.006-0.008-0.010-3.342-3.346-5.76-7.254-7.314-11.414-4.248-11.376-1.826-24.682 7.322-33.83l146.748-146.746c9.15-9.148 22.452-11.568 33.83-7.322 4.16 1.552 8.070 3.97 11.416 7.312 0.002 0.004 0.006 0.006 0.010 0.010l310.648 310.65 310.648-310.65c0.004-0.002 0.008-0.006 0.012-0.008 3.348-3.344 7.254-5.762 11.414-7.314 11.378-4.246 24.684-1.826 33.828 7.322l146.746 146.748c9.148 9.148 11.57 22.454 7.324 33.83-1.552 4.16-3.97 8.068-7.314 11.414z" />
<glyph unicode="&#xe910;" glyph-name="user" d="M576 253.388v52.78c70.498 39.728 128 138.772 128 237.832 0 159.058 0 288-192 288s-192-128.942-192-288c0-99.060 57.502-198.104 128-237.832v-52.78c-217.102-17.748-384-124.42-384-253.388h896c0 128.968-166.898 235.64-384 253.388z" />
<glyph unicode="&#xe911;" glyph-name="bubble" d="M512 768c-54.932 0-107.988-8.662-157.694-25.742-46.712-16.054-88.306-38.744-123.628-67.444-66.214-53.798-102.678-122.984-102.678-194.814 0-40.298 11.188-79.378 33.252-116.152 22.752-37.92 56.982-72.586 98.988-100.252 30.356-19.992 50.78-51.948 56.176-87.894 1.8-11.984 2.928-24.088 3.37-36.124 7.47 6.194 14.75 12.846 21.88 19.976 24.154 24.152 56.78 37.49 90.502 37.49 5.368 0 10.762-0.336 16.156-1.024 20.974-2.666 42.398-4.020 63.676-4.020 54.934 0 107.988 8.66 157.694 25.742 46.712 16.054 88.306 38.744 123.628 67.444 66.214 53.796 102.678 122.984 102.678 194.814s-36.464 141.016-102.678 194.814c-35.322 28.698-76.916 51.39-123.628 67.444-49.706 17.080-102.76 25.742-157.694 25.742zM512 896v0c282.77 0 512-186.25 512-416s-229.23-416-512-416c-27.156 0-53.81 1.734-79.824 5.044-109.978-109.978-241.25-129.7-368.176-132.596v26.916c68.536 33.578 128 94.74 128 164.636 0 9.754-0.758 19.33-2.164 28.696-115.796 76.264-189.836 192.754-189.836 323.304 0 229.75 229.23 416 512 416z" />
<glyph unicode="&#xe912;" glyph-name="mobile" d="M736 960h-448c-52.8 0-96-43.2-96-96v-832c0-52.8 43.2-96 96-96h448c52.8 0 96 43.2 96 96v832c0 52.8-43.2 96-96 96zM384 912h256v-32h-256v32zM512 0c-35.346 0-64 28.654-64 64s28.654 64 64 64 64-28.654 64-64-28.654-64-64-64zM768 192h-512v640h512v-640z" />
<glyph unicode="&#xe913;" glyph-name="phone" d="M704 320c-64-64-64-128-128-128s-128 64-192 128-128 128-128 192 64 64 128 128-128 256-192 256-192-192-192-192c0-128 131.5-387.5 256-512s384-256 512-256c0 0 192 128 192 192s-192 256-256 192z" />
<glyph unicode="&#xe914;" glyph-name="circle-right2" d="M512 960c-282.77 0-512-229.23-512-512s229.23-512 512-512 512 229.23 512 512-229.23 512-512 512zM512 32c-229.75 0-416 186.25-416 416s186.25 416 416 416 416-186.25 416-416-186.25-416-416-416zM354.744 253.256l90.512-90.512 285.254 285.256-285.256 285.254-90.508-90.508 194.744-194.746z" />
<glyph unicode="&#xe915;" glyph-name="table_icon001" d="M512 862.72l-480-832h960zM512 747.52l380.16-659.2h-760.32z" />
<glyph unicode="&#xe916;" glyph-name="table_icon002" d="M992 32h-960l480 832 480-832z" />
<glyph unicode="&#xe917;" glyph-name="table_icon003" d="M512 960c-282.77 0-512-229.23-512-512s229.23-512 512-512c282.77 0 512 229.23 512 512v0c0 282.77-229.23 512-512 512v0zM512 1.829c-246.414 0-446.171 199.758-446.171 446.171s199.758 446.171 446.171 446.171c246.414 0 446.171-199.758 446.171-446.171v0c-0.208-246.33-199.842-445.963-446.151-446.171h-0.020z" />
<glyph unicode="&#xe918;" glyph-name="table_icon004" d="M1024 448c0-282.77-229.23-512-512-512s-512 229.23-512 512c0 282.77 229.23 512 512 512s512-229.23 512-512z" />
<glyph unicode="&#xe919;" glyph-name="table_icon005" d="M512 813.714c-201.978 0-365.714-163.736-365.714-365.714s163.736-365.714 365.714-365.714c201.978 0 365.714 163.736 365.714 365.714v0c0 201.978-163.736 365.714-365.714 365.714v0zM512 148.114c-165.622 0-299.886 134.263-299.886 299.886s134.263 299.886 299.886 299.886c165.622 0 299.886-134.263 299.886-299.886v0c-0.208-165.538-134.347-299.678-299.865-299.886h-0.020zM512 960c-282.77 0-512-229.23-512-512s229.23-512 512-512c282.77 0 512 229.23 512 512v0c0 282.77-229.23 512-512 512v0zM512 1.829c-246.414 0-446.171 199.758-446.171 446.171s199.758 446.171 446.171 446.171c246.414 0 446.171-199.758 446.171-446.171v0c-0.208-246.33-199.842-445.963-446.151-446.171h-0.020z" />
<glyph unicode="&#xe91a;" glyph-name="table_icon006" d="M0 960v-1024h1024v1024zM958.171 1.829h-892.343v892.343h892.343z" />
<glyph unicode="&#xe91b;" glyph-name="table_icon007" d="M64 896h896v-896h-896v896z" />
<glyph unicode="&#xe91c;" glyph-name="table_icon008" d="M1024 908.537l-51.463 51.463-460.334-460.334-460.739 460.334-51.463-51.463 460.334-460.739-460.334-460.334 51.463-51.463 460.739 460.334 460.334-460.334 51.463 51.463-460.334 460.334 460.334 460.739z" />
<glyph unicode="&#xe91d;" glyph-name="table_icon009" d="M512 925.867l126.635-357.035 385.365-8.192-306.859-228.352 111.275-362.155-316.416 215.723-316.416-215.723 111.275 362.155-306.859 228.352 385.365 8.192 126.635 357.035z" />
<glyph unicode="&#xe91e;" glyph-name="table_icon010" d="M1024 560.64l-385.365 7.851-126.635 357.376-126.635-357.035-385.365-8.192 307.2-228.693-111.616-361.813 316.416 215.723 316.416-215.723-111.616 362.155zM716.8 119.637l-204.8 140.629-204.8-140.629 72.704 235.861-197.973 147.456 248.491 5.12 81.579 234.155 82.944-233.813 248.491-5.12-197.973-147.456z" />
</font>
</defs>
</svg>
