<?xml version="1.0" encoding="UTF-8" standalone="no"?>
<!DOCTYPE svg PUBLIC "-//W3C//DTD SVG 1.1//EN" "http://www.w3.org/Graphics/SVG/1.1/DTD/svg11.dtd">
<svg xmlns="http://www.w3.org/2000/svg" version="1.1" viewBox="0.00 0.00 435.00 195.00">
<g stroke-width="2.00" fill="none" stroke-linecap="butt">
<path stroke="#dedede" vector-effect="non-scaling-stroke" d="
  M 430.50 31.02
  A 26.02 26.02 0.0 0 0 404.48 5.00
  L 30.52 5.00
  A 26.02 26.02 0.0 0 0 4.50 31.02
  L 4.50 155.98
  A 26.02 26.02 0.0 0 0 30.52 182.00
  L 404.48 182.00
  A 26.02 26.02 0.0 0 0 430.50 155.98
  L 430.50 31.02"
/>
<path stroke="#ff9494" vector-effect="non-scaling-stroke" d="
  M 239.47 58.42
  C 239.51 56.29 239.64 54.12 239.11 52.05
  C 236.07 40.28 225.55 33.22 213.54 35.27
  C 202.54 37.15 194.54 47.18 195.55 58.35
  Q 195.61 59.00 194.96 59.00
  L 181.94 59.00
  Q 181.38 59.00 181.32 59.56
  L 177.79 94.82
  A 3.81 3.80 -87.2 0 0 181.57 99.00
  L 253.31 99.00
  A 3.91 3.90 -2.9 0 0 257.20 94.70
  L 253.68 59.56
  Q 253.62 59.00 253.06 59.00
  L 240.04 59.00
  Q 239.46 59.00 239.47 58.42"
/>
<path stroke="#ff9494" vector-effect="non-scaling-stroke" d="
  M 209.08 140.40
  C 207.03 150.10 200.12 155.15 190.91 156.95
  Q 190.45 157.04 190.62 157.47
  L 191.91 160.79
  Q 192.06 161.18 192.47 161.10
  C 205.67 158.45 214.50 150.81 214.66 136.12
  Q 214.67 135.50 214.04 135.50
  L 201.55 135.51
  Q 200.88 135.51 201.11 134.88
  L 201.97 132.52
  A 0.14 0.13 -77.6 0 0 201.86 132.34
  L 197.28 131.77
  Q 197.04 131.74 196.96 131.97
  Q 193.85 141.33 185.54 146.61
  Q 185.26 146.79 185.46 147.06
  L 187.79 150.08
  Q 187.94 150.28 188.14 150.15
  Q 194.52 146.29 198.46 140.27
  Q 198.80 139.75 199.43 139.75
  L 208.55 139.75
  Q 209.22 139.75 209.08 140.40"
/>
<path stroke="#ff9494" vector-effect="non-scaling-stroke" d="
  M 167.50 147.03
  L 167.49 160.50
  Q 167.49 161.00 168.00 161.00
  L 172.00 161.00
  Q 172.51 161.00 172.51 160.50
  L 172.50 143.78
  Q 172.50 143.30 172.89 143.02
  Q 178.06 139.39 181.19 134.17
  Q 181.45 133.73 180.97 133.56
  L 177.46 132.26
  Q 176.86 132.04 176.49 132.56
  C 170.98 140.23 162.50 144.36 153.03 146.91
  Q 152.53 147.04 152.69 147.52
  L 153.82 150.89
  Q 153.94 151.23 154.29 151.15
  Q 160.92 149.65 166.93 146.67
  Q 167.50 146.39 167.50 147.03"
/>
<path stroke="#ff9494" vector-effect="non-scaling-stroke" d="
  M 298.10 145.61
  Q 304.86 148.07 311.15 152.15
  Q 311.75 152.54 312.20 151.97
  L 314.32 149.29
  Q 314.73 148.78 314.17 148.44
  Q 306.09 143.64 298.10 140.89
  Q 297.50 140.68 297.50 140.05
  L 297.49 132.50
  Q 297.49 132.25 297.25 132.25
  L 292.75 132.25
  Q 292.50 132.25 292.50 132.50
  L 292.50 161.00
  A 0.25 0.25 0.0 0 0 292.75 161.25
  L 297.25 161.25
  A 0.26 0.25 0.0 0 0 297.51 161.00
  L 297.50 146.04
  Q 297.50 145.39 298.10 145.61"
/>
<path stroke="#ff9494" vector-effect="non-scaling-stroke" d="
  M 263.75 136.50
  L 253.75 136.50
  A 0.50 0.50 0.0 0 0 253.25 137.00
  L 253.24 148.99
  Q 253.24 149.24 253.49 149.24
  L 257.74 149.26
  Q 258.00 149.26 258.00 149.01
  L 258.00 141.12
  Q 258.01 140.50 258.63 140.50
  L 275.21 140.50
  Q 275.86 140.50 275.83 141.14
  Q 275.70 144.30 275.07 147.06
  Q 273.03 156.04 258.16 157.11
  A 0.37 0.37 0.0 0 0 257.83 157.56
  L 258.74 161.24
  Q 258.81 161.51 259.08 161.49
  Q 266.31 160.85 271.71 158.29
  C 279.73 154.48 281.20 145.17 280.70 137.10
  Q 280.66 136.50 280.06 136.50
  L 269.99 136.50
  Q 269.48 136.50 269.49 135.99
  L 269.51 133.26
  Q 269.52 132.50 268.76 132.50
  L 265.25 132.50
  Q 264.50 132.50 264.50 133.25
  L 264.50 135.75
  Q 264.50 136.50 263.75 136.50"
/>
<path stroke="#ff9494" vector-effect="non-scaling-stroke" d="
  M 242.84 138.94
  Q 240.38 142.89 236.30 145.63
  Q 235.30 146.30 235.98 147.30
  L 237.02 148.84
  Q 237.68 149.82 238.67 149.17
  Q 246.74 143.91 249.25 136.36
  A 1.79 1.79 0.0 0 0 247.55 134.00
  L 220.00 134.00
  Q 219.75 134.00 219.75 134.25
  L 219.74 138.00
  Q 219.74 138.25 220.00 138.25
  L 242.46 138.25
  Q 243.27 138.25 242.84 138.94"
/>
<path stroke="#ff9494" vector-effect="non-scaling-stroke" d="
  M 148.00 134.80
  A 0.30 0.30 0.0 0 0 147.70 134.50
  L 122.30 134.50
  A 0.30 0.30 0.0 0 0 122.00 134.80
  L 122.00 138.20
  A 0.30 0.30 0.0 0 0 122.30 138.50
  L 147.70 138.50
  A 0.30 0.30 0.0 0 0 148.00 138.20
  L 148.00 134.80"
/>
<path stroke="#ff9494" vector-effect="non-scaling-stroke" d="
  M 230.21 140.50
  C 230.26 148.61 229.46 154.90 220.35 157.26
  Q 220.26 157.28 220.27 157.38
  Q 220.62 159.29 221.67 161.08
  Q 221.74 161.19 221.86 161.16
  Q 232.99 158.29 234.98 147.87
  C 235.45 145.40 235.18 142.96 235.27 140.50
  Q 235.29 139.75 234.55 139.75
  L 230.97 139.75
  Q 230.21 139.75 230.21 140.50"
/>
<path stroke="#ff9494" vector-effect="non-scaling-stroke" d="
  M 133.32 147.81
  C 132.93 153.51 128.53 156.42 123.47 157.34
  Q 123.03 157.42 123.17 157.85
  L 124.23 160.99
  Q 124.37 161.43 124.84 161.36
  C 132.18 160.21 138.32 155.52 138.23 147.55
  A 0.54 0.54 0.0 0 1 138.77 147.00
  L 149.75 147.00
  Q 150.00 147.00 150.00 146.75
  L 150.00 143.25
  Q 150.00 142.75 149.50 142.75
  L 120.25 142.75
  A 0.25 0.25 0.0 0 0 120.00 143.00
  L 120.01 146.84
  Q 120.01 147.00 120.17 147.00
  L 132.56 147.00
  Q 133.37 147.00 133.32 147.81"
/>
<path stroke="#ff9494" vector-effect="non-scaling-stroke" d="
  M 207.97 59.00
  L 227.03 59.00
  A 0.46 0.46 0.0 0 0 227.49 58.54
  L 227.49 57.75
  A 10.51 9.57 -90.0 0 0 217.92 47.24
  L 217.08 47.24
  A 10.51 9.57 90.0 0 0 207.51 57.75
  L 207.51 58.54
  A 0.46 0.46 0.0 0 0 207.97 59.00"
/>
</g>
<path fill="#bdbdbd" d="
  M 29.58 2.00
  L 405.42 2.00
  A 28.08 28.08 0.0 0 1 433.50 30.08
  L 433.50 165.92
  A 28.08 28.08 0.0 0 1 405.42 194.00
  L 29.58 194.00
  A 28.08 28.08 0.0 0 1 1.50 165.92
  L 1.50 30.08
  A 28.08 28.08 0.0 0 1 29.58 2.00
  Z
  M 430.50 31.02
  A 26.02 26.02 0.0 0 0 404.48 5.00
  L 30.52 5.00
  A 26.02 26.02 0.0 0 0 4.50 31.02
  L 4.50 155.98
  A 26.02 26.02 0.0 0 0 30.52 182.00
  L 404.48 182.00
  A 26.02 26.02 0.0 0 0 430.50 155.98
  L 430.50 31.02
  Z"
/>
<path fill="#ffffff" d="
  M 430.50 155.98
  A 26.02 26.02 0.0 0 1 404.48 182.00
  L 30.52 182.00
  A 26.02 26.02 0.0 0 1 4.50 155.98
  L 4.50 31.02
  A 26.02 26.02 0.0 0 1 30.52 5.00
  L 404.48 5.00
  A 26.02 26.02 0.0 0 1 430.50 31.02
  L 430.50 155.98
  Z
  M 239.47 58.42
  C 239.51 56.29 239.64 54.12 239.11 52.05
  C 236.07 40.28 225.55 33.22 213.54 35.27
  C 202.54 37.15 194.54 47.18 195.55 58.35
  Q 195.61 59.00 194.96 59.00
  L 181.94 59.00
  Q 181.38 59.00 181.32 59.56
  L 177.79 94.82
  A 3.81 3.80 -87.2 0 0 181.57 99.00
  L 253.31 99.00
  A 3.91 3.90 -2.9 0 0 257.20 94.70
  L 253.68 59.56
  Q 253.62 59.00 253.06 59.00
  L 240.04 59.00
  Q 239.46 59.00 239.47 58.42
  Z
  M 209.08 140.40
  C 207.03 150.10 200.12 155.15 190.91 156.95
  Q 190.45 157.04 190.62 157.47
  L 191.91 160.79
  Q 192.06 161.18 192.47 161.10
  C 205.67 158.45 214.50 150.81 214.66 136.12
  Q 214.67 135.50 214.04 135.50
  L 201.55 135.51
  Q 200.88 135.51 201.11 134.88
  L 201.97 132.52
  A 0.14 0.13 -77.6 0 0 201.86 132.34
  L 197.28 131.77
  Q 197.04 131.74 196.96 131.97
  Q 193.85 141.33 185.54 146.61
  Q 185.26 146.79 185.46 147.06
  L 187.79 150.08
  Q 187.94 150.28 188.14 150.15
  Q 194.52 146.29 198.46 140.27
  Q 198.80 139.75 199.43 139.75
  L 208.55 139.75
  Q 209.22 139.75 209.08 140.40
  Z
  M 167.50 147.03
  L 167.49 160.50
  Q 167.49 161.00 168.00 161.00
  L 172.00 161.00
  Q 172.51 161.00 172.51 160.50
  L 172.50 143.78
  Q 172.50 143.30 172.89 143.02
  Q 178.06 139.39 181.19 134.17
  Q 181.45 133.73 180.97 133.56
  L 177.46 132.26
  Q 176.86 132.04 176.49 132.56
  C 170.98 140.23 162.50 144.36 153.03 146.91
  Q 152.53 147.04 152.69 147.52
  L 153.82 150.89
  Q 153.94 151.23 154.29 151.15
  Q 160.92 149.65 166.93 146.67
  Q 167.50 146.39 167.50 147.03
  Z
  M 298.10 145.61
  Q 304.86 148.07 311.15 152.15
  Q 311.75 152.54 312.20 151.97
  L 314.32 149.29
  Q 314.73 148.78 314.17 148.44
  Q 306.09 143.64 298.10 140.89
  Q 297.50 140.68 297.50 140.05
  L 297.49 132.50
  Q 297.49 132.25 297.25 132.25
  L 292.75 132.25
  Q 292.50 132.25 292.50 132.50
  L 292.50 161.00
  A 0.25 0.25 0.0 0 0 292.75 161.25
  L 297.25 161.25
  A 0.26 0.25 0.0 0 0 297.51 161.00
  L 297.50 146.04
  Q 297.50 145.39 298.10 145.61
  Z
  M 263.75 136.50
  L 253.75 136.50
  A 0.50 0.50 0.0 0 0 253.25 137.00
  L 253.24 148.99
  Q 253.24 149.24 253.49 149.24
  L 257.74 149.26
  Q 258.00 149.26 258.00 149.01
  L 258.00 141.12
  Q 258.01 140.50 258.63 140.50
  L 275.21 140.50
  Q 275.86 140.50 275.83 141.14
  Q 275.70 144.30 275.07 147.06
  Q 273.03 156.04 258.16 157.11
  A 0.37 0.37 0.0 0 0 257.83 157.56
  L 258.74 161.24
  Q 258.81 161.51 259.08 161.49
  Q 266.31 160.85 271.71 158.29
  C 279.73 154.48 281.20 145.17 280.70 137.10
  Q 280.66 136.50 280.06 136.50
  L 269.99 136.50
  Q 269.48 136.50 269.49 135.99
  L 269.51 133.26
  Q 269.52 132.50 268.76 132.50
  L 265.25 132.50
  Q 264.50 132.50 264.50 133.25
  L 264.50 135.75
  Q 264.50 136.50 263.75 136.50
  Z
  M 242.84 138.94
  Q 240.38 142.89 236.30 145.63
  Q 235.30 146.30 235.98 147.30
  L 237.02 148.84
  Q 237.68 149.82 238.67 149.17
  Q 246.74 143.91 249.25 136.36
  A 1.79 1.79 0.0 0 0 247.55 134.00
  L 220.00 134.00
  Q 219.75 134.00 219.75 134.25
  L 219.74 138.00
  Q 219.74 138.25 220.00 138.25
  L 242.46 138.25
  Q 243.27 138.25 242.84 138.94
  Z
  M 148.00 134.80
  A 0.30 0.30 0.0 0 0 147.70 134.50
  L 122.30 134.50
  A 0.30 0.30 0.0 0 0 122.00 134.80
  L 122.00 138.20
  A 0.30 0.30 0.0 0 0 122.30 138.50
  L 147.70 138.50
  A 0.30 0.30 0.0 0 0 148.00 138.20
  L 148.00 134.80
  Z
  M 230.21 140.50
  C 230.26 148.61 229.46 154.90 220.35 157.26
  Q 220.26 157.28 220.27 157.38
  Q 220.62 159.29 221.67 161.08
  Q 221.74 161.19 221.86 161.16
  Q 232.99 158.29 234.98 147.87
  C 235.45 145.40 235.18 142.96 235.27 140.50
  Q 235.29 139.75 234.55 139.75
  L 230.97 139.75
  Q 230.21 139.75 230.21 140.50
  Z
  M 133.32 147.81
  C 132.93 153.51 128.53 156.42 123.47 157.34
  Q 123.03 157.42 123.17 157.85
  L 124.23 160.99
  Q 124.37 161.43 124.84 161.36
  C 132.18 160.21 138.32 155.52 138.23 147.55
  A 0.54 0.54 0.0 0 1 138.77 147.00
  L 149.75 147.00
  Q 150.00 147.00 150.00 146.75
  L 150.00 143.25
  Q 150.00 142.75 149.50 142.75
  L 120.25 142.75
  A 0.25 0.25 0.0 0 0 120.00 143.00
  L 120.01 146.84
  Q 120.01 147.00 120.17 147.00
  L 132.56 147.00
  Q 133.37 147.00 133.32 147.81
  Z"
/>
<path fill="#ff2929" d="
  M 240.04 59.00
  L 253.06 59.00
  Q 253.62 59.00 253.68 59.56
  L 257.20 94.70
  A 3.91 3.90 -2.9 0 1 253.31 99.00
  L 181.57 99.00
  A 3.81 3.80 -87.2 0 1 177.79 94.82
  L 181.32 59.56
  Q 181.38 59.00 181.94 59.00
  L 194.96 59.00
  Q 195.61 59.00 195.55 58.35
  C 194.54 47.18 202.54 37.15 213.54 35.27
  C 225.55 33.22 236.07 40.28 239.11 52.05
  C 239.64 54.12 239.51 56.29 239.47 58.42
  Q 239.46 59.00 240.04 59.00
  Z
  M 207.97 59.00
  L 227.03 59.00
  A 0.46 0.46 0.0 0 0 227.49 58.54
  L 227.49 57.75
  A 10.51 9.57 -90.0 0 0 217.92 47.24
  L 217.08 47.24
  A 10.51 9.57 90.0 0 0 207.51 57.75
  L 207.51 58.54
  A 0.46 0.46 0.0 0 0 207.97 59.00
  Z"
/>
<path fill="#ffffff" d="
  M 207.97 59.00
  A 0.46 0.46 0.0 0 1 207.51 58.54
  L 207.51 57.75
  A 10.51 9.57 90.0 0 1 217.08 47.24
  L 217.92 47.24
  A 10.51 9.57 90.0 0 1 227.49 57.75
  L 227.49 58.54
  A 0.46 0.46 0.0 0 1 227.03 59.00
  L 207.97 59.00
  Z"
/>
<path fill="#ff2929" d="
  M 208.55 139.75
  L 199.43 139.75
  Q 198.80 139.75 198.46 140.27
  Q 194.52 146.29 188.14 150.15
  Q 187.94 150.28 187.79 150.08
  L 185.46 147.06
  Q 185.26 146.79 185.54 146.61
  Q 193.85 141.33 196.96 131.97
  Q 197.04 131.74 197.28 131.77
  L 201.86 132.34
  A 0.14 0.13 -77.6 0 1 201.97 132.52
  L 201.11 134.88
  Q 200.88 135.51 201.55 135.51
  L 214.04 135.50
  Q 214.67 135.50 214.66 136.12
  C 214.50 150.81 205.67 158.45 192.47 161.10
  Q 192.06 161.18 191.91 160.79
  L 190.62 157.47
  Q 190.45 157.04 190.91 156.95
  C 200.12 155.15 207.03 150.10 209.08 140.40
  Q 209.22 139.75 208.55 139.75
  Z"
/>
<path fill="#ff2929" d="
  M 166.93 146.67
  Q 160.92 149.65 154.29 151.15
  Q 153.94 151.23 153.82 150.89
  L 152.69 147.52
  Q 152.53 147.04 153.03 146.91
  C 162.50 144.36 170.98 140.23 176.49 132.56
  Q 176.86 132.04 177.46 132.26
  L 180.97 133.56
  Q 181.45 133.73 181.19 134.17
  Q 178.06 139.39 172.89 143.02
  Q 172.50 143.30 172.50 143.78
  L 172.51 160.50
  Q 172.51 161.00 172.00 161.00
  L 168.00 161.00
  Q 167.49 161.00 167.49 160.50
  L 167.50 147.03
  Q 167.50 146.39 166.93 146.67
  Z"
/>
<path fill="#ff2929" d="
  M 297.50 146.04
  L 297.51 161.00
  A 0.26 0.25 -0.0 0 1 297.25 161.25
  L 292.75 161.25
  A 0.25 0.25 0.0 0 1 292.50 161.00
  L 292.50 132.50
  Q 292.50 132.25 292.75 132.25
  L 297.25 132.25
  Q 297.49 132.25 297.49 132.50
  L 297.50 140.05
  Q 297.50 140.68 298.10 140.89
  Q 306.09 143.64 314.17 148.44
  Q 314.73 148.78 314.32 149.29
  L 312.20 151.97
  Q 311.75 152.54 311.15 152.15
  Q 304.86 148.07 298.10 145.61
  Q 297.50 145.39 297.50 146.04
  Z"
/>
<path fill="#ff2929" d="
  M 264.50 135.75
  L 264.50 133.25
  Q 264.50 132.50 265.25 132.50
  L 268.76 132.50
  Q 269.52 132.50 269.51 133.26
  L 269.49 135.99
  Q 269.48 136.50 269.99 136.50
  L 280.06 136.50
  Q 280.66 136.50 280.70 137.10
  C 281.20 145.17 279.73 154.48 271.71 158.29
  Q 266.31 160.85 259.08 161.49
  Q 258.81 161.51 258.74 161.24
  L 257.83 157.56
  A 0.37 0.37 0.0 0 1 258.16 157.11
  Q 273.03 156.04 275.07 147.06
  Q 275.70 144.30 275.83 141.14
  Q 275.86 140.50 275.21 140.50
  L 258.63 140.50
  Q 258.01 140.50 258.00 141.12
  L 258.00 149.01
  Q 258.00 149.26 257.74 149.26
  L 253.49 149.24
  Q 253.24 149.24 253.24 148.99
  L 253.25 137.00
  A 0.50 0.50 0.0 0 1 253.75 136.50
  L 263.75 136.50
  Q 264.50 136.50 264.50 135.75
  Z"
/>
<path fill="#ff2929" d="
  M 242.46 138.25
  L 220.00 138.25
  Q 219.74 138.25 219.74 138.00
  L 219.75 134.25
  Q 219.75 134.00 220.00 134.00
  L 247.55 134.00
  A 1.79 1.79 0.0 0 1 249.25 136.36
  Q 246.74 143.91 238.67 149.17
  Q 237.68 149.82 237.02 148.84
  L 235.98 147.30
  Q 235.30 146.30 236.30 145.63
  Q 240.38 142.89 242.84 138.94
  Q 243.27 138.25 242.46 138.25
  Z"
/>
<rect fill="#ff2929" x="122.00" y="134.50" width="26.00" height="4.00" rx="0.30"/>
<path fill="#ff2929" d="
  M 220.35 157.26
  C 229.46 154.90 230.26 148.61 230.21 140.50
  Q 230.21 139.75 230.97 139.75
  L 234.55 139.75
  Q 235.29 139.75 235.27 140.50
  C 235.18 142.96 235.45 145.40 234.98 147.87
  Q 232.99 158.29 221.86 161.16
  Q 221.74 161.19 221.67 161.08
  Q 220.62 159.29 220.27 157.38
  Q 220.26 157.28 220.35 157.26
  Z"
/>
<path fill="#ff2929" d="
  M 132.56 147.00
  L 120.17 147.00
  Q 120.01 147.00 120.01 146.84
  L 120.00 143.00
  A 0.25 0.25 0.0 0 1 120.25 142.75
  L 149.50 142.75
  Q 150.00 142.75 150.00 143.25
  L 150.00 146.75
  Q 150.00 147.00 149.75 147.00
  L 138.77 147.00
  A 0.54 0.54 0.0 0 0 138.23 147.55
  C 138.32 155.52 132.18 160.21 124.84 161.36
  Q 124.37 161.43 124.23 160.99
  L 123.17 157.85
  Q 123.03 157.42 123.47 157.34
  C 128.53 156.42 132.93 153.51 133.32 147.81
  Q 133.37 147.00 132.56 147.00
  Z"
/>
</svg>
