<?xml version="1.0" encoding="UTF-8" standalone="no"?>
<!DOCTYPE svg PUBLIC "-//W3C//DTD SVG 1.1//EN" "http://www.w3.org/Graphics/SVG/1.1/DTD/svg11.dtd">
<svg xmlns="http://www.w3.org/2000/svg" version="1.1" viewBox="0.00 0.00 435.00 195.00">
<g stroke-width="2.00" fill="none" stroke-linecap="butt">
<path stroke="#dedede" vector-effect="non-scaling-stroke" d="
  M 430.50 31.01
  A 26.01 26.01 0.0 0 0 404.49 5.00
  L 30.51 5.00
  A 26.01 26.01 0.0 0 0 4.50 31.01
  L 4.50 155.99
  A 26.01 26.01 0.0 0 0 30.51 182.00
  L 404.49 182.00
  A 26.01 26.01 0.0 0 0 430.50 155.99
  L 430.50 31.01"
/>
<path stroke="#80c4d2" vector-effect="non-scaling-stroke" d="
  M 217.03 37.93
  C 211.73 28.56 204.61 23.68 193.50 26.89
  Q 190.68 27.71 188.08 30.52
  C 184.49 34.43 184.33 41.34 189.35 43.95
  Q 191.60 45.11 196.04 45.08
  Q 218.85 44.93 239.94 45.04
  C 243.47 45.06 247.26 44.26 248.74 40.72
  Q 250.79 35.81 247.63 31.40
  Q 244.18 26.60 236.80 25.97
  C 227.90 25.22 222.16 30.44 217.95 37.93
  Q 217.49 38.75 217.03 37.93"
/>
<path stroke="#80c4d2" vector-effect="non-scaling-stroke" d="
  M 187.56 53.07
  C 186.42 53.64 185.48 54.71 185.49 56.05
  Q 185.52 62.28 185.48 68.44
  Q 185.47 69.00 186.03 69.00
  L 213.25 69.00
  A 0.25 0.25 0.0 0 0 213.50 68.75
  L 213.50 53.25
  Q 213.50 52.75 213.00 52.75
  L 188.92 52.75
  A 3.06 3.02 31.4 0 0 187.56 53.07"
/>
<path stroke="#80c4d2" vector-effect="non-scaling-stroke" d="
  M 246.00 52.75
  L 222.00 52.75
  Q 221.50 52.75 221.50 53.25
  L 221.50 68.50
  A 0.50 0.50 0.0 0 0 222.00 69.00
  L 248.75 69.00
  Q 249.50 69.00 249.50 68.25
  L 249.50 56.25
  A 3.50 3.50 0.0 0 0 246.00 52.75"
/>
<path stroke="#80c4d2" vector-effect="non-scaling-stroke" d="
  M 188.75 106.00
  L 212.75 106.00
  Q 213.50 106.00 213.50 105.25
  L 213.50 77.25
  Q 213.50 76.75 213.00 76.75
  L 186.00 76.75
  Q 185.50 76.75 185.50 77.25
  L 185.50 102.75
  A 3.25 3.25 0.0 0 0 188.75 106.00"
/>
<path stroke="#80c4d2" vector-effect="non-scaling-stroke" d="
  M 249.50 102.50
  L 249.50 77.25
  Q 249.50 76.75 249.00 76.75
  L 222.00 76.75
  Q 221.50 76.75 221.50 77.25
  L 221.50 105.50
  Q 221.50 106.00 222.00 106.00
  L 246.00 106.00
  A 3.50 3.50 0.0 0 0 249.50 102.50"
/>
<path stroke="#80c4d2" vector-effect="non-scaling-stroke" d="
  M 231.2282 130.9625
  A 0.63 0.63 0.0 0 0 230.3915 130.6563
  L 229.3212 131.1531
  A 0.63 0.63 0.0 0 0 229.0150 131.9898
  L 230.7918 135.8175
  A 0.63 0.63 0.0 0 0 231.6285 136.1237
  L 232.6988 135.6269
  A 0.63 0.63 0.0 0 0 233.0050 134.7902
  L 231.2282 130.9625"
/>
<path stroke="#80c4d2" vector-effect="non-scaling-stroke" d="
  M 227.52 136.30
  Q 227.64 136.17 227.79 136.09
  Q 228.43 135.78 228.13 135.13
  L 226.63 131.98
  Q 226.31 131.29 225.58 131.50
  Q 224.81 131.70 224.25 132.13
  Q 224.03 132.30 224.15 132.55
  L 225.98 136.43
  A 0.49 0.48 -14.5 0 1 225.57 137.12
  L 219.35 137.58
  Q 218.83 137.62 218.78 137.09
  L 218.43 132.70
  Q 218.41 132.49 218.20 132.51
  L 213.79 132.89
  A 0.29 0.28 86.0 0 0 213.53 133.20
  L 213.89 137.47
  Q 213.94 138.07 213.34 138.12
  L 203.45 138.96
  Q 202.90 139.01 202.95 139.56
  L 203.25 142.78
  Q 203.30 143.26 203.78 143.22
  L 213.70 142.36
  A 0.65 0.64 85.2 0 1 214.40 142.96
  L 214.77 147.67
  A 0.49 0.49 0.0 0 1 214.33 148.20
  L 202.38 149.44
  Q 201.78 149.50 201.83 150.11
  L 202.08 153.18
  Q 202.13 153.75 202.69 153.69
  L 214.52 152.44
  Q 215.17 152.37 215.22 153.03
  L 215.94 161.26
  Q 215.99 161.84 216.57 161.74
  Q 218.50 161.40 220.36 161.52
  Q 220.90 161.56 220.86 161.01
  L 220.18 152.36
  Q 220.14 151.85 220.65 151.80
  L 232.38 150.53
  Q 232.74 150.49 232.71 150.13
  L 232.40 146.62
  A 0.36 0.36 0.0 0 0 232.00 146.29
  L 220.42 147.54
  A 0.69 0.69 0.0 0 1 219.65 146.91
  L 219.26 142.46
  Q 219.21 141.88 219.79 141.83
  L 229.49 141.06
  A 0.49 0.49 0.0 0 0 229.94 140.52
  L 229.68 137.42
  Q 229.64 136.86 229.08 136.75
  Q 228.47 136.63 227.79 136.79
  Q 226.82 137.01 227.52 136.30"
/>
<path stroke="#80c4d2" vector-effect="non-scaling-stroke" d="
  M 160.02 138.99
  Q 158.55 138.99 159.86 138.31
  Q 162.59 136.92 165.05 134.74
  Q 165.40 134.42 165.12 134.05
  L 164.15 132.77
  Q 163.76 132.25 163.11 132.25
  L 145.76 132.25
  A 0.50 0.49 -0.0 0 0 145.26 132.74
  L 145.24 134.76
  A 0.51 0.51 0.0 0 0 145.76 135.27
  L 148.47 135.23
  Q 149.65 135.21 148.68 135.89
  L 148.10 136.29
  Q 147.43 136.76 148.13 137.17
  Q 149.24 137.82 150.57 138.29
  Q 150.61 138.31 150.63 138.35
  Q 150.69 138.49 150.66 138.62
  Q 150.57 138.95 150.23 138.95
  L 146.24 139.02
  Q 145.75 139.02 145.75 139.51
  L 145.74 156.50
  Q 145.74 157.01 146.25 157.01
  L 149.50 157.01
  Q 150.00 157.00 150.00 156.50
  L 150.01 151.99
  A 0.25 0.25 0.0 0 1 150.26 151.74
  L 153.25 151.75
  A 0.26 0.25 -0.0 0 1 153.51 152.00
  L 153.48 156.61
  Q 153.48 156.99 153.86 156.99
  L 157.01 157.00
  Q 157.53 157.01 157.52 156.49
  L 157.50 152.25
  A 0.50 0.49 -0.6 0 1 158.00 151.75
  L 160.49 151.75
  Q 160.99 151.75 160.99 152.24
  L 161.00 152.99
  Q 161.00 153.48 160.51 153.49
  L 158.72 153.50
  Q 158.18 153.50 158.21 154.03
  L 158.33 156.25
  A 0.71 0.70 -87.0 0 0 158.92 156.91
  Q 161.12 157.24 163.44 156.75
  A 2.29 2.28 84.1 0 0 165.25 154.51
  L 165.25 139.50
  Q 165.25 139.00 164.75 139.00
  L 160.02 138.99"
/>
<path stroke="#80c4d2" vector-effect="non-scaling-stroke" d="
  M 281.00 146.69
  Q 281.00 145.25 282.32 145.81
  Q 290.06 149.04 294.98 152.32
  A 0.38 0.37 -53.6 0 0 295.49 152.24
  L 298.04 148.99
  Q 298.19 148.80 297.99 148.68
  Q 290.16 143.87 281.59 140.88
  Q 281.00 140.67 281.00 140.05
  L 281.00 132.75
  Q 281.00 132.25 280.50 132.25
  L 276.50 132.25
  Q 276.00 132.25 276.00 132.75
  L 276.00 160.75
  Q 276.00 161.26 276.51 161.26
  L 280.50 161.26
  Q 281.00 161.26 281.00 160.75
  L 281.00 146.69"
/>
<path stroke="#80c4d2" vector-effect="non-scaling-stroke" d="
  M 140.21 141.14
  A 0.45 0.45 0.0 0 0 140.77 141.32
  L 144.03 139.89
  A 0.45 0.45 0.0 0 0 144.22 139.22
  L 140.22 133.23
  A 0.45 0.45 0.0 0 0 139.65 133.07
  L 136.78 134.47
  A 0.45 0.45 0.0 0 0 136.59 135.10
  L 140.21 141.14"
/>
<path stroke="#80c4d2" vector-effect="non-scaling-stroke" d="
  M 180.01 153.99
  L 176.75 154.84
  A 0.49 0.49 0.0 0 0 176.44 155.56
  L 178.96 159.94
  Q 179.17 160.31 179.60 160.26
  Q 180.27 160.18 180.85 159.88
  A 0.91 0.90 -44.0 0 1 181.70 159.89
  Q 181.95 160.03 182.11 160.26
  A 0.72 0.72 0.0 0 0 183.33 160.20
  Q 187.33 152.92 186.69 144.17
  Q 186.66 143.76 187.07 143.73
  L 187.33 143.71
  Q 187.46 143.70 187.47 143.82
  Q 187.92 149.04 190.47 153.33
  Q 190.76 153.82 190.38 154.24
  Q 188.42 156.41 185.72 157.76
  Q 184.97 158.13 185.37 158.87
  L 186.36 160.72
  Q 186.65 161.25 187.21 161.01
  Q 190.08 159.78 192.84 157.34
  A 0.52 0.51 48.6 0 1 193.56 157.39
  Q 195.35 159.36 197.89 160.79
  Q 198.18 160.96 198.37 160.67
  L 200.28 157.68
  Q 200.43 157.43 200.20 157.27
  L 196.32 154.43
  Q 195.80 154.05 196.12 153.49
  Q 199.41 147.64 199.48 140.76
  Q 199.48 140.25 198.97 140.25
  L 187.25 140.25
  Q 187.01 140.25 187.01 140.00
  L 187.00 137.00
  Q 187.00 136.50 187.50 136.50
  L 199.74 136.50
  A 0.25 0.24 -0.0 0 0 199.99 136.26
  L 200.00 133.25
  A 0.25 0.25 0.0 0 0 199.75 133.00
  L 183.55 133.00
  Q 182.90 133.00 182.92 133.66
  Q 183.36 144.56 182.31 151.88
  Q 182.05 153.70 181.32 155.56
  Q 181.09 156.14 180.65 155.71
  Q 180.04 155.13 180.01 153.99"
/>
<path stroke="#80c4d2" vector-effect="non-scaling-stroke" d="
  M 180.01 153.99
  Q 180.50 153.90 180.77 153.57
  Q 181.00 153.28 181.00 152.91
  Q 181.00 143.27 181.01 133.69
  Q 181.01 133.00 180.32 133.00
  L 170.75 133.00
  A 0.50 0.50 0.0 0 0 170.25 133.50
  L 170.25 153.04
  Q 170.25 153.64 170.85 153.66
  L 180.01 153.99"
/>
<path stroke="#80c4d2" vector-effect="non-scaling-stroke" d="
  M 258.44 139.27
  C 257.69 151.35 249.43 155.67 238.46 157.01
  A 0.22 0.22 0.0 0 0 238.28 157.30
  L 239.49 161.02
  Q 239.56 161.25 239.81 161.23
  C 255.99 160.02 263.72 150.71 263.76 135.05
  A 0.55 0.55 0.0 0 0 263.21 134.50
  L 238.25 134.50
  Q 238.00 134.50 238.00 134.75
  L 238.01 138.50
  Q 238.01 138.75 238.25 138.75
  L 257.95 138.75
  Q 258.47 138.75 258.44 139.27"
/>
<path stroke="#80c4d2" vector-effect="non-scaling-stroke" d="
  M 139.25 148.00
  L 139.25 155.23
  A 1.16 1.15 68.0 0 1 138.90 156.06
  Q 137.58 157.30 135.94 158.04
  Q 135.39 158.29 135.62 158.86
  L 136.68 161.52
  Q 136.88 162.03 137.37 161.77
  Q 139.72 160.51 141.59 158.53
  Q 141.97 158.13 142.34 158.54
  Q 144.34 160.79 147.33 161.08
  Q 155.09 161.82 166.59 161.41
  Q 166.86 161.40 166.91 161.13
  L 167.47 158.21
  Q 167.50 158.04 167.32 158.04
  Q 156.89 158.58 146.80 157.98
  A 3.51 3.50 -88.4 0 1 143.50 154.48
  L 143.50 144.75
  Q 143.50 144.00 142.75 144.00
  L 136.88 144.00
  Q 136.25 144.00 136.25 144.63
  L 136.26 146.88
  Q 136.26 147.51 136.88 147.51
  L 138.75 147.50
  Q 139.25 147.49 139.25 148.00"
/>
<path stroke="#80c4d2" vector-effect="non-scaling-stroke" d="
  M 175.26 155.85
  A 0.62 0.62 0.0 0 0 174.90 154.93
  L 172.21 154.19
  A 0.62 0.62 0.0 0 0 171.51 154.47
  L 168.64 159.33
  A 0.62 0.62 0.0 0 0 168.90 160.20
  L 171.22 161.36
  A 0.62 0.62 0.0 0 0 172.03 161.13
  L 175.26 155.85"
/>
<path stroke="#80c4d2" vector-effect="non-scaling-stroke" d="
  M 192.65 37.80
  L 208.56 38.16
  A 0.03 0.03 0.0 0 0 208.59 38.13
  L 208.59 38.09
  A 7.86 4.79 1.3 0 0 200.85 33.12
  L 200.59 33.12
  A 7.86 4.79 1.3 0 0 192.62 37.73
  L 192.62 37.77
  A 0.03 0.03 0.0 0 0 192.65 37.80"
/>
<path stroke="#80c4d2" vector-effect="non-scaling-stroke" d="
  M 226.60 38.16
  L 242.34 37.78
  A 0.11 0.11 0.0 0 0 242.44 37.66
  L 242.44 37.63
  A 7.87 4.72 -1.4 0 0 234.46 33.11
  L 234.24 33.11
  A 7.87 4.72 -1.4 0 0 226.49 38.02
  L 226.49 38.05
  A 0.11 0.11 0.0 0 0 226.60 38.16"
/>
<path stroke="#80c4d2" vector-effect="non-scaling-stroke" d="
  M 151.91 135.56
  L 154.85 137.44
  Q 155.31 137.73 155.77 137.43
  L 158.17 135.88
  Q 159.15 135.25 157.98 135.25
  L 151.99 135.27
  A 0.16 0.16 0.0 0 0 151.91 135.56"
/>
<path stroke="#80c4d2" vector-effect="non-scaling-stroke" d="
  M 153.6609 142.7465
  A 0.73 0.73 0.0 0 0 152.9334 142.0140
  L 150.6735 142.0061
  A 0.73 0.73 0.0 0 0 149.9409 142.7335
  L 149.9391 143.2535
  A 0.73 0.73 0.0 0 0 150.6666 143.9860
  L 152.9265 143.9939
  A 0.73 0.73 0.0 0 0 153.6591 143.2665
  L 153.6609 142.7465"
/>
<path stroke="#80c4d2" vector-effect="non-scaling-stroke" d="
  M 161.0907 142.8066
  A 0.80 0.80 0.0 0 0 160.2935 142.0038
  L 158.1335 141.9962
  A 0.80 0.80 0.0 0 0 157.3307 142.7934
  L 157.3293 143.1934
  A 0.80 0.80 0.0 0 0 158.1265 143.9962
  L 160.2865 144.0038
  A 0.80 0.80 0.0 0 0 161.0893 143.2066
  L 161.0907 142.8066"
/>
<path stroke="#80c4d2" vector-effect="non-scaling-stroke" d="
  M 153.5465 147.2276
  A 0.50 0.50 0.0 0 0 153.0430 146.7311
  L 150.4830 146.7490
  A 0.50 0.50 0.0 0 0 149.9866 147.2524
  L 149.9935 148.2524
  A 0.50 0.50 0.0 0 0 150.4970 148.7489
  L 153.0570 148.7310
  A 0.50 0.50 0.0 0 0 153.5534 148.2276
  L 153.5465 147.2276"
/>
<path stroke="#80c4d2" vector-effect="non-scaling-stroke" d="
  M 161.0199 147.2439
  A 0.47 0.47 0.0 0 0 160.5590 146.7649
  L 157.9794 146.7154
  A 0.47 0.47 0.0 0 0 157.5005 147.1763
  L 157.4801 148.2361
  A 0.47 0.47 0.0 0 0 157.9410 148.7151
  L 160.5206 148.7646
  A 0.47 0.47 0.0 0 0 160.9995 148.3037
  L 161.0199 147.2439"
/>
<path stroke="#80c4d2" vector-effect="non-scaling-stroke" d="
  M 177.0065 136.5052
  A 0.51 0.51 0.0 0 0 176.4948 135.9969
  L 174.7348 136.0031
  A 0.51 0.51 0.0 0 0 174.2266 136.5149
  L 174.2335 138.4948
  A 0.51 0.51 0.0 0 0 174.7452 139.0031
  L 176.5052 138.9969
  A 0.51 0.51 0.0 0 0 177.0134 138.4851
  L 177.0065 136.5052"
/>
<path stroke="#80c4d2" vector-effect="non-scaling-stroke" d="
  M 177.0244 142.1916
  A 0.41 0.41 0.0 0 0 176.6238 141.7724
  L 174.6843 141.7284
  A 0.41 0.41 0.0 0 0 174.2651 142.1290
  L 174.2156 144.3084
  A 0.41 0.41 0.0 0 0 174.6162 144.7276
  L 176.5557 144.7716
  A 0.41 0.41 0.0 0 0 176.9749 144.3710
  L 177.0244 142.1916"
/>
<path stroke="#80c4d2" vector-effect="non-scaling-stroke" d="
  M 177.0239 147.8867
  A 0.36 0.36 0.0 0 0 176.6709 147.5199
  L 174.6313 147.4807
  A 0.36 0.36 0.0 0 0 174.2644 147.8337
  L 174.2161 150.3533
  A 0.36 0.36 0.0 0 0 174.5691 150.7201
  L 176.6087 150.7593
  A 0.36 0.36 0.0 0 0 176.9756 150.4063
  L 177.0239 147.8867"
/>
<path stroke="#80c4d2" vector-effect="non-scaling-stroke" d="
  M 195.01 144.54
  A 0.64 0.64 0.0 0 0 194.39 143.75
  L 191.81 143.75
  A 0.64 0.64 0.0 0 0 191.20 144.56
  L 192.55 149.58
  A 0.64 0.64 0.0 0 0 193.79 149.57
  L 195.01 144.54"
/>
</g>
<path fill="#bdbdbd" d="
  M 29.58 2.00
  L 405.42 2.00
  A 28.08 28.08 0.0 0 1 433.50 30.08
  L 433.50 165.92
  A 28.08 28.08 0.0 0 1 405.42 194.00
  L 29.58 194.00
  A 28.08 28.08 0.0 0 1 1.50 165.92
  L 1.50 30.08
  A 28.08 28.08 0.0 0 1 29.58 2.00
  Z
  M 430.50 31.01
  A 26.01 26.01 0.0 0 0 404.49 5.00
  L 30.51 5.00
  A 26.01 26.01 0.0 0 0 4.50 31.01
  L 4.50 155.99
  A 26.01 26.01 0.0 0 0 30.51 182.00
  L 404.49 182.00
  A 26.01 26.01 0.0 0 0 430.50 155.99
  L 430.50 31.01
  Z"
/>
<path fill="#ffffff" d="
  M 430.50 155.99
  A 26.01 26.01 0.0 0 1 404.49 182.00
  L 30.51 182.00
  A 26.01 26.01 0.0 0 1 4.50 155.99
  L 4.50 31.01
  A 26.01 26.01 0.0 0 1 30.51 5.00
  L 404.49 5.00
  A 26.01 26.01 0.0 0 1 430.50 31.01
  L 430.50 155.99
  Z
  M 217.03 37.93
  C 211.73 28.56 204.61 23.68 193.50 26.89
  Q 190.68 27.71 188.08 30.52
  C 184.49 34.43 184.33 41.34 189.35 43.95
  Q 191.60 45.11 196.04 45.08
  Q 218.85 44.93 239.94 45.04
  C 243.47 45.06 247.26 44.26 248.74 40.72
  Q 250.79 35.81 247.63 31.40
  Q 244.18 26.60 236.80 25.97
  C 227.90 25.22 222.16 30.44 217.95 37.93
  Q 217.49 38.75 217.03 37.93
  Z
  M 187.56 53.07
  C 186.42 53.64 185.48 54.71 185.49 56.05
  Q 185.52 62.28 185.48 68.44
  Q 185.47 69.00 186.03 69.00
  L 213.25 69.00
  A 0.25 0.25 0.0 0 0 213.50 68.75
  L 213.50 53.25
  Q 213.50 52.75 213.00 52.75
  L 188.92 52.75
  A 3.06 3.02 31.4 0 0 187.56 53.07
  Z
  M 246.00 52.75
  L 222.00 52.75
  Q 221.50 52.75 221.50 53.25
  L 221.50 68.50
  A 0.50 0.50 0.0 0 0 222.00 69.00
  L 248.75 69.00
  Q 249.50 69.00 249.50 68.25
  L 249.50 56.25
  A 3.50 3.50 0.0 0 0 246.00 52.75
  Z
  M 188.75 106.00
  L 212.75 106.00
  Q 213.50 106.00 213.50 105.25
  L 213.50 77.25
  Q 213.50 76.75 213.00 76.75
  L 186.00 76.75
  Q 185.50 76.75 185.50 77.25
  L 185.50 102.75
  A 3.25 3.25 0.0 0 0 188.75 106.00
  Z
  M 249.50 102.50
  L 249.50 77.25
  Q 249.50 76.75 249.00 76.75
  L 222.00 76.75
  Q 221.50 76.75 221.50 77.25
  L 221.50 105.50
  Q 221.50 106.00 222.00 106.00
  L 246.00 106.00
  A 3.50 3.50 0.0 0 0 249.50 102.50
  Z
  M 231.2282 130.9625
  A 0.63 0.63 0.0 0 0 230.3915 130.6563
  L 229.3212 131.1531
  A 0.63 0.63 0.0 0 0 229.0150 131.9898
  L 230.7918 135.8175
  A 0.63 0.63 0.0 0 0 231.6285 136.1237
  L 232.6988 135.6269
  A 0.63 0.63 0.0 0 0 233.0050 134.7902
  L 231.2282 130.9625
  Z
  M 227.52 136.30
  Q 227.64 136.17 227.79 136.09
  Q 228.43 135.78 228.13 135.13
  L 226.63 131.98
  Q 226.31 131.29 225.58 131.50
  Q 224.81 131.70 224.25 132.13
  Q 224.03 132.30 224.15 132.55
  L 225.98 136.43
  A 0.49 0.48 -14.5 0 1 225.57 137.12
  L 219.35 137.58
  Q 218.83 137.62 218.78 137.09
  L 218.43 132.70
  Q 218.41 132.49 218.20 132.51
  L 213.79 132.89
  A 0.29 0.28 86.0 0 0 213.53 133.20
  L 213.89 137.47
  Q 213.94 138.07 213.34 138.12
  L 203.45 138.96
  Q 202.90 139.01 202.95 139.56
  L 203.25 142.78
  Q 203.30 143.26 203.78 143.22
  L 213.70 142.36
  A 0.65 0.64 85.2 0 1 214.40 142.96
  L 214.77 147.67
  A 0.49 0.49 0.0 0 1 214.33 148.20
  L 202.38 149.44
  Q 201.78 149.50 201.83 150.11
  L 202.08 153.18
  Q 202.13 153.75 202.69 153.69
  L 214.52 152.44
  Q 215.17 152.37 215.22 153.03
  L 215.94 161.26
  Q 215.99 161.84 216.57 161.74
  Q 218.50 161.40 220.36 161.52
  Q 220.90 161.56 220.86 161.01
  L 220.18 152.36
  Q 220.14 151.85 220.65 151.80
  L 232.38 150.53
  Q 232.74 150.49 232.71 150.13
  L 232.40 146.62
  A 0.36 0.36 0.0 0 0 232.00 146.29
  L 220.42 147.54
  A 0.69 0.69 0.0 0 1 219.65 146.91
  L 219.26 142.46
  Q 219.21 141.88 219.79 141.83
  L 229.49 141.06
  A 0.49 0.49 0.0 0 0 229.94 140.52
  L 229.68 137.42
  Q 229.64 136.86 229.08 136.75
  Q 228.47 136.63 227.79 136.79
  Q 226.82 137.01 227.52 136.30
  Z
  M 160.02 138.99
  Q 158.55 138.99 159.86 138.31
  Q 162.59 136.92 165.05 134.74
  Q 165.40 134.42 165.12 134.05
  L 164.15 132.77
  Q 163.76 132.25 163.11 132.25
  L 145.76 132.25
  A 0.50 0.49 -0.0 0 0 145.26 132.74
  L 145.24 134.76
  A 0.51 0.51 0.0 0 0 145.76 135.27
  L 148.47 135.23
  Q 149.65 135.21 148.68 135.89
  L 148.10 136.29
  Q 147.43 136.76 148.13 137.17
  Q 149.24 137.82 150.57 138.29
  Q 150.61 138.31 150.63 138.35
  Q 150.69 138.49 150.66 138.62
  Q 150.57 138.95 150.23 138.95
  L 146.24 139.02
  Q 145.75 139.02 145.75 139.51
  L 145.74 156.50
  Q 145.74 157.01 146.25 157.01
  L 149.50 157.01
  Q 150.00 157.00 150.00 156.50
  L 150.01 151.99
  A 0.25 0.25 0.0 0 1 150.26 151.74
  L 153.25 151.75
  A 0.26 0.25 -0.0 0 1 153.51 152.00
  L 153.48 156.61
  Q 153.48 156.99 153.86 156.99
  L 157.01 157.00
  Q 157.53 157.01 157.52 156.49
  L 157.50 152.25
  A 0.50 0.49 -0.6 0 1 158.00 151.75
  L 160.49 151.75
  Q 160.99 151.75 160.99 152.24
  L 161.00 152.99
  Q 161.00 153.48 160.51 153.49
  L 158.72 153.50
  Q 158.18 153.50 158.21 154.03
  L 158.33 156.25
  A 0.71 0.70 -87.0 0 0 158.92 156.91
  Q 161.12 157.24 163.44 156.75
  A 2.29 2.28 84.1 0 0 165.25 154.51
  L 165.25 139.50
  Q 165.25 139.00 164.75 139.00
  L 160.02 138.99
  Z
  M 281.00 146.69
  Q 281.00 145.25 282.32 145.81
  Q 290.06 149.04 294.98 152.32
  A 0.38 0.37 -53.6 0 0 295.49 152.24
  L 298.04 148.99
  Q 298.19 148.80 297.99 148.68
  Q 290.16 143.87 281.59 140.88
  Q 281.00 140.67 281.00 140.05
  L 281.00 132.75
  Q 281.00 132.25 280.50 132.25
  L 276.50 132.25
  Q 276.00 132.25 276.00 132.75
  L 276.00 160.75
  Q 276.00 161.26 276.51 161.26
  L 280.50 161.26
  Q 281.00 161.26 281.00 160.75
  L 281.00 146.69
  Z
  M 140.21 141.14
  A 0.45 0.45 0.0 0 0 140.77 141.32
  L 144.03 139.89
  A 0.45 0.45 0.0 0 0 144.22 139.22
  L 140.22 133.23
  A 0.45 0.45 0.0 0 0 139.65 133.07
  L 136.78 134.47
  A 0.45 0.45 0.0 0 0 136.59 135.10
  L 140.21 141.14
  Z
  M 180.01 153.99
  L 176.75 154.84
  A 0.49 0.49 0.0 0 0 176.44 155.56
  L 178.96 159.94
  Q 179.17 160.31 179.60 160.26
  Q 180.27 160.18 180.85 159.88
  A 0.91 0.90 -44.0 0 1 181.70 159.89
  Q 181.95 160.03 182.11 160.26
  A 0.72 0.72 0.0 0 0 183.33 160.20
  Q 187.33 152.92 186.69 144.17
  Q 186.66 143.76 187.07 143.73
  L 187.33 143.71
  Q 187.46 143.70 187.47 143.82
  Q 187.92 149.04 190.47 153.33
  Q 190.76 153.82 190.38 154.24
  Q 188.42 156.41 185.72 157.76
  Q 184.97 158.13 185.37 158.87
  L 186.36 160.72
  Q 186.65 161.25 187.21 161.01
  Q 190.08 159.78 192.84 157.34
  A 0.52 0.51 48.6 0 1 193.56 157.39
  Q 195.35 159.36 197.89 160.79
  Q 198.18 160.96 198.37 160.67
  L 200.28 157.68
  Q 200.43 157.43 200.20 157.27
  L 196.32 154.43
  Q 195.80 154.05 196.12 153.49
  Q 199.41 147.64 199.48 140.76
  Q 199.48 140.25 198.97 140.25
  L 187.25 140.25
  Q 187.01 140.25 187.01 140.00
  L 187.00 137.00
  Q 187.00 136.50 187.50 136.50
  L 199.74 136.50
  A 0.25 0.24 -0.0 0 0 199.99 136.26
  L 200.00 133.25
  A 0.25 0.25 0.0 0 0 199.75 133.00
  L 183.55 133.00
  Q 182.90 133.00 182.92 133.66
  Q 183.36 144.56 182.31 151.88
  Q 182.05 153.70 181.32 155.56
  Q 181.09 156.14 180.65 155.71
  Q 180.04 155.13 180.01 153.99
  Q 180.50 153.90 180.77 153.57
  Q 181.00 153.28 181.00 152.91
  Q 181.00 143.27 181.01 133.69
  Q 181.01 133.00 180.32 133.00
  L 170.75 133.00
  A 0.50 0.50 0.0 0 0 170.25 133.50
  L 170.25 153.04
  Q 170.25 153.64 170.85 153.66
  L 180.01 153.99
  Z
  M 258.44 139.27
  C 257.69 151.35 249.43 155.67 238.46 157.01
  A 0.22 0.22 0.0 0 0 238.28 157.30
  L 239.49 161.02
  Q 239.56 161.25 239.81 161.23
  C 255.99 160.02 263.72 150.71 263.76 135.05
  A 0.55 0.55 0.0 0 0 263.21 134.50
  L 238.25 134.50
  Q 238.00 134.50 238.00 134.75
  L 238.01 138.50
  Q 238.01 138.75 238.25 138.75
  L 257.95 138.75
  Q 258.47 138.75 258.44 139.27
  Z
  M 139.25 148.00
  L 139.25 155.23
  A 1.16 1.15 68.0 0 1 138.90 156.06
  Q 137.58 157.30 135.94 158.04
  Q 135.39 158.29 135.62 158.86
  L 136.68 161.52
  Q 136.88 162.03 137.37 161.77
  Q 139.72 160.51 141.59 158.53
  Q 141.97 158.13 142.34 158.54
  Q 144.34 160.79 147.33 161.08
  Q 155.09 161.82 166.59 161.41
  Q 166.86 161.40 166.91 161.13
  L 167.47 158.21
  Q 167.50 158.04 167.32 158.04
  Q 156.89 158.58 146.80 157.98
  A 3.51 3.50 -88.4 0 1 143.50 154.48
  L 143.50 144.75
  Q 143.50 144.00 142.75 144.00
  L 136.88 144.00
  Q 136.25 144.00 136.25 144.63
  L 136.26 146.88
  Q 136.26 147.51 136.88 147.51
  L 138.75 147.50
  Q 139.25 147.49 139.25 148.00
  Z
  M 175.26 155.85
  A 0.62 0.62 0.0 0 0 174.90 154.93
  L 172.21 154.19
  A 0.62 0.62 0.0 0 0 171.51 154.47
  L 168.64 159.33
  A 0.62 0.62 0.0 0 0 168.90 160.20
  L 171.22 161.36
  A 0.62 0.62 0.0 0 0 172.03 161.13
  L 175.26 155.85
  Z"
/>
<path fill="#0188a5" d="
  M 217.95 37.93
  C 222.16 30.44 227.90 25.22 236.80 25.97
  Q 244.18 26.60 247.63 31.40
  Q 250.79 35.81 248.74 40.72
  C 247.26 44.26 243.47 45.06 239.94 45.04
  Q 218.85 44.93 196.04 45.08
  Q 191.60 45.11 189.35 43.95
  C 184.33 41.34 184.49 34.43 188.08 30.52
  Q 190.68 27.71 193.50 26.89
  C 204.61 23.68 211.73 28.56 217.03 37.93
  Q 217.49 38.75 217.95 37.93
  Z
  M 192.65 37.80
  L 208.56 38.16
  A 0.03 0.03 0.0 0 0 208.59 38.13
  L 208.59 38.09
  A 7.86 4.79 1.3 0 0 200.85 33.12
  L 200.59 33.12
  A 7.86 4.79 1.3 0 0 192.62 37.73
  L 192.62 37.77
  A 0.03 0.03 0.0 0 0 192.65 37.80
  Z
  M 226.60 38.16
  L 242.34 37.78
  A 0.11 0.11 0.0 0 0 242.44 37.66
  L 242.44 37.63
  A 7.87 4.72 -1.4 0 0 234.46 33.11
  L 234.24 33.11
  A 7.87 4.72 -1.4 0 0 226.49 38.02
  L 226.49 38.05
  A 0.11 0.11 0.0 0 0 226.60 38.16
  Z"
/>
<path fill="#ffffff" d="
  M 192.65 37.80
  A 0.03 0.03 0.0 0 1 192.62 37.77
  L 192.62 37.73
  A 7.86 4.79 1.3 0 1 200.59 33.12
  L 200.85 33.12
  A 7.86 4.79 1.3 0 1 208.59 38.09
  L 208.59 38.13
  A 0.03 0.03 0.0 0 1 208.56 38.16
  L 192.65 37.80
  Z"
/>
<path fill="#ffffff" d="
  M 226.60 38.16
  A 0.11 0.11 0.0 0 1 226.49 38.05
  L 226.49 38.02
  A 7.87 4.72 -1.4 0 1 234.24 33.11
  L 234.46 33.11
  A 7.87 4.72 -1.4 0 1 242.44 37.63
  L 242.44 37.66
  A 0.11 0.11 0.0 0 1 242.34 37.78
  L 226.60 38.16
  Z"
/>
<path fill="#0188a5" d="
  M 187.56 53.07
  A 3.06 3.02 31.4 0 1 188.92 52.75
  L 213.00 52.75
  Q 213.50 52.75 213.50 53.25
  L 213.50 68.75
  A 0.25 0.25 0.0 0 1 213.25 69.00
  L 186.03 69.00
  Q 185.47 69.00 185.48 68.44
  Q 185.52 62.28 185.49 56.05
  C 185.48 54.71 186.42 53.64 187.56 53.07
  Z"
/>
<path fill="#0188a5" d="
  M 246.00 52.75
  A 3.50 3.50 0.0 0 1 249.50 56.25
  L 249.50 68.25
  Q 249.50 69.00 248.75 69.00
  L 222.00 69.00
  A 0.50 0.50 0.0 0 1 221.50 68.50
  L 221.50 53.25
  Q 221.50 52.75 222.00 52.75
  L 246.00 52.75
  Z"
/>
<path fill="#0188a5" d="
  M 188.75 106.00
  A 3.25 3.25 0.0 0 1 185.50 102.75
  L 185.50 77.25
  Q 185.50 76.75 186.00 76.75
  L 213.00 76.75
  Q 213.50 76.75 213.50 77.25
  L 213.50 105.25
  Q 213.50 106.00 212.75 106.00
  L 188.75 106.00
  Z"
/>
<path fill="#0188a5" d="
  M 249.50 102.50
  A 3.50 3.50 0.0 0 1 246.00 106.00
  L 222.00 106.00
  Q 221.50 106.00 221.50 105.50
  L 221.50 77.25
  Q 221.50 76.75 222.00 76.75
  L 249.00 76.75
  Q 249.50 76.75 249.50 77.25
  L 249.50 102.50
  Z"
/>
<rect fill="#0188a5" x="-1.22" y="-2.74" transform="translate(231.01,133.39) rotate(-24.9)" width="2.44" height="5.48" rx="0.63"/>
<path fill="#0188a5" d="
  M 227.79 136.79
  Q 228.47 136.63 229.08 136.75
  Q 229.64 136.86 229.68 137.42
  L 229.94 140.52
  A 0.49 0.49 0.0 0 1 229.49 141.06
  L 219.79 141.83
  Q 219.21 141.88 219.26 142.46
  L 219.65 146.91
  A 0.69 0.69 0.0 0 0 220.42 147.54
  L 232.00 146.29
  A 0.36 0.36 0.0 0 1 232.40 146.62
  L 232.71 150.13
  Q 232.74 150.49 232.38 150.53
  L 220.65 151.80
  Q 220.14 151.85 220.18 152.36
  L 220.86 161.01
  Q 220.90 161.56 220.36 161.52
  Q 218.50 161.40 216.57 161.74
  Q 215.99 161.84 215.94 161.26
  L 215.22 153.03
  Q 215.17 152.37 214.52 152.44
  L 202.69 153.69
  Q 202.13 153.75 202.08 153.18
  L 201.83 150.11
  Q 201.78 149.50 202.38 149.44
  L 214.33 148.20
  A 0.49 0.49 0.0 0 0 214.77 147.67
  L 214.40 142.96
  A 0.65 0.64 85.2 0 0 213.70 142.36
  L 203.78 143.22
  Q 203.30 143.26 203.25 142.78
  L 202.95 139.56
  Q 202.90 139.01 203.45 138.96
  L 213.34 138.12
  Q 213.94 138.07 213.89 137.47
  L 213.53 133.20
  A 0.29 0.28 86.0 0 1 213.79 132.89
  L 218.20 132.51
  Q 218.41 132.49 218.43 132.70
  L 218.78 137.09
  Q 218.83 137.62 219.35 137.58
  L 225.57 137.12
  A 0.49 0.48 -14.5 0 0 225.98 136.43
  L 224.15 132.55
  Q 224.03 132.30 224.25 132.13
  Q 224.81 131.70 225.58 131.50
  Q 226.31 131.29 226.63 131.98
  L 228.13 135.13
  Q 228.43 135.78 227.79 136.09
  Q 227.64 136.17 227.52 136.30
  Q 226.82 137.01 227.79 136.79
  Z"
/>
<path fill="#0188a5" d="
  M 160.02 138.99
  L 164.75 139.00
  Q 165.25 139.00 165.25 139.50
  L 165.25 154.51
  A 2.29 2.28 84.1 0 1 163.44 156.75
  Q 161.12 157.24 158.92 156.91
  A 0.71 0.70 -87.0 0 1 158.33 156.25
  L 158.21 154.03
  Q 158.18 153.50 158.72 153.50
  L 160.51 153.49
  Q 161.00 153.48 161.00 152.99
  L 160.99 152.24
  Q 160.99 151.75 160.49 151.75
  L 158.00 151.75
  A 0.50 0.49 -0.6 0 0 157.50 152.25
  L 157.52 156.49
  Q 157.53 157.01 157.01 157.00
  L 153.86 156.99
  Q 153.48 156.99 153.48 156.61
  L 153.51 152.00
  A 0.26 0.25 0.0 0 0 153.25 151.75
  L 150.26 151.74
  A 0.25 0.25 0.0 0 0 150.01 151.99
  L 150.00 156.50
  Q 150.00 157.00 149.50 157.01
  L 146.25 157.01
  Q 145.74 157.01 145.74 156.50
  L 145.75 139.51
  Q 145.75 139.02 146.24 139.02
  L 150.23 138.95
  Q 150.57 138.95 150.66 138.62
  Q 150.69 138.49 150.63 138.35
  Q 150.61 138.31 150.57 138.29
  Q 149.24 137.82 148.13 137.17
  Q 147.43 136.76 148.10 136.29
  L 148.68 135.89
  Q 149.65 135.21 148.47 135.23
  L 145.76 135.27
  A 0.51 0.51 0.0 0 1 145.24 134.76
  L 145.26 132.74
  A 0.50 0.49 -0.0 0 1 145.76 132.25
  L 163.11 132.25
  Q 163.76 132.25 164.15 132.77
  L 165.12 134.05
  Q 165.40 134.42 165.05 134.74
  Q 162.59 136.92 159.86 138.31
  Q 158.55 138.99 160.02 138.99
  Z
  M 151.91 135.56
  L 154.85 137.44
  Q 155.31 137.73 155.77 137.43
  L 158.17 135.88
  Q 159.15 135.25 157.98 135.25
  L 151.99 135.27
  A 0.16 0.16 0.0 0 0 151.91 135.56
  Z
  M 153.6609 142.7465
  A 0.73 0.73 0.0 0 0 152.9334 142.0140
  L 150.6735 142.0061
  A 0.73 0.73 0.0 0 0 149.9409 142.7335
  L 149.9391 143.2535
  A 0.73 0.73 0.0 0 0 150.6666 143.9860
  L 152.9265 143.9939
  A 0.73 0.73 0.0 0 0 153.6591 143.2665
  L 153.6609 142.7465
  Z
  M 161.0907 142.8066
  A 0.80 0.80 0.0 0 0 160.2935 142.0038
  L 158.1335 141.9962
  A 0.80 0.80 0.0 0 0 157.3307 142.7934
  L 157.3293 143.1934
  A 0.80 0.80 0.0 0 0 158.1265 143.9962
  L 160.2865 144.0038
  A 0.80 0.80 0.0 0 0 161.0893 143.2066
  L 161.0907 142.8066
  Z
  M 153.5465 147.2276
  A 0.50 0.50 0.0 0 0 153.0430 146.7311
  L 150.4830 146.7490
  A 0.50 0.50 0.0 0 0 149.9866 147.2524
  L 149.9935 148.2524
  A 0.50 0.50 0.0 0 0 150.4970 148.7489
  L 153.0570 148.7310
  A 0.50 0.50 0.0 0 0 153.5534 148.2276
  L 153.5465 147.2276
  Z
  M 161.0199 147.2439
  A 0.47 0.47 0.0 0 0 160.5590 146.7649
  L 157.9794 146.7154
  A 0.47 0.47 0.0 0 0 157.5005 147.1763
  L 157.4801 148.2361
  A 0.47 0.47 0.0 0 0 157.9410 148.7151
  L 160.5206 148.7646
  A 0.47 0.47 0.0 0 0 160.9995 148.3037
  L 161.0199 147.2439
  Z"
/>
<path fill="#0188a5" d="
  M 281.00 146.69
  L 281.00 160.75
  Q 281.00 161.26 280.50 161.26
  L 276.51 161.26
  Q 276.00 161.26 276.00 160.75
  L 276.00 132.75
  Q 276.00 132.25 276.50 132.25
  L 280.50 132.25
  Q 281.00 132.25 281.00 132.75
  L 281.00 140.05
  Q 281.00 140.67 281.59 140.88
  Q 290.16 143.87 297.99 148.68
  Q 298.19 148.80 298.04 148.99
  L 295.49 152.24
  A 0.38 0.37 -53.6 0 1 294.98 152.32
  Q 290.06 149.04 282.32 145.81
  Q 281.00 145.25 281.00 146.69
  Z"
/>
<path fill="#0188a5" d="
  M 140.21 141.14
  L 136.59 135.10
  A 0.45 0.45 0.0 0 1 136.78 134.47
  L 139.65 133.07
  A 0.45 0.45 0.0 0 1 140.22 133.23
  L 144.22 139.22
  A 0.45 0.45 0.0 0 1 144.03 139.89
  L 140.77 141.32
  A 0.45 0.45 0.0 0 1 140.21 141.14
  Z"
/>
<path fill="#0188a5" d="
  M 180.01 153.99
  L 170.85 153.66
  Q 170.25 153.64 170.25 153.04
  L 170.25 133.50
  A 0.50 0.50 0.0 0 1 170.75 133.00
  L 180.32 133.00
  Q 181.01 133.00 181.01 133.69
  Q 181.00 143.27 181.00 152.91
  Q 181.00 153.28 180.77 153.57
  Q 180.50 153.90 180.01 153.99
  Z
  M 177.0065 136.5052
  A 0.51 0.51 0.0 0 0 176.4948 135.9969
  L 174.7348 136.0031
  A 0.51 0.51 0.0 0 0 174.2266 136.5149
  L 174.2335 138.4948
  A 0.51 0.51 0.0 0 0 174.7452 139.0031
  L 176.5052 138.9969
  A 0.51 0.51 0.0 0 0 177.0134 138.4851
  L 177.0065 136.5052
  Z
  M 177.0244 142.1916
  A 0.41 0.41 0.0 0 0 176.6238 141.7724
  L 174.6843 141.7284
  A 0.41 0.41 0.0 0 0 174.2651 142.1290
  L 174.2156 144.3084
  A 0.41 0.41 0.0 0 0 174.6162 144.7276
  L 176.5557 144.7716
  A 0.41 0.41 0.0 0 0 176.9749 144.3710
  L 177.0244 142.1916
  Z
  M 177.0239 147.8867
  A 0.36 0.36 0.0 0 0 176.6709 147.5199
  L 174.6313 147.4807
  A 0.36 0.36 0.0 0 0 174.2644 147.8337
  L 174.2161 150.3533
  A 0.36 0.36 0.0 0 0 174.5691 150.7201
  L 176.6087 150.7593
  A 0.36 0.36 0.0 0 0 176.9756 150.4063
  L 177.0239 147.8867
  Z"
/>
<path fill="#0188a5" d="
  M 180.01 153.99
  Q 180.04 155.13 180.65 155.71
  Q 181.09 156.14 181.32 155.56
  Q 182.05 153.70 182.31 151.88
  Q 183.36 144.56 182.92 133.66
  Q 182.90 133.00 183.55 133.00
  L 199.75 133.00
  A 0.25 0.25 0.0 0 1 200.00 133.25
  L 199.99 136.26
  A 0.25 0.24 -0.0 0 1 199.74 136.50
  L 187.50 136.50
  Q 187.00 136.50 187.00 137.00
  L 187.01 140.00
  Q 187.01 140.25 187.25 140.25
  L 198.97 140.25
  Q 199.48 140.25 199.48 140.76
  Q 199.41 147.64 196.12 153.49
  Q 195.80 154.05 196.32 154.43
  L 200.20 157.27
  Q 200.43 157.43 200.28 157.68
  L 198.37 160.67
  Q 198.18 160.96 197.89 160.79
  Q 195.35 159.36 193.56 157.39
  A 0.52 0.51 48.6 0 0 192.84 157.34
  Q 190.08 159.78 187.21 161.01
  Q 186.65 161.25 186.36 160.72
  L 185.37 158.87
  Q 184.97 158.13 185.72 157.76
  Q 188.42 156.41 190.38 154.24
  Q 190.76 153.82 190.47 153.33
  Q 187.92 149.04 187.47 143.82
  Q 187.46 143.70 187.33 143.71
  L 187.07 143.73
  Q 186.66 143.76 186.69 144.17
  Q 187.33 152.92 183.33 160.20
  A 0.72 0.72 0.0 0 1 182.11 160.26
  Q 181.95 160.03 181.70 159.89
  A 0.91 0.90 -44.0 0 0 180.85 159.88
  Q 180.27 160.18 179.60 160.26
  Q 179.17 160.31 178.96 159.94
  L 176.44 155.56
  A 0.49 0.49 0.0 0 1 176.75 154.84
  L 180.01 153.99
  Z
  M 195.01 144.54
  A 0.64 0.64 0.0 0 0 194.39 143.75
  L 191.81 143.75
  A 0.64 0.64 0.0 0 0 191.20 144.56
  L 192.55 149.58
  A 0.64 0.64 0.0 0 0 193.79 149.57
  L 195.01 144.54
  Z"
/>
<path fill="#0188a5" d="
  M 257.95 138.75
  L 238.25 138.75
  Q 238.01 138.75 238.01 138.50
  L 238.00 134.75
  Q 238.00 134.50 238.25 134.50
  L 263.21 134.50
  A 0.55 0.55 0.0 0 1 263.76 135.05
  C 263.72 150.71 255.99 160.02 239.81 161.23
  Q 239.56 161.25 239.49 161.02
  L 238.28 157.30
  A 0.22 0.22 0.0 0 1 238.46 157.01
  C 249.43 155.67 257.69 151.35 258.44 139.27
  Q 258.47 138.75 257.95 138.75
  Z"
/>
<path fill="#ffffff" d="
  M 151.91 135.56
  A 0.16 0.16 0.0 0 1 151.99 135.27
  L 157.98 135.25
  Q 159.15 135.25 158.17 135.88
  L 155.77 137.43
  Q 155.31 137.73 154.85 137.44
  L 151.91 135.56
  Z"
/>
<rect fill="#ffffff" x="-1.39" y="-1.50" transform="translate(175.62,137.50) rotate(-0.2)" width="2.78" height="3.00" rx="0.51"/>
<rect fill="#ffffff" x="-1.38" y="-1.50" transform="translate(175.62,143.25) rotate(1.3)" width="2.76" height="3.00" rx="0.41"/>
<rect fill="#ffffff" x="-1.86" y="-0.99" transform="translate(151.80,143.00) rotate(0.2)" width="3.72" height="1.98" rx="0.73"/>
<rect fill="#ffffff" x="-1.88" y="-1.00" transform="translate(159.21,143.00) rotate(0.2)" width="3.76" height="2.00" rx="0.80"/>
<path fill="#ffffff" d="
  M 195.01 144.54
  L 193.79 149.57
  A 0.64 0.64 0.0 0 1 192.55 149.58
  L 191.20 144.56
  A 0.64 0.64 0.0 0 1 191.81 143.75
  L 194.39 143.75
  A 0.64 0.64 0.0 0 1 195.01 144.54
  Z"
/>
<path fill="#0188a5" d="
  M 138.75 147.50
  L 136.88 147.51
  Q 136.26 147.51 136.26 146.88
  L 136.25 144.63
  Q 136.25 144.00 136.88 144.00
  L 142.75 144.00
  Q 143.50 144.00 143.50 144.75
  L 143.50 154.48
  A 3.51 3.50 -88.4 0 0 146.80 157.98
  Q 156.89 158.58 167.32 158.04
  Q 167.50 158.04 167.47 158.21
  L 166.91 161.13
  Q 166.86 161.40 166.59 161.41
  Q 155.09 161.82 147.33 161.08
  Q 144.34 160.79 142.34 158.54
  Q 141.97 158.13 141.59 158.53
  Q 139.72 160.51 137.37 161.77
  Q 136.88 162.03 136.68 161.52
  L 135.62 158.86
  Q 135.39 158.29 135.94 158.04
  Q 137.58 157.30 138.90 156.06
  A 1.16 1.15 68.0 0 0 139.25 155.23
  L 139.25 148.00
  Q 139.25 147.49 138.75 147.50
  Z"
/>
<rect fill="#ffffff" x="-1.78" y="-1.00" transform="translate(151.77,147.74) rotate(-0.4)" width="3.56" height="2.00" rx="0.50"/>
<rect fill="#ffffff" x="-1.76" y="-1.00" transform="translate(159.25,147.74) rotate(1.1)" width="3.52" height="2.00" rx="0.47"/>
<rect fill="#ffffff" x="-1.38" y="-1.62" transform="translate(175.62,149.12) rotate(1.1)" width="2.76" height="3.24" rx="0.36"/>
<path fill="#0188a5" d="
  M 175.26 155.85
  L 172.03 161.13
  A 0.62 0.62 0.0 0 1 171.22 161.36
  L 168.90 160.20
  A 0.62 0.62 0.0 0 1 168.64 159.33
  L 171.51 154.47
  A 0.62 0.62 0.0 0 1 172.21 154.19
  L 174.90 154.93
  A 0.62 0.62 0.0 0 1 175.26 155.85
  Z"
/>
</svg>
