<svg id="svg_icon" xmlns="http://www.w3.org/2000/svg" viewBox="0 0 24 24">
  <defs>
    <style>
      .cls-1 {
        fill: none;
      }
    </style>
  </defs>
  <title>025</title>
  <g id="_025" data-name="025">
    <rect class="cls-1" x="0.01" width="24" height="24"/>
    <path id="歯科" d="M20,9c-.21,2.38-1.63,6.09-2.87,9.35-.32.84-.35,2.58-.66,3.16-.42.77-2.5.68-2.8-.14a31.2,31.2,0,0,0-.88-3.2,1,1,0,0,0-1.47,0,31.2,31.2,0,0,0-.88,3.2c-.3.82-2.38.91-2.79.14-.32-.58-.35-2.42-.67-3.26C5.7,15,4.27,11.34,4.06,9,3.69,4.89,5.3,2.46,7.75,2.08c2.13-.33,3.36.45,4.26.56.89-.11,2.12-.89,4.25-.56C18.71,2.46,20.32,4.89,20,9Z"/>
  </g>
</svg>
