<svg xmlns="http://www.w3.org/2000/svg" viewBox="0 0 24 24">
  <defs>
    <style>
      .cls-1 {
        fill: none;
      }
    </style>
  </defs>
  <title>040</title>
  <g id="svg_icon">
    <g id="_040" data-name="040">
      <rect class="cls-1" width="24" height="24"/>
      <g>
        <rect x="11.5" y="18.14" width="1" height="3.86"/>
        <path d="M18.49,9A6.4,6.4,0,0,0,12,2,6.4,6.4,0,0,0,5.51,9c.14,3.24,2.49,6.41,5.65,6.9l-.72,1.2h3.12l-.72-1.2C16,15.45,18.35,12.28,18.49,9ZM10.93,5.21A3.06,3.06,0,0,0,9,7.26a.78.78,0,0,1-.73.51.8.8,0,0,1-.26,0,.73.73,0,0,1-.48-1,4.57,4.57,0,0,1,2.88-3,.78.78,0,0,1,1,.45A.74.74,0,0,1,10.93,5.21Z"/>
      </g>
    </g>
  </g>
</svg>
